  0
SECTION
  2
HEADER
  9
$ACADVER
  1
AC1009
  9
$DWGCODEPAGE
  3
ansi_1252
  9
$INSBASE
 10
0.0
 20
0.0
 30
0.0
  9
$EXTMIN
 10
-41.37108802437683
 20
-83.29005089764178
 30
0.0
  9
$EXTMAX
 10
65.44338962538384
 20
-44.65461697205997
 30
0.0
  9
$LIMMIN
 10
0.0
 20
0.0
  9
$LIMMAX
 10
12.0
 20
9.0
  9
$ORTHOMODE
 70
     0
  9
$REGENMODE
 70
     1
  9
$FILLMODE
 70
     1
  9
$QTEXTMODE
 70
     0
  9
$MIRRTEXT
 70
     1
  9
$DRAGMODE
 70
     2
  9
$LTSCALE
 40
1.0
  9
$OSMODE
 70
    37
  9
$ATTMODE
 70
     1
  9
$TEXTSIZE
 40
0.2
  9
$TRACEWID
 40
0.05
  9
$TEXTSTYLE
  7
STANDARD
  9
$CLAYER
  8
DEFAULT
  9
$CELTYPE
  6
BYLAYER
  9
$CECOLOR
 62
   256
  9
$DIMSCALE
 40
1.0
  9
$DIMASZ
 40
0.18
  9
$DIMEXO
 40
0.0625
  9
$DIMDLI
 40
0.38
  9
$DIMRND
 40
0.0
  9
$DIMDLE
 40
0.0
  9
$DIMEXE
 40
0.18
  9
$DIMTP
 40
0.0
  9
$DIMTM
 40
0.0
  9
$DIMTXT
 40
0.18
  9
$DIMCEN
 40
0.09
  9
$DIMTSZ
 40
0.0
  9
$DIMTOL
 70
     0
  9
$DIMLIM
 70
     0
  9
$DIMTIH
 70
     1
  9
$DIMTOH
 70
     1
  9
$DIMSE1
 70
     0
  9
$DIMSE2
 70
     0
  9
$DIMTAD
 70
     0
  9
$DIMZIN
 70
     0
  9
$DIMBLK
  1

  9
$DIMASO
 70
     1
  9
$DIMSHO
 70
     1
  9
$DIMPOST
  1

  9
$DIMAPOST
  1

  9
$DIMALT
 70
     0
  9
$DIMALTD
 70
     2
  9
$DIMALTF
 40
25.4
  9
$DIMLFAC
 40
1.0
  9
$DIMTOFL
 70
     0
  9
$DIMTVP
 40
0.0
  9
$DIMTIX
 70
     0
  9
$DIMSOXD
 70
     0
  9
$DIMSAH
 70
     0
  9
$DIMBLK1
  1

  9
$DIMBLK2
  1

  9
$DIMSTYLE
  2
STANDARD
  9
$DIMCLRD
 70
     0
  9
$DIMCLRE
 70
     0
  9
$DIMCLRT
 70
     0
  9
$DIMTFAC
 40
1.0
  9
$DIMGAP
 40
0.09
  9
$LUNITS
 70
     2
  9
$LUPREC
 70
     4
  9
$SKETCHINC
 40
0.1
  9
$FILLETRAD
 40
0.5
  9
$AUNITS
 70
     0
  9
$AUPREC
 70
     0
  9
$MENU
  1
.
  9
$ELEVATION
 40
0.0
  9
$PELEVATION
 40
0.0
  9
$THICKNESS
 40
0.0
  9
$LIMCHECK
 70
     0
  9
$CHAMFERA
 40
0.0
  9
$CHAMFERB
 40
0.0
  9
$SKPOLY
 70
     0
  9
$TDCREATE
 40
2458296.493728472
  9
$TDUPDATE
 40
2458296.493742245
  9
$TDINDWG
 40
0.0000000116
  9
$TDUSRTIMER
 40
0.0000000116
  9
$USRTIMER
 70
     1
  9
$ANGBASE
 50
0.0
  9
$ANGDIR
 70
     0
  9
$PDMODE
 70
     0
  9
$PDSIZE
 40
0.0
  9
$PLINEWID
 40
0.0
  9
$COORDS
 70
     1
  9
$SPLFRAME
 70
     0
  9
$SPLINETYPE
 70
     6
  9
$SPLINESEGS
 70
     8
  9
$ATTDIA
 70
     0
  9
$ATTREQ
 70
     1
  9
$HANDLING
 70
     1
  9
$HANDSEED
  5
565
  9
$SURFTAB1
 70
     6
  9
$SURFTAB2
 70
     6
  9
$SURFTYPE
 70
     6
  9
$SURFU
 70
     6
  9
$SURFV
 70
     6
  9
$UCSNAME
  2

  9
$UCSORG
 10
0.0
 20
0.0
 30
0.0
  9
$UCSXDIR
 10
1.0
 20
0.0
 30
0.0
  9
$UCSYDIR
 10
0.0
 20
1.0
 30
0.0
  9
$PUCSNAME
  2

  9
$PUCSORG
 10
0.0
 20
0.0
 30
0.0
  9
$PUCSXDIR
 10
1.0
 20
0.0
 30
0.0
  9
$PUCSYDIR
 10
0.0
 20
1.0
 30
0.0
  9
$USERI1
 70
     0
  9
$USERI2
 70
     0
  9
$USERI3
 70
     0
  9
$USERI4
 70
     0
  9
$USERI5
 70
     0
  9
$USERR1
 40
0.0
  9
$USERR2
 40
0.0
  9
$USERR3
 40
0.0
  9
$USERR4
 40
0.0
  9
$USERR5
 40
0.0
  9
$WORLDVIEW
 70
     1
  9
$SHADEDGE
 70
     3
  9
$SHADEDIF
 70
    70
  9
$TILEMODE
 70
     1
  9
$MAXACTVP
 70
    64
  9
$PLIMCHECK
 70
     0
  9
$PEXTMIN
 10
1.000000000000000E+20
 20
1.000000000000000E+20
 30
1.000000000000000E+20
  9
$PEXTMAX
 10
-1.000000000000000E+20
 20
-1.000000000000000E+20
 30
-1.000000000000000E+20
  9
$PLIMMIN
 10
0.0
 20
0.0
  9
$PLIMMAX
 10
12.0
 20
9.0
  9
$UNITMODE
 70
     0
  9
$VISRETAIN
 70
     1
  9
$PLINEGEN
 70
     0
  9
$PSLTSCALE
 70
     1
  0
ENDSEC
  0
SECTION
  2
TABLES
  0
TABLE
  2
VPORT
 70
     1
  0
VPORT
  2
*ACTIVE
 70
     0
 10
0.0
 20
0.0
 11
1.0
 21
1.0
 12
12.03615080050351
 22
-63.97233393485087
 13
0.0
 23
0.0
 14
0.5
 24
0.5
 15
0.5
 25
0.5
 16
0.0
 26
0.0
 36
1.0
 17
0.0
 27
0.0
 37
0.0
 40
39.40814260409344
 41
2.764676536453632
 42
50.0
 43
0.0
 44
0.0
 50
0.0
 51
0.0
 71
     0
 72
   100
 73
     1
 74
     3
 75
     0
 76
     0
 77
     0
 78
     0
  0
ENDTAB
  0
TABLE
  2
LTYPE
 70
     1
  0
LTYPE
  2
CONTINUOUS
 70
     0
  3
Solid line
 72
    65
 73
     0
 40
0.0
  0
ENDTAB
  0
TABLE
  2
LAYER
 70
     2
  0
LAYER
  2
0
 70
     0
 62
     7
  6
CONTINUOUS
  0
LAYER
  2
DEFAULT
 70
     0
 62
     7
  6
CONTINUOUS
  0
ENDTAB
  0
TABLE
  2
STYLE
 70
     1
  0
STYLE
  2
STANDARD
 70
     0
 40
0.0
 41
1.0
 50
0.0
 71
     0
 42
0.2
  3
txt
  4

  0
ENDTAB
  0
TABLE
  2
VIEW
 70
     0
  0
ENDTAB
  0
TABLE
  2
UCS
 70
     0
  0
ENDTAB
  0
TABLE
  2
APPID
 70
     1
  0
APPID
  2
ACAD
 70
     0
  0
ENDTAB
  0
TABLE
  2
DIMSTYLE
 70
     1
  0
DIMSTYLE
  2
STANDARD
 70
     0
  3

  4

  5

  6

  7

 40
1.0
 41
0.18
 42
0.0625
 43
0.38
 44
0.18
 45
0.0
 46
0.0
 47
0.0
 48
0.0
140
0.18
141
0.09
142
0.0
143
25.4
144
1.0
145
0.0
146
1.0
147
0.09
 71
     0
 72
     0
 73
     1
 74
     1
 75
     0
 76
     0
 77
     0
 78
     0
170
     0
171
     2
172
     0
173
     0
174
     0
175
     0
176
     0
177
     0
178
     0
  0
ENDTAB
  0
ENDSEC
  0
SECTION
  2
BLOCKS
  0
BLOCK
  8
0
  2
$MODEL_SPACE
 70
     0
 10
0.0
 20
0.0
 30
0.0
  3
$MODEL_SPACE
  1

  0
ENDBLK
  5
21
  8
0
  0
BLOCK
 67
     1
  8
0
  2
$PAPER_SPACE
 70
     0
 10
0.0
 20
0.0
 30
0.0
  3
$PAPER_SPACE
  1

  0
ENDBLK
  5
1D
 67
     1
  8
0
  0
ENDSEC
  0
SECTION
  2
ENTITIES
  0
LINE
  5
6B
  8
DEFAULT
 10
39.44346342747953
 20
-70.20394166735292
 30
0.0
 11
34.44346342747953
 21
-70.20394166735292
 31
0.0
  0
LINE
  5
6C
  8
DEFAULT
 10
34.44346342747953
 20
-70.20394166735292
 30
0.0
 11
34.44346342747953
 21
-72.90394166735291
 31
0.0
  0
LINE
  5
6D
  8
DEFAULT
 10
34.44346342747953
 20
-72.90394166735291
 30
0.0
 11
39.44346342747953
 21
-72.90394166735291
 31
0.0
  0
LINE
  5
6E
  8
DEFAULT
 10
39.44346342747953
 20
-72.90394166735291
 30
0.0
 11
39.44346342747953
 21
-70.20394166735292
 31
0.0
  0
LINE
  5
6F
  8
DEFAULT
 10
49.44346342747953
 20
-70.20394166735292
 30
0.0
 11
44.44346342747953
 21
-70.20394166735292
 31
0.0
  0
LINE
  5
70
  8
DEFAULT
 10
44.44346342747953
 20
-70.20394166735292
 30
0.0
 11
44.44346342747953
 21
-72.90394166735291
 31
0.0
  0
LINE
  5
71
  8
DEFAULT
 10
44.44346342747953
 20
-72.90394166735291
 30
0.0
 11
49.44346342747953
 21
-72.90394166735291
 31
0.0
  0
LINE
  5
72
  8
DEFAULT
 10
49.44346342747953
 20
-72.90394166735291
 30
0.0
 11
49.44346342747953
 21
-70.20394166735292
 31
0.0
  0
LINE
  5
73
  8
DEFAULT
 10
59.44346342747953
 20
-70.20394166735292
 30
0.0
 11
54.44346342747953
 21
-70.20394166735292
 31
0.0
  0
LINE
  5
74
  8
DEFAULT
 10
54.44346342747953
 20
-70.20394166735292
 30
0.0
 11
54.44346342747953
 21
-72.90394166735291
 31
0.0
  0
LINE
  5
75
  8
DEFAULT
 10
54.44346342747953
 20
-72.90394166735291
 30
0.0
 11
59.44346342747953
 21
-72.90394166735291
 31
0.0
  0
LINE
  5
76
  8
DEFAULT
 10
59.44346342747953
 20
-72.90394166735291
 30
0.0
 11
59.44346342747953
 21
-70.20394166735292
 31
0.0
  0
LINE
  5
77
  8
DEFAULT
 10
54.44346342747953
 20
-57.20394166735292
 30
0.0
 11
59.44346342747953
 21
-57.20394166735292
 31
0.0
  0
LINE
  5
78
  8
DEFAULT
 10
59.44346342747953
 20
-57.20394166735292
 30
0.0
 11
59.44346342747953
 21
-54.50394166735292
 31
0.0
  0
LINE
  5
79
  8
DEFAULT
 10
59.44346342747953
 20
-54.50394166735292
 30
0.0
 11
54.44346342747953
 21
-54.50394166735292
 31
0.0
  0
LINE
  5
7A
  8
DEFAULT
 10
54.44346342747953
 20
-54.50394166735292
 30
0.0
 11
54.44346342747953
 21
-57.20394166735292
 31
0.0
  0
LINE
  5
7B
  8
DEFAULT
 10
44.44346342747953
 20
-57.20394166735292
 30
0.0
 11
49.44346342747953
 21
-57.20394166735292
 31
0.0
  0
LINE
  5
7C
  8
DEFAULT
 10
49.44346342747953
 20
-57.20394166735292
 30
0.0
 11
49.44346342747953
 21
-54.50394166735292
 31
0.0
  0
LINE
  5
7D
  8
DEFAULT
 10
49.44346342747953
 20
-54.50394166735292
 30
0.0
 11
44.44346342747953
 21
-54.50394166735292
 31
0.0
  0
LINE
  5
7E
  8
DEFAULT
 10
44.44346342747953
 20
-54.50394166735292
 30
0.0
 11
44.44346342747953
 21
-57.20394166735292
 31
0.0
  0
LINE
  5
7F
  8
DEFAULT
 10
34.44346342747953
 20
-57.20394166735292
 30
0.0
 11
39.44346342747953
 21
-57.20394166735292
 31
0.0
  0
LINE
  5
80
  8
DEFAULT
 10
39.44346342747953
 20
-57.20394166735292
 30
0.0
 11
39.44346342747953
 21
-54.50394166735292
 31
0.0
  0
LINE
  5
81
  8
DEFAULT
 10
39.44346342747953
 20
-54.50394166735292
 30
0.0
 11
34.44346342747953
 21
-54.50394166735292
 31
0.0
  0
LINE
  5
82
  8
DEFAULT
 10
34.44346342747953
 20
-54.50394166735292
 30
0.0
 11
34.44346342747953
 21
-57.20394166735292
 31
0.0
  0
CIRCLE
  5
83
  8
DEFAULT
 10
34.44346342747952
 20
-51.70394166735291
 30
0.0
 40
1.5
  0
CIRCLE
  5
84
  8
DEFAULT
 10
58.44346342747951
 20
-75.70394166735292
 30
0.0
 40
1.500000000000007
  0
CIRCLE
  5
85
  8
DEFAULT
 10
34.44346342747954
 20
-75.70394166735292
 30
0.0
 40
1.500000000000007
  0
CIRCLE
  5
86
  8
DEFAULT
 10
46.44346342747952
 20
-63.70394166735291
 30
0.0
 40
4.000000000000007
  0
CIRCLE
  5
87
  8
DEFAULT
 10
58.44346342747951
 20
-51.70394166735292
 30
0.0
 40
1.5
  0
LINE
  5
88
  8
DEFAULT
 10
41.90494482429524
 20
-78.70394166735292
 30
0.0
 11
41.90494482429524
 21
-78.746428556707
 31
0.0
  0
LINE
  5
89
  8
DEFAULT
 10
41.90494482429524
 20
-78.746428556707
 30
0.0
 11
41.02783874434049
 21
-78.81077272755634
 31
0.0
  0
LINE
  5
8A
  8
DEFAULT
 10
41.02783874434049
 20
-78.81077272755634
 30
0.0
 11
40.15335079919834
 21
-78.90418622560112
 31
0.0
  0
LINE
  5
8B
  8
DEFAULT
 10
40.15335079919834
 20
-78.90418622560112
 30
0.0
 11
39.28244414627759
 21
-79.02656616560058
 31
0.0
  0
LINE
  5
8C
  8
DEFAULT
 10
39.28244414627759
 20
-79.02656616560058
 30
0.0
 11
38.41607799856657
 21
-79.1777777587946
 31
0.0
  0
LINE
  5
8D
  8
DEFAULT
 10
38.41607799856657
 20
-79.1777777587946
 30
0.0
 11
37.55520656815996
 21
-79.35765446135935
 31
0.0
  0
LINE
  5
8E
  8
DEFAULT
 10
37.55520656815996
 20
-79.35765446135935
 30
0.0
 11
36.70077801529347
 21
-79.565998157838
 31
0.0
  0
LINE
  5
8F
  8
DEFAULT
 10
36.70077801529347
 20
-79.565998157838
 30
0.0
 11
35.85373340404416
 21
-79.80257937934424
 31
0.0
  0
LINE
  5
90
  8
DEFAULT
 10
35.85373340404416
 20
-79.80257937934424
 30
0.0
 11
35.01500566584627
 21
-80.06713755629846
 31
0.0
  0
LINE
  5
91
  8
DEFAULT
 10
35.01500566584627
 20
-80.06713755629846
 30
0.0
 11
34.18551857196444
 21
-80.35938130541788
 31
0.0
  0
LINE
  5
92
  8
DEFAULT
 10
34.18551857196444
 20
-80.35938130541788
 30
0.0
 11
33.36618571605586
 21
-80.67898875064499
 31
0.0
  0
LINE
  5
93
  8
DEFAULT
 10
33.36618571605586
 20
-80.67898875064499
 30
0.0
 11
32.55790950794199
 21
-81.02560787766043
 31
0.0
  0
LINE
  5
94
  8
DEFAULT
 10
32.55790950794199
 20
-81.02560787766043
 30
0.0
 11
31.76158017969806
 21
-81.3988569215902
 31
0.0
  0
LINE
  5
95
  8
DEFAULT
 10
31.76158017969806
 20
-81.3988569215902
 30
0.0
 11
31.66796916913476
 21
-81.44266138442026
 31
0.0
  0
LINE
  5
96
  8
DEFAULT
 10
31.66796916913476
 20
-81.44266138442026
 30
0.0
 11
31.5729048264129
 21
-81.48321533620518
 31
0.0
  0
LINE
  5
97
  8
DEFAULT
 10
31.5729048264129
 20
-81.48321533620518
 30
0.0
 11
31.47649998078409
 21
-81.5204706445759
 31
0.0
  0
LINE
  5
98
  8
DEFAULT
 10
31.47649998078409
 20
-81.5204706445759
 30
0.0
 11
31.37886905250592
 21
-81.55438309223241
 31
0.0
  0
LINE
  5
99
  8
DEFAULT
 10
31.37886905250592
 20
-81.55438309223241
 30
0.0
 11
31.28012791703974
 21
-81.5849124294241
 31
0.0
  0
LINE
  5
9A
  8
DEFAULT
 10
31.28012791703974
 20
-81.5849124294241
 30
0.0
 11
31.18039376752126
 21
-81.612022421721
 31
0.0
  0
LINE
  5
9B
  8
DEFAULT
 10
31.18039376752126
 20
-81.612022421721
 30
0.0
 11
31.07978497566722
 21
-81.6356808930195
 31
0.0
  0
LINE
  5
9C
  8
DEFAULT
 10
31.07978497566722
 20
-81.6356808930195
 30
0.0
 11
30.97842095128326
 21
-81.65585976373124
 31
0.0
  0
LINE
  5
9D
  8
DEFAULT
 10
30.97842095128326
 20
-81.65585976373124
 30
0.0
 11
30.87642200053975
 21
-81.67253508411002
 31
0.0
  0
LINE
  5
9E
  8
DEFAULT
 10
30.87642200053975
 20
-81.67253508411002
 30
0.0
 11
30.77390918318365
 21
-81.68568706267713
 31
0.0
  0
LINE
  5
9F
  8
DEFAULT
 10
30.77390918318365
 20
-81.68568706267713
 30
0.0
 11
30.67100416885609
 21
-81.6953000897112
 31
0.0
  0
LINE
  5
A0
  8
DEFAULT
 10
30.67100416885609
 20
-81.6953000897112
 30
0.0
 11
30.56782909268597
 21
-81.70136275577507
 31
0.0
  0
LINE
  5
A1
  8
DEFAULT
 10
30.56782909268597
 20
-81.70136275577507
 30
0.0
 11
30.46450641033115
 21
-81.70386786525725
 31
0.0
  0
LINE
  5
A2
  8
DEFAULT
 10
30.46450641033115
 20
-81.70386786525725
 30
0.0
 11
30.36115875263922
 21
-81.70281244491227
 31
0.0
  0
LINE
  5
A3
  8
DEFAULT
 10
30.36115875263922
 20
-81.70281244491227
 30
0.0
 11
30.25790878010031
 21
-81.69819774738949
 31
0.0
  0
LINE
  5
A4
  8
DEFAULT
 10
30.25790878010031
 20
-81.69819774738949
 30
0.0
 11
30.15487903726472
 21
-81.69002924974637
 31
0.0
  0
LINE
  5
A5
  8
DEFAULT
 10
30.15487903726472
 20
-81.69002924974637
 30
0.0
 11
30.05219180729819
 21
-81.6783166469479
 31
0.0
  0
LINE
  5
A6
  8
DEFAULT
 10
30.05219180729819
 20
-81.6783166469479
 30
0.0
 11
29.94996896684736
 21
-81.66307384035996
 31
0.0
  0
LINE
  5
A7
  8
DEFAULT
 10
29.94996896684736
 20
-81.66307384035996
 30
0.0
 11
29.84833184138774
 21
-81.64431892125009
 31
0.0
  0
LINE
  5
A8
  8
DEFAULT
 10
29.84833184138774
 20
-81.64431892125009
 30
0.0
 11
29.74740106122583
 21
-81.62207414931554
 31
0.0
  0
LINE
  5
A9
  8
DEFAULT
 10
29.74740106122583
 20
-81.62207414931554
 30
0.0
 11
29.64729641832634
 21
-81.59636592626377
 31
0.0
  0
LINE
  5
AA
  8
DEFAULT
 10
29.64729641832634
 20
-81.59636592626377
 30
0.0
 11
29.54813672413442
 21
-81.56722476447712
 31
0.0
  0
LINE
  5
AB
  8
DEFAULT
 10
29.54813672413442
 20
-81.56722476447712
 30
0.0
 11
29.45003966856157
 21
-81.53468525079833
 31
0.0
  0
LINE
  5
AC
  8
DEFAULT
 10
29.45003966856157
 20
-81.53468525079833
 30
0.0
 11
29.35312168030283
 21
-81.49878600548047
 31
0.0
  0
LINE
  5
AD
  8
DEFAULT
 10
29.35312168030283
 20
-81.49878600548047
 30
0.0
 11
29.25749778865064
 21
-81.45956963634967
 31
0.0
  0
LINE
  5
AE
  8
DEFAULT
 10
29.25749778865064
 20
-81.45956963634967
 30
0.0
 11
29.16328148696983
 21
-81.41708268823496
 31
0.0
  0
LINE
  5
AF
  8
DEFAULT
 10
29.16328148696983
 20
-81.41708268823496
 30
0.0
 11
29.07058459799542
 21
-81.37137558772552
 31
0.0
  0
LINE
  5
B0
  8
DEFAULT
 10
29.07058459799542
 20
-81.37137558772552
 30
0.0
 11
28.97951714111334
 21
-81.32250258332081
 31
0.0
  0
LINE
  5
B1
  8
DEFAULT
 10
28.97951714111334
 20
-81.32250258332081
 30
0.0
 11
28.89018720178139
 21
-81.27052168104447
 31
0.0
  0
LINE
  5
B2
  8
DEFAULT
 10
28.89018720178139
 20
-81.27052168104447
 30
0.0
 11
28.80270080324564
 21
-81.21549457559856
 31
0.0
  0
LINE
  5
B3
  8
DEFAULT
 10
28.80270080324564
 20
-81.21549457559856
 30
0.0
 11
28.71716178070432
 21
-81.1574865771398
 31
0.0
  0
LINE
  5
B4
  8
DEFAULT
 10
28.71716178070432
 20
-81.1574865771398
 30
0.0
 11
28.63367165806871
 21
-81.09656653376487
 31
0.0
  0
LINE
  5
B5
  8
DEFAULT
 10
28.63367165806871
 20
-81.09656653376487
 30
0.0
 11
28.55232952746718
 21
-81.03280674979632
 31
0.0
  0
LINE
  5
B6
  8
DEFAULT
 10
28.55232952746718
 20
-81.03280674979632
 30
0.0
 11
28.4732319316355
 21
-80.96628289996664
 31
0.0
  0
LINE
  5
B7
  8
DEFAULT
 10
28.4732319316355
 20
-80.96628289996664
 30
0.0
 11
28.39647274933288
 21
-80.89707393960207
 31
0.0
  0
LINE
  5
B8
  8
DEFAULT
 10
28.39647274933288
 20
-80.89707393960207
 30
0.0
 11
28.32214308391989
 21
-80.82526201091255
 31
0.0
  0
LINE
  5
B9
  8
DEFAULT
 10
28.32214308391989
 20
-80.82526201091255
 30
0.0
 11
28.25033115523039
 21
-80.75093234549958
 31
0.0
  0
LINE
  5
BA
  8
DEFAULT
 10
28.25033115523039
 20
-80.75093234549958
 30
0.0
 11
28.18112219486581
 21
-80.67417316319695
 31
0.0
  0
LINE
  5
BB
  8
DEFAULT
 10
28.18112219486581
 20
-80.67417316319695
 30
0.0
 11
28.11459834503614
 21
-80.59507556736527
 31
0.0
  0
LINE
  5
BC
  8
DEFAULT
 10
28.11459834503614
 20
-80.59507556736527
 30
0.0
 11
28.05083856106758
 21
-80.51373343676374
 31
0.0
  0
LINE
  5
BD
  8
DEFAULT
 10
28.05083856106758
 20
-80.51373343676374
 30
0.0
 11
27.98991851769265
 21
-80.43024331412813
 31
0.0
  0
LINE
  5
BE
  8
DEFAULT
 10
27.98991851769265
 20
-80.43024331412813
 30
0.0
 11
27.93191051923391
 21
-80.34470429158682
 31
0.0
  0
LINE
  5
BF
  8
DEFAULT
 10
27.93191051923391
 20
-80.34470429158682
 30
0.0
 11
27.87688341378799
 21
-80.25721789305106
 31
0.0
  0
LINE
  5
C0
  8
DEFAULT
 10
27.87688341378799
 20
-80.25721789305106
 30
0.0
 11
27.82490251151164
 21
-80.1678879537191
 31
0.0
  0
LINE
  5
C1
  8
DEFAULT
 10
27.82490251151164
 20
-80.1678879537191
 30
0.0
 11
27.77602950710694
 21
-80.07682049683703
 31
0.0
  0
LINE
  5
C2
  8
DEFAULT
 10
27.77602950710694
 20
-80.07682049683703
 30
0.0
 11
27.73032240659751
 21
-79.98412360786263
 31
0.0
  0
LINE
  5
C3
  8
DEFAULT
 10
27.73032240659751
 20
-79.98412360786263
 30
0.0
 11
27.68783545848278
 21
-79.88990730618181
 31
0.0
  0
LINE
  5
C4
  8
DEFAULT
 10
27.68783545848278
 20
-79.88990730618181
 30
0.0
 11
27.64861908935198
 21
-79.79428341452963
 31
0.0
  0
LINE
  5
C5
  8
DEFAULT
 10
27.64861908935198
 20
-79.79428341452963
 30
0.0
 11
27.61271984403414
 21
-79.69736542627088
 31
0.0
  0
LINE
  5
C6
  8
DEFAULT
 10
27.61271984403414
 20
-79.69736542627088
 30
0.0
 11
27.58018033035534
 21
-79.59926837069804
 31
0.0
  0
LINE
  5
C7
  8
DEFAULT
 10
27.58018033035534
 20
-79.59926837069804
 30
0.0
 11
27.55103916856868
 21
-79.5001086765061
 31
0.0
  0
LINE
  5
C8
  8
DEFAULT
 10
27.55103916856868
 20
-79.5001086765061
 30
0.0
 11
27.52533094551692
 21
-79.40000403360662
 31
0.0
  0
LINE
  5
C9
  8
DEFAULT
 10
27.52533094551692
 20
-79.40000403360662
 30
0.0
 11
27.50308617358237
 21
-79.29907325344472
 31
0.0
  0
LINE
  5
CA
  8
DEFAULT
 10
27.50308617358237
 20
-79.29907325344472
 30
0.0
 11
27.4843312544725
 21
-79.19743612798509
 31
0.0
  0
LINE
  5
CB
  8
DEFAULT
 10
27.4843312544725
 20
-79.19743612798509
 30
0.0
 11
27.46908844788456
 21
-79.09521328753425
 31
0.0
  0
LINE
  5
CC
  8
DEFAULT
 10
27.46908844788456
 20
-79.09521328753425
 30
0.0
 11
27.45737584508609
 21
-78.99252605756773
 31
0.0
  0
LINE
  5
CD
  8
DEFAULT
 10
27.45737584508609
 20
-78.99252605756773
 30
0.0
 11
27.44920734744297
 21
-78.88949631473214
 31
0.0
  0
LINE
  5
CE
  8
DEFAULT
 10
27.44920734744297
 20
-78.88949631473214
 30
0.0
 11
27.44459264992019
 21
-78.78624634219324
 31
0.0
  0
LINE
  5
CF
  8
DEFAULT
 10
27.44459264992019
 20
-78.78624634219324
 30
0.0
 11
27.44353722957521
 21
-78.6828986845013
 31
0.0
  0
LINE
  5
D0
  8
DEFAULT
 10
27.44353722957521
 20
-78.6828986845013
 30
0.0
 11
27.4460423390574
 21
-78.57957600214648
 31
0.0
  0
LINE
  5
D1
  8
DEFAULT
 10
27.4460423390574
 20
-78.57957600214648
 30
0.0
 11
27.45210500512126
 21
-78.47640092597635
 31
0.0
  0
LINE
  5
D2
  8
DEFAULT
 10
27.45210500512126
 20
-78.47640092597635
 30
0.0
 11
27.46171803215533
 21
-78.37349591164879
 31
0.0
  0
LINE
  5
D3
  8
DEFAULT
 10
27.46171803215533
 20
-78.37349591164879
 30
0.0
 11
27.47487001072243
 21
-78.2709830942927
 31
0.0
  0
LINE
  5
D4
  8
DEFAULT
 10
27.47487001072243
 20
-78.2709830942927
 30
0.0
 11
27.49154533110122
 21
-78.1689841435492
 31
0.0
  0
LINE
  5
D5
  8
DEFAULT
 10
27.49154533110122
 20
-78.1689841435492
 30
0.0
 11
27.51172420181297
 21
-78.06762011916523
 31
0.0
  0
LINE
  5
D6
  8
DEFAULT
 10
27.51172420181297
 20
-78.06762011916523
 30
0.0
 11
27.53538267311147
 21
-77.96701132731118
 31
0.0
  0
LINE
  5
D7
  8
DEFAULT
 10
27.53538267311147
 20
-77.96701132731118
 30
0.0
 11
27.56249266540837
 21
-77.86727717779272
 31
0.0
  0
LINE
  5
D8
  8
DEFAULT
 10
27.56249266540837
 20
-77.86727717779272
 30
0.0
 11
27.59302200260005
 21
-77.76853604232653
 31
0.0
  0
LINE
  5
D9
  8
DEFAULT
 10
27.59302200260005
 20
-77.76853604232653
 30
0.0
 11
27.62693445025657
 21
-77.67090511404837
 31
0.0
  0
LINE
  5
DA
  8
DEFAULT
 10
27.62693445025657
 20
-77.67090511404837
 30
0.0
 11
27.66418975862729
 21
-77.57450026841956
 31
0.0
  0
LINE
  5
DB
  8
DEFAULT
 10
27.66418975862729
 20
-77.57450026841956
 30
0.0
 11
27.70474371041221
 21
-77.47943592569769
 31
0.0
  0
LINE
  5
DC
  8
DEFAULT
 10
27.70474371041221
 20
-77.47943592569769
 30
0.0
 11
27.74854817324225
 21
-77.38582491513438
 31
0.0
  0
LINE
  5
DD
  8
DEFAULT
 10
27.74854817324225
 20
-77.38582491513438
 30
0.0
 11
28.11424215689904
 21
-76.60632034021049
 31
0.0
  0
LINE
  5
DE
  8
DEFAULT
 10
28.11424215689904
 20
-76.60632034021049
 30
0.0
 11
28.45441925090554
 21
-75.81534687875724
 31
0.0
  0
LINE
  5
DF
  8
DEFAULT
 10
28.45441925090554
 20
-75.81534687875724
 30
0.0
 11
28.76872033313886
 21
-75.01373955486542
 31
0.0
  0
LINE
  5
E0
  8
DEFAULT
 10
28.76872033313886
 20
-75.01373955486542
 30
0.0
 11
29.05681359856607
 21
-74.20234461870577
 31
0.0
  0
LINE
  5
E1
  8
DEFAULT
 10
29.05681359856607
 20
-74.20234461870577
 30
0.0
 11
29.31839490952801
 21
-73.3820186531497
 31
0.0
  0
LINE
  5
E2
  8
DEFAULT
 10
29.31839490952801
 20
-73.3820186531497
 30
0.0
 11
29.55318811681486
 21
-72.55362766948197
 31
0.0
  0
LINE
  5
E3
  8
DEFAULT
 10
29.55318811681486
 20
-72.55362766948197
 30
0.0
 11
29.76094535119462
 21
-71.7180461931597
 31
0.0
  0
LINE
  5
E4
  8
DEFAULT
 10
29.76094535119462
 20
-71.7180461931597
 30
0.0
 11
29.94144728508654
 21
-70.87615634058317
 31
0.0
  0
LINE
  5
E5
  8
DEFAULT
 10
29.94144728508654
 20
-70.87615634058317
 30
0.0
 11
30.0945033641034
 21
-70.02884688785292
 31
0.0
  0
LINE
  5
E6
  8
DEFAULT
 10
30.0945033641034
 20
-70.02884688785292
 30
0.0
 11
30.21995200821826
 21
-69.1770123324962
 31
0.0
  0
LINE
  5
E7
  8
DEFAULT
 10
30.21995200821826
 20
-69.1770123324962
 30
0.0
 11
30.3176607823431
 21
-68.32155194915336
 31
0.0
  0
LINE
  5
E8
  8
DEFAULT
 10
30.3176607823431
 20
-68.32155194915336
 30
0.0
 11
30.38752653613944
 21
-67.46336884022118
 31
0.0
  0
LINE
  5
E9
  8
DEFAULT
 10
30.38752653613944
 20
-67.46336884022118
 30
0.0
 11
30.42947551291329
 21
-66.60336898245511
 31
0.0
  0
LINE
  5
EA
  8
DEFAULT
 10
30.42947551291329
 20
-66.60336898245511
 30
0.0
 11
30.44346342747952
 21
-65.74246027053721
 31
0.0
  0
LINE
  5
EB
  8
DEFAULT
 10
30.44346342747952
 20
-65.74246027053721
 30
0.0
 11
30.44346342747953
 21
-61.66542306416864
 31
0.0
  0
LINE
  5
EC
  8
DEFAULT
 10
30.44346342747953
 20
-61.66542306416864
 30
0.0
 11
30.4294755129133
 21
-60.80451435225073
 31
0.0
  0
LINE
  5
ED
  8
DEFAULT
 10
30.4294755129133
 20
-60.80451435225073
 30
0.0
 11
30.38752653613944
 21
-59.94451449448466
 31
0.0
  0
LINE
  5
EE
  8
DEFAULT
 10
30.38752653613944
 20
-59.94451449448466
 30
0.0
 11
30.3176607823431
 21
-59.08633138555248
 31
0.0
  0
LINE
  5
EF
  8
DEFAULT
 10
30.3176607823431
 20
-59.08633138555248
 30
0.0
 11
30.21995200821827
 21
-58.23087100220965
 31
0.0
  0
LINE
  5
F0
  8
DEFAULT
 10
30.21995200821827
 20
-58.23087100220965
 30
0.0
 11
30.0945033641034
 21
-57.37903644685291
 31
0.0
  0
LINE
  5
F1
  8
DEFAULT
 10
30.0945033641034
 20
-57.37903644685291
 30
0.0
 11
29.94144728508654
 21
-56.53172699412268
 31
0.0
  0
LINE
  5
F2
  8
DEFAULT
 10
29.94144728508654
 20
-56.53172699412268
 30
0.0
 11
29.76094535119463
 21
-55.68983714154614
 31
0.0
  0
LINE
  5
F3
  8
DEFAULT
 10
29.76094535119463
 20
-55.68983714154614
 30
0.0
 11
29.55318811681487
 21
-54.85425566522387
 31
0.0
  0
LINE
  5
F4
  8
DEFAULT
 10
29.55318811681487
 20
-54.85425566522387
 30
0.0
 11
29.31839490952801
 21
-54.02586468155614
 31
0.0
  0
LINE
  5
F5
  8
DEFAULT
 10
29.31839490952801
 20
-54.02586468155614
 30
0.0
 11
29.05681359856608
 21
-53.20553871600007
 31
0.0
  0
LINE
  5
F6
  8
DEFAULT
 10
29.05681359856608
 20
-53.20553871600007
 30
0.0
 11
28.76872033313887
 21
-52.39414377984042
 31
0.0
  0
LINE
  5
F7
  8
DEFAULT
 10
28.76872033313887
 20
-52.39414377984042
 30
0.0
 11
28.45441925090554
 21
-51.5925364559486
 31
0.0
  0
LINE
  5
F8
  8
DEFAULT
 10
28.45441925090554
 20
-51.5925364559486
 30
0.0
 11
28.11424215689903
 21
-50.80156299449536
 31
0.0
  0
LINE
  5
F9
  8
DEFAULT
 10
28.11424215689903
 20
-50.80156299449536
 30
0.0
 11
27.74854817324224
 21
-50.02205841957147
 31
0.0
  0
LINE
  5
FA
  8
DEFAULT
 10
27.74854817324224
 20
-50.02205841957147
 30
0.0
 11
27.70474371041221
 21
-49.92844740900815
 31
0.0
  0
LINE
  5
FB
  8
DEFAULT
 10
27.70474371041221
 20
-49.92844740900815
 30
0.0
 11
27.66418975862729
 21
-49.83338306628628
 31
0.0
  0
LINE
  5
FC
  8
DEFAULT
 10
27.66418975862729
 20
-49.83338306628628
 30
0.0
 11
27.62693445025657
 21
-49.73697822065747
 31
0.0
  0
LINE
  5
FD
  8
DEFAULT
 10
27.62693445025657
 20
-49.73697822065747
 30
0.0
 11
27.59302200260005
 21
-49.63934729237931
 31
0.0
  0
LINE
  5
FE
  8
DEFAULT
 10
27.59302200260005
 20
-49.63934729237931
 30
0.0
 11
27.56249266540837
 21
-49.54060615691314
 31
0.0
  0
LINE
  5
FF
  8
DEFAULT
 10
27.56249266540837
 20
-49.54060615691314
 30
0.0
 11
27.53538267311147
 21
-49.44087200739464
 31
0.0
  0
LINE
  5
100
  8
DEFAULT
 10
27.53538267311147
 20
-49.44087200739464
 30
0.0
 11
27.51172420181297
 21
-49.3402632155406
 31
0.0
  0
LINE
  5
101
  8
DEFAULT
 10
27.51172420181297
 20
-49.3402632155406
 30
0.0
 11
27.49154533110122
 21
-49.23889919115665
 31
0.0
  0
LINE
  5
102
  8
DEFAULT
 10
27.49154533110122
 20
-49.23889919115665
 30
0.0
 11
27.47487001072243
 21
-49.13690024041313
 31
0.0
  0
LINE
  5
103
  8
DEFAULT
 10
27.47487001072243
 20
-49.13690024041313
 30
0.0
 11
27.46171803215533
 21
-49.03438742305703
 31
0.0
  0
LINE
  5
104
  8
DEFAULT
 10
27.46171803215533
 20
-49.03438742305703
 30
0.0
 11
27.45210500512126
 21
-48.93148240872948
 31
0.0
  0
LINE
  5
105
  8
DEFAULT
 10
27.45210500512126
 20
-48.93148240872948
 30
0.0
 11
27.4460423390574
 21
-48.82830733255935
 31
0.0
  0
LINE
  5
106
  8
DEFAULT
 10
27.4460423390574
 20
-48.82830733255935
 30
0.0
 11
27.44353722957521
 21
-48.72498465020454
 31
0.0
  0
LINE
  5
107
  8
DEFAULT
 10
27.44353722957521
 20
-48.72498465020454
 30
0.0
 11
27.44459264992019
 21
-48.6216369925126
 31
0.0
  0
LINE
  5
108
  8
DEFAULT
 10
27.44459264992019
 20
-48.6216369925126
 30
0.0
 11
27.44920734744297
 21
-48.51838701997368
 31
0.0
  0
LINE
  5
109
  8
DEFAULT
 10
27.44920734744297
 20
-48.51838701997368
 30
0.0
 11
27.45737584508609
 21
-48.41535727713811
 31
0.0
  0
LINE
  5
10A
  8
DEFAULT
 10
27.45737584508609
 20
-48.41535727713811
 30
0.0
 11
27.46908844788455
 21
-48.31267004717157
 31
0.0
  0
LINE
  5
10B
  8
DEFAULT
 10
27.46908844788455
 20
-48.31267004717157
 30
0.0
 11
27.4843312544725
 21
-48.21044720672075
 31
0.0
  0
LINE
  5
10C
  8
DEFAULT
 10
27.4843312544725
 20
-48.21044720672075
 30
0.0
 11
27.50308617358236
 21
-48.10881008126113
 31
0.0
  0
LINE
  5
10D
  8
DEFAULT
 10
27.50308617358236
 20
-48.10881008126113
 30
0.0
 11
27.52533094551692
 21
-48.00787930109922
 31
0.0
  0
LINE
  5
10E
  8
DEFAULT
 10
27.52533094551692
 20
-48.00787930109922
 30
0.0
 11
27.55103916856867
 21
-47.90777465819973
 31
0.0
  0
LINE
  5
10F
  8
DEFAULT
 10
27.55103916856867
 20
-47.90777465819973
 30
0.0
 11
27.58018033035533
 21
-47.8086149640078
 31
0.0
  0
LINE
  5
110
  8
DEFAULT
 10
27.58018033035533
 20
-47.8086149640078
 30
0.0
 11
27.61271984403414
 21
-47.71051790843496
 31
0.0
  0
LINE
  5
111
  8
DEFAULT
 10
27.61271984403414
 20
-47.71051790843496
 30
0.0
 11
27.64861908935198
 21
-47.61359992017621
 31
0.0
  0
LINE
  5
112
  8
DEFAULT
 10
27.64861908935198
 20
-47.61359992017621
 30
0.0
 11
27.68783545848278
 21
-47.51797602852402
 31
0.0
  0
LINE
  5
113
  8
DEFAULT
 10
27.68783545848278
 20
-47.51797602852402
 30
0.0
 11
27.7303224065975
 21
-47.42375972684322
 31
0.0
  0
LINE
  5
114
  8
DEFAULT
 10
27.7303224065975
 20
-47.42375972684322
 30
0.0
 11
27.77602950710694
 21
-47.33106283786881
 31
0.0
  0
LINE
  5
115
  8
DEFAULT
 10
27.77602950710694
 20
-47.33106283786881
 30
0.0
 11
27.82490251151164
 21
-47.23999538098673
 31
0.0
  0
LINE
  5
116
  8
DEFAULT
 10
27.82490251151164
 20
-47.23999538098673
 30
0.0
 11
27.87688341378799
 21
-47.15066544165477
 31
0.0
  0
LINE
  5
117
  8
DEFAULT
 10
27.87688341378799
 20
-47.15066544165477
 30
0.0
 11
27.93191051923391
 21
-47.06317904311902
 31
0.0
  0
LINE
  5
118
  8
DEFAULT
 10
27.93191051923391
 20
-47.06317904311902
 30
0.0
 11
27.98991851769264
 21
-46.9776400205777
 31
0.0
  0
LINE
  5
119
  8
DEFAULT
 10
27.98991851769264
 20
-46.9776400205777
 30
0.0
 11
28.05083856106758
 21
-46.89414989794209
 31
0.0
  0
LINE
  5
11A
  8
DEFAULT
 10
28.05083856106758
 20
-46.89414989794209
 30
0.0
 11
28.11459834503614
 21
-46.81280776734057
 31
0.0
  0
LINE
  5
11B
  8
DEFAULT
 10
28.11459834503614
 20
-46.81280776734057
 30
0.0
 11
28.18112219486581
 21
-46.73371017150888
 31
0.0
  0
LINE
  5
11C
  8
DEFAULT
 10
28.18112219486581
 20
-46.73371017150888
 30
0.0
 11
28.25033115523039
 21
-46.65695098920626
 31
0.0
  0
LINE
  5
11D
  8
DEFAULT
 10
28.25033115523039
 20
-46.65695098920626
 30
0.0
 11
28.32214308391989
 21
-46.58262132379328
 31
0.0
  0
LINE
  5
11E
  8
DEFAULT
 10
28.32214308391989
 20
-46.58262132379328
 30
0.0
 11
28.39647274933287
 21
-46.51080939510378
 31
0.0
  0
LINE
  5
11F
  8
DEFAULT
 10
28.39647274933287
 20
-46.51080939510378
 30
0.0
 11
28.4732319316355
 21
-46.44160043473919
 31
0.0
  0
LINE
  5
120
  8
DEFAULT
 10
28.4732319316355
 20
-46.44160043473919
 30
0.0
 11
28.55232952746718
 21
-46.37507658490952
 31
0.0
  0
LINE
  5
121
  8
DEFAULT
 10
28.55232952746718
 20
-46.37507658490952
 30
0.0
 11
28.63367165806871
 21
-46.31131680094096
 31
0.0
  0
LINE
  5
122
  8
DEFAULT
 10
28.63367165806871
 20
-46.31131680094096
 30
0.0
 11
28.71716178070432
 21
-46.25039675756602
 31
0.0
  0
LINE
  5
123
  8
DEFAULT
 10
28.71716178070432
 20
-46.25039675756602
 30
0.0
 11
28.80270080324563
 21
-46.19238875910729
 31
0.0
  0
LINE
  5
124
  8
DEFAULT
 10
28.80270080324563
 20
-46.19238875910729
 30
0.0
 11
28.89018720178138
 21
-46.13736165366137
 31
0.0
  0
LINE
  5
125
  8
DEFAULT
 10
28.89018720178138
 20
-46.13736165366137
 30
0.0
 11
28.97951714111333
 21
-46.08538075138502
 31
0.0
  0
LINE
  5
126
  8
DEFAULT
 10
28.97951714111333
 20
-46.08538075138502
 30
0.0
 11
29.07058459799542
 21
-46.03650774698031
 31
0.0
  0
LINE
  5
127
  8
DEFAULT
 10
29.07058459799542
 20
-46.03650774698031
 30
0.0
 11
29.16328148696983
 21
-45.99080064647088
 31
0.0
  0
LINE
  5
128
  8
DEFAULT
 10
29.16328148696983
 20
-45.99080064647088
 30
0.0
 11
29.25749778865064
 21
-45.94831369835616
 31
0.0
  0
LINE
  5
129
  8
DEFAULT
 10
29.25749778865064
 20
-45.94831369835616
 30
0.0
 11
29.35312168030283
 21
-45.90909732922535
 31
0.0
  0
LINE
  5
12A
  8
DEFAULT
 10
29.35312168030283
 20
-45.90909732922535
 30
0.0
 11
29.45003966856158
 21
-45.87319808390751
 31
0.0
  0
LINE
  5
12B
  8
DEFAULT
 10
29.45003966856158
 20
-45.87319808390751
 30
0.0
 11
29.54813672413441
 21
-45.84065857022871
 31
0.0
  0
LINE
  5
12C
  8
DEFAULT
 10
29.54813672413441
 20
-45.84065857022871
 30
0.0
 11
29.64729641832633
 21
-45.81151740844205
 31
0.0
  0
LINE
  5
12D
  8
DEFAULT
 10
29.64729641832633
 20
-45.81151740844205
 30
0.0
 11
29.74740106122583
 21
-45.7858091853903
 31
0.0
  0
LINE
  5
12E
  8
DEFAULT
 10
29.74740106122583
 20
-45.7858091853903
 30
0.0
 11
29.84833184138774
 21
-45.76356441345574
 31
0.0
  0
LINE
  5
12F
  8
DEFAULT
 10
29.84833184138774
 20
-45.76356441345574
 30
0.0
 11
29.94996896684736
 21
-45.74480949434587
 31
0.0
  0
LINE
  5
130
  8
DEFAULT
 10
29.94996896684736
 20
-45.74480949434587
 30
0.0
 11
30.05219180729819
 21
-45.72956668775792
 31
0.0
  0
LINE
  5
131
  8
DEFAULT
 10
30.05219180729819
 20
-45.72956668775792
 30
0.0
 11
30.15487903726472
 21
-45.71785408495946
 31
0.0
  0
LINE
  5
132
  8
DEFAULT
 10
30.15487903726472
 20
-45.71785408495946
 30
0.0
 11
30.2579087801003
 21
-45.70968558731634
 31
0.0
  0
LINE
  5
133
  8
DEFAULT
 10
30.2579087801003
 20
-45.70968558731634
 30
0.0
 11
30.36115875263922
 21
-45.70507088979355
 31
0.0
  0
LINE
  5
134
  8
DEFAULT
 10
30.36115875263922
 20
-45.70507088979355
 30
0.0
 11
30.46450641033114
 21
-45.70401546944858
 31
0.0
  0
LINE
  5
135
  8
DEFAULT
 10
30.46450641033114
 20
-45.70401546944858
 30
0.0
 11
30.56782909268597
 21
-45.70652057893077
 31
0.0
  0
LINE
  5
136
  8
DEFAULT
 10
30.56782909268597
 20
-45.70652057893077
 30
0.0
 11
30.67100416885609
 21
-45.71258324499463
 31
0.0
  0
LINE
  5
137
  8
DEFAULT
 10
30.67100416885609
 20
-45.71258324499463
 30
0.0
 11
30.77390918318365
 21
-45.7221962720287
 31
0.0
  0
LINE
  5
138
  8
DEFAULT
 10
30.77390918318365
 20
-45.7221962720287
 30
0.0
 11
30.87642200053975
 21
-45.7353482505958
 31
0.0
  0
LINE
  5
139
  8
DEFAULT
 10
30.87642200053975
 20
-45.7353482505958
 30
0.0
 11
30.97842095128326
 21
-45.75202357097459
 31
0.0
  0
LINE
  5
13A
  8
DEFAULT
 10
30.97842095128326
 20
-45.75202357097459
 30
0.0
 11
31.07978497566722
 21
-45.77220244168634
 31
0.0
  0
LINE
  5
13B
  8
DEFAULT
 10
31.07978497566722
 20
-45.77220244168634
 30
0.0
 11
31.18039376752126
 21
-45.79586091298484
 31
0.0
  0
LINE
  5
13C
  8
DEFAULT
 10
31.18039376752126
 20
-45.79586091298484
 30
0.0
 11
31.28012791703974
 21
-45.82297090528174
 31
0.0
  0
LINE
  5
13D
  8
DEFAULT
 10
31.28012791703974
 20
-45.82297090528174
 30
0.0
 11
31.37886905250592
 21
-45.85350024247342
 31
0.0
  0
LINE
  5
13E
  8
DEFAULT
 10
31.37886905250592
 20
-45.85350024247342
 30
0.0
 11
31.47649998078408
 21
-45.88741269012993
 31
0.0
  0
LINE
  5
13F
  8
DEFAULT
 10
31.47649998078408
 20
-45.88741269012993
 30
0.0
 11
31.5729048264129
 21
-45.92466799850066
 31
0.0
  0
LINE
  5
140
  8
DEFAULT
 10
31.5729048264129
 20
-45.92466799850066
 30
0.0
 11
31.66796916913477
 21
-45.96522195028557
 31
0.0
  0
LINE
  5
141
  8
DEFAULT
 10
31.66796916913477
 20
-45.96522195028557
 30
0.0
 11
31.76158017969808
 21
-46.00902641311561
 31
0.0
  0
LINE
  5
142
  8
DEFAULT
 10
31.76158017969808
 20
-46.00902641311561
 30
0.0
 11
32.55790950794199
 21
-46.38227545704539
 31
0.0
  0
LINE
  5
143
  8
DEFAULT
 10
32.55790950794199
 20
-46.38227545704539
 30
0.0
 11
33.36618571605586
 21
-46.72889458406083
 31
0.0
  0
LINE
  5
144
  8
DEFAULT
 10
33.36618571605586
 20
-46.72889458406083
 30
0.0
 11
34.18551857196443
 21
-47.04850202928795
 31
0.0
  0
LINE
  5
145
  8
DEFAULT
 10
34.18551857196443
 20
-47.04850202928795
 30
0.0
 11
35.01500566584627
 21
-47.34074577840737
 31
0.0
  0
LINE
  5
146
  8
DEFAULT
 10
35.01500566584627
 20
-47.34074577840737
 30
0.0
 11
35.85373340404415
 21
-47.60530395536158
 31
0.0
  0
LINE
  5
147
  8
DEFAULT
 10
35.85373340404415
 20
-47.60530395536158
 30
0.0
 11
36.70077801529347
 21
-47.84188517686785
 31
0.0
  0
LINE
  5
148
  8
DEFAULT
 10
36.70077801529347
 20
-47.84188517686785
 30
0.0
 11
37.55520656815995
 21
-48.05022887334648
 31
0.0
  0
LINE
  5
149
  8
DEFAULT
 10
37.55520656815995
 20
-48.05022887334648
 30
0.0
 11
38.41607799856656
 21
-48.23010557591123
 31
0.0
  0
LINE
  5
14A
  8
DEFAULT
 10
38.41607799856656
 20
-48.23010557591123
 30
0.0
 11
39.28244414627757
 21
-48.38131716910526
 31
0.0
  0
LINE
  5
14B
  8
DEFAULT
 10
39.28244414627757
 20
-48.38131716910526
 30
0.0
 11
40.15335079919832
 21
-48.50369710910472
 31
0.0
  0
LINE
  5
14C
  8
DEFAULT
 10
40.15335079919832
 20
-48.50369710910472
 30
0.0
 11
41.02783874434047
 21
-48.59711060714947
 31
0.0
  0
LINE
  5
14D
  8
DEFAULT
 10
41.02783874434047
 20
-48.59711060714947
 30
0.0
 11
41.90494482429523
 21
-48.66145477799881
 31
0.0
  0
LINE
  5
14E
  8
DEFAULT
 10
41.90494482429523
 20
-48.66145477799881
 30
0.0
 11
41.90494482429524
 21
-48.70394166735292
 31
0.0
  0
LINE
  5
14F
  8
DEFAULT
 10
41.90494482429524
 20
-48.70394166735292
 30
0.0
 11
43.40494482429524
 21
-48.70394166735292
 31
0.0
  0
LINE
  5
150
  8
DEFAULT
 10
43.40494482429524
 20
-48.70394166735292
 30
0.0
 11
43.40494482429524
 21
-46.00394166735292
 31
0.0
  0
LINE
  5
151
  8
DEFAULT
 10
43.40494482429524
 20
-46.00394166735292
 30
0.0
 11
49.47562866526265
 21
-46.00394166735292
 31
0.0
  0
LINE
  5
152
  8
DEFAULT
 10
49.47562866526265
 20
-46.00394166735292
 30
0.0
 11
49.47562866526265
 21
-48.70394166735292
 31
0.0
  0
LINE
  5
153
  8
DEFAULT
 10
49.47562866526265
 20
-48.70394166735292
 30
0.0
 11
50.98198203066381
 21
-48.70394166735292
 31
0.0
  0
LINE
  5
154
  8
DEFAULT
 10
50.98198203066381
 20
-48.70394166735292
 30
0.0
 11
50.9819820306638
 21
-48.66145477799883
 31
0.0
  0
LINE
  5
155
  8
DEFAULT
 10
50.9819820306638
 20
-48.66145477799883
 30
0.0
 11
51.85908811061855
 21
-48.59711060714949
 31
0.0
  0
LINE
  5
156
  8
DEFAULT
 10
51.85908811061855
 20
-48.59711060714949
 30
0.0
 11
52.73357605576072
 21
-48.50369710910473
 31
0.0
  0
LINE
  5
157
  8
DEFAULT
 10
52.73357605576072
 20
-48.50369710910473
 30
0.0
 11
53.60448270868146
 21
-48.38131716910527
 31
0.0
  0
LINE
  5
158
  8
DEFAULT
 10
53.60448270868146
 20
-48.38131716910527
 30
0.0
 11
54.47084885639248
 21
-48.23010557591125
 31
0.0
  0
LINE
  5
159
  8
DEFAULT
 10
54.47084885639248
 20
-48.23010557591125
 30
0.0
 11
55.3317202867991
 21
-48.05022887334651
 31
0.0
  0
LINE
  5
15A
  8
DEFAULT
 10
55.3317202867991
 20
-48.05022887334651
 30
0.0
 11
56.18614883966558
 21
-47.84188517686786
 31
0.0
  0
LINE
  5
15B
  8
DEFAULT
 10
56.18614883966558
 20
-47.84188517686786
 30
0.0
 11
57.03319345091489
 21
-47.60530395536161
 31
0.0
  0
LINE
  5
15C
  8
DEFAULT
 10
57.03319345091489
 20
-47.60530395536161
 30
0.0
 11
57.87192118911279
 21
-47.34074577840738
 31
0.0
  0
LINE
  5
15D
  8
DEFAULT
 10
57.87192118911279
 20
-47.34074577840738
 30
0.0
 11
58.70140828299461
 21
-47.04850202928796
 31
0.0
  0
LINE
  5
15E
  8
DEFAULT
 10
58.70140828299461
 20
-47.04850202928796
 30
0.0
 11
59.5207411389032
 21
-46.72889458406085
 31
0.0
  0
LINE
  5
15F
  8
DEFAULT
 10
59.5207411389032
 20
-46.72889458406085
 30
0.0
 11
60.32901734701706
 21
-46.38227545704541
 31
0.0
  0
LINE
  5
160
  8
DEFAULT
 10
60.32901734701706
 20
-46.38227545704541
 30
0.0
 11
61.12534667526099
 21
-46.00902641311563
 31
0.0
  0
LINE
  5
161
  8
DEFAULT
 10
61.12534667526099
 20
-46.00902641311563
 30
0.0
 11
61.21895768582431
 21
-45.9652219502856
 31
0.0
  0
LINE
  5
162
  8
DEFAULT
 10
61.21895768582431
 20
-45.9652219502856
 30
0.0
 11
61.31402202854616
 21
-45.92466799850068
 31
0.0
  0
LINE
  5
163
  8
DEFAULT
 10
61.31402202854616
 20
-45.92466799850068
 30
0.0
 11
61.41042687417499
 21
-45.88741269012996
 31
0.0
  0
LINE
  5
164
  8
DEFAULT
 10
61.41042687417499
 20
-45.88741269012996
 30
0.0
 11
61.50805780245314
 21
-45.85350024247344
 31
0.0
  0
LINE
  5
165
  8
DEFAULT
 10
61.50805780245314
 20
-45.85350024247344
 30
0.0
 11
61.60679893791932
 21
-45.82297090528176
 31
0.0
  0
LINE
  5
166
  8
DEFAULT
 10
61.60679893791932
 20
-45.82297090528176
 30
0.0
 11
61.70653308743778
 21
-45.79586091298486
 31
0.0
  0
LINE
  5
167
  8
DEFAULT
 10
61.70653308743778
 20
-45.79586091298486
 30
0.0
 11
61.80714187929185
 21
-45.77220244168635
 31
0.0
  0
LINE
  5
168
  8
DEFAULT
 10
61.80714187929185
 20
-45.77220244168635
 30
0.0
 11
61.90850590367579
 21
-45.75202357097461
 31
0.0
  0
LINE
  5
169
  8
DEFAULT
 10
61.90850590367579
 20
-45.75202357097461
 30
0.0
 11
62.01050485441932
 21
-45.73534825059581
 31
0.0
  0
LINE
  5
16A
  8
DEFAULT
 10
62.01050485441932
 20
-45.73534825059581
 30
0.0
 11
62.11301767177542
 21
-45.72219627202871
 31
0.0
  0
LINE
  5
16B
  8
DEFAULT
 10
62.11301767177542
 20
-45.72219627202871
 30
0.0
 11
62.21592268610296
 21
-45.71258324499464
 31
0.0
  0
LINE
  5
16C
  8
DEFAULT
 10
62.21592268610296
 20
-45.71258324499464
 30
0.0
 11
62.3190977622731
 21
-45.70652057893078
 31
0.0
  0
LINE
  5
16D
  8
DEFAULT
 10
62.3190977622731
 20
-45.70652057893078
 30
0.0
 11
62.4224204446279
 21
-45.70401546944859
 31
0.0
  0
LINE
  5
16E
  8
DEFAULT
 10
62.4224204446279
 20
-45.70401546944859
 30
0.0
 11
62.52576810231984
 21
-45.70507088979356
 31
0.0
  0
LINE
  5
16F
  8
DEFAULT
 10
62.52576810231984
 20
-45.70507088979356
 30
0.0
 11
62.62901807485876
 21
-45.70968558731635
 31
0.0
  0
LINE
  5
170
  8
DEFAULT
 10
62.62901807485876
 20
-45.70968558731635
 30
0.0
 11
62.73204781769434
 21
-45.71785408495947
 31
0.0
  0
LINE
  5
171
  8
DEFAULT
 10
62.73204781769434
 20
-45.71785408495947
 30
0.0
 11
62.83473504766087
 21
-45.72956668775793
 31
0.0
  0
LINE
  5
172
  8
DEFAULT
 10
62.83473504766087
 20
-45.72956668775793
 30
0.0
 11
62.93695788811169
 21
-45.74480949434587
 31
0.0
  0
LINE
  5
173
  8
DEFAULT
 10
62.93695788811169
 20
-45.74480949434587
 30
0.0
 11
63.03859501357132
 21
-45.76356441345575
 31
0.0
  0
LINE
  5
174
  8
DEFAULT
 10
63.03859501357132
 20
-45.76356441345575
 30
0.0
 11
63.13952579373324
 21
-45.7858091853903
 31
0.0
  0
LINE
  5
175
  8
DEFAULT
 10
63.13952579373324
 20
-45.7858091853903
 30
0.0
 11
63.23963043663272
 21
-45.81151740844205
 31
0.0
  0
LINE
  5
176
  8
DEFAULT
 10
63.23963043663272
 20
-45.81151740844205
 30
0.0
 11
63.33879013082464
 21
-45.84065857022871
 31
0.0
  0
LINE
  5
177
  8
DEFAULT
 10
63.33879013082464
 20
-45.84065857022871
 30
0.0
 11
63.43688718639748
 21
-45.87319808390751
 31
0.0
  0
LINE
  5
178
  8
DEFAULT
 10
63.43688718639748
 20
-45.87319808390751
 30
0.0
 11
63.53380517465624
 21
-45.90909732922537
 31
0.0
  0
LINE
  5
179
  8
DEFAULT
 10
63.53380517465624
 20
-45.90909732922537
 30
0.0
 11
63.62942906630842
 21
-45.94831369835616
 31
0.0
  0
LINE
  5
17A
  8
DEFAULT
 10
63.62942906630842
 20
-45.94831369835616
 30
0.0
 11
63.72364536798923
 21
-45.99080064647088
 31
0.0
  0
LINE
  5
17B
  8
DEFAULT
 10
63.72364536798923
 20
-45.99080064647088
 30
0.0
 11
63.81634225696365
 21
-46.03650774698031
 31
0.0
  0
LINE
  5
17C
  8
DEFAULT
 10
63.81634225696365
 20
-46.03650774698031
 30
0.0
 11
63.90740971384574
 21
-46.08538075138502
 31
0.0
  0
LINE
  5
17D
  8
DEFAULT
 10
63.90740971384574
 20
-46.08538075138502
 30
0.0
 11
63.99673965317768
 21
-46.13736165366137
 31
0.0
  0
LINE
  5
17E
  8
DEFAULT
 10
63.99673965317768
 20
-46.13736165366137
 30
0.0
 11
64.08422605171344
 21
-46.19238875910728
 31
0.0
  0
LINE
  5
17F
  8
DEFAULT
 10
64.08422605171344
 20
-46.19238875910728
 30
0.0
 11
64.16976507425476
 21
-46.25039675756602
 31
0.0
  0
LINE
  5
180
  8
DEFAULT
 10
64.16976507425476
 20
-46.25039675756602
 30
0.0
 11
64.25325519689036
 21
-46.31131680094096
 31
0.0
  0
LINE
  5
181
  8
DEFAULT
 10
64.25325519689036
 20
-46.31131680094096
 30
0.0
 11
64.33459732749188
 21
-46.37507658490951
 31
0.0
  0
LINE
  5
182
  8
DEFAULT
 10
64.33459732749188
 20
-46.37507658490951
 30
0.0
 11
64.41369492332356
 21
-46.44160043473919
 31
0.0
  0
LINE
  5
183
  8
DEFAULT
 10
64.41369492332356
 20
-46.44160043473919
 30
0.0
 11
64.49045410562618
 21
-46.51080939510376
 31
0.0
  0
LINE
  5
184
  8
DEFAULT
 10
64.49045410562618
 20
-46.51080939510376
 30
0.0
 11
64.56478377103917
 21
-46.58262132379326
 31
0.0
  0
LINE
  5
185
  8
DEFAULT
 10
64.56478377103917
 20
-46.58262132379326
 30
0.0
 11
64.63659569972867
 21
-46.65695098920625
 31
0.0
  0
LINE
  5
186
  8
DEFAULT
 10
64.63659569972867
 20
-46.65695098920625
 30
0.0
 11
64.70580466009325
 21
-46.73371017150887
 31
0.0
  0
LINE
  5
187
  8
DEFAULT
 10
64.70580466009325
 20
-46.73371017150887
 30
0.0
 11
64.77232850992293
 21
-46.81280776734056
 31
0.0
  0
LINE
  5
188
  8
DEFAULT
 10
64.77232850992293
 20
-46.81280776734056
 30
0.0
 11
64.83608829389149
 21
-46.89414989794209
 31
0.0
  0
LINE
  5
189
  8
DEFAULT
 10
64.83608829389149
 20
-46.89414989794209
 30
0.0
 11
64.89700833726643
 21
-46.9776400205777
 31
0.0
  0
LINE
  5
18A
  8
DEFAULT
 10
64.89700833726643
 20
-46.9776400205777
 30
0.0
 11
64.95501633572516
 21
-47.06317904311901
 31
0.0
  0
LINE
  5
18B
  8
DEFAULT
 10
64.95501633572516
 20
-47.06317904311901
 30
0.0
 11
65.01004344117108
 21
-47.15066544165477
 31
0.0
  0
LINE
  5
18C
  8
DEFAULT
 10
65.01004344117108
 20
-47.15066544165477
 30
0.0
 11
65.06202434344743
 21
-47.23999538098673
 31
0.0
  0
LINE
  5
18D
  8
DEFAULT
 10
65.06202434344743
 20
-47.23999538098673
 30
0.0
 11
65.11089734785213
 21
-47.33106283786881
 31
0.0
  0
LINE
  5
18E
  8
DEFAULT
 10
65.11089734785213
 20
-47.33106283786881
 30
0.0
 11
65.15660444836156
 21
-47.42375972684321
 31
0.0
  0
LINE
  5
18F
  8
DEFAULT
 10
65.15660444836156
 20
-47.42375972684321
 30
0.0
 11
65.19909139647629
 21
-47.51797602852402
 31
0.0
  0
LINE
  5
190
  8
DEFAULT
 10
65.19909139647629
 20
-47.51797602852402
 30
0.0
 11
65.23830776560709
 21
-47.61359992017621
 31
0.0
  0
LINE
  5
191
  8
DEFAULT
 10
65.23830776560709
 20
-47.61359992017621
 30
0.0
 11
65.27420701092494
 21
-47.71051790843495
 31
0.0
  0
LINE
  5
192
  8
DEFAULT
 10
65.27420701092494
 20
-47.71051790843495
 30
0.0
 11
65.30674652460372
 21
-47.80861496400779
 31
0.0
  0
LINE
  5
193
  8
DEFAULT
 10
65.30674652460372
 20
-47.80861496400779
 30
0.0
 11
65.3358876863904
 21
-47.90777465819971
 31
0.0
  0
LINE
  5
194
  8
DEFAULT
 10
65.3358876863904
 20
-47.90777465819971
 30
0.0
 11
65.36159590944214
 21
-48.0078793010992
 31
0.0
  0
LINE
  5
195
  8
DEFAULT
 10
65.36159590944214
 20
-48.0078793010992
 30
0.0
 11
65.3838406813767
 21
-48.10881008126112
 31
0.0
  0
LINE
  5
196
  8
DEFAULT
 10
65.3838406813767
 20
-48.10881008126112
 30
0.0
 11
65.40259560048656
 21
-48.21044720672074
 31
0.0
  0
LINE
  5
197
  8
DEFAULT
 10
65.40259560048656
 20
-48.21044720672074
 30
0.0
 11
65.41783840707451
 21
-48.31267004717156
 31
0.0
  0
LINE
  5
198
  8
DEFAULT
 10
65.41783840707451
 20
-48.31267004717156
 30
0.0
 11
65.42955100987298
 21
-48.41535727713811
 31
0.0
  0
LINE
  5
199
  8
DEFAULT
 10
65.42955100987298
 20
-48.41535727713811
 30
0.0
 11
65.43771950751609
 21
-48.5183870199737
 31
0.0
  0
LINE
  5
19A
  8
DEFAULT
 10
65.43771950751609
 20
-48.5183870199737
 30
0.0
 11
65.44233420503888
 21
-48.62163699251261
 31
0.0
  0
LINE
  5
19B
  8
DEFAULT
 10
65.44233420503888
 20
-48.62163699251261
 30
0.0
 11
65.44338962538384
 21
-48.72498465020455
 31
0.0
  0
LINE
  5
19C
  8
DEFAULT
 10
65.44338962538384
 20
-48.72498465020455
 30
0.0
 11
65.44088451590166
 21
-48.82830733255936
 31
0.0
  0
LINE
  5
19D
  8
DEFAULT
 10
65.44088451590166
 20
-48.82830733255936
 30
0.0
 11
65.4348218498378
 21
-48.93148240872948
 31
0.0
  0
LINE
  5
19E
  8
DEFAULT
 10
65.4348218498378
 20
-48.93148240872948
 30
0.0
 11
65.42520882280373
 21
-49.03438742305704
 31
0.0
  0
LINE
  5
19F
  8
DEFAULT
 10
65.42520882280373
 20
-49.03438742305704
 30
0.0
 11
65.41205684423663
 21
-49.13690024041313
 31
0.0
  0
LINE
  5
1A0
  8
DEFAULT
 10
65.41205684423663
 20
-49.13690024041313
 30
0.0
 11
65.39538152385784
 21
-49.23889919115664
 31
0.0
  0
LINE
  5
1A1
  8
DEFAULT
 10
65.39538152385784
 20
-49.23889919115664
 30
0.0
 11
65.37520265314609
 21
-49.3402632155406
 31
0.0
  0
LINE
  5
1A2
  8
DEFAULT
 10
65.37520265314609
 20
-49.3402632155406
 30
0.0
 11
65.35154418184759
 21
-49.44087200739465
 31
0.0
  0
LINE
  5
1A3
  8
DEFAULT
 10
65.35154418184759
 20
-49.44087200739465
 30
0.0
 11
65.32443418955069
 21
-49.54060615691314
 31
0.0
  0
LINE
  5
1A4
  8
DEFAULT
 10
65.32443418955069
 20
-49.54060615691314
 30
0.0
 11
65.293904852359
 21
-49.63934729237931
 31
0.0
  0
LINE
  5
1A5
  8
DEFAULT
 10
65.293904852359
 20
-49.63934729237931
 30
0.0
 11
65.25999240470247
 21
-49.73697822065748
 31
0.0
  0
LINE
  5
1A6
  8
DEFAULT
 10
65.25999240470247
 20
-49.73697822065748
 30
0.0
 11
65.22273709633177
 21
-49.83338306628629
 31
0.0
  0
LINE
  5
1A7
  8
DEFAULT
 10
65.22273709633177
 20
-49.83338306628629
 30
0.0
 11
65.18218314454684
 21
-49.92844740900815
 31
0.0
  0
LINE
  5
1A8
  8
DEFAULT
 10
65.18218314454684
 20
-49.92844740900815
 30
0.0
 11
65.1383786817168
 21
-50.02205841957146
 31
0.0
  0
LINE
  5
1A9
  8
DEFAULT
 10
65.1383786817168
 20
-50.02205841957146
 30
0.0
 11
64.77268469806
 21
-50.80156299449534
 31
0.0
  0
LINE
  5
1AA
  8
DEFAULT
 10
64.77268469806
 20
-50.80156299449534
 30
0.0
 11
64.4325076040535
 21
-51.5925364559486
 31
0.0
  0
LINE
  5
1AB
  8
DEFAULT
 10
64.4325076040535
 20
-51.5925364559486
 30
0.0
 11
64.11820652182018
 21
-52.3941437798404
 31
0.0
  0
LINE
  5
1AC
  8
DEFAULT
 10
64.11820652182018
 20
-52.3941437798404
 30
0.0
 11
63.83011325639297
 21
-53.20553871600006
 31
0.0
  0
LINE
  5
1AD
  8
DEFAULT
 10
63.83011325639297
 20
-53.20553871600006
 30
0.0
 11
63.56853194543103
 21
-54.02586468155614
 31
0.0
  0
LINE
  5
1AE
  8
DEFAULT
 10
63.56853194543103
 20
-54.02586468155614
 30
0.0
 11
63.33373873814418
 21
-54.85425566522385
 31
0.0
  0
LINE
  5
1AF
  8
DEFAULT
 10
63.33373873814418
 20
-54.85425566522385
 30
0.0
 11
63.12598150376442
 21
-55.68983714154614
 31
0.0
  0
LINE
  5
1B0
  8
DEFAULT
 10
63.12598150376442
 20
-55.68983714154614
 30
0.0
 11
62.9454795698725
 21
-56.53172699412267
 31
0.0
  0
LINE
  5
1B1
  8
DEFAULT
 10
62.9454795698725
 20
-56.53172699412267
 30
0.0
 11
62.79242349085565
 21
-57.37903644685289
 31
0.0
  0
LINE
  5
1B2
  8
DEFAULT
 10
62.79242349085565
 20
-57.37903644685289
 30
0.0
 11
62.66697484674079
 21
-58.23087100220962
 31
0.0
  0
LINE
  5
1B3
  8
DEFAULT
 10
62.66697484674079
 20
-58.23087100220962
 30
0.0
 11
62.56926607261595
 21
-59.08633138555246
 31
0.0
  0
LINE
  5
1B4
  8
DEFAULT
 10
62.56926607261595
 20
-59.08633138555246
 30
0.0
 11
62.49940031881961
 21
-59.94451449448465
 31
0.0
  0
LINE
  5
1B5
  8
DEFAULT
 10
62.49940031881961
 20
-59.94451449448465
 30
0.0
 11
62.45745134204575
 21
-60.80451435225072
 31
0.0
  0
LINE
  5
1B6
  8
DEFAULT
 10
62.45745134204575
 20
-60.80451435225072
 30
0.0
 11
62.44346342747952
 21
-61.66542306416861
 31
0.0
  0
LINE
  5
1B7
  8
DEFAULT
 10
62.44346342747952
 20
-61.66542306416861
 30
0.0
 11
62.44346342747954
 21
-65.74246027053721
 31
0.0
  0
LINE
  5
1B8
  8
DEFAULT
 10
62.44346342747954
 20
-65.74246027053721
 30
0.0
 11
62.45745134204578
 21
-66.6033689824551
 31
0.0
  0
LINE
  5
1B9
  8
DEFAULT
 10
62.45745134204578
 20
-66.6033689824551
 30
0.0
 11
62.49940031881963
 21
-67.4633688402212
 31
0.0
  0
LINE
  5
1BA
  8
DEFAULT
 10
62.49940031881963
 20
-67.4633688402212
 30
0.0
 11
62.56926607261596
 21
-68.32155194915335
 31
0.0
  0
LINE
  5
1BB
  8
DEFAULT
 10
62.56926607261596
 20
-68.32155194915335
 30
0.0
 11
62.66697484674081
 21
-69.17701233249619
 31
0.0
  0
LINE
  5
1BC
  8
DEFAULT
 10
62.66697484674081
 20
-69.17701233249619
 30
0.0
 11
62.79242349085567
 21
-70.02884688785294
 31
0.0
  0
LINE
  5
1BD
  8
DEFAULT
 10
62.79242349085567
 20
-70.02884688785294
 30
0.0
 11
62.94547956987252
 21
-70.87615634058315
 31
0.0
  0
LINE
  5
1BE
  8
DEFAULT
 10
62.94547956987252
 20
-70.87615634058315
 30
0.0
 11
63.12598150376443
 21
-71.71804619315968
 31
0.0
  0
LINE
  5
1BF
  8
DEFAULT
 10
63.12598150376443
 20
-71.71804619315968
 30
0.0
 11
63.33373873814419
 21
-72.55362766948195
 31
0.0
  0
LINE
  5
1C0
  8
DEFAULT
 10
63.33373873814419
 20
-72.55362766948195
 30
0.0
 11
63.56853194543105
 21
-73.38201865314969
 31
0.0
  0
LINE
  5
1C1
  8
DEFAULT
 10
63.56853194543105
 20
-73.38201865314969
 30
0.0
 11
63.83011325639298
 21
-74.20234461870577
 31
0.0
  0
LINE
  5
1C2
  8
DEFAULT
 10
63.83011325639298
 20
-74.20234461870577
 30
0.0
 11
64.11820652182018
 21
-75.01373955486541
 31
0.0
  0
LINE
  5
1C3
  8
DEFAULT
 10
64.11820652182018
 20
-75.01373955486541
 30
0.0
 11
64.4325076040535
 21
-75.81534687875721
 31
0.0
  0
LINE
  5
1C4
  8
DEFAULT
 10
64.4325076040535
 20
-75.81534687875721
 30
0.0
 11
64.77268469806002
 21
-76.60632034021047
 31
0.0
  0
LINE
  5
1C5
  8
DEFAULT
 10
64.77268469806002
 20
-76.60632034021047
 30
0.0
 11
65.1383786817168
 21
-77.38582491513436
 31
0.0
  0
LINE
  5
1C6
  8
DEFAULT
 10
65.1383786817168
 20
-77.38582491513436
 30
0.0
 11
65.18218314454685
 21
-77.47943592569769
 31
0.0
  0
LINE
  5
1C7
  8
DEFAULT
 10
65.18218314454685
 20
-77.47943592569769
 30
0.0
 11
65.22273709633177
 21
-77.57450026841954
 31
0.0
  0
LINE
  5
1C8
  8
DEFAULT
 10
65.22273709633177
 20
-77.57450026841954
 30
0.0
 11
65.25999240470249
 21
-77.67090511404834
 31
0.0
  0
LINE
  5
1C9
  8
DEFAULT
 10
65.25999240470249
 20
-77.67090511404834
 30
0.0
 11
65.293904852359
 21
-77.7685360423265
 31
0.0
  0
LINE
  5
1CA
  8
DEFAULT
 10
65.293904852359
 20
-77.7685360423265
 30
0.0
 11
65.3244341895507
 21
-77.8672771777927
 31
0.0
  0
LINE
  5
1CB
  8
DEFAULT
 10
65.3244341895507
 20
-77.8672771777927
 30
0.0
 11
65.3515441818476
 21
-77.96701132731117
 31
0.0
  0
LINE
  5
1CC
  8
DEFAULT
 10
65.3515441818476
 20
-77.96701132731117
 30
0.0
 11
65.37520265314609
 21
-78.06762011916523
 31
0.0
  0
LINE
  5
1CD
  8
DEFAULT
 10
65.37520265314609
 20
-78.06762011916523
 30
0.0
 11
65.39538152385784
 21
-78.16898414354918
 31
0.0
  0
LINE
  5
1CE
  8
DEFAULT
 10
65.39538152385784
 20
-78.16898414354918
 30
0.0
 11
65.41205684423663
 21
-78.27098309429267
 31
0.0
  0
LINE
  5
1CF
  8
DEFAULT
 10
65.41205684423663
 20
-78.27098309429267
 30
0.0
 11
65.42520882280373
 21
-78.37349591164877
 31
0.0
  0
LINE
  5
1D0
  8
DEFAULT
 10
65.42520882280373
 20
-78.37349591164877
 30
0.0
 11
65.43482184983779
 21
-78.47640092597632
 31
0.0
  0
LINE
  5
1D1
  8
DEFAULT
 10
65.43482184983779
 20
-78.47640092597632
 30
0.0
 11
65.44088451590166
 21
-78.57957600214647
 31
0.0
  0
LINE
  5
1D2
  8
DEFAULT
 10
65.44088451590166
 20
-78.57957600214647
 30
0.0
 11
65.44338962538384
 21
-78.68289868450128
 31
0.0
  0
LINE
  5
1D3
  8
DEFAULT
 10
65.44338962538384
 20
-78.68289868450128
 30
0.0
 11
65.44233420503888
 21
-78.7862463421932
 31
0.0
  0
LINE
  5
1D4
  8
DEFAULT
 10
65.44233420503888
 20
-78.7862463421932
 30
0.0
 11
65.43771950751609
 21
-78.88949631473211
 31
0.0
  0
LINE
  5
1D5
  8
DEFAULT
 10
65.43771950751609
 20
-78.88949631473211
 30
0.0
 11
65.42955100987297
 21
-78.99252605756772
 31
0.0
  0
LINE
  5
1D6
  8
DEFAULT
 10
65.42955100987297
 20
-78.99252605756772
 30
0.0
 11
65.4178384070745
 21
-79.09521328753424
 31
0.0
  0
LINE
  5
1D7
  8
DEFAULT
 10
65.4178384070745
 20
-79.09521328753424
 30
0.0
 11
65.40259560048656
 21
-79.19743612798507
 31
0.0
  0
LINE
  5
1D8
  8
DEFAULT
 10
65.40259560048656
 20
-79.19743612798507
 30
0.0
 11
65.38384068137668
 21
-79.29907325344469
 31
0.0
  0
LINE
  5
1D9
  8
DEFAULT
 10
65.38384068137668
 20
-79.29907325344469
 30
0.0
 11
65.36159590944213
 21
-79.40000403360659
 31
0.0
  0
LINE
  5
1DA
  8
DEFAULT
 10
65.36159590944213
 20
-79.40000403360659
 30
0.0
 11
65.33588768639038
 21
-79.50010867650609
 31
0.0
  0
LINE
  5
1DB
  8
DEFAULT
 10
65.33588768639038
 20
-79.50010867650609
 30
0.0
 11
65.30674652460372
 21
-79.599268370698
 31
0.0
  0
LINE
  5
1DC
  8
DEFAULT
 10
65.30674652460372
 20
-79.599268370698
 30
0.0
 11
65.27420701092493
 21
-79.69736542627084
 31
0.0
  0
LINE
  5
1DD
  8
DEFAULT
 10
65.27420701092493
 20
-79.69736542627084
 30
0.0
 11
65.23830776560706
 21
-79.7942834145296
 31
0.0
  0
LINE
  5
1DE
  8
DEFAULT
 10
65.23830776560706
 20
-79.7942834145296
 30
0.0
 11
65.19909139647628
 21
-79.88990730618178
 31
0.0
  0
LINE
  5
1DF
  8
DEFAULT
 10
65.19909139647628
 20
-79.88990730618178
 30
0.0
 11
65.15660444836155
 21
-79.98412360786259
 31
0.0
  0
LINE
  5
1E0
  8
DEFAULT
 10
65.15660444836155
 20
-79.98412360786259
 30
0.0
 11
65.11089734785212
 21
-80.076820496837
 31
0.0
  0
LINE
  5
1E1
  8
DEFAULT
 10
65.11089734785212
 20
-80.076820496837
 30
0.0
 11
65.06202434344742
 21
-80.16788795371907
 31
0.0
  0
LINE
  5
1E2
  8
DEFAULT
 10
65.06202434344742
 20
-80.16788795371907
 30
0.0
 11
65.01004344117106
 21
-80.25721789305105
 31
0.0
  0
LINE
  5
1E3
  8
DEFAULT
 10
65.01004344117106
 20
-80.25721789305105
 30
0.0
 11
64.95501633572516
 21
-80.34470429158678
 31
0.0
  0
LINE
  5
1E4
  8
DEFAULT
 10
64.95501633572516
 20
-80.34470429158678
 30
0.0
 11
64.89700833726643
 21
-80.43024331412809
 31
0.0
  0
LINE
  5
1E5
  8
DEFAULT
 10
64.89700833726643
 20
-80.43024331412809
 30
0.0
 11
64.83608829389149
 21
-80.5137334367637
 31
0.0
  0
LINE
  5
1E6
  8
DEFAULT
 10
64.83608829389149
 20
-80.5137334367637
 30
0.0
 11
64.7723285099229
 21
-80.59507556736524
 31
0.0
  0
LINE
  5
1E7
  8
DEFAULT
 10
64.7723285099229
 20
-80.59507556736524
 30
0.0
 11
64.70580466009324
 21
-80.67417316319691
 31
0.0
  0
LINE
  5
1E8
  8
DEFAULT
 10
64.70580466009324
 20
-80.67417316319691
 30
0.0
 11
64.63659569972869
 21
-80.75093234549952
 31
0.0
  0
LINE
  5
1E9
  8
DEFAULT
 10
64.63659569972869
 20
-80.75093234549952
 30
0.0
 11
64.56478377103916
 21
-80.82526201091252
 31
0.0
  0
LINE
  5
1EA
  8
DEFAULT
 10
64.56478377103916
 20
-80.82526201091252
 30
0.0
 11
64.49045410562617
 21
-80.89707393960202
 31
0.0
  0
LINE
  5
1EB
  8
DEFAULT
 10
64.49045410562617
 20
-80.89707393960202
 30
0.0
 11
64.41369492332356
 21
-80.96628289996661
 31
0.0
  0
LINE
  5
1EC
  8
DEFAULT
 10
64.41369492332356
 20
-80.96628289996661
 30
0.0
 11
64.33459732749186
 21
-81.03280674979628
 31
0.0
  0
LINE
  5
1ED
  8
DEFAULT
 10
64.33459732749186
 20
-81.03280674979628
 30
0.0
 11
64.25325519689035
 21
-81.09656653376484
 31
0.0
  0
LINE
  5
1EE
  8
DEFAULT
 10
64.25325519689035
 20
-81.09656653376484
 30
0.0
 11
64.16976507425474
 21
-81.15748657713976
 31
0.0
  0
LINE
  5
1EF
  8
DEFAULT
 10
64.16976507425474
 20
-81.15748657713976
 30
0.0
 11
64.08422605171343
 21
-81.2154945755985
 31
0.0
  0
LINE
  5
1F0
  8
DEFAULT
 10
64.08422605171343
 20
-81.2154945755985
 30
0.0
 11
63.99673965317768
 21
-81.27052168104443
 31
0.0
  0
LINE
  5
1F1
  8
DEFAULT
 10
63.99673965317768
 20
-81.27052168104443
 30
0.0
 11
63.90740971384573
 21
-81.32250258332077
 31
0.0
  0
LINE
  5
1F2
  8
DEFAULT
 10
63.90740971384573
 20
-81.32250258332077
 30
0.0
 11
63.81634225696362
 21
-81.37137558772548
 31
0.0
  0
LINE
  5
1F3
  8
DEFAULT
 10
63.81634225696362
 20
-81.37137558772548
 30
0.0
 11
63.72364536798924
 21
-81.4170826882349
 31
0.0
  0
LINE
  5
1F4
  8
DEFAULT
 10
63.72364536798924
 20
-81.4170826882349
 30
0.0
 11
63.62942906630843
 21
-81.45956963634963
 31
0.0
  0
LINE
  5
1F5
  8
DEFAULT
 10
63.62942906630843
 20
-81.45956963634963
 30
0.0
 11
63.53380517465622
 21
-81.49878600548043
 31
0.0
  0
LINE
  5
1F6
  8
DEFAULT
 10
63.53380517465622
 20
-81.49878600548043
 30
0.0
 11
63.43688718639748
 21
-81.53468525079828
 31
0.0
  0
LINE
  5
1F7
  8
DEFAULT
 10
63.43688718639748
 20
-81.53468525079828
 30
0.0
 11
63.33879013082464
 21
-81.56722476447709
 31
0.0
  0
LINE
  5
1F8
  8
DEFAULT
 10
63.33879013082464
 20
-81.56722476447709
 30
0.0
 11
63.23963043663272
 21
-81.59636592626374
 31
0.0
  0
LINE
  5
1F9
  8
DEFAULT
 10
63.23963043663272
 20
-81.59636592626374
 30
0.0
 11
63.13952579373323
 21
-81.6220741493155
 31
0.0
  0
LINE
  5
1FA
  8
DEFAULT
 10
63.13952579373323
 20
-81.6220741493155
 30
0.0
 11
63.03859501357132
 21
-81.64431892125005
 31
0.0
  0
LINE
  5
1FB
  8
DEFAULT
 10
63.03859501357132
 20
-81.64431892125005
 30
0.0
 11
62.9369578881117
 21
-81.66307384035991
 31
0.0
  0
LINE
  5
1FC
  8
DEFAULT
 10
62.9369578881117
 20
-81.66307384035991
 30
0.0
 11
62.83473504766087
 21
-81.67831664694786
 31
0.0
  0
LINE
  5
1FD
  8
DEFAULT
 10
62.83473504766087
 20
-81.67831664694786
 30
0.0
 11
62.73204781769434
 21
-81.69002924974632
 31
0.0
  0
LINE
  5
1FE
  8
DEFAULT
 10
62.73204781769434
 20
-81.69002924974632
 30
0.0
 11
62.62901807485876
 21
-81.69819774738944
 31
0.0
  0
LINE
  5
1FF
  8
DEFAULT
 10
62.62901807485876
 20
-81.69819774738944
 30
0.0
 11
62.52576810231985
 21
-81.70281244491223
 31
0.0
  0
LINE
  5
200
  8
DEFAULT
 10
62.52576810231985
 20
-81.70281244491223
 30
0.0
 11
62.42242044462792
 21
-81.7038678652572
 31
0.0
  0
LINE
  5
201
  8
DEFAULT
 10
62.42242044462792
 20
-81.7038678652572
 30
0.0
 11
62.31909776227311
 21
-81.70136275577502
 31
0.0
  0
LINE
  5
202
  8
DEFAULT
 10
62.31909776227311
 20
-81.70136275577502
 30
0.0
 11
62.21592268610299
 21
-81.69530008971115
 31
0.0
  0
LINE
  5
203
  8
DEFAULT
 10
62.21592268610299
 20
-81.69530008971115
 30
0.0
 11
62.11301767177542
 21
-81.68568706267709
 31
0.0
  0
LINE
  5
204
  8
DEFAULT
 10
62.11301767177542
 20
-81.68568706267709
 30
0.0
 11
62.01050485441934
 21
-81.67253508410998
 31
0.0
  0
LINE
  5
205
  8
DEFAULT
 10
62.01050485441934
 20
-81.67253508410998
 30
0.0
 11
61.9085059036758
 21
-81.65585976373119
 31
0.0
  0
LINE
  5
206
  8
DEFAULT
 10
61.9085059036758
 20
-81.65585976373119
 30
0.0
 11
61.80714187929185
 21
-81.63568089301944
 31
0.0
  0
LINE
  5
207
  8
DEFAULT
 10
61.80714187929185
 20
-81.63568089301944
 30
0.0
 11
61.7065330874378
 21
-81.61202242172094
 31
0.0
  0
LINE
  5
208
  8
DEFAULT
 10
61.7065330874378
 20
-81.61202242172094
 30
0.0
 11
61.60679893791935
 21
-81.58491242942405
 31
0.0
  0
LINE
  5
209
  8
DEFAULT
 10
61.60679893791935
 20
-81.58491242942405
 30
0.0
 11
61.50805780245314
 21
-81.55438309223236
 31
0.0
  0
LINE
  5
20A
  8
DEFAULT
 10
61.50805780245314
 20
-81.55438309223236
 30
0.0
 11
61.41042687417498
 21
-81.52047064457584
 31
0.0
  0
LINE
  5
20B
  8
DEFAULT
 10
61.41042687417498
 20
-81.52047064457584
 30
0.0
 11
61.31402202854617
 21
-81.48321533620512
 31
0.0
  0
LINE
  5
20C
  8
DEFAULT
 10
61.31402202854617
 20
-81.48321533620512
 30
0.0
 11
61.21895768582431
 21
-81.4426613844202
 31
0.0
  0
LINE
  5
20D
  8
DEFAULT
 10
61.21895768582431
 20
-81.4426613844202
 30
0.0
 11
61.125346675261
 21
-81.39885692159017
 31
0.0
  0
LINE
  5
20E
  8
DEFAULT
 10
61.125346675261
 20
-81.39885692159017
 30
0.0
 11
60.32901734701707
 21
-81.0256078776604
 31
0.0
  0
LINE
  5
20F
  8
DEFAULT
 10
60.32901734701707
 20
-81.0256078776604
 30
0.0
 11
59.52074113890319
 21
-80.67898875064496
 31
0.0
  0
LINE
  5
210
  8
DEFAULT
 10
59.52074113890319
 20
-80.67898875064496
 30
0.0
 11
58.70140828299463
 21
-80.35938130541788
 31
0.0
  0
LINE
  5
211
  8
DEFAULT
 10
58.70140828299463
 20
-80.35938130541788
 30
0.0
 11
57.87192118911278
 21
-80.06713755629845
 31
0.0
  0
LINE
  5
212
  8
DEFAULT
 10
57.87192118911278
 20
-80.06713755629845
 30
0.0
 11
57.03319345091491
 21
-79.80257937934424
 31
0.0
  0
LINE
  5
213
  8
DEFAULT
 10
57.03319345091491
 20
-79.80257937934424
 30
0.0
 11
56.18614883966558
 21
-79.565998157838
 31
0.0
  0
LINE
  5
214
  8
DEFAULT
 10
56.18614883966558
 20
-79.565998157838
 30
0.0
 11
55.3317202867991
 21
-79.35765446135935
 31
0.0
  0
LINE
  5
215
  8
DEFAULT
 10
55.3317202867991
 20
-79.35765446135935
 30
0.0
 11
54.47084885639248
 21
-79.1777777587946
 31
0.0
  0
LINE
  5
216
  8
DEFAULT
 10
54.47084885639248
 20
-79.1777777587946
 30
0.0
 11
53.60448270868146
 21
-79.02656616560058
 31
0.0
  0
LINE
  5
217
  8
DEFAULT
 10
53.60448270868146
 20
-79.02656616560058
 30
0.0
 11
52.73357605576073
 21
-78.90418622560112
 31
0.0
  0
LINE
  5
218
  8
DEFAULT
 10
52.73357605576073
 20
-78.90418622560112
 30
0.0
 11
51.85908811061858
 21
-78.81077272755635
 31
0.0
  0
LINE
  5
219
  8
DEFAULT
 10
51.85908811061858
 20
-78.81077272755635
 30
0.0
 11
50.98198203066381
 21
-78.74642855670702
 31
0.0
  0
LINE
  5
21A
  8
DEFAULT
 10
50.98198203066381
 20
-78.74642855670702
 30
0.0
 11
50.98198203066381
 21
-78.70394166735292
 31
0.0
  0
LINE
  5
21B
  8
DEFAULT
 10
50.98198203066381
 20
-78.70394166735292
 30
0.0
 11
49.47562866526265
 21
-78.70394166735292
 31
0.0
  0
LINE
  5
21C
  8
DEFAULT
 10
49.47562866526265
 20
-78.70394166735292
 30
0.0
 11
49.47562866526265
 21
-81.40394166735291
 31
0.0
  0
LINE
  5
21D
  8
DEFAULT
 10
49.47562866526265
 20
-81.40394166735291
 30
0.0
 11
43.40494482429524
 21
-81.40394166735291
 31
0.0
  0
LINE
  5
21E
  8
DEFAULT
 10
43.40494482429524
 20
-81.40394166735291
 30
0.0
 11
43.40494482429524
 21
-78.70394166735292
 31
0.0
  0
LINE
  5
21F
  8
DEFAULT
 10
43.40494482429524
 20
-78.70394166735292
 30
0.0
 11
41.90494482429524
 21
-78.70394166735292
 31
0.0
  0
LINE
  5
220
  8
DEFAULT
 10
-33.79405081800825
 20
-73.81754796242417
 30
0.0
 11
-33.79405081800825
 21
-71.11754796242418
 31
0.0
  0
LINE
  5
221
  8
DEFAULT
 10
-33.79405081800825
 20
-71.11754796242418
 30
0.0
 11
-39.86473465897566
 21
-71.11754796242418
 31
0.0
  0
LINE
  5
222
  8
DEFAULT
 10
-39.86473465897566
 20
-71.11754796242418
 30
0.0
 11
-39.86473465897566
 21
-73.81754796242417
 31
0.0
  0
LINE
  5
223
  8
DEFAULT
 10
-39.86473465897566
 20
-73.81754796242417
 30
0.0
 11
-33.79405081800825
 21
-73.81754796242417
 31
0.0
  0
LINE
  5
224
  8
DEFAULT
 10
-38.18256942119253
 20
-74.81754796242417
 30
0.0
 11
-38.18256942119253
 21
-79.56405311371198
 31
0.0
  0
LINE
  5
225
  8
DEFAULT
 10
-38.18256942119253
 20
-79.56405311371198
 30
0.0
 11
-35.48256942119254
 21
-79.56405311371198
 31
0.0
  0
LINE
  5
226
  8
DEFAULT
 10
-35.48256942119254
 20
-79.56405311371198
 30
0.0
 11
-35.48256942119254
 21
-74.81754796242417
 31
0.0
  0
LINE
  5
227
  8
DEFAULT
 10
-35.48256942119254
 20
-74.81754796242417
 30
0.0
 11
-38.18256942119253
 21
-74.81754796242417
 31
0.0
  0
LINE
  5
228
  8
DEFAULT
 10
-32.29405081800824
 20
-79.61754796242417
 30
0.0
 11
-32.29492528445898
 21
-79.66875962770312
 31
0.0
  0
LINE
  5
229
  8
DEFAULT
 10
-32.29492528445898
 20
-79.66875962770312
 30
0.0
 11
-32.29754766422242
 21
-79.71991158247118
 31
0.0
  0
LINE
  5
22A
  8
DEFAULT
 10
-32.29754766422242
 20
-79.71991158247118
 30
0.0
 11
-32.30191489972109
 21
-79.77094418583722
 31
0.0
  0
LINE
  5
22B
  8
DEFAULT
 10
-32.30191489972109
 20
-79.77094418583722
 30
0.0
 11
-32.30802189895373
 21
-79.82179793606855
 31
0.0
  0
LINE
  5
22C
  8
DEFAULT
 10
-32.30802189895373
 20
-79.82179793606855
 30
0.0
 11
-32.31586154143243
 21
-79.87241353996717
 31
0.0
  0
LINE
  5
22D
  8
DEFAULT
 10
-32.31586154143243
 20
-79.87241353996717
 30
0.0
 11
-32.32542468648474
 21
-79.92273198200313
 31
0.0
  0
LINE
  5
22E
  8
DEFAULT
 10
-32.32542468648474
 20
-79.92273198200313
 30
0.0
 11
-32.33670018391131
 21
-79.97269459312385
 31
0.0
  0
LINE
  5
22F
  8
DEFAULT
 10
-32.33670018391131
 20
-79.97269459312385
 30
0.0
 11
-32.34967488698653
 21
-80.02224311915971
 31
0.0
  0
LINE
  5
230
  8
DEFAULT
 10
-32.34967488698653
 20
-80.02224311915971
 30
0.0
 11
-32.36433366778699
 21
-80.07131978874578
 31
0.0
  0
LINE
  5
231
  8
DEFAULT
 10
-32.36433366778699
 20
-80.07131978874578
 30
0.0
 11
-32.38065943482999
 21
-80.11986738068066
 31
0.0
  0
LINE
  5
232
  8
DEFAULT
 10
-32.38065943482999
 20
-80.11986738068066
 30
0.0
 11
-32.39863315300148
 21
-80.16782929064377
 31
0.0
  0
LINE
  5
233
  8
DEFAULT
 10
-32.39863315300148
 20
-80.16782929064377
 30
0.0
 11
-32.41823386575005
 21
-80.21514959719354
 31
0.0
  0
LINE
  5
234
  8
DEFAULT
 10
-32.41823386575005
 20
-80.21514959719354
 30
0.0
 11
-32.43943871952143
 21
-80.2617731269693
 31
0.0
  0
LINE
  5
235
  8
DEFAULT
 10
-32.43943871952143
 20
-80.2617731269693
 30
0.0
 11
-32.46222299040465
 21
-80.30764551902091
 31
0.0
  0
LINE
  5
236
  8
DEFAULT
 10
-32.46222299040465
 20
-80.30764551902091
 30
0.0
 11
-32.4865601129591
 21
-80.35271328819121
 31
0.0
  0
LINE
  5
237
  8
DEFAULT
 10
-32.4865601129591
 20
-80.35271328819121
 30
0.0
 11
-32.51242171118849
 21
-80.39692388747734
 31
0.0
  0
LINE
  5
238
  8
DEFAULT
 10
-32.51242171118849
 20
-80.39692388747734
 30
0.0
 11
-32.53977763162616
 21
-80.44022576929817
 31
0.0
  0
LINE
  5
239
  8
DEFAULT
 10
-32.53977763162616
 20
-80.44022576929817
 30
0.0
 11
-32.56859597849256
 21
-80.48256844559648
 31
0.0
  0
LINE
  5
23A
  8
DEFAULT
 10
-32.56859597849256
 20
-80.48256844559648
 30
0.0
 11
-32.59884315088436
 21
-80.52390254670583
 31
0.0
  0
LINE
  5
23B
  8
DEFAULT
 10
-32.59884315088436
 20
-80.52390254670583
 30
0.0
 11
-32.6304838819516
 21
-80.56417987891327
 31
0.0
  0
LINE
  5
23C
  8
DEFAULT
 10
-32.6304838819516
 20
-80.56417987891327
 30
0.0
 11
-32.66348128001719
 21
-80.60335348065115
 31
0.0
  0
LINE
  5
23D
  8
DEFAULT
 10
-32.66348128001719
 20
-80.60335348065115
 30
0.0
 11
-32.69779687159104
 21
-80.64137767725217
 31
0.0
  0
LINE
  5
23E
  8
DEFAULT
 10
-32.69779687159104
 20
-80.64137767725217
 30
0.0
 11
-32.7333906462284
 21
-80.67820813420401
 31
0.0
  0
LINE
  5
23F
  8
DEFAULT
 10
-32.7333906462284
 20
-80.67820813420401
 30
0.0
 11
-32.77022110318025
 21
-80.71380190884138
 31
0.0
  0
LINE
  5
240
  8
DEFAULT
 10
-32.77022110318025
 20
-80.71380190884138
 30
0.0
 11
-32.80824529978127
 21
-80.74811750041523
 31
0.0
  0
LINE
  5
241
  8
DEFAULT
 10
-32.80824529978127
 20
-80.74811750041523
 30
0.0
 11
-32.84741890151915
 21
-80.78111489848081
 31
0.0
  0
LINE
  5
242
  8
DEFAULT
 10
-32.84741890151915
 20
-80.78111489848081
 30
0.0
 11
-32.88769623372659
 21
-80.81275562954805
 31
0.0
  0
LINE
  5
243
  8
DEFAULT
 10
-32.88769623372659
 20
-80.81275562954805
 30
0.0
 11
-32.92903033483593
 21
-80.84300280193986
 31
0.0
  0
LINE
  5
244
  8
DEFAULT
 10
-32.92903033483593
 20
-80.84300280193986
 30
0.0
 11
-32.97137301113425
 21
-80.87182114880626
 31
0.0
  0
LINE
  5
245
  8
DEFAULT
 10
-32.97137301113425
 20
-80.87182114880626
 30
0.0
 11
-33.01467489295508
 21
-80.89917706924392
 31
0.0
  0
LINE
  5
246
  8
DEFAULT
 10
-33.01467489295508
 20
-80.89917706924392
 30
0.0
 11
-33.05888549224121
 21
-80.92503866747332
 31
0.0
  0
LINE
  5
247
  8
DEFAULT
 10
-33.05888549224121
 20
-80.92503866747332
 30
0.0
 11
-33.1039532614115
 21
-80.94937579002774
 31
0.0
  0
LINE
  5
248
  8
DEFAULT
 10
-33.1039532614115
 20
-80.94937579002774
 30
0.0
 11
-33.14982565346312
 21
-80.97216006091098
 31
0.0
  0
LINE
  5
249
  8
DEFAULT
 10
-33.14982565346312
 20
-80.97216006091098
 30
0.0
 11
-33.19644918323888
 21
-80.99336491468236
 31
0.0
  0
LINE
  5
24A
  8
DEFAULT
 10
-33.19644918323888
 20
-80.99336491468236
 30
0.0
 11
-33.24376948978865
 21
-81.01296562743094
 31
0.0
  0
LINE
  5
24B
  8
DEFAULT
 10
-33.24376948978865
 20
-81.01296562743094
 30
0.0
 11
-33.29173139975176
 21
-81.03093934560242
 31
0.0
  0
LINE
  5
24C
  8
DEFAULT
 10
-33.29173139975176
 20
-81.03093934560242
 30
0.0
 11
-33.34027899168662
 21
-81.04726511264543
 31
0.0
  0
LINE
  5
24D
  8
DEFAULT
 10
-33.34027899168662
 20
-81.04726511264543
 30
0.0
 11
-33.3893556612727
 21
-81.06192389344588
 31
0.0
  0
LINE
  5
24E
  8
DEFAULT
 10
-33.3893556612727
 20
-81.06192389344588
 30
0.0
 11
-33.43890418730857
 21
-81.0748985965211
 31
0.0
  0
LINE
  5
24F
  8
DEFAULT
 10
-33.43890418730857
 20
-81.0748985965211
 30
0.0
 11
-33.48886679842929
 21
-81.08617409394766
 31
0.0
  0
LINE
  5
250
  8
DEFAULT
 10
-33.48886679842929
 20
-81.08617409394766
 30
0.0
 11
-33.53918524046524
 21
-81.09573723899997
 31
0.0
  0
LINE
  5
251
  8
DEFAULT
 10
-33.53918524046524
 20
-81.09573723899997
 30
0.0
 11
-33.58980084436388
 21
-81.10357688147867
 31
0.0
  0
LINE
  5
252
  8
DEFAULT
 10
-33.58980084436388
 20
-81.10357688147867
 30
0.0
 11
-33.6406545945952
 21
-81.10968388071133
 31
0.0
  0
LINE
  5
253
  8
DEFAULT
 10
-33.6406545945952
 20
-81.10968388071133
 30
0.0
 11
-33.69168719796124
 21
-81.11405111620999
 31
0.0
  0
LINE
  5
254
  8
DEFAULT
 10
-33.69168719796124
 20
-81.11405111620999
 30
0.0
 11
-33.7428391527293
 21
-81.11667349597343
 31
0.0
  0
LINE
  5
255
  8
DEFAULT
 10
-33.7428391527293
 20
-81.11667349597343
 30
0.0
 11
-33.79405081800825
 21
-81.11754796242417
 31
0.0
  0
LINE
  5
256
  8
DEFAULT
 10
-33.79405081800825
 20
-81.11754796242417
 30
0.0
 11
-39.87108802437681
 21
-81.11754796242418
 31
0.0
  0
LINE
  5
257
  8
DEFAULT
 10
-39.87108802437681
 20
-81.11754796242418
 30
0.0
 11
-39.92229968965576
 21
-81.11667349597343
 31
0.0
  0
LINE
  5
258
  8
DEFAULT
 10
-39.92229968965576
 20
-81.11667349597343
 30
0.0
 11
-39.97345164442382
 21
-81.11405111620998
 31
0.0
  0
LINE
  5
259
  8
DEFAULT
 10
-39.97345164442382
 20
-81.11405111620998
 30
0.0
 11
-40.02448424778986
 21
-81.10968388071132
 31
0.0
  0
LINE
  5
25A
  8
DEFAULT
 10
-40.02448424778986
 20
-81.10968388071132
 30
0.0
 11
-40.07533799802118
 21
-81.10357688147867
 31
0.0
  0
LINE
  5
25B
  8
DEFAULT
 10
-40.07533799802118
 20
-81.10357688147867
 30
0.0
 11
-40.12595360191981
 21
-81.09573723899997
 31
0.0
  0
LINE
  5
25C
  8
DEFAULT
 10
-40.12595360191981
 20
-81.09573723899997
 30
0.0
 11
-40.17627204395576
 21
-81.08617409394766
 31
0.0
  0
LINE
  5
25D
  8
DEFAULT
 10
-40.17627204395576
 20
-81.08617409394766
 30
0.0
 11
-40.22623465507648
 21
-81.0748985965211
 31
0.0
  0
LINE
  5
25E
  8
DEFAULT
 10
-40.22623465507648
 20
-81.0748985965211
 30
0.0
 11
-40.27578318111235
 21
-81.06192389344588
 31
0.0
  0
LINE
  5
25F
  8
DEFAULT
 10
-40.27578318111235
 20
-81.06192389344588
 30
0.0
 11
-40.32485985069843
 21
-81.04726511264542
 31
0.0
  0
LINE
  5
260
  8
DEFAULT
 10
-40.32485985069843
 20
-81.04726511264542
 30
0.0
 11
-40.3734074426333
 21
-81.03093934560242
 31
0.0
  0
LINE
  5
261
  8
DEFAULT
 10
-40.3734074426333
 20
-81.03093934560242
 30
0.0
 11
-40.42136935259641
 21
-81.01296562743093
 31
0.0
  0
LINE
  5
262
  8
DEFAULT
 10
-40.42136935259641
 20
-81.01296562743093
 30
0.0
 11
-40.46868965914618
 21
-80.99336491468236
 31
0.0
  0
LINE
  5
263
  8
DEFAULT
 10
-40.46868965914618
 20
-80.99336491468236
 30
0.0
 11
-40.51531318892194
 21
-80.97216006091098
 31
0.0
  0
LINE
  5
264
  8
DEFAULT
 10
-40.51531318892194
 20
-80.97216006091098
 30
0.0
 11
-40.56118558097355
 21
-80.94937579002774
 31
0.0
  0
LINE
  5
265
  8
DEFAULT
 10
-40.56118558097355
 20
-80.94937579002774
 30
0.0
 11
-40.60625335014385
 21
-80.92503866747332
 31
0.0
  0
LINE
  5
266
  8
DEFAULT
 10
-40.60625335014385
 20
-80.92503866747332
 30
0.0
 11
-40.65046394942998
 21
-80.8991770692439
 31
0.0
  0
LINE
  5
267
  8
DEFAULT
 10
-40.65046394942998
 20
-80.8991770692439
 30
0.0
 11
-40.69376583125081
 21
-80.87182114880623
 31
0.0
  0
LINE
  5
268
  8
DEFAULT
 10
-40.69376583125081
 20
-80.87182114880623
 30
0.0
 11
-40.73610850754913
 21
-80.84300280193983
 31
0.0
  0
LINE
  5
269
  8
DEFAULT
 10
-40.73610850754913
 20
-80.84300280193983
 30
0.0
 11
-40.77744260865847
 21
-80.81275562954804
 31
0.0
  0
LINE
  5
26A
  8
DEFAULT
 10
-40.77744260865847
 20
-80.81275562954804
 30
0.0
 11
-40.81771994086591
 21
-80.78111489848081
 31
0.0
  0
LINE
  5
26B
  8
DEFAULT
 10
-40.81771994086591
 20
-80.78111489848081
 30
0.0
 11
-40.85689354260379
 21
-80.74811750041522
 31
0.0
  0
LINE
  5
26C
  8
DEFAULT
 10
-40.85689354260379
 20
-80.74811750041522
 30
0.0
 11
-40.89491773920481
 21
-80.71380190884136
 31
0.0
  0
LINE
  5
26D
  8
DEFAULT
 10
-40.89491773920481
 20
-80.71380190884136
 30
0.0
 11
-40.93174819615665
 21
-80.678208134204
 31
0.0
  0
LINE
  5
26E
  8
DEFAULT
 10
-40.93174819615665
 20
-80.678208134204
 30
0.0
 11
-40.96734197079401
 21
-80.64137767725215
 31
0.0
  0
LINE
  5
26F
  8
DEFAULT
 10
-40.96734197079401
 20
-80.64137767725215
 30
0.0
 11
-41.00165756236787
 21
-80.60335348065114
 31
0.0
  0
LINE
  5
270
  8
DEFAULT
 10
-41.00165756236787
 20
-80.60335348065114
 30
0.0
 11
-41.03465496043346
 21
-80.56417987891325
 31
0.0
  0
LINE
  5
271
  8
DEFAULT
 10
-41.03465496043346
 20
-80.56417987891325
 30
0.0
 11
-41.06629569150068
 21
-80.52390254670581
 31
0.0
  0
LINE
  5
272
  8
DEFAULT
 10
-41.06629569150068
 20
-80.52390254670581
 30
0.0
 11
-41.09654286389249
 21
-80.48256844559648
 31
0.0
  0
LINE
  5
273
  8
DEFAULT
 10
-41.09654286389249
 20
-80.48256844559648
 30
0.0
 11
-41.1253612107589
 21
-80.44022576929815
 31
0.0
  0
LINE
  5
274
  8
DEFAULT
 10
-41.1253612107589
 20
-80.44022576929815
 30
0.0
 11
-41.15271713119657
 21
-80.39692388747733
 31
0.0
  0
LINE
  5
275
  8
DEFAULT
 10
-41.15271713119657
 20
-80.39692388747733
 30
0.0
 11
-41.17857872942596
 21
-80.3527132881912
 31
0.0
  0
LINE
  5
276
  8
DEFAULT
 10
-41.17857872942596
 20
-80.3527132881912
 30
0.0
 11
-41.20291585198039
 21
-80.30764551902091
 31
0.0
  0
LINE
  5
277
  8
DEFAULT
 10
-41.20291585198039
 20
-80.30764551902091
 30
0.0
 11
-41.22570012286364
 21
-80.2617731269693
 31
0.0
  0
LINE
  5
278
  8
DEFAULT
 10
-41.22570012286364
 20
-80.2617731269693
 30
0.0
 11
-41.24690497663502
 21
-80.21514959719353
 31
0.0
  0
LINE
  5
279
  8
DEFAULT
 10
-41.24690497663502
 20
-80.21514959719353
 30
0.0
 11
-41.26650568938359
 21
-80.16782929064377
 31
0.0
  0
LINE
  5
27A
  8
DEFAULT
 10
-41.26650568938359
 20
-80.16782929064377
 30
0.0
 11
-41.28447940755507
 21
-80.11986738068066
 31
0.0
  0
LINE
  5
27B
  8
DEFAULT
 10
-41.28447940755507
 20
-80.11986738068066
 30
0.0
 11
-41.30080517459808
 21
-80.07131978874578
 31
0.0
  0
LINE
  5
27C
  8
DEFAULT
 10
-41.30080517459808
 20
-80.07131978874578
 30
0.0
 11
-41.31546395539853
 21
-80.02224311915971
 31
0.0
  0
LINE
  5
27D
  8
DEFAULT
 10
-41.31546395539853
 20
-80.02224311915971
 30
0.0
 11
-41.32843865847374
 21
-79.97269459312385
 31
0.0
  0
LINE
  5
27E
  8
DEFAULT
 10
-41.32843865847374
 20
-79.97269459312385
 30
0.0
 11
-41.33971415590032
 21
-79.92273198200313
 31
0.0
  0
LINE
  5
27F
  8
DEFAULT
 10
-41.33971415590032
 20
-79.92273198200313
 30
0.0
 11
-41.34927730095263
 21
-79.87241353996717
 31
0.0
  0
LINE
  5
280
  8
DEFAULT
 10
-41.34927730095263
 20
-79.87241353996717
 30
0.0
 11
-41.35711694343133
 21
-79.82179793606853
 31
0.0
  0
LINE
  5
281
  8
DEFAULT
 10
-41.35711694343133
 20
-79.82179793606853
 30
0.0
 11
-41.36322394266397
 21
-79.77094418583722
 31
0.0
  0
LINE
  5
282
  8
DEFAULT
 10
-41.36322394266397
 20
-79.77094418583722
 30
0.0
 11
-41.36759117816264
 21
-79.71991158247118
 31
0.0
  0
LINE
  5
283
  8
DEFAULT
 10
-41.36759117816264
 20
-79.71991158247118
 30
0.0
 11
-41.37021355792609
 21
-79.66875962770312
 31
0.0
  0
LINE
  5
284
  8
DEFAULT
 10
-41.37021355792609
 20
-79.66875962770312
 30
0.0
 11
-41.37108802437683
 21
-79.61754796242417
 31
0.0
  0
LINE
  5
285
  8
DEFAULT
 10
-41.37108802437683
 20
-79.61754796242417
 30
0.0
 11
-41.37108802437682
 21
-70.61754796242418
 31
0.0
  0
LINE
  5
286
  8
DEFAULT
 10
-41.37108802437682
 20
-70.61754796242418
 30
0.0
 11
-41.37021355792608
 21
-70.56633629714524
 31
0.0
  0
LINE
  5
287
  8
DEFAULT
 10
-41.37021355792608
 20
-70.56633629714524
 30
0.0
 11
-41.36759117816263
 21
-70.51518434237718
 31
0.0
  0
LINE
  5
288
  8
DEFAULT
 10
-41.36759117816263
 20
-70.51518434237718
 30
0.0
 11
-41.36322394266396
 21
-70.46415173901114
 31
0.0
  0
LINE
  5
289
  8
DEFAULT
 10
-41.36322394266396
 20
-70.46415173901114
 30
0.0
 11
-41.35711694343131
 21
-70.41329798877982
 31
0.0
  0
LINE
  5
28A
  8
DEFAULT
 10
-41.35711694343131
 20
-70.41329798877982
 30
0.0
 11
-41.34927730095261
 21
-70.3626823848812
 31
0.0
  0
LINE
  5
28B
  8
DEFAULT
 10
-41.34927730095261
 20
-70.3626823848812
 30
0.0
 11
-41.3397141559003
 21
-70.31236394284524
 31
0.0
  0
LINE
  5
28C
  8
DEFAULT
 10
-41.3397141559003
 20
-70.31236394284524
 30
0.0
 11
-41.32843865847372
 21
-70.26240133172452
 31
0.0
  0
LINE
  5
28D
  8
DEFAULT
 10
-41.32843865847372
 20
-70.26240133172452
 30
0.0
 11
-41.31546395539851
 21
-70.21285280568866
 31
0.0
  0
LINE
  5
28E
  8
DEFAULT
 10
-41.31546395539851
 20
-70.21285280568866
 30
0.0
 11
-41.30080517459805
 21
-70.16377613610257
 31
0.0
  0
LINE
  5
28F
  8
DEFAULT
 10
-41.30080517459805
 20
-70.16377613610257
 30
0.0
 11
-41.28447940755504
 21
-70.1152285441677
 31
0.0
  0
LINE
  5
290
  8
DEFAULT
 10
-41.28447940755504
 20
-70.1152285441677
 30
0.0
 11
-41.26650568938356
 21
-70.0672666342046
 31
0.0
  0
LINE
  5
291
  8
DEFAULT
 10
-41.26650568938356
 20
-70.0672666342046
 30
0.0
 11
-41.24690497663499
 21
-70.01994632765482
 31
0.0
  0
LINE
  5
292
  8
DEFAULT
 10
-41.24690497663499
 20
-70.01994632765482
 30
0.0
 11
-41.22570012286361
 21
-69.97332279787906
 31
0.0
  0
LINE
  5
293
  8
DEFAULT
 10
-41.22570012286361
 20
-69.97332279787906
 30
0.0
 11
-41.20291585198038
 21
-69.92745040582746
 31
0.0
  0
LINE
  5
294
  8
DEFAULT
 10
-41.20291585198038
 20
-69.92745040582746
 30
0.0
 11
-41.17857872942594
 21
-69.88238263665717
 31
0.0
  0
LINE
  5
295
  8
DEFAULT
 10
-41.17857872942594
 20
-69.88238263665717
 30
0.0
 11
-41.15271713119654
 21
-69.83817203737104
 31
0.0
  0
LINE
  5
296
  8
DEFAULT
 10
-41.15271713119654
 20
-69.83817203737104
 30
0.0
 11
-41.12536121075887
 21
-69.79487015555021
 31
0.0
  0
LINE
  5
297
  8
DEFAULT
 10
-41.12536121075887
 20
-69.79487015555021
 30
0.0
 11
-41.09654286389247
 21
-69.75252747925188
 31
0.0
  0
LINE
  5
298
  8
DEFAULT
 10
-41.09654286389247
 20
-69.75252747925188
 30
0.0
 11
-41.06629569150066
 21
-69.71119337814254
 31
0.0
  0
LINE
  5
299
  8
DEFAULT
 10
-41.06629569150066
 20
-69.71119337814254
 30
0.0
 11
-41.03465496043344
 21
-69.6709160459351
 31
0.0
  0
LINE
  5
29A
  8
DEFAULT
 10
-41.03465496043344
 20
-69.6709160459351
 30
0.0
 11
-41.00165756236785
 21
-69.63174244419723
 31
0.0
  0
LINE
  5
29B
  8
DEFAULT
 10
-41.00165756236785
 20
-69.63174244419723
 30
0.0
 11
-40.96734197079399
 21
-69.5937182475962
 31
0.0
  0
LINE
  5
29C
  8
DEFAULT
 10
-40.96734197079399
 20
-69.5937182475962
 30
0.0
 11
-40.93174819615663
 21
-69.55688779064437
 31
0.0
  0
LINE
  5
29D
  8
DEFAULT
 10
-40.93174819615663
 20
-69.55688779064437
 30
0.0
 11
-40.89491773920479
 21
-69.521294016007
 31
0.0
  0
LINE
  5
29E
  8
DEFAULT
 10
-40.89491773920479
 20
-69.521294016007
 30
0.0
 11
-40.85689354260376
 21
-69.48697842443315
 31
0.0
  0
LINE
  5
29F
  8
DEFAULT
 10
-40.85689354260376
 20
-69.48697842443315
 30
0.0
 11
-40.81771994086589
 21
-69.45398102636756
 31
0.0
  0
LINE
  5
2A0
  8
DEFAULT
 10
-40.81771994086589
 20
-69.45398102636756
 30
0.0
 11
-40.77744260865845
 21
-69.42234029530033
 31
0.0
  0
LINE
  5
2A1
  8
DEFAULT
 10
-40.77744260865845
 20
-69.42234029530033
 30
0.0
 11
-40.7361085075491
 21
-69.39209312290852
 31
0.0
  0
LINE
  5
2A2
  8
DEFAULT
 10
-40.7361085075491
 20
-69.39209312290852
 30
0.0
 11
-40.69376583125077
 21
-69.36327477604212
 31
0.0
  0
LINE
  5
2A3
  8
DEFAULT
 10
-40.69376583125077
 20
-69.36327477604212
 30
0.0
 11
-40.65046394942995
 21
-69.33591885560445
 31
0.0
  0
LINE
  5
2A4
  8
DEFAULT
 10
-40.65046394942995
 20
-69.33591885560445
 30
0.0
 11
-40.60625335014382
 21
-69.31005725737506
 31
0.0
  0
LINE
  5
2A5
  8
DEFAULT
 10
-40.60625335014382
 20
-69.31005725737506
 30
0.0
 11
-40.56118558097353
 21
-69.28572013482062
 31
0.0
  0
LINE
  5
2A6
  8
DEFAULT
 10
-40.56118558097353
 20
-69.28572013482062
 30
0.0
 11
-40.51531318892192
 21
-69.26293586393739
 31
0.0
  0
LINE
  5
2A7
  8
DEFAULT
 10
-40.51531318892192
 20
-69.26293586393739
 30
0.0
 11
-40.46868965914616
 21
-69.241731010166
 31
0.0
  0
LINE
  5
2A8
  8
DEFAULT
 10
-40.46868965914616
 20
-69.241731010166
 30
0.0
 11
-40.42136935259638
 21
-69.22213029741744
 31
0.0
  0
LINE
  5
2A9
  8
DEFAULT
 10
-40.42136935259638
 20
-69.22213029741744
 30
0.0
 11
-40.37340744263328
 21
-69.20415657924595
 31
0.0
  0
LINE
  5
2AA
  8
DEFAULT
 10
-40.37340744263328
 20
-69.20415657924595
 30
0.0
 11
-40.32485985069841
 21
-69.18783081220296
 31
0.0
  0
LINE
  5
2AB
  8
DEFAULT
 10
-40.32485985069841
 20
-69.18783081220296
 30
0.0
 11
-40.27578318111233
 21
-69.1731720314025
 31
0.0
  0
LINE
  5
2AC
  8
DEFAULT
 10
-40.27578318111233
 20
-69.1731720314025
 30
0.0
 11
-40.22623465507647
 21
-69.16019732832729
 31
0.0
  0
LINE
  5
2AD
  8
DEFAULT
 10
-40.22623465507647
 20
-69.16019732832729
 30
0.0
 11
-40.17627204395575
 21
-69.14892183090072
 31
0.0
  0
LINE
  5
2AE
  8
DEFAULT
 10
-40.17627204395575
 20
-69.14892183090072
 30
0.0
 11
-40.1259536019198
 21
-69.1393586858484
 31
0.0
  0
LINE
  5
2AF
  8
DEFAULT
 10
-40.1259536019198
 20
-69.1393586858484
 30
0.0
 11
-40.07533799802117
 21
-69.1315190433697
 31
0.0
  0
LINE
  5
2B0
  8
DEFAULT
 10
-40.07533799802117
 20
-69.1315190433697
 30
0.0
 11
-40.02448424778985
 21
-69.12541204413705
 31
0.0
  0
LINE
  5
2B1
  8
DEFAULT
 10
-40.02448424778985
 20
-69.12541204413705
 30
0.0
 11
-39.9734516444238
 21
-69.12104480863839
 31
0.0
  0
LINE
  5
2B2
  8
DEFAULT
 10
-39.9734516444238
 20
-69.12104480863839
 30
0.0
 11
-39.92229968965575
 21
-69.11842242887494
 31
0.0
  0
LINE
  5
2B3
  8
DEFAULT
 10
-39.92229968965575
 20
-69.11842242887494
 30
0.0
 11
-39.8710880243768
 21
-69.1175479624242
 31
0.0
  0
LINE
  5
2B4
  8
DEFAULT
 10
-39.8710880243768
 20
-69.1175479624242
 30
0.0
 11
-33.79405081800825
 21
-69.11754796242418
 31
0.0
  0
LINE
  5
2B5
  8
DEFAULT
 10
-33.79405081800825
 20
-69.11754796242418
 30
0.0
 11
-33.7428391527293
 21
-69.11842242887494
 31
0.0
  0
LINE
  5
2B6
  8
DEFAULT
 10
-33.7428391527293
 20
-69.11842242887494
 30
0.0
 11
-33.69168719796124
 21
-69.12104480863839
 31
0.0
  0
LINE
  5
2B7
  8
DEFAULT
 10
-33.69168719796124
 20
-69.12104480863839
 30
0.0
 11
-33.6406545945952
 21
-69.12541204413705
 31
0.0
  0
LINE
  5
2B8
  8
DEFAULT
 10
-33.6406545945952
 20
-69.12541204413705
 30
0.0
 11
-33.58980084436388
 21
-69.1315190433697
 31
0.0
  0
LINE
  5
2B9
  8
DEFAULT
 10
-33.58980084436388
 20
-69.1315190433697
 30
0.0
 11
-33.53918524046525
 21
-69.1393586858484
 31
0.0
  0
LINE
  5
2BA
  8
DEFAULT
 10
-33.53918524046525
 20
-69.1393586858484
 30
0.0
 11
-33.4888667984293
 21
-69.1489218309007
 31
0.0
  0
LINE
  5
2BB
  8
DEFAULT
 10
-33.4888667984293
 20
-69.1489218309007
 30
0.0
 11
-33.43890418730858
 21
-69.16019732832729
 31
0.0
  0
LINE
  5
2BC
  8
DEFAULT
 10
-33.43890418730858
 20
-69.16019732832729
 30
0.0
 11
-33.38935566127272
 21
-69.1731720314025
 31
0.0
  0
LINE
  5
2BD
  8
DEFAULT
 10
-33.38935566127272
 20
-69.1731720314025
 30
0.0
 11
-33.34027899168664
 21
-69.18783081220296
 31
0.0
  0
LINE
  5
2BE
  8
DEFAULT
 10
-33.34027899168664
 20
-69.18783081220296
 30
0.0
 11
-33.29173139975178
 21
-69.20415657924596
 31
0.0
  0
LINE
  5
2BF
  8
DEFAULT
 10
-33.29173139975178
 20
-69.20415657924596
 30
0.0
 11
-33.24376948978866
 21
-69.22213029741745
 31
0.0
  0
LINE
  5
2C0
  8
DEFAULT
 10
-33.24376948978866
 20
-69.22213029741745
 30
0.0
 11
-33.19644918323889
 21
-69.24173101016602
 31
0.0
  0
LINE
  5
2C1
  8
DEFAULT
 10
-33.19644918323889
 20
-69.24173101016602
 30
0.0
 11
-33.14982565346313
 21
-69.2629358639374
 31
0.0
  0
LINE
  5
2C2
  8
DEFAULT
 10
-33.14982565346313
 20
-69.2629358639374
 30
0.0
 11
-33.10395326141152
 21
-69.28572013482064
 31
0.0
  0
LINE
  5
2C3
  8
DEFAULT
 10
-33.10395326141152
 20
-69.28572013482064
 30
0.0
 11
-33.05888549224122
 21
-69.31005725737506
 31
0.0
  0
LINE
  5
2C4
  8
DEFAULT
 10
-33.05888549224122
 20
-69.31005725737506
 30
0.0
 11
-33.0146748929551
 21
-69.33591885560446
 31
0.0
  0
LINE
  5
2C5
  8
DEFAULT
 10
-33.0146748929551
 20
-69.33591885560446
 30
0.0
 11
-32.97137301113427
 21
-69.36327477604213
 31
0.0
  0
LINE
  5
2C6
  8
DEFAULT
 10
-32.97137301113427
 20
-69.36327477604213
 30
0.0
 11
-32.92903033483595
 21
-69.39209312290853
 31
0.0
  0
LINE
  5
2C7
  8
DEFAULT
 10
-32.92903033483595
 20
-69.39209312290853
 30
0.0
 11
-32.88769623372661
 21
-69.42234029530033
 31
0.0
  0
LINE
  5
2C8
  8
DEFAULT
 10
-32.88769623372661
 20
-69.42234029530033
 30
0.0
 11
-32.84741890151917
 21
-69.45398102636757
 31
0.0
  0
LINE
  5
2C9
  8
DEFAULT
 10
-32.84741890151917
 20
-69.45398102636757
 30
0.0
 11
-32.80824529978129
 21
-69.48697842443315
 31
0.0
  0
LINE
  5
2CA
  8
DEFAULT
 10
-32.80824529978129
 20
-69.48697842443315
 30
0.0
 11
-32.77022110318026
 21
-69.521294016007
 31
0.0
  0
LINE
  5
2CB
  8
DEFAULT
 10
-32.77022110318026
 20
-69.521294016007
 30
0.0
 11
-32.73339064622843
 21
-69.55688779064437
 31
0.0
  0
LINE
  5
2CC
  8
DEFAULT
 10
-32.73339064622843
 20
-69.55688779064437
 30
0.0
 11
-32.69779687159106
 21
-69.59371824759621
 31
0.0
  0
LINE
  5
2CD
  8
DEFAULT
 10
-32.69779687159106
 20
-69.59371824759621
 30
0.0
 11
-32.66348128001721
 21
-69.63174244419723
 31
0.0
  0
LINE
  5
2CE
  8
DEFAULT
 10
-32.66348128001721
 20
-69.63174244419723
 30
0.0
 11
-32.63048388195162
 21
-69.67091604593512
 31
0.0
  0
LINE
  5
2CF
  8
DEFAULT
 10
-32.63048388195162
 20
-69.67091604593512
 30
0.0
 11
-32.59884315088439
 21
-69.71119337814255
 31
0.0
  0
LINE
  5
2D0
  8
DEFAULT
 10
-32.59884315088439
 20
-69.71119337814255
 30
0.0
 11
-32.56859597849258
 21
-69.7525274792519
 31
0.0
  0
LINE
  5
2D1
  8
DEFAULT
 10
-32.56859597849258
 20
-69.7525274792519
 30
0.0
 11
-32.53977763162618
 21
-69.79487015555021
 31
0.0
  0
LINE
  5
2D2
  8
DEFAULT
 10
-32.53977763162618
 20
-69.79487015555021
 30
0.0
 11
-32.51242171118852
 21
-69.83817203737104
 31
0.0
  0
LINE
  5
2D3
  8
DEFAULT
 10
-32.51242171118852
 20
-69.83817203737104
 30
0.0
 11
-32.48656011295912
 21
-69.88238263665717
 31
0.0
  0
LINE
  5
2D4
  8
DEFAULT
 10
-32.48656011295912
 20
-69.88238263665717
 30
0.0
 11
-32.46222299040468
 21
-69.92745040582747
 31
0.0
  0
LINE
  5
2D5
  8
DEFAULT
 10
-32.46222299040468
 20
-69.92745040582747
 30
0.0
 11
-32.43943871952145
 21
-69.97332279787908
 31
0.0
  0
LINE
  5
2D6
  8
DEFAULT
 10
-32.43943871952145
 20
-69.97332279787908
 30
0.0
 11
-32.41823386575007
 21
-70.01994632765484
 31
0.0
  0
LINE
  5
2D7
  8
DEFAULT
 10
-32.41823386575007
 20
-70.01994632765484
 30
0.0
 11
-32.3986331530015
 21
-70.06726663420461
 31
0.0
  0
LINE
  5
2D8
  8
DEFAULT
 10
-32.3986331530015
 20
-70.06726663420461
 30
0.0
 11
-32.38065943483002
 21
-70.11522854416772
 31
0.0
  0
LINE
  5
2D9
  8
DEFAULT
 10
-32.38065943483002
 20
-70.11522854416772
 30
0.0
 11
-32.364333667787
 21
-70.16377613610258
 31
0.0
  0
LINE
  5
2DA
  8
DEFAULT
 10
-32.364333667787
 20
-70.16377613610258
 30
0.0
 11
-32.34967488698655
 21
-70.21285280568866
 31
0.0
  0
LINE
  5
2DB
  8
DEFAULT
 10
-32.34967488698655
 20
-70.21285280568866
 30
0.0
 11
-32.33670018391133
 21
-70.26240133172453
 31
0.0
  0
LINE
  5
2DC
  8
DEFAULT
 10
-32.33670018391133
 20
-70.26240133172453
 30
0.0
 11
-32.32542468648476
 21
-70.31236394284524
 31
0.0
  0
LINE
  5
2DD
  8
DEFAULT
 10
-32.32542468648476
 20
-70.31236394284524
 30
0.0
 11
-32.31586154143245
 21
-70.3626823848812
 31
0.0
  0
LINE
  5
2DE
  8
DEFAULT
 10
-32.31586154143245
 20
-70.3626823848812
 30
0.0
 11
-32.30802189895375
 21
-70.41329798877983
 31
0.0
  0
LINE
  5
2DF
  8
DEFAULT
 10
-32.30802189895375
 20
-70.41329798877983
 30
0.0
 11
-32.3019148997211
 21
-70.46415173901114
 31
0.0
  0
LINE
  5
2E0
  8
DEFAULT
 10
-32.3019148997211
 20
-70.46415173901114
 30
0.0
 11
-32.29754766422244
 21
-70.5151843423772
 31
0.0
  0
LINE
  5
2E1
  8
DEFAULT
 10
-32.29754766422244
 20
-70.5151843423772
 30
0.0
 11
-32.29492528445898
 21
-70.56633629714524
 31
0.0
  0
LINE
  5
2E2
  8
DEFAULT
 10
-32.29492528445898
 20
-70.56633629714524
 30
0.0
 11
-32.29405081800824
 21
-70.6175479624242
 31
0.0
  0
LINE
  5
2E3
  8
DEFAULT
 10
-32.29405081800824
 20
-70.6175479624242
 30
0.0
 11
-32.29405081800824
 21
-79.61754796242418
 31
0.0
  0
LINE
  5
2E4
  8
DEFAULT
 10
-32.29405081800824
 20
-63.62399779745928
 30
0.0
 11
-32.29492528445898
 21
-63.67520946273824
 31
0.0
  0
LINE
  5
2E5
  8
DEFAULT
 10
-32.29492528445898
 20
-63.67520946273824
 30
0.0
 11
-32.29754766422242
 21
-63.72636141750629
 31
0.0
  0
LINE
  5
2E6
  8
DEFAULT
 10
-32.29754766422242
 20
-63.72636141750629
 30
0.0
 11
-32.30191489972109
 21
-63.77739402087234
 31
0.0
  0
LINE
  5
2E7
  8
DEFAULT
 10
-32.30191489972109
 20
-63.77739402087234
 30
0.0
 11
-32.30802189895373
 21
-63.82824777110365
 31
0.0
  0
LINE
  5
2E8
  8
DEFAULT
 10
-32.30802189895373
 20
-63.82824777110365
 30
0.0
 11
-32.31586154143243
 21
-63.87886337500229
 31
0.0
  0
LINE
  5
2E9
  8
DEFAULT
 10
-32.31586154143243
 20
-63.87886337500229
 30
0.0
 11
-32.32542468648474
 21
-63.92918181703824
 31
0.0
  0
LINE
  5
2EA
  8
DEFAULT
 10
-32.32542468648474
 20
-63.92918181703824
 30
0.0
 11
-32.33670018391131
 21
-63.97914442815896
 31
0.0
  0
LINE
  5
2EB
  8
DEFAULT
 10
-32.33670018391131
 20
-63.97914442815896
 30
0.0
 11
-32.34967488698653
 21
-64.02869295419482
 31
0.0
  0
LINE
  5
2EC
  8
DEFAULT
 10
-32.34967488698653
 20
-64.02869295419482
 30
0.0
 11
-32.36433366778699
 21
-64.07776962378091
 31
0.0
  0
LINE
  5
2ED
  8
DEFAULT
 10
-32.36433366778699
 20
-64.07776962378091
 30
0.0
 11
-32.38065943482999
 21
-64.12631721571577
 31
0.0
  0
LINE
  5
2EE
  8
DEFAULT
 10
-32.38065943482999
 20
-64.12631721571577
 30
0.0
 11
-32.39863315300148
 21
-64.17427912567888
 31
0.0
  0
LINE
  5
2EF
  8
DEFAULT
 10
-32.39863315300148
 20
-64.17427912567888
 30
0.0
 11
-32.41823386575005
 21
-64.22159943222866
 31
0.0
  0
LINE
  5
2F0
  8
DEFAULT
 10
-32.41823386575005
 20
-64.22159943222866
 30
0.0
 11
-32.43943871952143
 21
-64.26822296200442
 31
0.0
  0
LINE
  5
2F1
  8
DEFAULT
 10
-32.43943871952143
 20
-64.26822296200442
 30
0.0
 11
-32.46222299040465
 21
-64.31409535405602
 31
0.0
  0
LINE
  5
2F2
  8
DEFAULT
 10
-32.46222299040465
 20
-64.31409535405602
 30
0.0
 11
-32.4865601129591
 21
-64.35916312322632
 31
0.0
  0
LINE
  5
2F3
  8
DEFAULT
 10
-32.4865601129591
 20
-64.35916312322632
 30
0.0
 11
-32.51242171118849
 21
-64.40337372251246
 31
0.0
  0
LINE
  5
2F4
  8
DEFAULT
 10
-32.51242171118849
 20
-64.40337372251246
 30
0.0
 11
-32.53977763162616
 21
-64.44667560433328
 31
0.0
  0
LINE
  5
2F5
  8
DEFAULT
 10
-32.53977763162616
 20
-64.44667560433328
 30
0.0
 11
-32.56859597849256
 21
-64.4890182806316
 31
0.0
  0
LINE
  5
2F6
  8
DEFAULT
 10
-32.56859597849256
 20
-64.4890182806316
 30
0.0
 11
-32.59884315088436
 21
-64.53035238174095
 31
0.0
  0
LINE
  5
2F7
  8
DEFAULT
 10
-32.59884315088436
 20
-64.53035238174095
 30
0.0
 11
-32.63048388195159
 21
-64.57062971394838
 31
0.0
  0
LINE
  5
2F8
  8
DEFAULT
 10
-32.63048388195159
 20
-64.57062971394838
 30
0.0
 11
-32.66348128001719
 21
-64.60980331568626
 31
0.0
  0
LINE
  5
2F9
  8
DEFAULT
 10
-32.66348128001719
 20
-64.60980331568626
 30
0.0
 11
-32.69779687159104
 21
-64.64782751228728
 31
0.0
  0
LINE
  5
2FA
  8
DEFAULT
 10
-32.69779687159104
 20
-64.64782751228728
 30
0.0
 11
-32.7333906462284
 21
-64.68465796923913
 31
0.0
  0
LINE
  5
2FB
  8
DEFAULT
 10
-32.7333906462284
 20
-64.68465796923913
 30
0.0
 11
-32.77022110318024
 21
-64.7202517438765
 31
0.0
  0
LINE
  5
2FC
  8
DEFAULT
 10
-32.77022110318024
 20
-64.7202517438765
 30
0.0
 11
-32.80824529978127
 21
-64.75456733545035
 31
0.0
  0
LINE
  5
2FD
  8
DEFAULT
 10
-32.80824529978127
 20
-64.75456733545035
 30
0.0
 11
-32.84741890151915
 21
-64.78756473351594
 31
0.0
  0
LINE
  5
2FE
  8
DEFAULT
 10
-32.84741890151915
 20
-64.78756473351594
 30
0.0
 11
-32.88769623372659
 21
-64.81920546458316
 31
0.0
  0
LINE
  5
2FF
  8
DEFAULT
 10
-32.88769623372659
 20
-64.81920546458316
 30
0.0
 11
-32.92903033483593
 21
-64.84945263697497
 31
0.0
  0
LINE
  5
300
  8
DEFAULT
 10
-32.92903033483593
 20
-64.84945263697497
 30
0.0
 11
-32.97137301113425
 21
-64.87827098384138
 31
0.0
  0
LINE
  5
301
  8
DEFAULT
 10
-32.97137301113425
 20
-64.87827098384138
 30
0.0
 11
-33.01467489295508
 21
-64.90562690427905
 31
0.0
  0
LINE
  5
302
  8
DEFAULT
 10
-33.01467489295508
 20
-64.90562690427905
 30
0.0
 11
-33.05888549224121
 21
-64.93148850250843
 31
0.0
  0
LINE
  5
303
  8
DEFAULT
 10
-33.05888549224121
 20
-64.93148850250843
 30
0.0
 11
-33.1039532614115
 21
-64.95582562506287
 31
0.0
  0
LINE
  5
304
  8
DEFAULT
 10
-33.1039532614115
 20
-64.95582562506287
 30
0.0
 11
-33.14982565346312
 21
-64.97860989594611
 31
0.0
  0
LINE
  5
305
  8
DEFAULT
 10
-33.14982565346312
 20
-64.97860989594611
 30
0.0
 11
-33.19644918323888
 21
-64.99981474971749
 31
0.0
  0
LINE
  5
306
  8
DEFAULT
 10
-33.19644918323888
 20
-64.99981474971749
 30
0.0
 11
-33.24376948978865
 21
-65.01941546246606
 31
0.0
  0
LINE
  5
307
  8
DEFAULT
 10
-33.24376948978865
 20
-65.01941546246606
 30
0.0
 11
-33.29173139975175
 21
-65.03738918063753
 31
0.0
  0
LINE
  5
308
  8
DEFAULT
 10
-33.29173139975175
 20
-65.03738918063753
 30
0.0
 11
-33.34027899168662
 21
-65.05371494768055
 31
0.0
  0
LINE
  5
309
  8
DEFAULT
 10
-33.34027899168662
 20
-65.05371494768055
 30
0.0
 11
-33.3893556612727
 21
-65.068373728481
 31
0.0
  0
LINE
  5
30A
  8
DEFAULT
 10
-33.3893556612727
 20
-65.068373728481
 30
0.0
 11
-33.43890418730857
 21
-65.08134843155621
 31
0.0
  0
LINE
  5
30B
  8
DEFAULT
 10
-33.43890418730857
 20
-65.08134843155621
 30
0.0
 11
-33.48886679842929
 21
-65.09262392898277
 31
0.0
  0
LINE
  5
30C
  8
DEFAULT
 10
-33.48886679842929
 20
-65.09262392898277
 30
0.0
 11
-33.53918524046524
 21
-65.1021870740351
 31
0.0
  0
LINE
  5
30D
  8
DEFAULT
 10
-33.53918524046524
 20
-65.1021870740351
 30
0.0
 11
-33.58980084436388
 21
-65.11002671651379
 31
0.0
  0
LINE
  5
30E
  8
DEFAULT
 10
-33.58980084436388
 20
-65.11002671651379
 30
0.0
 11
-33.6406545945952
 21
-65.11613371574643
 31
0.0
  0
LINE
  5
30F
  8
DEFAULT
 10
-33.6406545945952
 20
-65.11613371574643
 30
0.0
 11
-33.69168719796124
 21
-65.1205009512451
 31
0.0
  0
LINE
  5
310
  8
DEFAULT
 10
-33.69168719796124
 20
-65.1205009512451
 30
0.0
 11
-33.7428391527293
 21
-65.12312333100856
 31
0.0
  0
LINE
  5
311
  8
DEFAULT
 10
-33.7428391527293
 20
-65.12312333100856
 30
0.0
 11
-33.79405081800825
 21
-65.12399779745928
 31
0.0
  0
LINE
  5
312
  8
DEFAULT
 10
-33.79405081800825
 20
-65.12399779745928
 30
0.0
 11
-39.87108802437681
 21
-65.1239977974593
 31
0.0
  0
LINE
  5
313
  8
DEFAULT
 10
-39.87108802437681
 20
-65.1239977974593
 30
0.0
 11
-39.92229968965577
 21
-65.12312333100856
 31
0.0
  0
LINE
  5
314
  8
DEFAULT
 10
-39.92229968965577
 20
-65.12312333100856
 30
0.0
 11
-39.97345164442382
 21
-65.1205009512451
 31
0.0
  0
LINE
  5
315
  8
DEFAULT
 10
-39.97345164442382
 20
-65.1205009512451
 30
0.0
 11
-40.02448424778986
 21
-65.11613371574643
 31
0.0
  0
LINE
  5
316
  8
DEFAULT
 10
-40.02448424778986
 20
-65.11613371574643
 30
0.0
 11
-40.07533799802118
 21
-65.11002671651379
 31
0.0
  0
LINE
  5
317
  8
DEFAULT
 10
-40.07533799802118
 20
-65.11002671651379
 30
0.0
 11
-40.12595360191982
 21
-65.10218707403509
 31
0.0
  0
LINE
  5
318
  8
DEFAULT
 10
-40.12595360191982
 20
-65.10218707403509
 30
0.0
 11
-40.17627204395577
 21
-65.09262392898279
 31
0.0
  0
LINE
  5
319
  8
DEFAULT
 10
-40.17627204395577
 20
-65.09262392898279
 30
0.0
 11
-40.22623465507649
 21
-65.08134843155621
 31
0.0
  0
LINE
  5
31A
  8
DEFAULT
 10
-40.22623465507649
 20
-65.08134843155621
 30
0.0
 11
-40.27578318111236
 21
-65.06837372848099
 31
0.0
  0
LINE
  5
31B
  8
DEFAULT
 10
-40.27578318111236
 20
-65.06837372848099
 30
0.0
 11
-40.32485985069844
 21
-65.05371494768055
 31
0.0
  0
LINE
  5
31C
  8
DEFAULT
 10
-40.32485985069844
 20
-65.05371494768055
 30
0.0
 11
-40.3734074426333
 21
-65.03738918063753
 31
0.0
  0
LINE
  5
31D
  8
DEFAULT
 10
-40.3734074426333
 20
-65.03738918063753
 30
0.0
 11
-40.42136935259641
 21
-65.01941546246606
 31
0.0
  0
LINE
  5
31E
  8
DEFAULT
 10
-40.42136935259641
 20
-65.01941546246606
 30
0.0
 11
-40.46868965914619
 21
-64.99981474971749
 31
0.0
  0
LINE
  5
31F
  8
DEFAULT
 10
-40.46868965914619
 20
-64.99981474971749
 30
0.0
 11
-40.51531318892194
 21
-64.9786098959461
 31
0.0
  0
LINE
  5
320
  8
DEFAULT
 10
-40.51531318892194
 20
-64.9786098959461
 30
0.0
 11
-40.56118558097355
 21
-64.95582562506286
 31
0.0
  0
LINE
  5
321
  8
DEFAULT
 10
-40.56118558097355
 20
-64.95582562506286
 30
0.0
 11
-40.60625335014385
 21
-64.93148850250843
 31
0.0
  0
LINE
  5
322
  8
DEFAULT
 10
-40.60625335014385
 20
-64.93148850250843
 30
0.0
 11
-40.65046394942998
 21
-64.90562690427903
 31
0.0
  0
LINE
  5
323
  8
DEFAULT
 10
-40.65046394942998
 20
-64.90562690427903
 30
0.0
 11
-40.69376583125081
 21
-64.87827098384138
 31
0.0
  0
LINE
  5
324
  8
DEFAULT
 10
-40.69376583125081
 20
-64.87827098384138
 30
0.0
 11
-40.73610850754913
 21
-64.84945263697497
 31
0.0
  0
LINE
  5
325
  8
DEFAULT
 10
-40.73610850754913
 20
-64.84945263697497
 30
0.0
 11
-40.77744260865848
 21
-64.81920546458316
 31
0.0
  0
LINE
  5
326
  8
DEFAULT
 10
-40.77744260865848
 20
-64.81920546458316
 30
0.0
 11
-40.81771994086591
 21
-64.78756473351594
 31
0.0
  0
LINE
  5
327
  8
DEFAULT
 10
-40.81771994086591
 20
-64.78756473351594
 30
0.0
 11
-40.85689354260379
 21
-64.75456733545035
 31
0.0
  0
LINE
  5
328
  8
DEFAULT
 10
-40.85689354260379
 20
-64.75456733545035
 30
0.0
 11
-40.89491773920481
 21
-64.72025174387649
 31
0.0
  0
LINE
  5
329
  8
DEFAULT
 10
-40.89491773920481
 20
-64.72025174387649
 30
0.0
 11
-40.93174819615665
 21
-64.68465796923913
 31
0.0
  0
LINE
  5
32A
  8
DEFAULT
 10
-40.93174819615665
 20
-64.68465796923913
 30
0.0
 11
-40.96734197079402
 21
-64.64782751228728
 31
0.0
  0
LINE
  5
32B
  8
DEFAULT
 10
-40.96734197079402
 20
-64.64782751228728
 30
0.0
 11
-41.00165756236787
 21
-64.60980331568625
 31
0.0
  0
LINE
  5
32C
  8
DEFAULT
 10
-41.00165756236787
 20
-64.60980331568625
 30
0.0
 11
-41.03465496043346
 21
-64.57062971394838
 31
0.0
  0
LINE
  5
32D
  8
DEFAULT
 10
-41.03465496043346
 20
-64.57062971394838
 30
0.0
 11
-41.06629569150069
 21
-64.53035238174094
 31
0.0
  0
LINE
  5
32E
  8
DEFAULT
 10
-41.06629569150069
 20
-64.53035238174094
 30
0.0
 11
-41.09654286389249
 21
-64.4890182806316
 31
0.0
  0
LINE
  5
32F
  8
DEFAULT
 10
-41.09654286389249
 20
-64.4890182806316
 30
0.0
 11
-41.1253612107589
 21
-64.44667560433328
 31
0.0
  0
LINE
  5
330
  8
DEFAULT
 10
-41.1253612107589
 20
-64.44667560433328
 30
0.0
 11
-41.15271713119657
 21
-64.40337372251244
 31
0.0
  0
LINE
  5
331
  8
DEFAULT
 10
-41.15271713119657
 20
-64.40337372251244
 30
0.0
 11
-41.17857872942596
 21
-64.35916312322632
 31
0.0
  0
LINE
  5
332
  8
DEFAULT
 10
-41.17857872942596
 20
-64.35916312322632
 30
0.0
 11
-41.2029158519804
 21
-64.31409535405602
 31
0.0
  0
LINE
  5
333
  8
DEFAULT
 10
-41.2029158519804
 20
-64.31409535405602
 30
0.0
 11
-41.22570012286364
 21
-64.26822296200442
 31
0.0
  0
LINE
  5
334
  8
DEFAULT
 10
-41.22570012286364
 20
-64.26822296200442
 30
0.0
 11
-41.24690497663501
 21
-64.22159943222866
 31
0.0
  0
LINE
  5
335
  8
DEFAULT
 10
-41.24690497663501
 20
-64.22159943222866
 30
0.0
 11
-41.26650568938359
 21
-64.17427912567888
 31
0.0
  0
LINE
  5
336
  8
DEFAULT
 10
-41.26650568938359
 20
-64.17427912567888
 30
0.0
 11
-41.28447940755507
 21
-64.12631721571577
 31
0.0
  0
LINE
  5
337
  8
DEFAULT
 10
-41.28447940755507
 20
-64.12631721571577
 30
0.0
 11
-41.30080517459808
 21
-64.0777696237809
 31
0.0
  0
LINE
  5
338
  8
DEFAULT
 10
-41.30080517459808
 20
-64.0777696237809
 30
0.0
 11
-41.31546395539853
 21
-64.02869295419482
 31
0.0
  0
LINE
  5
339
  8
DEFAULT
 10
-41.31546395539853
 20
-64.02869295419482
 30
0.0
 11
-41.32843865847374
 21
-63.97914442815896
 31
0.0
  0
LINE
  5
33A
  8
DEFAULT
 10
-41.32843865847374
 20
-63.97914442815896
 30
0.0
 11
-41.33971415590032
 21
-63.92918181703823
 31
0.0
  0
LINE
  5
33B
  8
DEFAULT
 10
-41.33971415590032
 20
-63.92918181703823
 30
0.0
 11
-41.34927730095263
 21
-63.87886337500228
 31
0.0
  0
LINE
  5
33C
  8
DEFAULT
 10
-41.34927730095263
 20
-63.87886337500228
 30
0.0
 11
-41.35711694343133
 21
-63.82824777110365
 31
0.0
  0
LINE
  5
33D
  8
DEFAULT
 10
-41.35711694343133
 20
-63.82824777110365
 30
0.0
 11
-41.36322394266397
 21
-63.77739402087234
 31
0.0
  0
LINE
  5
33E
  8
DEFAULT
 10
-41.36322394266397
 20
-63.77739402087234
 30
0.0
 11
-41.36759117816263
 21
-63.72636141750629
 31
0.0
  0
LINE
  5
33F
  8
DEFAULT
 10
-41.36759117816263
 20
-63.72636141750629
 30
0.0
 11
-41.37021355792609
 21
-63.67520946273824
 31
0.0
  0
LINE
  5
340
  8
DEFAULT
 10
-41.37021355792609
 20
-63.67520946273824
 30
0.0
 11
-41.37108802437682
 21
-63.62399779745928
 31
0.0
  0
LINE
  5
341
  8
DEFAULT
 10
-41.37108802437682
 20
-63.62399779745928
 30
0.0
 11
-41.37108802437682
 21
-54.6239977974593
 31
0.0
  0
LINE
  5
342
  8
DEFAULT
 10
-41.37108802437682
 20
-54.6239977974593
 30
0.0
 11
-41.37021355792609
 21
-54.57278613218034
 31
0.0
  0
LINE
  5
343
  8
DEFAULT
 10
-41.37021355792609
 20
-54.57278613218034
 30
0.0
 11
-41.36759117816263
 21
-54.52163417741229
 31
0.0
  0
LINE
  5
344
  8
DEFAULT
 10
-41.36759117816263
 20
-54.52163417741229
 30
0.0
 11
-41.36322394266396
 21
-54.47060157404624
 31
0.0
  0
LINE
  5
345
  8
DEFAULT
 10
-41.36322394266396
 20
-54.47060157404624
 30
0.0
 11
-41.35711694343131
 21
-54.41974782381492
 31
0.0
  0
LINE
  5
346
  8
DEFAULT
 10
-41.35711694343131
 20
-54.41974782381492
 30
0.0
 11
-41.34927730095262
 21
-54.3691322199163
 31
0.0
  0
LINE
  5
347
  8
DEFAULT
 10
-41.34927730095262
 20
-54.3691322199163
 30
0.0
 11
-41.33971415590031
 21
-54.31881377788034
 31
0.0
  0
LINE
  5
348
  8
DEFAULT
 10
-41.33971415590031
 20
-54.31881377788034
 30
0.0
 11
-41.32843865847374
 21
-54.26885116675962
 31
0.0
  0
LINE
  5
349
  8
DEFAULT
 10
-41.32843865847374
 20
-54.26885116675962
 30
0.0
 11
-41.31546395539853
 21
-54.21930264072375
 31
0.0
  0
LINE
  5
34A
  8
DEFAULT
 10
-41.31546395539853
 20
-54.21930264072375
 30
0.0
 11
-41.30080517459806
 21
-54.17022597113768
 31
0.0
  0
LINE
  5
34B
  8
DEFAULT
 10
-41.30080517459806
 20
-54.17022597113768
 30
0.0
 11
-41.28447940755505
 21
-54.12167837920281
 31
0.0
  0
LINE
  5
34C
  8
DEFAULT
 10
-41.28447940755505
 20
-54.12167837920281
 30
0.0
 11
-41.26650568938357
 21
-54.0737164692397
 31
0.0
  0
LINE
  5
34D
  8
DEFAULT
 10
-41.26650568938357
 20
-54.0737164692397
 30
0.0
 11
-41.246904976635
 21
-54.02639616268993
 31
0.0
  0
LINE
  5
34E
  8
DEFAULT
 10
-41.246904976635
 20
-54.02639616268993
 30
0.0
 11
-41.22570012286362
 21
-53.97977263291416
 31
0.0
  0
LINE
  5
34F
  8
DEFAULT
 10
-41.22570012286362
 20
-53.97977263291416
 30
0.0
 11
-41.20291585198039
 21
-53.93390024086256
 31
0.0
  0
LINE
  5
350
  8
DEFAULT
 10
-41.20291585198039
 20
-53.93390024086256
 30
0.0
 11
-41.17857872942595
 21
-53.88883247169227
 31
0.0
  0
LINE
  5
351
  8
DEFAULT
 10
-41.17857872942595
 20
-53.88883247169227
 30
0.0
 11
-41.15271713119655
 21
-53.84462187240614
 31
0.0
  0
LINE
  5
352
  8
DEFAULT
 10
-41.15271713119655
 20
-53.84462187240614
 30
0.0
 11
-41.12536121075888
 21
-53.80131999058531
 31
0.0
  0
LINE
  5
353
  8
DEFAULT
 10
-41.12536121075888
 20
-53.80131999058531
 30
0.0
 11
-41.09654286389248
 21
-53.75897731428699
 31
0.0
  0
LINE
  5
354
  8
DEFAULT
 10
-41.09654286389248
 20
-53.75897731428699
 30
0.0
 11
-41.06629569150068
 21
-53.71764321317765
 31
0.0
  0
LINE
  5
355
  8
DEFAULT
 10
-41.06629569150068
 20
-53.71764321317765
 30
0.0
 11
-41.03465496043344
 21
-53.67736588097021
 31
0.0
  0
LINE
  5
356
  8
DEFAULT
 10
-41.03465496043344
 20
-53.67736588097021
 30
0.0
 11
-41.00165756236786
 21
-53.63819227923233
 31
0.0
  0
LINE
  5
357
  8
DEFAULT
 10
-41.00165756236786
 20
-53.63819227923233
 30
0.0
 11
-40.967341970794
 21
-53.60016808263131
 31
0.0
  0
LINE
  5
358
  8
DEFAULT
 10
-40.967341970794
 20
-53.60016808263131
 30
0.0
 11
-40.93174819615663
 21
-53.56333762567947
 31
0.0
  0
LINE
  5
359
  8
DEFAULT
 10
-40.93174819615663
 20
-53.56333762567947
 30
0.0
 11
-40.89491773920479
 21
-53.5277438510421
 31
0.0
  0
LINE
  5
35A
  8
DEFAULT
 10
-40.89491773920479
 20
-53.5277438510421
 30
0.0
 11
-40.85689354260377
 21
-53.49342825946825
 31
0.0
  0
LINE
  5
35B
  8
DEFAULT
 10
-40.85689354260377
 20
-53.49342825946825
 30
0.0
 11
-40.81771994086589
 21
-53.46043086140266
 31
0.0
  0
LINE
  5
35C
  8
DEFAULT
 10
-40.81771994086589
 20
-53.46043086140266
 30
0.0
 11
-40.77744260865845
 21
-53.42879013033544
 31
0.0
  0
LINE
  5
35D
  8
DEFAULT
 10
-40.77744260865845
 20
-53.42879013033544
 30
0.0
 11
-40.73610850754911
 21
-53.39854295794363
 31
0.0
  0
LINE
  5
35E
  8
DEFAULT
 10
-40.73610850754911
 20
-53.39854295794363
 30
0.0
 11
-40.69376583125079
 21
-53.36972461107722
 31
0.0
  0
LINE
  5
35F
  8
DEFAULT
 10
-40.69376583125079
 20
-53.36972461107722
 30
0.0
 11
-40.65046394942996
 21
-53.34236869063955
 31
0.0
  0
LINE
  5
360
  8
DEFAULT
 10
-40.65046394942996
 20
-53.34236869063955
 30
0.0
 11
-40.60625335014384
 21
-53.31650709241017
 31
0.0
  0
LINE
  5
361
  8
DEFAULT
 10
-40.60625335014384
 20
-53.31650709241017
 30
0.0
 11
-40.56118558097354
 21
-53.29216996985573
 31
0.0
  0
LINE
  5
362
  8
DEFAULT
 10
-40.56118558097354
 20
-53.29216996985573
 30
0.0
 11
-40.51531318892192
 21
-53.26938569897249
 31
0.0
  0
LINE
  5
363
  8
DEFAULT
 10
-40.51531318892192
 20
-53.26938569897249
 30
0.0
 11
-40.46868965914616
 21
-53.24818084520111
 31
0.0
  0
LINE
  5
364
  8
DEFAULT
 10
-40.46868965914616
 20
-53.24818084520111
 30
0.0
 11
-40.42136935259639
 21
-53.22858013245254
 31
0.0
  0
LINE
  5
365
  8
DEFAULT
 10
-40.42136935259639
 20
-53.22858013245254
 30
0.0
 11
-40.37340744263328
 21
-53.21060641428106
 31
0.0
  0
LINE
  5
366
  8
DEFAULT
 10
-40.37340744263328
 20
-53.21060641428106
 30
0.0
 11
-40.32485985069841
 21
-53.19428064723805
 31
0.0
  0
LINE
  5
367
  8
DEFAULT
 10
-40.32485985069841
 20
-53.19428064723805
 30
0.0
 11
-40.27578318111234
 21
-53.1796218664376
 31
0.0
  0
LINE
  5
368
  8
DEFAULT
 10
-40.27578318111234
 20
-53.1796218664376
 30
0.0
 11
-40.22623465507647
 21
-53.16664716336238
 31
0.0
  0
LINE
  5
369
  8
DEFAULT
 10
-40.22623465507647
 20
-53.16664716336238
 30
0.0
 11
-40.17627204395575
 21
-53.15537166593581
 31
0.0
  0
LINE
  5
36A
  8
DEFAULT
 10
-40.17627204395575
 20
-53.15537166593581
 30
0.0
 11
-40.1259536019198
 21
-53.1458085208835
 31
0.0
  0
LINE
  5
36B
  8
DEFAULT
 10
-40.1259536019198
 20
-53.1458085208835
 30
0.0
 11
-40.07533799802117
 21
-53.1379688784048
 31
0.0
  0
LINE
  5
36C
  8
DEFAULT
 10
-40.07533799802117
 20
-53.1379688784048
 30
0.0
 11
-40.02448424778985
 21
-53.13186187917216
 31
0.0
  0
LINE
  5
36D
  8
DEFAULT
 10
-40.02448424778985
 20
-53.13186187917216
 30
0.0
 11
-39.9734516444238
 21
-53.12749464367349
 31
0.0
  0
LINE
  5
36E
  8
DEFAULT
 10
-39.9734516444238
 20
-53.12749464367349
 30
0.0
 11
-39.92229968965575
 21
-53.12487226391004
 31
0.0
  0
LINE
  5
36F
  8
DEFAULT
 10
-39.92229968965575
 20
-53.12487226391004
 30
0.0
 11
-39.8710880243768
 21
-53.1239977974593
 31
0.0
  0
LINE
  5
370
  8
DEFAULT
 10
-39.8710880243768
 20
-53.1239977974593
 30
0.0
 11
-33.79405081800825
 21
-53.1239977974593
 31
0.0
  0
LINE
  5
371
  8
DEFAULT
 10
-33.79405081800825
 20
-53.1239977974593
 30
0.0
 11
-33.7428391527293
 21
-53.12487226391004
 31
0.0
  0
LINE
  5
372
  8
DEFAULT
 10
-33.7428391527293
 20
-53.12487226391004
 30
0.0
 11
-33.69168719796124
 21
-53.12749464367349
 31
0.0
  0
LINE
  5
373
  8
DEFAULT
 10
-33.69168719796124
 20
-53.12749464367349
 30
0.0
 11
-33.6406545945952
 21
-53.13186187917216
 31
0.0
  0
LINE
  5
374
  8
DEFAULT
 10
-33.6406545945952
 20
-53.13186187917216
 30
0.0
 11
-33.58980084436388
 21
-53.1379688784048
 31
0.0
  0
LINE
  5
375
  8
DEFAULT
 10
-33.58980084436388
 20
-53.1379688784048
 30
0.0
 11
-33.53918524046525
 21
-53.14580852088351
 31
0.0
  0
LINE
  5
376
  8
DEFAULT
 10
-33.53918524046525
 20
-53.14580852088351
 30
0.0
 11
-33.4888667984293
 21
-53.15537166593582
 31
0.0
  0
LINE
  5
377
  8
DEFAULT
 10
-33.4888667984293
 20
-53.15537166593582
 30
0.0
 11
-33.43890418730858
 21
-53.16664716336238
 31
0.0
  0
LINE
  5
378
  8
DEFAULT
 10
-33.43890418730858
 20
-53.16664716336238
 30
0.0
 11
-33.38935566127272
 21
-53.1796218664376
 31
0.0
  0
LINE
  5
379
  8
DEFAULT
 10
-33.38935566127272
 20
-53.1796218664376
 30
0.0
 11
-33.34027899168664
 21
-53.19428064723806
 31
0.0
  0
LINE
  5
37A
  8
DEFAULT
 10
-33.34027899168664
 20
-53.19428064723806
 30
0.0
 11
-33.29173139975178
 21
-53.21060641428107
 31
0.0
  0
LINE
  5
37B
  8
DEFAULT
 10
-33.29173139975178
 20
-53.21060641428107
 30
0.0
 11
-33.24376948978866
 21
-53.22858013245255
 31
0.0
  0
LINE
  5
37C
  8
DEFAULT
 10
-33.24376948978866
 20
-53.22858013245255
 30
0.0
 11
-33.19644918323889
 21
-53.24818084520112
 31
0.0
  0
LINE
  5
37D
  8
DEFAULT
 10
-33.19644918323889
 20
-53.24818084520112
 30
0.0
 11
-33.14982565346313
 21
-53.26938569897251
 31
0.0
  0
LINE
  5
37E
  8
DEFAULT
 10
-33.14982565346313
 20
-53.26938569897251
 30
0.0
 11
-33.10395326141153
 21
-53.29216996985574
 31
0.0
  0
LINE
  5
37F
  8
DEFAULT
 10
-33.10395326141153
 20
-53.29216996985574
 30
0.0
 11
-33.05888549224122
 21
-53.31650709241018
 31
0.0
  0
LINE
  5
380
  8
DEFAULT
 10
-33.05888549224122
 20
-53.31650709241018
 30
0.0
 11
-33.0146748929551
 21
-53.34236869063957
 31
0.0
  0
LINE
  5
381
  8
DEFAULT
 10
-33.0146748929551
 20
-53.34236869063957
 30
0.0
 11
-32.97137301113428
 21
-53.36972461107724
 31
0.0
  0
LINE
  5
382
  8
DEFAULT
 10
-32.97137301113428
 20
-53.36972461107724
 30
0.0
 11
-32.92903033483595
 21
-53.39854295794364
 31
0.0
  0
LINE
  5
383
  8
DEFAULT
 10
-32.92903033483595
 20
-53.39854295794364
 30
0.0
 11
-32.88769623372661
 21
-53.42879013033544
 31
0.0
  0
LINE
  5
384
  8
DEFAULT
 10
-32.88769623372661
 20
-53.42879013033544
 30
0.0
 11
-32.84741890151917
 21
-53.46043086140268
 31
0.0
  0
LINE
  5
385
  8
DEFAULT
 10
-32.84741890151917
 20
-53.46043086140268
 30
0.0
 11
-32.8082452997813
 21
-53.49342825946826
 31
0.0
  0
LINE
  5
386
  8
DEFAULT
 10
-32.8082452997813
 20
-53.49342825946826
 30
0.0
 11
-32.77022110318027
 21
-53.52774385104212
 31
0.0
  0
LINE
  5
387
  8
DEFAULT
 10
-32.77022110318027
 20
-53.52774385104212
 30
0.0
 11
-32.73339064622843
 21
-53.56333762567948
 31
0.0
  0
LINE
  5
388
  8
DEFAULT
 10
-32.73339064622843
 20
-53.56333762567948
 30
0.0
 11
-32.69779687159107
 21
-53.60016808263132
 31
0.0
  0
LINE
  5
389
  8
DEFAULT
 10
-32.69779687159107
 20
-53.60016808263132
 30
0.0
 11
-32.66348128001721
 21
-53.63819227923234
 31
0.0
  0
LINE
  5
38A
  8
DEFAULT
 10
-32.66348128001721
 20
-53.63819227923234
 30
0.0
 11
-32.63048388195162
 21
-53.67736588097023
 31
0.0
  0
LINE
  5
38B
  8
DEFAULT
 10
-32.63048388195162
 20
-53.67736588097023
 30
0.0
 11
-32.59884315088439
 21
-53.71764321317767
 31
0.0
  0
LINE
  5
38C
  8
DEFAULT
 10
-32.59884315088439
 20
-53.71764321317767
 30
0.0
 11
-32.56859597849259
 21
-53.75897731428701
 31
0.0
  0
LINE
  5
38D
  8
DEFAULT
 10
-32.56859597849259
 20
-53.75897731428701
 30
0.0
 11
-32.53977763162619
 21
-53.80131999058533
 31
0.0
  0
LINE
  5
38E
  8
DEFAULT
 10
-32.53977763162619
 20
-53.80131999058533
 30
0.0
 11
-32.51242171118852
 21
-53.84462187240616
 31
0.0
  0
LINE
  5
38F
  8
DEFAULT
 10
-32.51242171118852
 20
-53.84462187240616
 30
0.0
 11
-32.48656011295913
 21
-53.88883247169228
 31
0.0
  0
LINE
  5
390
  8
DEFAULT
 10
-32.48656011295913
 20
-53.88883247169228
 30
0.0
 11
-32.46222299040469
 21
-53.93390024086258
 31
0.0
  0
LINE
  5
391
  8
DEFAULT
 10
-32.46222299040469
 20
-53.93390024086258
 30
0.0
 11
-32.43943871952145
 21
-53.97977263291418
 31
0.0
  0
LINE
  5
392
  8
DEFAULT
 10
-32.43943871952145
 20
-53.97977263291418
 30
0.0
 11
-32.41823386575008
 21
-54.02639616268994
 31
0.0
  0
LINE
  5
393
  8
DEFAULT
 10
-32.41823386575008
 20
-54.02639616268994
 30
0.0
 11
-32.3986331530015
 21
-54.07371646923973
 31
0.0
  0
LINE
  5
394
  8
DEFAULT
 10
-32.3986331530015
 20
-54.07371646923973
 30
0.0
 11
-32.38065943483002
 21
-54.12167837920283
 31
0.0
  0
LINE
  5
395
  8
DEFAULT
 10
-32.38065943483002
 20
-54.12167837920283
 30
0.0
 11
-32.36433366778701
 21
-54.1702259711377
 31
0.0
  0
LINE
  5
396
  8
DEFAULT
 10
-32.36433366778701
 20
-54.1702259711377
 30
0.0
 11
-32.34967488698656
 21
-54.21930264072377
 31
0.0
  0
LINE
  5
397
  8
DEFAULT
 10
-32.34967488698656
 20
-54.21930264072377
 30
0.0
 11
-32.33670018391134
 21
-54.26885116675964
 31
0.0
  0
LINE
  5
398
  8
DEFAULT
 10
-32.33670018391134
 20
-54.26885116675964
 30
0.0
 11
-32.32542468648477
 21
-54.31881377788036
 31
0.0
  0
LINE
  5
399
  8
DEFAULT
 10
-32.32542468648477
 20
-54.31881377788036
 30
0.0
 11
-32.31586154143245
 21
-54.36913221991631
 31
0.0
  0
LINE
  5
39A
  8
DEFAULT
 10
-32.31586154143245
 20
-54.36913221991631
 30
0.0
 11
-32.30802189895375
 21
-54.41974782381494
 31
0.0
  0
LINE
  5
39B
  8
DEFAULT
 10
-32.30802189895375
 20
-54.41974782381494
 30
0.0
 11
-32.30191489972111
 21
-54.47060157404626
 31
0.0
  0
LINE
  5
39C
  8
DEFAULT
 10
-32.30191489972111
 20
-54.47060157404626
 30
0.0
 11
-32.29754766422244
 21
-54.5216341774123
 31
0.0
  0
LINE
  5
39D
  8
DEFAULT
 10
-32.29754766422244
 20
-54.5216341774123
 30
0.0
 11
-32.29492528445899
 21
-54.57278613218036
 31
0.0
  0
LINE
  5
39E
  8
DEFAULT
 10
-32.29492528445899
 20
-54.57278613218036
 30
0.0
 11
-32.29405081800825
 21
-54.62399779745931
 31
0.0
  0
LINE
  5
39F
  8
DEFAULT
 10
-32.29405081800825
 20
-54.62399779745931
 30
0.0
 11
-32.29405081800824
 21
-63.6239977974593
 31
0.0
  0
LINE
  5
3A0
  8
DEFAULT
 10
-38.18256942119253
 20
-58.82399779745928
 30
0.0
 11
-38.18256942119253
 21
-63.57050294874709
 31
0.0
  0
LINE
  5
3A1
  8
DEFAULT
 10
-38.18256942119253
 20
-63.57050294874709
 30
0.0
 11
-35.48256942119254
 21
-63.57050294874709
 31
0.0
  0
LINE
  5
3A2
  8
DEFAULT
 10
-35.48256942119254
 20
-63.57050294874709
 30
0.0
 11
-35.48256942119254
 21
-58.82399779745928
 31
0.0
  0
LINE
  5
3A3
  8
DEFAULT
 10
-35.48256942119254
 20
-58.82399779745928
 30
0.0
 11
-38.18256942119253
 21
-58.82399779745928
 31
0.0
  0
LINE
  5
3A4
  8
DEFAULT
 10
-33.79405081800825
 20
-57.82399779745928
 30
0.0
 11
-33.79405081800825
 21
-55.1239977974593
 31
0.0
  0
LINE
  5
3A5
  8
DEFAULT
 10
-33.79405081800825
 20
-55.1239977974593
 30
0.0
 11
-39.86473465897566
 21
-55.1239977974593
 31
0.0
  0
LINE
  5
3A6
  8
DEFAULT
 10
-39.86473465897566
 20
-55.1239977974593
 30
0.0
 11
-39.86473465897566
 21
-57.82399779745928
 31
0.0
  0
LINE
  5
3A7
  8
DEFAULT
 10
-39.86473465897566
 20
-57.82399779745928
 30
0.0
 11
-33.79405081800825
 21
-57.82399779745928
 31
0.0
  0
LINE
  5
3A8
  8
DEFAULT
 10
21.21368677179487
 20
-61.41355158789258
 30
0.0
 11
21.21368677179487
 21
-64.1135515878926
 31
0.0
  0
LINE
  5
3A9
  8
DEFAULT
 10
21.21368677179487
 20
-64.1135515878926
 30
0.0
 11
16.21368677179487
 21
-64.1135515878926
 31
0.0
  0
LINE
  5
3AA
  8
DEFAULT
 10
16.21368677179487
 20
-64.1135515878926
 30
0.0
 11
16.21368677179487
 21
-61.41355158789258
 31
0.0
  0
LINE
  5
3AB
  8
DEFAULT
 10
16.21368677179487
 20
-61.41355158789258
 30
0.0
 11
14.21368677179487
 21
-61.41355158789258
 31
0.0
  0
LINE
  5
3AC
  8
DEFAULT
 10
14.21368677179487
 20
-61.41355158789258
 30
0.0
 11
17.46718162050706
 21
-55.6135515878926
 31
0.0
  0
LINE
  5
3AD
  8
DEFAULT
 10
17.46718162050706
 20
-55.6135515878926
 30
0.0
 11
18.46718162050706
 21
-55.6135515878926
 31
0.0
  0
LINE
  5
3AE
  8
DEFAULT
 10
18.46718162050706
 20
-55.6135515878926
 30
0.0
 11
18.46718162050706
 21
-52.91355158789258
 31
0.0
  0
LINE
  5
3AF
  8
DEFAULT
 10
18.46718162050706
 20
-52.91355158789258
 30
0.0
 11
23.21368677179487
 21
-52.91355158789258
 31
0.0
  0
LINE
  5
3B0
  8
DEFAULT
 10
23.21368677179487
 20
-52.91355158789258
 30
0.0
 11
23.21368677179487
 21
-55.6135515878926
 31
0.0
  0
LINE
  5
3B1
  8
DEFAULT
 10
23.21368677179487
 20
-55.6135515878926
 30
0.0
 11
24.21368677179487
 21
-55.6135515878926
 31
0.0
  0
LINE
  5
3B2
  8
DEFAULT
 10
24.21368677179487
 20
-55.6135515878926
 30
0.0
 11
24.21368677179487
 21
-61.41355158789258
 31
0.0
  0
LINE
  5
3B3
  8
DEFAULT
 10
24.21368677179487
 20
-61.41355158789258
 30
0.0
 11
21.21368677179487
 21
-61.41355158789258
 31
0.0
  0
LINE
  5
3B4
  8
DEFAULT
 10
21.21368677179487
 20
-74.27792889449475
 30
0.0
 11
21.21368677179487
 21
-76.97792889449477
 31
0.0
  0
LINE
  5
3B5
  8
DEFAULT
 10
21.21368677179487
 20
-76.97792889449477
 30
0.0
 11
16.21368677179487
 21
-76.97792889449477
 31
0.0
  0
LINE
  5
3B6
  8
DEFAULT
 10
16.21368677179487
 20
-76.97792889449477
 30
0.0
 11
16.21368677179487
 21
-74.27792889449475
 31
0.0
  0
LINE
  5
3B7
  8
DEFAULT
 10
16.21368677179487
 20
-74.27792889449475
 30
0.0
 11
14.21368677179487
 21
-74.27792889449475
 31
0.0
  0
LINE
  5
3B8
  8
DEFAULT
 10
14.21368677179487
 20
-74.27792889449475
 30
0.0
 11
17.46718162050706
 21
-68.47792889449477
 31
0.0
  0
LINE
  5
3B9
  8
DEFAULT
 10
17.46718162050706
 20
-68.47792889449477
 30
0.0
 11
18.46718162050706
 21
-68.47792889449477
 31
0.0
  0
LINE
  5
3BA
  8
DEFAULT
 10
18.46718162050706
 20
-68.47792889449477
 30
0.0
 11
18.46718162050706
 21
-65.77792889449475
 31
0.0
  0
LINE
  5
3BB
  8
DEFAULT
 10
18.46718162050706
 20
-65.77792889449475
 30
0.0
 11
23.21368677179487
 21
-65.77792889449475
 31
0.0
  0
LINE
  5
3BC
  8
DEFAULT
 10
23.21368677179487
 20
-65.77792889449475
 30
0.0
 11
23.21368677179487
 21
-68.47792889449477
 31
0.0
  0
LINE
  5
3BD
  8
DEFAULT
 10
23.21368677179487
 20
-68.47792889449477
 30
0.0
 11
24.21368677179487
 21
-68.47792889449477
 31
0.0
  0
LINE
  5
3BE
  8
DEFAULT
 10
24.21368677179487
 20
-68.47792889449477
 30
0.0
 11
24.21368677179487
 21
-74.27792889449475
 31
0.0
  0
LINE
  5
3BF
  8
DEFAULT
 10
24.21368677179487
 20
-74.27792889449475
 30
0.0
 11
21.21368677179487
 21
-74.27792889449475
 31
0.0
  0
LINE
  5
3C0
  8
DEFAULT
 10
-8.003922785142155
 20
-55.35461697205996
 30
0.0
 11
-8.003922785142155
 21
-50.35461697205996
 31
0.0
  0
LINE
  5
3C1
  8
DEFAULT
 10
-8.003922785142155
 20
-50.35461697205996
 30
0.0
 11
-10.70392278514214
 21
-50.35461697205996
 31
0.0
  0
LINE
  5
3C2
  8
DEFAULT
 10
-10.70392278514214
 20
-50.35461697205996
 30
0.0
 11
-10.70392278514214
 21
-55.35461697205996
 31
0.0
  0
LINE
  5
3C3
  8
DEFAULT
 10
-10.70392278514214
 20
-55.35461697205996
 30
0.0
 11
-8.003922785142155
 21
-55.35461697205996
 31
0.0
  0
CIRCLE
  5
3C4
  8
DEFAULT
 10
-24.35392278514212
 20
-58.35461697205997
 30
0.0
 40
1.750000000000004
  0
CIRCLE
  5
3C5
  8
DEFAULT
 10
5.646077214857844
 20
-58.35461697205995
 30
0.0
 40
1.749999999999996
  0
LINE
  5
3C6
  8
DEFAULT
 10
9.64607721485785
 20
-57.35461697205996
 30
0.0
 11
9.64316232668872
 21
-57.5253225229898
 31
0.0
  0
LINE
  5
3C7
  8
DEFAULT
 10
9.64316232668872
 20
-57.5253225229898
 30
0.0
 11
9.634421060810544
 21
-57.69582903888331
 31
0.0
  0
LINE
  5
3C8
  8
DEFAULT
 10
9.634421060810544
 20
-57.69582903888331
 30
0.0
 11
9.619863609148323
 21
-57.86593771677013
 31
0.0
  0
LINE
  5
3C9
  8
DEFAULT
 10
9.619863609148323
 20
-57.86593771677013
 30
0.0
 11
9.599506945039503
 21
-58.03545021754119
 31
0.0
  0
LINE
  5
3CA
  8
DEFAULT
 10
9.599506945039503
 20
-58.03545021754119
 30
0.0
 11
9.573374803443834
 21
-58.20416889720329
 31
0.0
  0
LINE
  5
3CB
  8
DEFAULT
 10
9.573374803443834
 20
-58.20416889720329
 30
0.0
 11
9.541497653269463
 21
-58.37189703732312
 31
0.0
  0
LINE
  5
3CC
  8
DEFAULT
 10
9.541497653269463
 20
-58.37189703732312
 30
0.0
 11
9.503912661847554
 21
-58.53843907439219
 31
0.0
  0
LINE
  5
3CD
  8
DEFAULT
 10
9.503912661847554
 20
-58.53843907439219
 30
0.0
 11
9.460663651596844
 21
-58.70360082784508
 31
0.0
  0
LINE
  5
3CE
  8
DEFAULT
 10
9.460663651596844
 20
-58.70360082784508
 30
0.0
 11
9.411801048928652
 21
-58.86718972646533
 31
0.0
  0
LINE
  5
3CF
  8
DEFAULT
 10
9.411801048928652
 20
-58.86718972646533
 30
0.0
 11
9.357381825451949
 21
-59.02901503291488
 31
0.0
  0
LINE
  5
3D0
  8
DEFAULT
 10
9.357381825451949
 20
-59.02901503291488
 30
0.0
 11
9.297469431547013
 21
-59.18888806612524
 31
0.0
  0
LINE
  5
3D1
  8
DEFAULT
 10
9.297469431547013
 20
-59.18888806612524
 30
0.0
 11
9.232133722385113
 21
-59.34662242129117
 31
0.0
  0
LINE
  5
3D2
  8
DEFAULT
 10
9.232133722385113
 20
-59.34662242129117
 30
0.0
 11
9.16145087648051
 21
-59.50203418721036
 31
0.0
  0
LINE
  5
3D3
  8
DEFAULT
 10
9.16145087648051
 20
-59.50203418721036
 30
0.0
 11
9.085503306869722
 21
-59.65494216071572
 31
0.0
  0
LINE
  5
3D4
  8
DEFAULT
 10
9.085503306869722
 20
-59.65494216071572
 30
0.0
 11
9.004379565021601
 21
-59.80516805795004
 31
0.0
  0
LINE
  5
3D5
  8
DEFAULT
 10
9.004379565021601
 20
-59.80516805795004
 30
0.0
 11
8.91817423759029
 21
-59.95253672223713
 31
0.0
  0
LINE
  5
3D6
  8
DEFAULT
 10
8.91817423759029
 20
-59.95253672223713
 30
0.0
 11
8.826987836131401
 21
-60.09687632830655
 31
0.0
  0
LINE
  5
3D7
  8
DEFAULT
 10
8.826987836131401
 20
-60.09687632830655
 30
0.0
 11
8.730926679910056
 21
-60.23801858263429
 31
0.0
  0
LINE
  5
3D8
  8
DEFAULT
 10
8.730926679910056
 20
-60.23801858263429
 30
0.0
 11
8.630102771937368
 21
-60.37579891966543
 31
0.0
  0
LINE
  5
3D9
  8
DEFAULT
 10
8.630102771937368
 20
-60.37579891966543
 30
0.0
 11
8.524633668379945
 21
-60.51005669369022
 31
0.0
  0
LINE
  5
3DA
  8
DEFAULT
 10
8.524633668379945
 20
-60.51005669369022
 30
0.0
 11
8.414642341494654
 21
-60.64063536614982
 31
0.0
  0
LINE
  5
3DB
  8
DEFAULT
 10
8.414642341494654
 20
-60.64063536614982
 30
0.0
 11
8.300257036248468
 21
-60.76738268815322
 31
0.0
  0
LINE
  5
3DC
  8
DEFAULT
 10
8.300257036248468
 20
-60.76738268815322
 30
0.0
 11
8.181611120790583
 21
-60.89015087799269
 31
0.0
  0
LINE
  5
3DD
  8
DEFAULT
 10
8.181611120790583
 20
-60.89015087799269
 30
0.0
 11
8.058842930951116
 21
-61.00879679345057
 31
0.0
  0
LINE
  5
3DE
  8
DEFAULT
 10
8.058842930951116
 20
-61.00879679345057
 30
0.0
 11
7.932095608947709
 21
-61.12318209869676
 31
0.0
  0
LINE
  5
3DF
  8
DEFAULT
 10
7.932095608947709
 20
-61.12318209869676
 30
0.0
 11
7.801516936488111
 21
-61.23317342558205
 31
0.0
  0
LINE
  5
3E0
  8
DEFAULT
 10
7.801516936488111
 20
-61.23317342558205
 30
0.0
 11
7.66725916246332
 21
-61.33864252913948
 31
0.0
  0
LINE
  5
3E1
  8
DEFAULT
 10
7.66725916246332
 20
-61.33864252913948
 30
0.0
 11
7.529478825432182
 21
-61.43946643711216
 31
0.0
  0
LINE
  5
3E2
  8
DEFAULT
 10
7.529478825432182
 20
-61.43946643711216
 30
0.0
 11
7.388336571104441
 21
-61.53552759333351
 31
0.0
  0
LINE
  5
3E3
  8
DEFAULT
 10
7.388336571104441
 20
-61.53552759333351
 30
0.0
 11
7.243996965035015
 21
-61.6267139947924
 31
0.0
  0
LINE
  5
3E4
  8
DEFAULT
 10
7.243996965035015
 20
-61.6267139947924
 30
0.0
 11
7.096628300747934
 21
-61.71291932222371
 31
0.0
  0
LINE
  5
3E5
  8
DEFAULT
 10
7.096628300747934
 20
-61.71291932222371
 30
0.0
 11
6.946402403513609
 21
-61.79404306407183
 31
0.0
  0
LINE
  5
3E6
  8
DEFAULT
 10
6.946402403513609
 20
-61.79404306407183
 30
0.0
 11
6.793494430008258
 21
-61.86999063368262
 31
0.0
  0
LINE
  5
3E7
  8
DEFAULT
 10
6.793494430008258
 20
-61.86999063368262
 30
0.0
 11
6.638082664089056
 21
-61.94067347958722
 31
0.0
  0
LINE
  5
3E8
  8
DEFAULT
 10
6.638082664089056
 20
-61.94067347958722
 30
0.0
 11
6.480348308923131
 21
-62.00600918874912
 31
0.0
  0
LINE
  5
3E9
  8
DEFAULT
 10
6.480348308923131
 20
-62.00600918874912
 30
0.0
 11
6.32047527571278
 21
-62.06592158265406
 31
0.0
  0
LINE
  5
3EA
  8
DEFAULT
 10
6.32047527571278
 20
-62.06592158265406
 30
0.0
 11
6.158649969263227
 21
-62.12034080613076
 31
0.0
  0
LINE
  5
3EB
  8
DEFAULT
 10
6.158649969263227
 20
-62.12034080613076
 30
0.0
 11
5.99506107064297
 21
-62.16920340879895
 31
0.0
  0
LINE
  5
3EC
  8
DEFAULT
 10
5.99506107064297
 20
-62.16920340879895
 30
0.0
 11
5.829899317190083
 21
-62.21245241904965
 31
0.0
  0
LINE
  5
3ED
  8
DEFAULT
 10
5.829899317190083
 20
-62.21245241904965
 30
0.0
 11
5.663357280121019
 21
-62.25003741047156
 31
0.0
  0
LINE
  5
3EE
  8
DEFAULT
 10
5.663357280121019
 20
-62.25003741047156
 30
0.0
 11
5.495629140001183
 21
-62.28191456064594
 31
0.0
  0
LINE
  5
3EF
  8
DEFAULT
 10
5.495629140001183
 20
-62.28191456064594
 30
0.0
 11
5.326910460339084
 21
-62.3080467022416
 31
0.0
  0
LINE
  5
3F0
  8
DEFAULT
 10
5.326910460339084
 20
-62.3080467022416
 30
0.0
 11
5.157397959568022
 21
-62.32840336635043
 31
0.0
  0
LINE
  5
3F1
  8
DEFAULT
 10
5.157397959568022
 20
-62.32840336635043
 30
0.0
 11
4.987289281681205
 21
-62.34296081801265
 31
0.0
  0
LINE
  5
3F2
  8
DEFAULT
 10
4.987289281681205
 20
-62.34296081801265
 30
0.0
 11
4.81678276578769
 21
-62.35170208389083
 31
0.0
  0
LINE
  5
3F3
  8
DEFAULT
 10
4.81678276578769
 20
-62.35170208389083
 30
0.0
 11
4.646077214857851
 21
-62.35461697205996
 31
0.0
  0
LINE
  5
3F4
  8
DEFAULT
 10
4.646077214857851
 20
-62.35461697205996
 30
0.0
 11
-23.35392278514215
 21
-62.35461697205996
 31
0.0
  0
LINE
  5
3F5
  8
DEFAULT
 10
-23.35392278514215
 20
-62.35461697205996
 30
0.0
 11
-23.52462833607199
 21
-62.35170208389083
 31
0.0
  0
LINE
  5
3F6
  8
DEFAULT
 10
-23.52462833607199
 20
-62.35170208389083
 30
0.0
 11
-23.69513485196551
 21
-62.34296081801266
 31
0.0
  0
LINE
  5
3F7
  8
DEFAULT
 10
-23.69513485196551
 20
-62.34296081801266
 30
0.0
 11
-23.86524352985233
 21
-62.32840336635043
 31
0.0
  0
LINE
  5
3F8
  8
DEFAULT
 10
-23.86524352985233
 20
-62.32840336635043
 30
0.0
 11
-24.03475603062338
 21
-62.30804670224161
 31
0.0
  0
LINE
  5
3F9
  8
DEFAULT
 10
-24.03475603062338
 20
-62.30804670224161
 30
0.0
 11
-24.20347471028548
 21
-62.28191456064594
 31
0.0
  0
LINE
  5
3FA
  8
DEFAULT
 10
-24.20347471028548
 20
-62.28191456064594
 30
0.0
 11
-24.37120285040532
 21
-62.25003741047157
 31
0.0
  0
LINE
  5
3FB
  8
DEFAULT
 10
-24.37120285040532
 20
-62.25003741047157
 30
0.0
 11
-24.53774488747438
 21
-62.21245241904967
 31
0.0
  0
LINE
  5
3FC
  8
DEFAULT
 10
-24.53774488747438
 20
-62.21245241904967
 30
0.0
 11
-24.70290664092727
 21
-62.16920340879895
 31
0.0
  0
LINE
  5
3FD
  8
DEFAULT
 10
-24.70290664092727
 20
-62.16920340879895
 30
0.0
 11
-24.86649553954753
 21
-62.12034080613076
 31
0.0
  0
LINE
  5
3FE
  8
DEFAULT
 10
-24.86649553954753
 20
-62.12034080613076
 30
0.0
 11
-25.02832084599708
 21
-62.06592158265406
 31
0.0
  0
LINE
  5
3FF
  8
DEFAULT
 10
-25.02832084599708
 20
-62.06592158265406
 30
0.0
 11
-25.18819387920743
 21
-62.00600918874912
 31
0.0
  0
LINE
  5
400
  8
DEFAULT
 10
-25.18819387920743
 20
-62.00600918874912
 30
0.0
 11
-25.34592823437336
 21
-61.94067347958722
 31
0.0
  0
LINE
  5
401
  8
DEFAULT
 10
-25.34592823437336
 20
-61.94067347958722
 30
0.0
 11
-25.50134000029256
 21
-61.86999063368262
 31
0.0
  0
LINE
  5
402
  8
DEFAULT
 10
-25.50134000029256
 20
-61.86999063368262
 30
0.0
 11
-25.65424797379791
 21
-61.79404306407183
 31
0.0
  0
LINE
  5
403
  8
DEFAULT
 10
-25.65424797379791
 20
-61.79404306407183
 30
0.0
 11
-25.80447387103224
 21
-61.71291932222371
 31
0.0
  0
LINE
  5
404
  8
DEFAULT
 10
-25.80447387103224
 20
-61.71291932222371
 30
0.0
 11
-25.95184253531932
 21
-61.6267139947924
 31
0.0
  0
LINE
  5
405
  8
DEFAULT
 10
-25.95184253531932
 20
-61.6267139947924
 30
0.0
 11
-26.09618214138874
 21
-61.53552759333351
 31
0.0
  0
LINE
  5
406
  8
DEFAULT
 10
-26.09618214138874
 20
-61.53552759333351
 30
0.0
 11
-26.23732439571648
 21
-61.43946643711217
 31
0.0
  0
LINE
  5
407
  8
DEFAULT
 10
-26.23732439571648
 20
-61.43946643711217
 30
0.0
 11
-26.37510473274762
 21
-61.33864252913948
 31
0.0
  0
LINE
  5
408
  8
DEFAULT
 10
-26.37510473274762
 20
-61.33864252913948
 30
0.0
 11
-26.50936250677241
 21
-61.23317342558205
 31
0.0
  0
LINE
  5
409
  8
DEFAULT
 10
-26.50936250677241
 20
-61.23317342558205
 30
0.0
 11
-26.63994117923201
 21
-61.12318209869677
 31
0.0
  0
LINE
  5
40A
  8
DEFAULT
 10
-26.63994117923201
 20
-61.12318209869677
 30
0.0
 11
-26.76668850123542
 21
-61.00879679345057
 31
0.0
  0
LINE
  5
40B
  8
DEFAULT
 10
-26.76668850123542
 20
-61.00879679345057
 30
0.0
 11
-26.88945669107489
 21
-60.8901508779927
 31
0.0
  0
LINE
  5
40C
  8
DEFAULT
 10
-26.88945669107489
 20
-60.8901508779927
 30
0.0
 11
-27.00810260653277
 21
-60.76738268815323
 31
0.0
  0
LINE
  5
40D
  8
DEFAULT
 10
-27.00810260653277
 20
-60.76738268815323
 30
0.0
 11
-27.12248791177895
 21
-60.64063536614982
 31
0.0
  0
LINE
  5
40E
  8
DEFAULT
 10
-27.12248791177895
 20
-60.64063536614982
 30
0.0
 11
-27.23247923866425
 21
-60.51005669369022
 31
0.0
  0
LINE
  5
40F
  8
DEFAULT
 10
-27.23247923866425
 20
-60.51005669369022
 30
0.0
 11
-27.33794834222167
 21
-60.37579891966543
 31
0.0
  0
LINE
  5
410
  8
DEFAULT
 10
-27.33794834222167
 20
-60.37579891966543
 30
0.0
 11
-27.43877225019436
 21
-60.23801858263429
 31
0.0
  0
LINE
  5
411
  8
DEFAULT
 10
-27.43877225019436
 20
-60.23801858263429
 30
0.0
 11
-27.5348334064157
 21
-60.09687632830655
 31
0.0
  0
LINE
  5
412
  8
DEFAULT
 10
-27.5348334064157
 20
-60.09687632830655
 30
0.0
 11
-27.62601980787459
 21
-59.95253672223713
 31
0.0
  0
LINE
  5
413
  8
DEFAULT
 10
-27.62601980787459
 20
-59.95253672223713
 30
0.0
 11
-27.71222513530591
 21
-59.80516805795004
 31
0.0
  0
LINE
  5
414
  8
DEFAULT
 10
-27.71222513530591
 20
-59.80516805795004
 30
0.0
 11
-27.79334887715402
 21
-59.65494216071572
 31
0.0
  0
LINE
  5
415
  8
DEFAULT
 10
-27.79334887715402
 20
-59.65494216071572
 30
0.0
 11
-27.86929644676481
 21
-59.50203418721036
 31
0.0
  0
LINE
  5
416
  8
DEFAULT
 10
-27.86929644676481
 20
-59.50203418721036
 30
0.0
 11
-27.93997929266941
 21
-59.34662242129116
 31
0.0
  0
LINE
  5
417
  8
DEFAULT
 10
-27.93997929266941
 20
-59.34662242129116
 30
0.0
 11
-28.00531500183131
 21
-59.18888806612524
 31
0.0
  0
LINE
  5
418
  8
DEFAULT
 10
-28.00531500183131
 20
-59.18888806612524
 30
0.0
 11
-28.06522739573625
 21
-59.02901503291489
 31
0.0
  0
LINE
  5
419
  8
DEFAULT
 10
-28.06522739573625
 20
-59.02901503291489
 30
0.0
 11
-28.11964661921295
 21
-58.86718972646534
 31
0.0
  0
LINE
  5
41A
  8
DEFAULT
 10
-28.11964661921295
 20
-58.86718972646534
 30
0.0
 11
-28.16850922188114
 21
-58.70360082784508
 31
0.0
  0
LINE
  5
41B
  8
DEFAULT
 10
-28.16850922188114
 20
-58.70360082784508
 30
0.0
 11
-28.21175823213185
 21
-58.53843907439219
 31
0.0
  0
LINE
  5
41C
  8
DEFAULT
 10
-28.21175823213185
 20
-58.53843907439219
 30
0.0
 11
-28.24934322355376
 21
-58.37189703732313
 31
0.0
  0
LINE
  5
41D
  8
DEFAULT
 10
-28.24934322355376
 20
-58.37189703732313
 30
0.0
 11
-28.28122037372813
 21
-58.20416889720328
 31
0.0
  0
LINE
  5
41E
  8
DEFAULT
 10
-28.28122037372813
 20
-58.20416889720328
 30
0.0
 11
-28.3073525153238
 21
-58.03545021754119
 31
0.0
  0
LINE
  5
41F
  8
DEFAULT
 10
-28.3073525153238
 20
-58.03545021754119
 30
0.0
 11
-28.32770917943262
 21
-57.86593771677013
 31
0.0
  0
LINE
  5
420
  8
DEFAULT
 10
-28.32770917943262
 20
-57.86593771677013
 30
0.0
 11
-28.34226663109484
 21
-57.69582903888331
 31
0.0
  0
LINE
  5
421
  8
DEFAULT
 10
-28.34226663109484
 20
-57.69582903888331
 30
0.0
 11
-28.35100789697302
 21
-57.5253225229898
 31
0.0
  0
LINE
  5
422
  8
DEFAULT
 10
-28.35100789697302
 20
-57.5253225229898
 30
0.0
 11
-28.35392278514215
 21
-57.35461697205996
 31
0.0
  0
LINE
  5
423
  8
DEFAULT
 10
-28.35392278514215
 20
-57.35461697205996
 30
0.0
 11
-28.35392278514214
 21
-52.35461697205996
 31
0.0
  0
LINE
  5
424
  8
DEFAULT
 10
-28.35392278514214
 20
-52.35461697205996
 30
0.0
 11
-28.35100789697301
 21
-52.18391142113011
 31
0.0
  0
LINE
  5
425
  8
DEFAULT
 10
-28.35100789697301
 20
-52.18391142113011
 30
0.0
 11
-28.34226663109483
 21
-52.0134049052366
 31
0.0
  0
LINE
  5
426
  8
DEFAULT
 10
-28.34226663109483
 20
-52.0134049052366
 30
0.0
 11
-28.32770917943262
 21
-51.84329622734978
 31
0.0
  0
LINE
  5
427
  8
DEFAULT
 10
-28.32770917943262
 20
-51.84329622734978
 30
0.0
 11
-28.30735251532379
 21
-51.67378372657871
 31
0.0
  0
LINE
  5
428
  8
DEFAULT
 10
-28.30735251532379
 20
-51.67378372657871
 30
0.0
 11
-28.28122037372813
 21
-51.50506504691663
 31
0.0
  0
LINE
  5
429
  8
DEFAULT
 10
-28.28122037372813
 20
-51.50506504691663
 30
0.0
 11
-28.24934322355375
 21
-51.33733690679679
 31
0.0
  0
LINE
  5
42A
  8
DEFAULT
 10
-28.24934322355375
 20
-51.33733690679679
 30
0.0
 11
-28.21175823213185
 21
-51.17079486972772
 31
0.0
  0
LINE
  5
42B
  8
DEFAULT
 10
-28.21175823213185
 20
-51.17079486972772
 30
0.0
 11
-28.16850922188114
 21
-51.00563311627484
 31
0.0
  0
LINE
  5
42C
  8
DEFAULT
 10
-28.16850922188114
 20
-51.00563311627484
 30
0.0
 11
-28.11964661921295
 21
-50.84204421765457
 31
0.0
  0
LINE
  5
42D
  8
DEFAULT
 10
-28.11964661921295
 20
-50.84204421765457
 30
0.0
 11
-28.06522739573624
 21
-50.68021891120502
 31
0.0
  0
LINE
  5
42E
  8
DEFAULT
 10
-28.06522739573624
 20
-50.68021891120502
 30
0.0
 11
-28.00531500183131
 21
-50.52034587799468
 31
0.0
  0
LINE
  5
42F
  8
DEFAULT
 10
-28.00531500183131
 20
-50.52034587799468
 30
0.0
 11
-27.93997929266941
 21
-50.36261152282875
 31
0.0
  0
LINE
  5
430
  8
DEFAULT
 10
-27.93997929266941
 20
-50.36261152282875
 30
0.0
 11
-27.86929644676481
 21
-50.20719975690955
 31
0.0
  0
LINE
  5
431
  8
DEFAULT
 10
-27.86929644676481
 20
-50.20719975690955
 30
0.0
 11
-27.79334887715402
 21
-50.0542917834042
 31
0.0
  0
LINE
  5
432
  8
DEFAULT
 10
-27.79334887715402
 20
-50.0542917834042
 30
0.0
 11
-27.7122251353059
 21
-49.90406588616987
 31
0.0
  0
LINE
  5
433
  8
DEFAULT
 10
-27.7122251353059
 20
-49.90406588616987
 30
0.0
 11
-27.62601980787459
 21
-49.7566972218828
 31
0.0
  0
LINE
  5
434
  8
DEFAULT
 10
-27.62601980787459
 20
-49.7566972218828
 30
0.0
 11
-27.5348334064157
 21
-49.61235761581337
 31
0.0
  0
LINE
  5
435
  8
DEFAULT
 10
-27.5348334064157
 20
-49.61235761581337
 30
0.0
 11
-27.43877225019436
 21
-49.47121536148563
 31
0.0
  0
LINE
  5
436
  8
DEFAULT
 10
-27.43877225019436
 20
-49.47121536148563
 30
0.0
 11
-27.33794834222167
 21
-49.33343502445449
 31
0.0
  0
LINE
  5
437
  8
DEFAULT
 10
-27.33794834222167
 20
-49.33343502445449
 30
0.0
 11
-27.23247923866424
 21
-49.1991772504297
 31
0.0
  0
LINE
  5
438
  8
DEFAULT
 10
-27.23247923866424
 20
-49.1991772504297
 30
0.0
 11
-27.12248791177895
 21
-49.0685985779701
 31
0.0
  0
LINE
  5
439
  8
DEFAULT
 10
-27.12248791177895
 20
-49.0685985779701
 30
0.0
 11
-27.00810260653277
 21
-48.94185125596669
 31
0.0
  0
LINE
  5
43A
  8
DEFAULT
 10
-27.00810260653277
 20
-48.94185125596669
 30
0.0
 11
-26.88945669107489
 21
-48.81908306612722
 31
0.0
  0
LINE
  5
43B
  8
DEFAULT
 10
-26.88945669107489
 20
-48.81908306612722
 30
0.0
 11
-26.76668850123542
 21
-48.70043715066934
 31
0.0
  0
LINE
  5
43C
  8
DEFAULT
 10
-26.76668850123542
 20
-48.70043715066934
 30
0.0
 11
-26.63994117923201
 21
-48.58605184542316
 31
0.0
  0
LINE
  5
43D
  8
DEFAULT
 10
-26.63994117923201
 20
-48.58605184542316
 30
0.0
 11
-26.50936250677241
 21
-48.47606051853786
 31
0.0
  0
LINE
  5
43E
  8
DEFAULT
 10
-26.50936250677241
 20
-48.47606051853786
 30
0.0
 11
-26.37510473274762
 21
-48.37059141498044
 31
0.0
  0
LINE
  5
43F
  8
DEFAULT
 10
-26.37510473274762
 20
-48.37059141498044
 30
0.0
 11
-26.23732439571648
 21
-48.26976750700774
 31
0.0
  0
LINE
  5
440
  8
DEFAULT
 10
-26.23732439571648
 20
-48.26976750700774
 30
0.0
 11
-26.09618214138874
 21
-48.1737063507864
 31
0.0
  0
LINE
  5
441
  8
DEFAULT
 10
-26.09618214138874
 20
-48.1737063507864
 30
0.0
 11
-25.95184253531932
 21
-48.08251994932751
 31
0.0
  0
LINE
  5
442
  8
DEFAULT
 10
-25.95184253531932
 20
-48.08251994932751
 30
0.0
 11
-25.80447387103223
 21
-47.9963146218962
 31
0.0
  0
LINE
  5
443
  8
DEFAULT
 10
-25.80447387103223
 20
-47.9963146218962
 30
0.0
 11
-25.65424797379791
 21
-47.91519088004808
 31
0.0
  0
LINE
  5
444
  8
DEFAULT
 10
-25.65424797379791
 20
-47.91519088004808
 30
0.0
 11
-25.50134000029256
 21
-47.83924331043729
 31
0.0
  0
LINE
  5
445
  8
DEFAULT
 10
-25.50134000029256
 20
-47.83924331043729
 30
0.0
 11
-25.34592823437336
 21
-47.76856046453269
 31
0.0
  0
LINE
  5
446
  8
DEFAULT
 10
-25.34592823437336
 20
-47.76856046453269
 30
0.0
 11
-25.18819387920744
 21
-47.70322475537079
 31
0.0
  0
LINE
  5
447
  8
DEFAULT
 10
-25.18819387920744
 20
-47.70322475537079
 30
0.0
 11
-25.02832084599708
 21
-47.64331236146585
 31
0.0
  0
LINE
  5
448
  8
DEFAULT
 10
-25.02832084599708
 20
-47.64331236146585
 30
0.0
 11
-24.86649553954754
 21
-47.58889313798915
 31
0.0
  0
LINE
  5
449
  8
DEFAULT
 10
-24.86649553954754
 20
-47.58889313798915
 30
0.0
 11
-24.70290664092727
 21
-47.54003053532096
 31
0.0
  0
LINE
  5
44A
  8
DEFAULT
 10
-24.70290664092727
 20
-47.54003053532096
 30
0.0
 11
-24.53774488747439
 21
-47.49678152507025
 31
0.0
  0
LINE
  5
44B
  8
DEFAULT
 10
-24.53774488747439
 20
-47.49678152507025
 30
0.0
 11
-24.37120285040532
 21
-47.45919653364835
 31
0.0
  0
LINE
  5
44C
  8
DEFAULT
 10
-24.37120285040532
 20
-47.45919653364835
 30
0.0
 11
-24.20347471028549
 21
-47.42731938347396
 31
0.0
  0
LINE
  5
44D
  8
DEFAULT
 10
-24.20347471028549
 20
-47.42731938347396
 30
0.0
 11
-24.03475603062339
 21
-47.4011872418783
 31
0.0
  0
LINE
  5
44E
  8
DEFAULT
 10
-24.03475603062339
 20
-47.4011872418783
 30
0.0
 11
-23.86524352985233
 21
-47.38083057776947
 31
0.0
  0
LINE
  5
44F
  8
DEFAULT
 10
-23.86524352985233
 20
-47.38083057776947
 30
0.0
 11
-23.69513485196551
 21
-47.36627312610725
 31
0.0
  0
LINE
  5
450
  8
DEFAULT
 10
-23.69513485196551
 20
-47.36627312610725
 30
0.0
 11
-23.52462833607199
 21
-47.35753186022908
 31
0.0
  0
LINE
  5
451
  8
DEFAULT
 10
-23.52462833607199
 20
-47.35753186022908
 30
0.0
 11
-23.35392278514216
 21
-47.35461697205995
 31
0.0
  0
LINE
  5
452
  8
DEFAULT
 10
-23.35392278514216
 20
-47.35461697205995
 30
0.0
 11
-22.35392278514215
 21
-47.35461697205996
 31
0.0
  0
LINE
  5
453
  8
DEFAULT
 10
-22.35392278514215
 20
-47.35461697205996
 30
0.0
 11
-22.35392278514215
 21
-44.65461697205997
 31
0.0
  0
LINE
  5
454
  8
DEFAULT
 10
-22.35392278514215
 20
-44.65461697205997
 30
0.0
 11
-17.35392278514215
 21
-44.65461697205997
 31
0.0
  0
LINE
  5
455
  8
DEFAULT
 10
-17.35392278514215
 20
-44.65461697205997
 30
0.0
 11
-17.35392278514215
 21
-47.35461697205996
 31
0.0
  0
LINE
  5
456
  8
DEFAULT
 10
-17.35392278514215
 20
-47.35461697205996
 30
0.0
 11
-12.35392278514215
 21
-47.35461697205996
 31
0.0
  0
LINE
  5
457
  8
DEFAULT
 10
-12.35392278514215
 20
-47.35461697205996
 30
0.0
 11
-12.35392278514215
 21
-44.65461697205997
 31
0.0
  0
LINE
  5
458
  8
DEFAULT
 10
-12.35392278514215
 20
-44.65461697205997
 30
0.0
 11
-7.353922785142149
 21
-44.65461697205997
 31
0.0
  0
LINE
  5
459
  8
DEFAULT
 10
-7.353922785142149
 20
-44.65461697205997
 30
0.0
 11
-7.353922785142149
 21
-47.35461697205996
 31
0.0
  0
LINE
  5
45A
  8
DEFAULT
 10
-7.353922785142149
 20
-47.35461697205996
 30
0.0
 11
-2.353922785142149
 21
-47.35461697205996
 31
0.0
  0
LINE
  5
45B
  8
DEFAULT
 10
-2.353922785142149
 20
-47.35461697205996
 30
0.0
 11
-2.353922785142149
 21
-44.65461697205997
 31
0.0
  0
LINE
  5
45C
  8
DEFAULT
 10
-2.353922785142149
 20
-44.65461697205997
 30
0.0
 11
2.646077214857851
 21
-44.65461697205997
 31
0.0
  0
LINE
  5
45D
  8
DEFAULT
 10
2.646077214857851
 20
-44.65461697205997
 30
0.0
 11
2.646077214857851
 21
-47.35461697205996
 31
0.0
  0
LINE
  5
45E
  8
DEFAULT
 10
2.646077214857851
 20
-47.35461697205996
 30
0.0
 11
4.646077214857851
 21
-47.35461697205996
 31
0.0
  0
LINE
  5
45F
  8
DEFAULT
 10
4.646077214857851
 20
-47.35461697205996
 30
0.0
 11
4.816782765787703
 21
-47.35753186022909
 31
0.0
  0
LINE
  5
460
  8
DEFAULT
 10
4.816782765787703
 20
-47.35753186022909
 30
0.0
 11
4.987289281681205
 21
-47.36627312610726
 31
0.0
  0
LINE
  5
461
  8
DEFAULT
 10
4.987289281681205
 20
-47.36627312610726
 30
0.0
 11
5.157397959568036
 21
-47.38083057776949
 31
0.0
  0
LINE
  5
462
  8
DEFAULT
 10
5.157397959568036
 20
-47.38083057776949
 30
0.0
 11
5.326910460339083
 21
-47.4011872418783
 31
0.0
  0
LINE
  5
463
  8
DEFAULT
 10
5.326910460339083
 20
-47.4011872418783
 30
0.0
 11
5.495629140001185
 21
-47.42731938347397
 31
0.0
  0
LINE
  5
464
  8
DEFAULT
 10
5.495629140001185
 20
-47.42731938347397
 30
0.0
 11
5.663357280121006
 21
-47.45919653364834
 31
0.0
  0
LINE
  5
465
  8
DEFAULT
 10
5.663357280121006
 20
-47.45919653364834
 30
0.0
 11
5.829899317190085
 21
-47.49678152507025
 31
0.0
  0
LINE
  5
466
  8
DEFAULT
 10
5.829899317190085
 20
-47.49678152507025
 30
0.0
 11
5.995061070642974
 21
-47.54003053532096
 31
0.0
  0
LINE
  5
467
  8
DEFAULT
 10
5.995061070642974
 20
-47.54003053532096
 30
0.0
 11
6.15864996926323
 21
-47.58889313798915
 31
0.0
  0
LINE
  5
468
  8
DEFAULT
 10
6.15864996926323
 20
-47.58889313798915
 30
0.0
 11
6.320475275712782
 21
-47.64331236146585
 31
0.0
  0
LINE
  5
469
  8
DEFAULT
 10
6.320475275712782
 20
-47.64331236146585
 30
0.0
 11
6.480348308923135
 21
-47.70322475537079
 31
0.0
  0
LINE
  5
46A
  8
DEFAULT
 10
6.480348308923135
 20
-47.70322475537079
 30
0.0
 11
6.63808266408906
 21
-47.76856046453269
 31
0.0
  0
LINE
  5
46B
  8
DEFAULT
 10
6.63808266408906
 20
-47.76856046453269
 30
0.0
 11
6.793494430008262
 21
-47.83924331043729
 31
0.0
  0
LINE
  5
46C
  8
DEFAULT
 10
6.793494430008262
 20
-47.83924331043729
 30
0.0
 11
6.946402403513614
 21
-47.91519088004808
 31
0.0
  0
LINE
  5
46D
  8
DEFAULT
 10
6.946402403513614
 20
-47.91519088004808
 30
0.0
 11
7.096628300747926
 21
-47.99631462189619
 31
0.0
  0
LINE
  5
46E
  8
DEFAULT
 10
7.096628300747926
 20
-47.99631462189619
 30
0.0
 11
7.243996965035021
 21
-48.08251994932751
 31
0.0
  0
LINE
  5
46F
  8
DEFAULT
 10
7.243996965035021
 20
-48.08251994932751
 30
0.0
 11
7.388336571104448
 21
-48.1737063507864
 31
0.0
  0
LINE
  5
470
  8
DEFAULT
 10
7.388336571104448
 20
-48.1737063507864
 30
0.0
 11
7.529478825432189
 21
-48.26976750700774
 31
0.0
  0
LINE
  5
471
  8
DEFAULT
 10
7.529478825432189
 20
-48.26976750700774
 30
0.0
 11
7.667259162463328
 21
-48.37059141498043
 31
0.0
  0
LINE
  5
472
  8
DEFAULT
 10
7.667259162463328
 20
-48.37059141498043
 30
0.0
 11
7.801516936488119
 21
-48.47606051853786
 31
0.0
  0
LINE
  5
473
  8
DEFAULT
 10
7.801516936488119
 20
-48.47606051853786
 30
0.0
 11
7.932095608947707
 21
-48.58605184542314
 31
0.0
  0
LINE
  5
474
  8
DEFAULT
 10
7.932095608947707
 20
-48.58605184542314
 30
0.0
 11
8.058842930951126
 21
-48.70043715066934
 31
0.0
  0
LINE
  5
475
  8
DEFAULT
 10
8.058842930951126
 20
-48.70043715066934
 30
0.0
 11
8.181611120790592
 21
-48.81908306612722
 31
0.0
  0
LINE
  5
476
  8
DEFAULT
 10
8.181611120790592
 20
-48.81908306612722
 30
0.0
 11
8.300257036248475
 21
-48.94185125596668
 31
0.0
  0
LINE
  5
477
  8
DEFAULT
 10
8.300257036248475
 20
-48.94185125596668
 30
0.0
 11
8.41464234149466
 21
-49.06859857797009
 31
0.0
  0
LINE
  5
478
  8
DEFAULT
 10
8.41464234149466
 20
-49.06859857797009
 30
0.0
 11
8.524633668379956
 21
-49.19917725042969
 31
0.0
  0
LINE
  5
479
  8
DEFAULT
 10
8.524633668379956
 20
-49.19917725042969
 30
0.0
 11
8.630102771937379
 21
-49.33343502445448
 31
0.0
  0
LINE
  5
47A
  8
DEFAULT
 10
8.630102771937379
 20
-49.33343502445448
 30
0.0
 11
8.730926679910066
 21
-49.47121536148562
 31
0.0
  0
LINE
  5
47B
  8
DEFAULT
 10
8.730926679910066
 20
-49.47121536148562
 30
0.0
 11
8.82698783613142
 21
-49.61235761581337
 31
0.0
  0
LINE
  5
47C
  8
DEFAULT
 10
8.82698783613142
 20
-49.61235761581337
 30
0.0
 11
8.9181742375903
 21
-49.75669722188279
 31
0.0
  0
LINE
  5
47D
  8
DEFAULT
 10
8.9181742375903
 20
-49.75669722188279
 30
0.0
 11
9.004379565021605
 21
-49.90406588616986
 31
0.0
  0
LINE
  5
47E
  8
DEFAULT
 10
9.004379565021605
 20
-49.90406588616986
 30
0.0
 11
9.085503306869732
 21
-50.0542917834042
 31
0.0
  0
LINE
  5
47F
  8
DEFAULT
 10
9.085503306869732
 20
-50.0542917834042
 30
0.0
 11
9.161450876480515
 21
-50.20719975690953
 31
0.0
  0
LINE
  5
480
  8
DEFAULT
 10
9.161450876480515
 20
-50.20719975690953
 30
0.0
 11
9.232133722385122
 21
-50.36261152282875
 31
0.0
  0
LINE
  5
481
  8
DEFAULT
 10
9.232133722385122
 20
-50.36261152282875
 30
0.0
 11
9.297469431547023
 21
-50.52034587799467
 31
0.0
  0
LINE
  5
482
  8
DEFAULT
 10
9.297469431547023
 20
-50.52034587799467
 30
0.0
 11
9.35738182545196
 21
-50.68021891120502
 31
0.0
  0
LINE
  5
483
  8
DEFAULT
 10
9.35738182545196
 20
-50.68021891120502
 30
0.0
 11
9.411801048928663
 21
-50.84204421765457
 31
0.0
  0
LINE
  5
484
  8
DEFAULT
 10
9.411801048928663
 20
-50.84204421765457
 30
0.0
 11
9.460663651596853
 21
-51.00563311627484
 31
0.0
  0
LINE
  5
485
  8
DEFAULT
 10
9.460663651596853
 20
-51.00563311627484
 30
0.0
 11
9.503912661847565
 21
-51.17079486972772
 31
0.0
  0
LINE
  5
486
  8
DEFAULT
 10
9.503912661847565
 20
-51.17079486972772
 30
0.0
 11
9.541497653269472
 21
-51.33733690679679
 31
0.0
  0
LINE
  5
487
  8
DEFAULT
 10
9.541497653269472
 20
-51.33733690679679
 30
0.0
 11
9.573374803443842
 21
-51.50506504691663
 31
0.0
  0
LINE
  5
488
  8
DEFAULT
 10
9.573374803443842
 20
-51.50506504691663
 30
0.0
 11
9.599506945039511
 21
-51.67378372657873
 31
0.0
  0
LINE
  5
489
  8
DEFAULT
 10
9.599506945039511
 20
-51.67378372657873
 30
0.0
 11
9.619863609148332
 21
-51.84329622734979
 31
0.0
  0
LINE
  5
48A
  8
DEFAULT
 10
9.619863609148332
 20
-51.84329622734979
 30
0.0
 11
9.634421060810553
 21
-52.01340490523661
 31
0.0
  0
LINE
  5
48B
  8
DEFAULT
 10
9.634421060810553
 20
-52.01340490523661
 30
0.0
 11
9.643162326688728
 21
-52.18391142113012
 31
0.0
  0
LINE
  5
48C
  8
DEFAULT
 10
9.643162326688728
 20
-52.18391142113012
 30
0.0
 11
9.646077214857858
 21
-52.35461697205996
 31
0.0
  0
LINE
  5
48D
  8
DEFAULT
 10
9.646077214857858
 20
-52.35461697205996
 30
0.0
 11
9.64607721485785
 21
-57.35461697205996
 31
0.0
  0
LINE
  5
48E
  8
DEFAULT
 10
9.64607721485785
 20
-78.29005089764178
 30
0.0
 11
9.64316232668872
 21
-78.46075644857162
 31
0.0
  0
LINE
  5
48F
  8
DEFAULT
 10
9.64316232668872
 20
-78.46075644857162
 30
0.0
 11
9.634421060810546
 21
-78.63126296446514
 31
0.0
  0
LINE
  5
490
  8
DEFAULT
 10
9.634421060810546
 20
-78.63126296446514
 30
0.0
 11
9.619863609148325
 21
-78.80137164235195
 31
0.0
  0
LINE
  5
491
  8
DEFAULT
 10
9.619863609148325
 20
-78.80137164235195
 30
0.0
 11
9.599506945039504
 21
-78.97088414312302
 31
0.0
  0
LINE
  5
492
  8
DEFAULT
 10
9.599506945039504
 20
-78.97088414312302
 30
0.0
 11
9.573374803443835
 21
-79.13960282278511
 31
0.0
  0
LINE
  5
493
  8
DEFAULT
 10
9.573374803443835
 20
-79.13960282278511
 30
0.0
 11
9.541497653269465
 21
-79.30733096290494
 31
0.0
  0
LINE
  5
494
  8
DEFAULT
 10
9.541497653269465
 20
-79.30733096290494
 30
0.0
 11
9.503912661847558
 21
-79.473872999974
 31
0.0
  0
LINE
  5
495
  8
DEFAULT
 10
9.503912661847558
 20
-79.473872999974
 30
0.0
 11
9.460663651596846
 21
-79.6390347534269
 31
0.0
  0
LINE
  5
496
  8
DEFAULT
 10
9.460663651596846
 20
-79.6390347534269
 30
0.0
 11
9.411801048928655
 21
-79.80262365204716
 31
0.0
  0
LINE
  5
497
  8
DEFAULT
 10
9.411801048928655
 20
-79.80262365204716
 30
0.0
 11
9.357381825451952
 21
-79.9644489584967
 31
0.0
  0
LINE
  5
498
  8
DEFAULT
 10
9.357381825451952
 20
-79.9644489584967
 30
0.0
 11
9.297469431547016
 21
-80.12432199170706
 31
0.0
  0
LINE
  5
499
  8
DEFAULT
 10
9.297469431547016
 20
-80.12432199170706
 30
0.0
 11
9.232133722385115
 21
-80.28205634687298
 31
0.0
  0
LINE
  5
49A
  8
DEFAULT
 10
9.232133722385115
 20
-80.28205634687298
 30
0.0
 11
9.161450876480515
 21
-80.43746811279219
 31
0.0
  0
LINE
  5
49B
  8
DEFAULT
 10
9.161450876480515
 20
-80.43746811279219
 30
0.0
 11
9.085503306869725
 21
-80.59037608629754
 31
0.0
  0
LINE
  5
49C
  8
DEFAULT
 10
9.085503306869725
 20
-80.59037608629754
 30
0.0
 11
9.004379565021607
 21
-80.74060198353186
 31
0.0
  0
LINE
  5
49D
  8
DEFAULT
 10
9.004379565021607
 20
-80.74060198353186
 30
0.0
 11
8.918174237590293
 21
-80.88797064781895
 31
0.0
  0
LINE
  5
49E
  8
DEFAULT
 10
8.918174237590293
 20
-80.88797064781895
 30
0.0
 11
8.826987836131405
 21
-81.03231025388837
 31
0.0
  0
LINE
  5
49F
  8
DEFAULT
 10
8.826987836131405
 20
-81.03231025388837
 30
0.0
 11
8.73092667991006
 21
-81.17345250821612
 31
0.0
  0
LINE
  5
4A0
  8
DEFAULT
 10
8.73092667991006
 20
-81.17345250821612
 30
0.0
 11
8.630102771937374
 21
-81.31123284524725
 31
0.0
  0
LINE
  5
4A1
  8
DEFAULT
 10
8.630102771937374
 20
-81.31123284524725
 30
0.0
 11
8.524633668379948
 21
-81.44549061927204
 31
0.0
  0
LINE
  5
4A2
  8
DEFAULT
 10
8.524633668379948
 20
-81.44549061927204
 30
0.0
 11
8.414642341494655
 21
-81.57606929173164
 31
0.0
  0
LINE
  5
4A3
  8
DEFAULT
 10
8.414642341494655
 20
-81.57606929173164
 30
0.0
 11
8.300257036248471
 21
-81.70281661373505
 31
0.0
  0
LINE
  5
4A4
  8
DEFAULT
 10
8.300257036248471
 20
-81.70281661373505
 30
0.0
 11
8.181611120790588
 21
-81.82558480357451
 31
0.0
  0
LINE
  5
4A5
  8
DEFAULT
 10
8.181611120790588
 20
-81.82558480357451
 30
0.0
 11
8.058842930951121
 21
-81.94423071903239
 31
0.0
  0
LINE
  5
4A6
  8
DEFAULT
 10
8.058842930951121
 20
-81.94423071903239
 30
0.0
 11
7.932095608947713
 21
-82.05861602427858
 31
0.0
  0
LINE
  5
4A7
  8
DEFAULT
 10
7.932095608947713
 20
-82.05861602427858
 30
0.0
 11
7.801516936488115
 21
-82.16860735116387
 31
0.0
  0
LINE
  5
4A8
  8
DEFAULT
 10
7.801516936488115
 20
-82.16860735116387
 30
0.0
 11
7.667259162463323
 21
-82.2740764547213
 31
0.0
  0
LINE
  5
4A9
  8
DEFAULT
 10
7.667259162463323
 20
-82.2740764547213
 30
0.0
 11
7.529478825432186
 21
-82.37490036269399
 31
0.0
  0
LINE
  5
4AA
  8
DEFAULT
 10
7.529478825432186
 20
-82.37490036269399
 30
0.0
 11
7.388336571104444
 21
-82.47096151891533
 31
0.0
  0
LINE
  5
4AB
  8
DEFAULT
 10
7.388336571104444
 20
-82.47096151891533
 30
0.0
 11
7.243996965035018
 21
-82.56214792037422
 31
0.0
  0
LINE
  5
4AC
  8
DEFAULT
 10
7.243996965035018
 20
-82.56214792037422
 30
0.0
 11
7.096628300747936
 21
-82.64835324780553
 31
0.0
  0
LINE
  5
4AD
  8
DEFAULT
 10
7.096628300747936
 20
-82.64835324780553
 30
0.0
 11
6.946402403513611
 21
-82.72947698965365
 31
0.0
  0
LINE
  5
4AE
  8
DEFAULT
 10
6.946402403513611
 20
-82.72947698965365
 30
0.0
 11
6.79349443000826
 21
-82.80542455926444
 31
0.0
  0
LINE
  5
4AF
  8
DEFAULT
 10
6.79349443000826
 20
-82.80542455926444
 30
0.0
 11
6.638082664089058
 21
-82.87610740516904
 31
0.0
  0
LINE
  5
4B0
  8
DEFAULT
 10
6.638082664089058
 20
-82.87610740516904
 30
0.0
 11
6.480348308923134
 21
-82.94144311433094
 31
0.0
  0
LINE
  5
4B1
  8
DEFAULT
 10
6.480348308923134
 20
-82.94144311433094
 30
0.0
 11
6.320475275712782
 21
-83.00135550823587
 31
0.0
  0
LINE
  5
4B2
  8
DEFAULT
 10
6.320475275712782
 20
-83.00135550823587
 30
0.0
 11
6.158649969263228
 21
-83.05577473171257
 31
0.0
  0
LINE
  5
4B3
  8
DEFAULT
 10
6.158649969263228
 20
-83.05577473171257
 30
0.0
 11
5.995061070642972
 21
-83.10463733438077
 31
0.0
  0
LINE
  5
4B4
  8
DEFAULT
 10
5.995061070642972
 20
-83.10463733438077
 30
0.0
 11
5.829899317190083
 21
-83.14788634463149
 31
0.0
  0
LINE
  5
4B5
  8
DEFAULT
 10
5.829899317190083
 20
-83.14788634463149
 30
0.0
 11
5.663357280121019
 21
-83.18547133605338
 31
0.0
  0
LINE
  5
4B6
  8
DEFAULT
 10
5.663357280121019
 20
-83.18547133605338
 30
0.0
 11
5.495629140001184
 21
-83.21734848622776
 31
0.0
  0
LINE
  5
4B7
  8
DEFAULT
 10
5.495629140001184
 20
-83.21734848622776
 30
0.0
 11
5.326910460339084
 21
-83.24348062782343
 31
0.0
  0
LINE
  5
4B8
  8
DEFAULT
 10
5.326910460339084
 20
-83.24348062782343
 30
0.0
 11
5.157397959568022
 21
-83.26383729193225
 31
0.0
  0
LINE
  5
4B9
  8
DEFAULT
 10
5.157397959568022
 20
-83.26383729193225
 30
0.0
 11
4.987289281681205
 21
-83.27839474359448
 31
0.0
  0
LINE
  5
4BA
  8
DEFAULT
 10
4.987289281681205
 20
-83.27839474359448
 30
0.0
 11
4.81678276578769
 21
-83.28713600947265
 31
0.0
  0
LINE
  5
4BB
  8
DEFAULT
 10
4.81678276578769
 20
-83.28713600947265
 30
0.0
 11
4.646077214857852
 21
-83.29005089764178
 31
0.0
  0
LINE
  5
4BC
  8
DEFAULT
 10
4.646077214857852
 20
-83.29005089764178
 30
0.0
 11
-23.35392278514215
 21
-83.29005089764178
 31
0.0
  0
LINE
  5
4BD
  8
DEFAULT
 10
-23.35392278514215
 20
-83.29005089764178
 30
0.0
 11
-23.52462833607199
 21
-83.28713600947265
 31
0.0
  0
LINE
  5
4BE
  8
DEFAULT
 10
-23.52462833607199
 20
-83.28713600947265
 30
0.0
 11
-23.69513485196551
 21
-83.27839474359448
 31
0.0
  0
LINE
  5
4BF
  8
DEFAULT
 10
-23.69513485196551
 20
-83.27839474359448
 30
0.0
 11
-23.86524352985233
 21
-83.26383729193225
 31
0.0
  0
LINE
  5
4C0
  8
DEFAULT
 10
-23.86524352985233
 20
-83.26383729193225
 30
0.0
 11
-24.03475603062338
 21
-83.24348062782343
 31
0.0
  0
LINE
  5
4C1
  8
DEFAULT
 10
-24.03475603062338
 20
-83.24348062782343
 30
0.0
 11
-24.20347471028548
 21
-83.21734848622776
 31
0.0
  0
LINE
  5
4C2
  8
DEFAULT
 10
-24.20347471028548
 20
-83.21734848622776
 30
0.0
 11
-24.37120285040532
 21
-83.1854713360534
 31
0.0
  0
LINE
  5
4C3
  8
DEFAULT
 10
-24.37120285040532
 20
-83.1854713360534
 30
0.0
 11
-24.53774488747438
 21
-83.14788634463149
 31
0.0
  0
LINE
  5
4C4
  8
DEFAULT
 10
-24.53774488747438
 20
-83.14788634463149
 30
0.0
 11
-24.70290664092727
 21
-83.10463733438077
 31
0.0
  0
LINE
  5
4C5
  8
DEFAULT
 10
-24.70290664092727
 20
-83.10463733438077
 30
0.0
 11
-24.86649553954753
 21
-83.05577473171257
 31
0.0
  0
LINE
  5
4C6
  8
DEFAULT
 10
-24.86649553954753
 20
-83.05577473171257
 30
0.0
 11
-25.02832084599708
 21
-83.00135550823587
 31
0.0
  0
LINE
  5
4C7
  8
DEFAULT
 10
-25.02832084599708
 20
-83.00135550823587
 30
0.0
 11
-25.18819387920743
 21
-82.94144311433094
 31
0.0
  0
LINE
  5
4C8
  8
DEFAULT
 10
-25.18819387920743
 20
-82.94144311433094
 30
0.0
 11
-25.34592823437336
 21
-82.87610740516904
 31
0.0
  0
LINE
  5
4C9
  8
DEFAULT
 10
-25.34592823437336
 20
-82.87610740516904
 30
0.0
 11
-25.50134000029256
 21
-82.80542455926444
 31
0.0
  0
LINE
  5
4CA
  8
DEFAULT
 10
-25.50134000029256
 20
-82.80542455926444
 30
0.0
 11
-25.65424797379791
 21
-82.72947698965365
 31
0.0
  0
LINE
  5
4CB
  8
DEFAULT
 10
-25.65424797379791
 20
-82.72947698965365
 30
0.0
 11
-25.80447387103224
 21
-82.64835324780553
 31
0.0
  0
LINE
  5
4CC
  8
DEFAULT
 10
-25.80447387103224
 20
-82.64835324780553
 30
0.0
 11
-25.95184253531932
 21
-82.56214792037422
 31
0.0
  0
LINE
  5
4CD
  8
DEFAULT
 10
-25.95184253531932
 20
-82.56214792037422
 30
0.0
 11
-26.09618214138874
 21
-82.47096151891533
 31
0.0
  0
LINE
  5
4CE
  8
DEFAULT
 10
-26.09618214138874
 20
-82.47096151891533
 30
0.0
 11
-26.23732439571648
 21
-82.37490036269398
 31
0.0
  0
LINE
  5
4CF
  8
DEFAULT
 10
-26.23732439571648
 20
-82.37490036269398
 30
0.0
 11
-26.37510473274762
 21
-82.2740764547213
 31
0.0
  0
LINE
  5
4D0
  8
DEFAULT
 10
-26.37510473274762
 20
-82.2740764547213
 30
0.0
 11
-26.50936250677241
 21
-82.16860735116387
 31
0.0
  0
LINE
  5
4D1
  8
DEFAULT
 10
-26.50936250677241
 20
-82.16860735116387
 30
0.0
 11
-26.63994117923201
 21
-82.05861602427858
 31
0.0
  0
LINE
  5
4D2
  8
DEFAULT
 10
-26.63994117923201
 20
-82.05861602427858
 30
0.0
 11
-26.76668850123542
 21
-81.94423071903239
 31
0.0
  0
LINE
  5
4D3
  8
DEFAULT
 10
-26.76668850123542
 20
-81.94423071903239
 30
0.0
 11
-26.88945669107489
 21
-81.82558480357451
 31
0.0
  0
LINE
  5
4D4
  8
DEFAULT
 10
-26.88945669107489
 20
-81.82558480357451
 30
0.0
 11
-27.00810260653277
 21
-81.70281661373504
 31
0.0
  0
LINE
  5
4D5
  8
DEFAULT
 10
-27.00810260653277
 20
-81.70281661373504
 30
0.0
 11
-27.12248791177895
 21
-81.57606929173164
 31
0.0
  0
LINE
  5
4D6
  8
DEFAULT
 10
-27.12248791177895
 20
-81.57606929173164
 30
0.0
 11
-27.23247923866425
 21
-81.44549061927204
 31
0.0
  0
LINE
  5
4D7
  8
DEFAULT
 10
-27.23247923866425
 20
-81.44549061927204
 30
0.0
 11
-27.33794834222167
 21
-81.31123284524725
 31
0.0
  0
LINE
  5
4D8
  8
DEFAULT
 10
-27.33794834222167
 20
-81.31123284524725
 30
0.0
 11
-27.43877225019436
 21
-81.1734525082161
 31
0.0
  0
LINE
  5
4D9
  8
DEFAULT
 10
-27.43877225019436
 20
-81.1734525082161
 30
0.0
 11
-27.5348334064157
 21
-81.03231025388837
 31
0.0
  0
LINE
  5
4DA
  8
DEFAULT
 10
-27.5348334064157
 20
-81.03231025388837
 30
0.0
 11
-27.62601980787459
 21
-80.88797064781895
 31
0.0
  0
LINE
  5
4DB
  8
DEFAULT
 10
-27.62601980787459
 20
-80.88797064781895
 30
0.0
 11
-27.71222513530591
 21
-80.74060198353186
 31
0.0
  0
LINE
  5
4DC
  8
DEFAULT
 10
-27.71222513530591
 20
-80.74060198353186
 30
0.0
 11
-27.79334887715402
 21
-80.59037608629754
 31
0.0
  0
LINE
  5
4DD
  8
DEFAULT
 10
-27.79334887715402
 20
-80.59037608629754
 30
0.0
 11
-27.86929644676481
 21
-80.43746811279217
 31
0.0
  0
LINE
  5
4DE
  8
DEFAULT
 10
-27.86929644676481
 20
-80.43746811279217
 30
0.0
 11
-27.93997929266941
 21
-80.28205634687298
 31
0.0
  0
LINE
  5
4DF
  8
DEFAULT
 10
-27.93997929266941
 20
-80.28205634687298
 30
0.0
 11
-28.00531500183131
 21
-80.12432199170706
 31
0.0
  0
LINE
  5
4E0
  8
DEFAULT
 10
-28.00531500183131
 20
-80.12432199170706
 30
0.0
 11
-28.06522739573625
 21
-79.9644489584967
 31
0.0
  0
LINE
  5
4E1
  8
DEFAULT
 10
-28.06522739573625
 20
-79.9644489584967
 30
0.0
 11
-28.11964661921295
 21
-79.80262365204716
 31
0.0
  0
LINE
  5
4E2
  8
DEFAULT
 10
-28.11964661921295
 20
-79.80262365204716
 30
0.0
 11
-28.16850922188114
 21
-79.6390347534269
 31
0.0
  0
LINE
  5
4E3
  8
DEFAULT
 10
-28.16850922188114
 20
-79.6390347534269
 30
0.0
 11
-28.21175823213185
 21
-79.473872999974
 31
0.0
  0
LINE
  5
4E4
  8
DEFAULT
 10
-28.21175823213185
 20
-79.473872999974
 30
0.0
 11
-28.24934322355376
 21
-79.30733096290494
 31
0.0
  0
LINE
  5
4E5
  8
DEFAULT
 10
-28.24934322355376
 20
-79.30733096290494
 30
0.0
 11
-28.28122037372813
 21
-79.13960282278511
 31
0.0
  0
LINE
  5
4E6
  8
DEFAULT
 10
-28.28122037372813
 20
-79.13960282278511
 30
0.0
 11
-28.3073525153238
 21
-78.97088414312302
 31
0.0
  0
LINE
  5
4E7
  8
DEFAULT
 10
-28.3073525153238
 20
-78.97088414312302
 30
0.0
 11
-28.32770917943262
 21
-78.80137164235195
 31
0.0
  0
LINE
  5
4E8
  8
DEFAULT
 10
-28.32770917943262
 20
-78.80137164235195
 30
0.0
 11
-28.34226663109484
 21
-78.63126296446514
 31
0.0
  0
LINE
  5
4E9
  8
DEFAULT
 10
-28.34226663109484
 20
-78.63126296446514
 30
0.0
 11
-28.35100789697302
 21
-78.46075644857162
 31
0.0
  0
LINE
  5
4EA
  8
DEFAULT
 10
-28.35100789697302
 20
-78.46075644857162
 30
0.0
 11
-28.35392278514215
 21
-78.29005089764178
 31
0.0
  0
LINE
  5
4EB
  8
DEFAULT
 10
-28.35392278514215
 20
-78.29005089764178
 30
0.0
 11
-28.35392278514214
 21
-73.29005089764178
 31
0.0
  0
LINE
  5
4EC
  8
DEFAULT
 10
-28.35392278514214
 20
-73.29005089764178
 30
0.0
 11
-28.35100789697301
 21
-73.11934534671194
 31
0.0
  0
LINE
  5
4ED
  8
DEFAULT
 10
-28.35100789697301
 20
-73.11934534671194
 30
0.0
 11
-28.34226663109483
 21
-72.94883883081842
 31
0.0
  0
LINE
  5
4EE
  8
DEFAULT
 10
-28.34226663109483
 20
-72.94883883081842
 30
0.0
 11
-28.32770917943262
 21
-72.7787301529316
 31
0.0
  0
LINE
  5
4EF
  8
DEFAULT
 10
-28.32770917943262
 20
-72.7787301529316
 30
0.0
 11
-28.30735251532379
 21
-72.60921765216054
 31
0.0
  0
LINE
  5
4F0
  8
DEFAULT
 10
-28.30735251532379
 20
-72.60921765216054
 30
0.0
 11
-28.28122037372813
 21
-72.44049897249845
 31
0.0
  0
LINE
  5
4F1
  8
DEFAULT
 10
-28.28122037372813
 20
-72.44049897249845
 30
0.0
 11
-28.24934322355375
 21
-72.27277083237861
 31
0.0
  0
LINE
  5
4F2
  8
DEFAULT
 10
-28.24934322355375
 20
-72.27277083237861
 30
0.0
 11
-28.21175823213185
 21
-72.10622879530955
 31
0.0
  0
LINE
  5
4F3
  8
DEFAULT
 10
-28.21175823213185
 20
-72.10622879530955
 30
0.0
 11
-28.16850922188114
 21
-71.94106704185666
 31
0.0
  0
LINE
  5
4F4
  8
DEFAULT
 10
-28.16850922188114
 20
-71.94106704185666
 30
0.0
 11
-28.11964661921294
 21
-71.7774781432364
 31
0.0
  0
LINE
  5
4F5
  8
DEFAULT
 10
-28.11964661921294
 20
-71.7774781432364
 30
0.0
 11
-28.06522739573624
 21
-71.61565283678685
 31
0.0
  0
LINE
  5
4F6
  8
DEFAULT
 10
-28.06522739573624
 20
-71.61565283678685
 30
0.0
 11
-28.00531500183131
 21
-71.4557798035765
 31
0.0
  0
LINE
  5
4F7
  8
DEFAULT
 10
-28.00531500183131
 20
-71.4557798035765
 30
0.0
 11
-27.93997929266941
 21
-71.29804544841058
 31
0.0
  0
LINE
  5
4F8
  8
DEFAULT
 10
-27.93997929266941
 20
-71.29804544841058
 30
0.0
 11
-27.86929644676481
 21
-71.14263368249138
 31
0.0
  0
LINE
  5
4F9
  8
DEFAULT
 10
-27.86929644676481
 20
-71.14263368249138
 30
0.0
 11
-27.79334887715402
 21
-70.98972570898603
 31
0.0
  0
LINE
  5
4FA
  8
DEFAULT
 10
-27.79334887715402
 20
-70.98972570898603
 30
0.0
 11
-27.7122251353059
 21
-70.8394998117517
 31
0.0
  0
LINE
  5
4FB
  8
DEFAULT
 10
-27.7122251353059
 20
-70.8394998117517
 30
0.0
 11
-27.62601980787458
 21
-70.69213114746462
 31
0.0
  0
LINE
  5
4FC
  8
DEFAULT
 10
-27.62601980787458
 20
-70.69213114746462
 30
0.0
 11
-27.5348334064157
 21
-70.54779154139518
 31
0.0
  0
LINE
  5
4FD
  8
DEFAULT
 10
-27.5348334064157
 20
-70.54779154139518
 30
0.0
 11
-27.43877225019435
 21
-70.40664928706745
 31
0.0
  0
LINE
  5
4FE
  8
DEFAULT
 10
-27.43877225019435
 20
-70.40664928706745
 30
0.0
 11
-27.33794834222167
 21
-70.2688689500363
 31
0.0
  0
LINE
  5
4FF
  8
DEFAULT
 10
-27.33794834222167
 20
-70.2688689500363
 30
0.0
 11
-27.23247923866424
 21
-70.13461117601152
 31
0.0
  0
LINE
  5
500
  8
DEFAULT
 10
-27.23247923866424
 20
-70.13461117601152
 30
0.0
 11
-27.12248791177895
 21
-70.00403250355193
 31
0.0
  0
LINE
  5
501
  8
DEFAULT
 10
-27.12248791177895
 20
-70.00403250355193
 30
0.0
 11
-27.00810260653276
 21
-69.87728518154852
 31
0.0
  0
LINE
  5
502
  8
DEFAULT
 10
-27.00810260653276
 20
-69.87728518154852
 30
0.0
 11
-26.88945669107488
 21
-69.75451699170905
 31
0.0
  0
LINE
  5
503
  8
DEFAULT
 10
-26.88945669107488
 20
-69.75451699170905
 30
0.0
 11
-26.76668850123542
 21
-69.63587107625116
 31
0.0
  0
LINE
  5
504
  8
DEFAULT
 10
-26.76668850123542
 20
-69.63587107625116
 30
0.0
 11
-26.63994117923201
 21
-69.52148577100498
 31
0.0
  0
LINE
  5
505
  8
DEFAULT
 10
-26.63994117923201
 20
-69.52148577100498
 30
0.0
 11
-26.50936250677241
 21
-69.41149444411968
 31
0.0
  0
LINE
  5
506
  8
DEFAULT
 10
-26.50936250677241
 20
-69.41149444411968
 30
0.0
 11
-26.37510473274762
 21
-69.30602534056226
 31
0.0
  0
LINE
  5
507
  8
DEFAULT
 10
-26.37510473274762
 20
-69.30602534056226
 30
0.0
 11
-26.23732439571648
 21
-69.20520143258958
 31
0.0
  0
LINE
  5
508
  8
DEFAULT
 10
-26.23732439571648
 20
-69.20520143258958
 30
0.0
 11
-26.09618214138874
 21
-69.10914027636824
 31
0.0
  0
LINE
  5
509
  8
DEFAULT
 10
-26.09618214138874
 20
-69.10914027636824
 30
0.0
 11
-25.95184253531932
 21
-69.01795387490934
 31
0.0
  0
LINE
  5
50A
  8
DEFAULT
 10
-25.95184253531932
 20
-69.01795387490934
 30
0.0
 11
-25.80447387103223
 21
-68.93174854747804
 31
0.0
  0
LINE
  5
50B
  8
DEFAULT
 10
-25.80447387103223
 20
-68.93174854747804
 30
0.0
 11
-25.65424797379791
 21
-68.85062480562992
 31
0.0
  0
LINE
  5
50C
  8
DEFAULT
 10
-25.65424797379791
 20
-68.85062480562992
 30
0.0
 11
-25.50134000029256
 21
-68.77467723601913
 31
0.0
  0
LINE
  5
50D
  8
DEFAULT
 10
-25.50134000029256
 20
-68.77467723601913
 30
0.0
 11
-25.34592823437336
 21
-68.7039943901145
 31
0.0
  0
LINE
  5
50E
  8
DEFAULT
 10
-25.34592823437336
 20
-68.7039943901145
 30
0.0
 11
-25.18819387920744
 21
-68.63865868095262
 31
0.0
  0
LINE
  5
50F
  8
DEFAULT
 10
-25.18819387920744
 20
-68.63865868095262
 30
0.0
 11
-25.02832084599708
 21
-68.57874628704766
 31
0.0
  0
LINE
  5
510
  8
DEFAULT
 10
-25.02832084599708
 20
-68.57874628704766
 30
0.0
 11
-24.86649553954754
 21
-68.52432706357098
 31
0.0
  0
LINE
  5
511
  8
DEFAULT
 10
-24.86649553954754
 20
-68.52432706357098
 30
0.0
 11
-24.70290664092727
 21
-68.47546446090278
 31
0.0
  0
LINE
  5
512
  8
DEFAULT
 10
-24.70290664092727
 20
-68.47546446090278
 30
0.0
 11
-24.53774488747439
 21
-68.43221545065207
 31
0.0
  0
LINE
  5
513
  8
DEFAULT
 10
-24.53774488747439
 20
-68.43221545065207
 30
0.0
 11
-24.37120285040532
 21
-68.39463045923016
 31
0.0
  0
LINE
  5
514
  8
DEFAULT
 10
-24.37120285040532
 20
-68.39463045923016
 30
0.0
 11
-24.20347471028549
 21
-68.36275330905579
 31
0.0
  0
LINE
  5
515
  8
DEFAULT
 10
-24.20347471028549
 20
-68.36275330905579
 30
0.0
 11
-24.03475603062339
 21
-68.33662116746012
 31
0.0
  0
LINE
  5
516
  8
DEFAULT
 10
-24.03475603062339
 20
-68.33662116746012
 30
0.0
 11
-23.86524352985233
 21
-68.3162645033513
 31
0.0
  0
LINE
  5
517
  8
DEFAULT
 10
-23.86524352985233
 20
-68.3162645033513
 30
0.0
 11
-23.69513485196551
 21
-68.30170705168908
 31
0.0
  0
LINE
  5
518
  8
DEFAULT
 10
-23.69513485196551
 20
-68.30170705168908
 30
0.0
 11
-23.52462833607199
 21
-68.2929657858109
 31
0.0
  0
LINE
  5
519
  8
DEFAULT
 10
-23.52462833607199
 20
-68.2929657858109
 30
0.0
 11
-23.35392278514216
 21
-68.29005089764178
 31
0.0
  0
LINE
  5
51A
  8
DEFAULT
 10
-23.35392278514216
 20
-68.29005089764178
 30
0.0
 11
-22.35392278514215
 21
-68.29005089764178
 31
0.0
  0
LINE
  5
51B
  8
DEFAULT
 10
-22.35392278514215
 20
-68.29005089764178
 30
0.0
 11
-22.35392278514215
 21
-65.59005089764179
 31
0.0
  0
LINE
  5
51C
  8
DEFAULT
 10
-22.35392278514215
 20
-65.59005089764179
 30
0.0
 11
-17.35392278514215
 21
-65.59005089764179
 31
0.0
  0
LINE
  5
51D
  8
DEFAULT
 10
-17.35392278514215
 20
-65.59005089764179
 30
0.0
 11
-17.35392278514215
 21
-68.29005089764178
 31
0.0
  0
LINE
  5
51E
  8
DEFAULT
 10
-17.35392278514215
 20
-68.29005089764178
 30
0.0
 11
-12.35392278514215
 21
-68.29005089764178
 31
0.0
  0
LINE
  5
51F
  8
DEFAULT
 10
-12.35392278514215
 20
-68.29005089764178
 30
0.0
 11
-12.35392278514215
 21
-65.59005089764179
 31
0.0
  0
LINE
  5
520
  8
DEFAULT
 10
-12.35392278514215
 20
-65.59005089764179
 30
0.0
 11
-7.353922785142149
 21
-65.59005089764179
 31
0.0
  0
LINE
  5
521
  8
DEFAULT
 10
-7.353922785142149
 20
-65.59005089764179
 30
0.0
 11
-7.353922785142149
 21
-68.29005089764178
 31
0.0
  0
LINE
  5
522
  8
DEFAULT
 10
-7.353922785142149
 20
-68.29005089764178
 30
0.0
 11
-2.353922785142149
 21
-68.29005089764178
 31
0.0
  0
LINE
  5
523
  8
DEFAULT
 10
-2.353922785142149
 20
-68.29005089764178
 30
0.0
 11
-2.353922785142149
 21
-65.59005089764179
 31
0.0
  0
LINE
  5
524
  8
DEFAULT
 10
-2.353922785142149
 20
-65.59005089764179
 30
0.0
 11
2.646077214857851
 21
-65.59005089764179
 31
0.0
  0
LINE
  5
525
  8
DEFAULT
 10
2.646077214857851
 20
-65.59005089764179
 30
0.0
 11
2.646077214857851
 21
-68.29005089764178
 31
0.0
  0
LINE
  5
526
  8
DEFAULT
 10
2.646077214857851
 20
-68.29005089764178
 30
0.0
 11
4.646077214857851
 21
-68.29005089764178
 31
0.0
  0
LINE
  5
527
  8
DEFAULT
 10
4.646077214857851
 20
-68.29005089764178
 30
0.0
 11
4.816782765787703
 21
-68.2929657858109
 31
0.0
  0
LINE
  5
528
  8
DEFAULT
 10
4.816782765787703
 20
-68.2929657858109
 30
0.0
 11
4.987289281681204
 21
-68.30170705168908
 31
0.0
  0
LINE
  5
529
  8
DEFAULT
 10
4.987289281681204
 20
-68.30170705168908
 30
0.0
 11
5.157397959568035
 21
-68.3162645033513
 31
0.0
  0
LINE
  5
52A
  8
DEFAULT
 10
5.157397959568035
 20
-68.3162645033513
 30
0.0
 11
5.326910460339082
 21
-68.33662116746012
 31
0.0
  0
LINE
  5
52B
  8
DEFAULT
 10
5.326910460339082
 20
-68.33662116746012
 30
0.0
 11
5.495629140001183
 21
-68.36275330905579
 31
0.0
  0
LINE
  5
52C
  8
DEFAULT
 10
5.495629140001183
 20
-68.36275330905579
 30
0.0
 11
5.663357280121003
 21
-68.39463045923016
 31
0.0
  0
LINE
  5
52D
  8
DEFAULT
 10
5.663357280121003
 20
-68.39463045923016
 30
0.0
 11
5.829899317190083
 21
-68.43221545065207
 31
0.0
  0
LINE
  5
52E
  8
DEFAULT
 10
5.829899317190083
 20
-68.43221545065207
 30
0.0
 11
5.99506107064297
 21
-68.47546446090278
 31
0.0
  0
LINE
  5
52F
  8
DEFAULT
 10
5.99506107064297
 20
-68.47546446090278
 30
0.0
 11
6.158649969263227
 21
-68.52432706357098
 31
0.0
  0
LINE
  5
530
  8
DEFAULT
 10
6.158649969263227
 20
-68.52432706357098
 30
0.0
 11
6.320475275712778
 21
-68.57874628704768
 31
0.0
  0
LINE
  5
531
  8
DEFAULT
 10
6.320475275712778
 20
-68.57874628704768
 30
0.0
 11
6.480348308923129
 21
-68.63865868095262
 31
0.0
  0
LINE
  5
532
  8
DEFAULT
 10
6.480348308923129
 20
-68.63865868095262
 30
0.0
 11
6.638082664089056
 21
-68.70399439011452
 31
0.0
  0
LINE
  5
533
  8
DEFAULT
 10
6.638082664089056
 20
-68.70399439011452
 30
0.0
 11
6.793494430008256
 21
-68.77467723601912
 31
0.0
  0
LINE
  5
534
  8
DEFAULT
 10
6.793494430008256
 20
-68.77467723601912
 30
0.0
 11
6.946402403513607
 21
-68.8506248056299
 31
0.0
  0
LINE
  5
535
  8
DEFAULT
 10
6.946402403513607
 20
-68.8506248056299
 30
0.0
 11
7.09662830074792
 21
-68.93174854747802
 31
0.0
  0
LINE
  5
536
  8
DEFAULT
 10
7.09662830074792
 20
-68.93174854747802
 30
0.0
 11
7.243996965035013
 21
-69.01795387490934
 31
0.0
  0
LINE
  5
537
  8
DEFAULT
 10
7.243996965035013
 20
-69.01795387490934
 30
0.0
 11
7.388336571104439
 21
-69.10914027636822
 31
0.0
  0
LINE
  5
538
  8
DEFAULT
 10
7.388336571104439
 20
-69.10914027636822
 30
0.0
 11
7.52947882543218
 21
-69.20520143258958
 31
0.0
  0
LINE
  5
539
  8
DEFAULT
 10
7.52947882543218
 20
-69.20520143258958
 30
0.0
 11
7.667259162463318
 21
-69.30602534056226
 31
0.0
  0
LINE
  5
53A
  8
DEFAULT
 10
7.667259162463318
 20
-69.30602534056226
 30
0.0
 11
7.801516936488108
 21
-69.41149444411968
 31
0.0
  0
LINE
  5
53B
  8
DEFAULT
 10
7.801516936488108
 20
-69.41149444411968
 30
0.0
 11
7.932095608947696
 21
-69.52148577100496
 31
0.0
  0
LINE
  5
53C
  8
DEFAULT
 10
7.932095608947696
 20
-69.52148577100496
 30
0.0
 11
8.058842930951116
 21
-69.63587107625116
 31
0.0
  0
LINE
  5
53D
  8
DEFAULT
 10
8.058842930951116
 20
-69.63587107625116
 30
0.0
 11
8.181611120790581
 21
-69.75451699170904
 31
0.0
  0
LINE
  5
53E
  8
DEFAULT
 10
8.181611120790581
 20
-69.75451699170904
 30
0.0
 11
8.300257036248464
 21
-69.87728518154852
 31
0.0
  0
LINE
  5
53F
  8
DEFAULT
 10
8.300257036248464
 20
-69.87728518154852
 30
0.0
 11
8.414642341494648
 21
-70.00403250355191
 31
0.0
  0
LINE
  5
540
  8
DEFAULT
 10
8.414642341494648
 20
-70.00403250355191
 30
0.0
 11
8.524633668379941
 21
-70.13461117601152
 31
0.0
  0
LINE
  5
541
  8
DEFAULT
 10
8.524633668379941
 20
-70.13461117601152
 30
0.0
 11
8.630102771937366
 21
-70.2688689500363
 31
0.0
  0
LINE
  5
542
  8
DEFAULT
 10
8.630102771937366
 20
-70.2688689500363
 30
0.0
 11
8.730926679910052
 21
-70.40664928706744
 31
0.0
  0
LINE
  5
543
  8
DEFAULT
 10
8.730926679910052
 20
-70.40664928706744
 30
0.0
 11
8.826987836131405
 21
-70.5477915413952
 31
0.0
  0
LINE
  5
544
  8
DEFAULT
 10
8.826987836131405
 20
-70.5477915413952
 30
0.0
 11
8.918174237590286
 21
-70.69213114746461
 31
0.0
  0
LINE
  5
545
  8
DEFAULT
 10
8.918174237590286
 20
-70.69213114746461
 30
0.0
 11
9.00437956502159
 21
-70.83949981175168
 31
0.0
  0
LINE
  5
546
  8
DEFAULT
 10
9.00437956502159
 20
-70.83949981175168
 30
0.0
 11
9.085503306869718
 21
-70.98972570898601
 31
0.0
  0
LINE
  5
547
  8
DEFAULT
 10
9.085503306869718
 20
-70.98972570898601
 30
0.0
 11
9.161450876480497
 21
-71.14263368249135
 31
0.0
  0
LINE
  5
548
  8
DEFAULT
 10
9.161450876480497
 20
-71.14263368249135
 30
0.0
 11
9.232133722385107
 21
-71.29804544841058
 31
0.0
  0
LINE
  5
549
  8
DEFAULT
 10
9.232133722385107
 20
-71.29804544841058
 30
0.0
 11
9.297469431547007
 21
-71.45577980357649
 31
0.0
  0
LINE
  5
54A
  8
DEFAULT
 10
9.297469431547007
 20
-71.45577980357649
 30
0.0
 11
9.357381825451943
 21
-71.61565283678685
 31
0.0
  0
LINE
  5
54B
  8
DEFAULT
 10
9.357381825451943
 20
-71.61565283678685
 30
0.0
 11
9.411801048928645
 21
-71.7774781432364
 31
0.0
  0
LINE
  5
54C
  8
DEFAULT
 10
9.411801048928645
 20
-71.7774781432364
 30
0.0
 11
9.460663651596835
 21
-71.94106704185666
 31
0.0
  0
LINE
  5
54D
  8
DEFAULT
 10
9.460663651596835
 20
-71.94106704185666
 30
0.0
 11
9.503912661847547
 21
-72.10622879530955
 31
0.0
  0
LINE
  5
54E
  8
DEFAULT
 10
9.503912661847547
 20
-72.10622879530955
 30
0.0
 11
9.541497653269454
 21
-72.27277083237861
 31
0.0
  0
LINE
  5
54F
  8
DEFAULT
 10
9.541497653269454
 20
-72.27277083237861
 30
0.0
 11
9.573374803443825
 21
-72.44049897249845
 31
0.0
  0
LINE
  5
550
  8
DEFAULT
 10
9.573374803443825
 20
-72.44049897249845
 30
0.0
 11
9.599506945039494
 21
-72.60921765216054
 31
0.0
  0
LINE
  5
551
  8
DEFAULT
 10
9.599506945039494
 20
-72.60921765216054
 30
0.0
 11
9.619863609148315
 21
-72.7787301529316
 31
0.0
  0
LINE
  5
552
  8
DEFAULT
 10
9.619863609148315
 20
-72.7787301529316
 30
0.0
 11
9.634421060810535
 21
-72.94883883081842
 31
0.0
  0
LINE
  5
553
  8
DEFAULT
 10
9.634421060810535
 20
-72.94883883081842
 30
0.0
 11
9.64316232668871
 21
-73.11934534671194
 31
0.0
  0
LINE
  5
554
  8
DEFAULT
 10
9.64316232668871
 20
-73.11934534671194
 30
0.0
 11
9.64607721485784
 21
-73.29005089764178
 31
0.0
  0
LINE
  5
555
  8
DEFAULT
 10
9.64607721485784
 20
-73.29005089764178
 30
0.0
 11
9.64607721485785
 21
-78.29005089764178
 31
0.0
  0
CIRCLE
  5
556
  8
DEFAULT
 10
5.646077214857844
 20
-79.29005089764178
 30
0.0
 40
1.749999999999996
  0
CIRCLE
  5
557
  8
DEFAULT
 10
-24.35392278514212
 20
-79.29005089764179
 30
0.0
 40
1.750000000000011
  0
LINE
  5
558
  8
DEFAULT
 10
-8.003922785142155
 20
-76.29005089764178
 30
0.0
 11
-8.003922785142155
 21
-71.29005089764178
 31
0.0
  0
LINE
  5
559
  8
DEFAULT
 10
-8.003922785142155
 20
-71.29005089764178
 30
0.0
 11
-10.70392278514214
 21
-71.29005089764178
 31
0.0
  0
LINE
  5
55A
  8
DEFAULT
 10
-10.70392278514214
 20
-71.29005089764178
 30
0.0
 11
-10.70392278514214
 21
-76.29005089764178
 31
0.0
  0
LINE
  5
55B
  8
DEFAULT
 10
-10.70392278514214
 20
-76.29005089764178
 30
0.0
 11
-8.003922785142155
 21
-76.29005089764178
 31
0.0
  0
ENDSEC
  0
EOF
