0
SECTION
2
HEADER
9
$INSUNITS
70
4
9
$ACADVER
1
AC1014
9
$HANDSEED
5
FFFF
0
ENDSEC
0
SECTION
2
TABLES
0
TABLE
2
VPORT
5
8
100
AcDbSymbolTable
0
ENDTAB
0
TABLE
2
LTYPE
5
5
100
AcDbSymbolTable
0
LTYPE
5
14
100
AcDbSymbolTableRecord
100
AcDbLinetypeTableRecord
2
BYBLOCK
70
0
0
LTYPE
5
15
100
AcDbSymbolTableRecord
100
AcDbLinetypeTableRecord
2
BYLAYER
70
0
0
ENDTAB
0
TABLE
2
LAYER
5
2
100
AcDbSymbolTable
70
2
0
LAYER
5
50
100
AcDbSymbolTableRecord
100
AcDbLayerTableRecord
2
0
70
0
6
CONTINUOUS
0
ENDTAB
0
TABLE
2
STYLE
5
3
100
AcDbSymbolTable
70
1
0
STYLE
5
11
100
AcDbSymbolTableRecord
100
AcDbTextStyleTableRecord
2
STANDARD
70
0
0
ENDTAB
0
TABLE
2
VIEW
5
6
100
AcDbSymbolTable
70
0
0
ENDTAB
0
TABLE
2
UCS
5
7
100
AcDbSymbolTable
70
0
0
ENDTAB
0
TABLE
2
APPID
5
9
100
AcDbSymbolTable
70
2
0
APPID
5
12
100
AcDbSymbolTableRecord
100
AcDbRegAppTableRecord
2
ACAD
70
0
0
ENDTAB
0
TABLE
2
DIMSTYLE
5
A
100
AcDbSymbolTable
70
1
0
ENDTAB
0
TABLE
2
BLOCK_RECORD
5
1
100
AcDbSymbolTable
70
1
0
BLOCK_RECORD
5
1F
100
AcDbSymbolTableRecord
100
AcDbBlockTableRecord
2
*MODEL_SPACE
0
BLOCK_RECORD
5
1B
100
AcDbSymbolTableRecord
100
AcDbBlockTableRecord
2
*PAPER_SPACE
0
ENDTAB
0
ENDSEC
0
SECTION
2
BLOCKS
0
BLOCK
5
20
100
AcDbEntity
100
AcDbBlockBegin
2
*MODEL_SPACE
0
ENDBLK
5
21
100
AcDbEntity
100
AcDbBlockEnd
0
BLOCK
5
1C
100
AcDbEntity
100
AcDbBlockBegin
2
*PAPER_SPACE
0
ENDBLK
5
1D
100
AcDbEntity
100
AcDbBlockEnd
0
ENDSEC
0
SECTION
2
ENTITIES
0
LWPOLYLINE
5
100
100
AcDbEntity
8
0
100
AcDbPolyline
90
8
70
1
43
0.0
10
-110
20
105
42
-0.41421356237309293
10
-105
20
110
10
-5
20
110
42
-0.41421356237309326
10
0
20
105
10
-1.1102230246251565e-15
20
5
42
-0.41421356237309498
10
-5
20
0
10
-105
20
-5.5511151231257827e-15
42
-0.41421356237309326
10
-110
20
5
0
LWPOLYLINE
5
101
100
AcDbEntity
8
0
100
AcDbPolyline
90
4
70
1
43
0.0
10
-5
20
95
10
-9
20
95
10
-9
20
70
10
-5
20
70
0
LWPOLYLINE
5
102
100
AcDbEntity
8
0
100
AcDbPolyline
90
4
70
1
43
0.0
10
-17
20
70
10
-17
20
95
10
-21
20
95
10
-21
20
70
0
LWPOLYLINE
5
103
100
AcDbEntity
8
0
100
AcDbPolyline
90
4
70
1
43
0.0
10
-29.000000000000004
20
70
10
-29.000000000000004
20
95
10
-33
20
95
10
-33
20
70
0
LWPOLYLINE
5
104
100
AcDbEntity
8
0
100
AcDbPolyline
90
4
70
1
43
0.0
10
-101
20
95
10
-105
20
95
10
-105
20
70
10
-101
20
70
0
ARC
5
105
100
AcDbEntity
8
0
100
AcDbCircle
10
-64.014718625761375
20
92.160597067961419
30
0
40
1.4999999999999971
100
AcDbArc
50
-134.9999999999996
51
45
0
LINE
5
106
100
AcDbEntity
8
0
100
AcDbLine
10
-65.075378797541191
20
91.099936896181589
30
0
11
-73.560660171779773
21
99.585218270420171
31
0
0
ARC
5
107
100
AcDbEntity
8
0
100
AcDbCircle
10
-72.499999999999943
20
100.64587844219999
30
0
40
1.4999999999999969
100
AcDbArc
50
45.000000000000767
51
224.99999999999963
0
LINE
5
108
100
AcDbEntity
8
0
100
AcDbLine
10
-71.439339828220142
20
101.70653861397982
30
0
11
-62.95405845398156
21
93.221257239741234
31
0
0
LWPOLYLINE
5
109
100
AcDbEntity
8
0
100
AcDbPolyline
90
4
70
1
43
0.0
10
-60
20
88.145878442199972
10
-60
20
78.145878442199972
10
-50
20
78.145878442199972
10
-50
20
88.145878442199972
0
ARC
5
110
100
AcDbEntity
8
0
100
AcDbCircle
10
-45.985281374238582
20
92.160597067961376
30
0
40
1.5000000000000033
100
AcDbArc
50
134.99999999999903
51
314.9999999999992
0
LINE
5
111
100
AcDbEntity
8
0
100
AcDbLine
10
-47.045941546018391
20
93.22125723974122
30
0
11
-38.560660171779816
21
101.70653861397975
31
0
0
ARC
5
112
100
AcDbEntity
8
0
100
AcDbCircle
10
-37.5
20
100.64587844219993
30
0
40
1.4999999999999971
100
AcDbArc
50
-45
51
135
0
LINE
5
113
100
AcDbEntity
8
0
100
AcDbLine
10
-36.439339828220184
20
99.585218270420114
30
0
11
-44.924621202458766
21
91.099936896181532
31
0
0
ARC
5
114
100
AcDbEntity
8
0
100
AcDbCircle
10
-64.014718625761404
20
74.131159816438526
30
0
40
1.5000000000000033
100
AcDbArc
50
-45
51
135.00000000000037
0
LINE
5
115
100
AcDbEntity
8
0
100
AcDbLine
10
-62.954058453981574
20
73.070499644658696
30
0
11
-71.439339828220156
21
64.585218270420143
31
0
0
ARC
5
116
100
AcDbEntity
8
0
100
AcDbCircle
10
-72.499999999999972
20
65.645878442199944
30
0
40
1.499999999999998
100
AcDbArc
50
134.99999774314512
51
314.99999965224157
0
LINE
5
117
100
AcDbEntity
8
0
100
AcDbLine
10
-73.560660130000869
20
66.706538655758692
30
0
11
-65.075378797541234
21
75.191819988218342
31
0
0
LWPOLYLINE
5
118
100
AcDbEntity
8
0
100
AcDbPolyline
90
4
70
1
43
0.0
10
-47.045941546018433
20
73.07049964465871
42
-0.99999999999999989
10
-44.924621202458781
20
75.191819988218342
10
-36.439339828220213
20
66.706538613979788
42
-0.99999999999999989
10
-38.560660171779851
20
64.585218270420143
0
LWPOLYLINE
5
119
100
AcDbEntity
8
0
100
AcDbPolyline
90
4
70
1
43
0.0
10
-65
20
59
10
-100
20
59
10
-100
20
55
10
-65
20
55
0
LWPOLYLINE
5
120
100
AcDbEntity
8
0
100
AcDbPolyline
90
4
70
1
43
0.0
10
-10
20
59
10
-45
20
59
10
-45
20
55
10
-10
20
55
0
LWPOLYLINE
5
121
100
AcDbEntity
8
0
100
AcDbPolyline
90
4
70
1
43
0.0
10
-65
20
49
10
-100
20
49
10
-100
20
45
10
-65
20
45
0
LWPOLYLINE
5
122
100
AcDbEntity
8
0
100
AcDbPolyline
90
4
70
1
43
0.0
10
-10
20
49
10
-45
20
49
10
-45
20
45
10
-10
20
45
0
LWPOLYLINE
5
123
100
AcDbEntity
8
0
100
AcDbPolyline
90
4
70
1
43
0.0
10
-65
20
39
10
-100
20
39
10
-100
20
35
10
-65
20
35
0
LWPOLYLINE
5
124
100
AcDbEntity
8
0
100
AcDbPolyline
90
4
70
1
43
0.0
10
-10
20
9.0000000000000036
10
-45
20
9.0000000000000036
10
-45
20
5
10
-10
20
5
0
LWPOLYLINE
5
125
100
AcDbEntity
8
0
100
AcDbPolyline
90
4
70
1
43
0.0
10
-65
20
9.0000000000000036
10
-100
20
9.0000000000000036
10
-100
20
5
10
-65
20
5
0
LWPOLYLINE
5
126
100
AcDbEntity
8
0
100
AcDbPolyline
90
4
70
1
43
0.0
10
-10
20
19.000000000000004
10
-45
20
19.000000000000004
10
-45
20
15
10
-10
20
15
0
LWPOLYLINE
5
127
100
AcDbEntity
8
0
100
AcDbPolyline
90
4
70
1
43
0.0
10
-65
20
19.000000000000004
10
-100
20
19.000000000000004
10
-100
20
15
10
-65
20
15
0
LWPOLYLINE
5
128
100
AcDbEntity
8
0
100
AcDbPolyline
90
4
70
1
43
0.0
10
-10
20
29.000000000000004
10
-45
20
29.000000000000004
10
-45
20
25
10
-10
20
25
0
LWPOLYLINE
5
129
100
AcDbEntity
8
0
100
AcDbPolyline
90
4
70
1
43
0.0
10
-10
20
39
10
-45
20
39
10
-45
20
35
10
-10
20
35
0
LWPOLYLINE
5
130
100
AcDbEntity
8
0
100
AcDbPolyline
90
4
70
1
43
0.0
10
-65
20
29.000000000000004
10
-100
20
29.000000000000004
10
-100
20
25
10
-65
20
25
0
LWPOLYLINE
5
131
100
AcDbEntity
8
0
100
AcDbPolyline
90
4
70
1
43
0.0
10
-89
20
70
10
-89
20
95
10
-93
20
95
10
-93
20
70
0
LWPOLYLINE
5
132
100
AcDbEntity
8
0
100
AcDbPolyline
90
4
70
1
43
0.0
10
-81
20
70
10
-77
20
70
10
-77
20
95
10
-81
20
95
0
LWPOLYLINE
5
133
100
AcDbEntity
8
0
100
AcDbPolyline
90
4
70
1
43
0.0
10
-9
20
95
10
-5
20
95
10
-5
20
70
10
-9
20
70
0
LWPOLYLINE
5
134
100
AcDbEntity
8
0
100
AcDbPolyline
90
4
70
1
43
0.0
10
-17
20
95
10
-17
20
70
10
-21
20
70
10
-21
20
95
0
LWPOLYLINE
5
135
100
AcDbEntity
8
0
100
AcDbPolyline
90
4
70
1
43
0.0
10
-29.000000000000004
20
95
10
-29.000000000000004
20
70
10
-33
20
70
10
-33
20
95
0
LWPOLYLINE
5
136
100
AcDbEntity
8
0
100
AcDbPolyline
90
4
70
1
43
0.0
10
-105
20
95
10
-101
20
95
10
-101
20
70
10
-105
20
70
0
ARC
5
137
100
AcDbEntity
8
0
100
AcDbCircle
10
-64.014718625761375
20
92.160597067961419
30
0
40
1.4999999999999971
100
AcDbArc
50
-134.9999999999996
51
45
0
LINE
5
138
100
AcDbEntity
8
0
100
AcDbLine
10
-62.95405845398156
20
93.221257239741234
30
0
11
-71.439339828220128
21
101.7065386139798
31
0
0
ARC
5
139
100
AcDbEntity
8
0
100
AcDbCircle
10
-72.499999999999943
20
100.64587844219999
30
0
40
1.4999999999999907
100
AcDbArc
50
45
51
225.00000000000117
0
LINE
5
140
100
AcDbEntity
8
0
100
AcDbLine
10
-73.560660171779745
20
99.585218270420143
30
0
11
-65.075378797541191
21
91.099936896181589
31
0
0
LWPOLYLINE
5
141
100
AcDbEntity
8
0
100
AcDbPolyline
90
4
70
1
43
0.0
10
-60
20
78.145878442199972
10
-60
20
88.145878442199972
10
-50
20
88.145878442199972
10
-50
20
78.145878442199972
0
LWPOLYLINE
5
142
100
AcDbEntity
8
0
100
AcDbPolyline
90
4
70
1
43
0.0
10
-44.924621202458766
20
91.099936896181532
42
-0.99999999999999989
10
-47.045941546018391
20
93.22125723974122
10
-38.560660171779816
20
101.70653861397975
42
-0.99999999999999989
10
-36.439339828220184
20
99.585218270420114
0
ARC
5
143
100
AcDbEntity
8
0
100
AcDbCircle
10
-64.014718625761404
20
74.131159816438526
30
0
40
1.5000000000000033
100
AcDbArc
50
-45
51
135.00000000000037
0
LINE
5
144
100
AcDbEntity
8
0
100
AcDbLine
10
-65.075378797541234
20
75.191819988218342
30
0
11
-73.560660130000869
21
66.706538655758692
31
0
0
ARC
5
145
100
AcDbEntity
8
0
100
AcDbCircle
10
-72.499999999999972
20
65.645878442199944
30
0
40
1.499999999999998
100
AcDbArc
50
134.99999774314512
51
314.99999965224157
0
LINE
5
146
100
AcDbEntity
8
0
100
AcDbLine
10
-71.439339828220156
20
64.585218270420143
30
0
11
-62.954058453981574
21
73.070499644658696
31
0
0
LWPOLYLINE
5
147
100
AcDbEntity
8
0
100
AcDbPolyline
90
4
70
1
43
0.0
10
-47.045941546018433
20
73.07049964465871
42
-0.99999999999999989
10
-44.924621202458781
20
75.191819988218342
10
-36.439339828220213
20
66.706538613979788
42
-0.99999999999999989
10
-38.560660171779844
20
64.585218270420143
0
LWPOLYLINE
5
148
100
AcDbEntity
8
0
100
AcDbPolyline
90
4
70
1
43
0.0
10
-100
20
59
10
-65
20
59
10
-65
20
55
10
-100
20
55
0
LWPOLYLINE
5
149
100
AcDbEntity
8
0
100
AcDbPolyline
90
4
70
1
43
0.0
10
-45
20
59
10
-10
20
59
10
-10
20
55
10
-45
20
55
0
LWPOLYLINE
5
150
100
AcDbEntity
8
0
100
AcDbPolyline
90
4
70
1
43
0.0
10
-100
20
49
10
-65
20
49
10
-65
20
45
10
-100
20
45
0
LWPOLYLINE
5
151
100
AcDbEntity
8
0
100
AcDbPolyline
90
4
70
1
43
0.0
10
-45
20
49
10
-10
20
49
10
-10
20
45
10
-45
20
45
0
LWPOLYLINE
5
152
100
AcDbEntity
8
0
100
AcDbPolyline
90
4
70
1
43
0.0
10
-100
20
39
10
-65
20
39
10
-65
20
35
10
-100
20
35
0
LWPOLYLINE
5
153
100
AcDbEntity
8
0
100
AcDbPolyline
90
4
70
1
43
0.0
10
-45
20
9
10
-10
20
9
10
-10
20
5
10
-45
20
5
0
LWPOLYLINE
5
154
100
AcDbEntity
8
0
100
AcDbPolyline
90
4
70
1
43
0.0
10
-100
20
9
10
-65
20
9
10
-65
20
5
10
-100
20
5
0
LWPOLYLINE
5
155
100
AcDbEntity
8
0
100
AcDbPolyline
90
4
70
1
43
0.0
10
-45
20
19
10
-10
20
19
10
-10
20
15
10
-45
20
15
0
LWPOLYLINE
5
156
100
AcDbEntity
8
0
100
AcDbPolyline
90
4
70
1
43
0.0
10
-100
20
19
10
-65
20
19
10
-65
20
15
10
-100
20
15
0
LWPOLYLINE
5
157
100
AcDbEntity
8
0
100
AcDbPolyline
90
4
70
1
43
0.0
10
-45
20
29
10
-10
20
29
10
-10
20
25
10
-45
20
25
0
LWPOLYLINE
5
158
100
AcDbEntity
8
0
100
AcDbPolyline
90
4
70
1
43
0.0
10
-45
20
39
10
-10
20
39
10
-10
20
35
10
-45
20
35
0
LWPOLYLINE
5
159
100
AcDbEntity
8
0
100
AcDbPolyline
90
4
70
1
43
0.0
10
-100
20
29
10
-65
20
29
10
-65
20
25
10
-100
20
25
0
LWPOLYLINE
5
160
100
AcDbEntity
8
0
100
AcDbPolyline
90
4
70
1
43
0.0
10
-89
20
95
10
-89
20
70
10
-93
20
70
10
-93
20
95
0
LWPOLYLINE
5
161
100
AcDbEntity
8
0
100
AcDbPolyline
90
4
70
1
43
0.0
10
-77
20
70
10
-81
20
70
10
-81
20
95
10
-77
20
95
0
LWPOLYLINE
5
162
100
AcDbEntity
8
0
100
AcDbPolyline
90
8
70
1
43
0.0
10
-110
20
105
42
-0.41421356237309503
10
-105
20
110
10
-5
20
110
42
-0.41421356237309503
10
0
20
105
10
0
20
5
42
-0.41421356237309509
10
-5
20
0
10
-105
20
0
42
-0.41421356237309509
10
-110
20
5
0
ENDSEC
0
SECTION
2
OBJECTS
0
DICTIONARY
5
C
100
AcDbDictionary
3
ACAD_GROUP
350
D
3
ACAD_MLINESTYLE
350
17
0
DICTIONARY
5
D
100
AcDbDictionary
0
DICTIONARY
5
1A
330
C
100
AcDbDictionary
0
DICTIONARY
5
17
100
AcDbDictionary
0
ENDSEC
0
EOF
