0
SECTION
2
HEADER
9
$INSUNITS
70
4
9
$ACADVER
1
AC1014
9
$HANDSEED
5
FFFF
0
ENDSEC
0
SECTION
2
TABLES
0
TABLE
2
VPORT
5
8
100
AcDbSymbolTable
0
ENDTAB
0
TABLE
2
LTYPE
5
5
100
AcDbSymbolTable
0
LTYPE
5
14
100
AcDbSymbolTableRecord
100
AcDbLinetypeTableRecord
2
BYBLOCK
70
0
0
LTYPE
5
15
100
AcDbSymbolTableRecord
100
AcDbLinetypeTableRecord
2
BYLAYER
70
0
0
ENDTAB
0
TABLE
2
LAYER
5
2
100
AcDbSymbolTable
70
2
0
LAYER
5
50
100
AcDbSymbolTableRecord
100
AcDbLayerTableRecord
2
0
70
0
6
CONTINUOUS
0
ENDTAB
0
TABLE
2
STYLE
5
3
100
AcDbSymbolTable
70
1
0
STYLE
5
11
100
AcDbSymbolTableRecord
100
AcDbTextStyleTableRecord
2
STANDARD
70
0
0
ENDTAB
0
TABLE
2
VIEW
5
6
100
AcDbSymbolTable
70
0
0
ENDTAB
0
TABLE
2
UCS
5
7
100
AcDbSymbolTable
70
0
0
ENDTAB
0
TABLE
2
APPID
5
9
100
AcDbSymbolTable
70
2
0
APPID
5
12
100
AcDbSymbolTableRecord
100
AcDbRegAppTableRecord
2
ACAD
70
0
0
ENDTAB
0
TABLE
2
DIMSTYLE
5
A
100
AcDbSymbolTable
70
1
0
ENDTAB
0
TABLE
2
BLOCK_RECORD
5
1
100
AcDbSymbolTable
70
1
0
BLOCK_RECORD
5
1F
100
AcDbSymbolTableRecord
100
AcDbBlockTableRecord
2
*MODEL_SPACE
0
BLOCK_RECORD
5
1B
100
AcDbSymbolTableRecord
100
AcDbBlockTableRecord
2
*PAPER_SPACE
0
ENDTAB
0
ENDSEC
0
SECTION
2
BLOCKS
0
BLOCK
5
20
100
AcDbEntity
100
AcDbBlockBegin
2
*MODEL_SPACE
0
ENDBLK
5
21
100
AcDbEntity
100
AcDbBlockEnd
0
BLOCK
5
1C
100
AcDbEntity
100
AcDbBlockBegin
2
*PAPER_SPACE
0
ENDBLK
5
1D
100
AcDbEntity
100
AcDbBlockEnd
0
ENDSEC
0
SECTION
2
ENTITIES
0
LWPOLYLINE
5
100
100
AcDbEntity
8
0
100
AcDbPolyline
90
8
70
1
43
0.0
10
-125
20
140
42
-0.41421356237309293
10
-120
20
145
10
-5
20
145
42
-0.41421356237309326
10
-3.6977854932234928e-31
20
140
10
-1.1102230246251565e-15
20
5
42
-0.41421356237309498
10
-5
20
0
10
-120
20
-5.5511151231257827e-15
42
-0.41421356237309326
10
-125
20
5
0
LWPOLYLINE
5
101
100
AcDbEntity
8
0
100
AcDbPolyline
90
4
70
1
43
0.0
10
-119.99999999999999
20
138
42
-0.99999999999999989
10
-116
20
138
10
-116.00000000000001
20
112
42
-0.99999999999999989
10
-120
20
112
0
LWPOLYLINE
5
102
100
AcDbEntity
8
0
100
AcDbPolyline
90
4
70
1
43
0.0
10
-92.000000000000014
20
112
42
-0.99999999999999989
10
-96
20
112
10
-95.999999999999972
20
138
42
-0.99999999999999989
10
-92
20
138
0
LWPOLYLINE
5
103
100
AcDbEntity
8
0
100
AcDbPolyline
90
4
70
1
43
0.0
10
-17
20
69
10
-50.500000000000007
20
69
42
0.99999999999999989
10
-50.5
20
65
10
-17
20
65
42
0.99999999999999989
0
LWPOLYLINE
5
104
100
AcDbEntity
8
0
100
AcDbPolyline
90
4
70
1
43
0.0
10
-72
20
69
10
-105.5
20
69
42
0.99999999999999989
10
-105.5
20
65
10
-72
20
65
42
0.99999999999999989
0
LWPOLYLINE
5
105
100
AcDbEntity
8
0
100
AcDbPolyline
90
4
70
1
43
0.0
10
-17
20
79
10
-50.500000000000007
20
79
42
0.99999999999999989
10
-50.5
20
75
10
-17
20
75
42
0.99999999999999989
0
LWPOLYLINE
5
106
100
AcDbEntity
8
0
100
AcDbPolyline
90
4
70
1
43
0.0
10
-72
20
79
10
-105.5
20
79
42
0.99999999999999989
10
-105.5
20
75
10
-72
20
75
42
0.99999999999999989
0
LWPOLYLINE
5
107
100
AcDbEntity
8
0
100
AcDbPolyline
90
4
70
1
43
0.0
10
-17
20
89
10
-50.500000000000007
20
89
42
0.99999999999999989
10
-50.5
20
85
10
-17
20
85
42
0.99999999999999989
0
LWPOLYLINE
5
108
100
AcDbEntity
8
0
100
AcDbPolyline
90
4
70
1
43
0.0
10
-72
20
89
10
-105.5
20
89
42
0.99999999999999989
10
-105.5
20
85
10
-72
20
85
42
0.99999999999999989
0
LWPOLYLINE
5
109
100
AcDbEntity
8
0
100
AcDbPolyline
90
4
70
1
43
0.0
10
-103.99999999999999
20
112
10
-103.99999999999999
20
138
42
0.99999999999999989
10
-108
20
138
10
-108
20
112
42
0.99999999999999989
0
LWPOLYLINE
5
110
100
AcDbEntity
8
0
100
AcDbPolyline
90
4
70
1
43
0.0
10
-29.000000000000004
20
112
10
-29.000000000000004
20
138
42
0.99999999999999989
10
-33
20
138
10
-33
20
112
42
0.99999999999999989
0
LWPOLYLINE
5
111
100
AcDbEntity
8
0
100
AcDbPolyline
90
4
70
1
43
0.0
10
-17
20
112
10
-17
20
138
42
0.99999999999999989
10
-21
20
138
10
-21
20
112
42
0.99999999999999989
0
LWPOLYLINE
5
112
100
AcDbEntity
8
0
100
AcDbPolyline
90
4
70
1
43
0.0
10
-5
20
112
10
-5
20
138
42
0.99999999999999989
10
-9.0000000000000018
20
138
10
-9.0000000000000018
20
112
42
0.99999999999999989
0
LWPOLYLINE
5
113
100
AcDbEntity
8
0
100
AcDbPolyline
90
8
70
1
43
0.0
10
-67.499999999999972
20
126
10
-67.499999999999972
20
119.99999999999999
42
0.41421356237309503
10
-65.499999999999972
20
117.99999999999999
10
-59.500000000000014
20
117.99999999999999
42
0.41421356237309503
10
-57.500000000000007
20
119.99999999999999
10
-57.500000000000007
20
126
42
0.41421356237309503
10
-59.500000000000014
20
127.99999999999999
10
-65.499999999999972
20
127.99999999999999
42
0.41421356237309503
0
ARC
5
114
100
AcDbEntity
8
0
100
AcDbCircle
10
-71.51471862576139
20
132.01471862576147
30
0
40
1.4999999999999907
100
AcDbArc
50
-135.00000000000193
51
45.00000120741597
0
LINE
5
115
100
AcDbEntity
8
0
100
AcDbLine
10
-72.575378797541234
20
130.9540584539817
30
0
11
-81.060660171779688
21
139.43933982822026
31
0
0
ARC
5
116
100
AcDbEntity
8
0
100
AcDbCircle
10
-79.999999999999886
20
140.50000000000011
30
0
40
1.5000000000000016
100
AcDbArc
50
44.99998743838232
51
225.00000000000151
0
LINE
5
117
100
AcDbEntity
8
0
100
AcDbLine
10
-78.939339595679272
20
141.56065993923909
30
0
11
-70.45405845398156
21
133.07537879754128
31
0
0
ARC
5
118
100
AcDbEntity
8
0
100
AcDbCircle
10
-53.485281374238546
20
132.01471862576142
30
0
40
1.5000000000000033
100
AcDbArc
50
134.9999999999998
51
315
0
LINE
5
119
100
AcDbEntity
8
0
100
AcDbLine
10
-54.545941546018369
20
133.07537879754125
30
0
11
-46.06066017177983
21
141.56066017177974
31
0
0
ARC
5
120
100
AcDbEntity
8
0
100
AcDbCircle
10
-44.999999999999964
20
140.49999999999997
30
0
40
1.4999999999999907
100
AcDbArc
50
-45.0000000000027
51
135.0000000000025
0
LINE
5
121
100
AcDbEntity
8
0
100
AcDbLine
10
-43.939339828220206
20
139.43933982822011
30
0
11
-52.424621202458717
21
130.95405845398159
31
0
0
ARC
5
122
100
AcDbEntity
8
0
100
AcDbCircle
10
-71.514718625761418
20
113.98528137423855
30
0
40
1.5000000000000033
100
AcDbArc
50
-45.000000034200227
51
134.99999996579902
0
LINE
5
123
100
AcDbEntity
8
0
100
AcDbLine
10
-70.45405845461471
20
112.92462120182562
30
0
11
-78.93933982822017
21
104.43933982822016
31
0
0
ARC
5
124
100
AcDbEntity
8
0
100
AcDbCircle
10
-79.999999999999957
20
105.49999999999999
30
0
40
1.4999999999999938
100
AcDbArc
50
134.99999646147648
51
314.99999999999881
0
LINE
5
125
100
AcDbEntity
8
0
100
AcDbLine
10
-81.060660106274582
20
106.56066023728499
30
0
11
-72.575378796908112
21
115.04594154665151
31
0
0
LWPOLYLINE
5
126
100
AcDbEntity
8
0
100
AcDbPolyline
90
4
70
1
43
0.0
10
-54.545941546018412
20
112.92462120245874
42
-0.99999999999999989
10
-52.424621202458752
20
115.04594154601838
10
-43.939339828220227
20
106.5606601717798
42
-0.99999999999999989
10
-46.060660171779844
20
104.43933982822014
0
LWPOLYLINE
5
127
100
AcDbEntity
8
0
100
AcDbPolyline
90
4
70
1
43
0.0
10
-72
20
59
10
-105.5
20
58.999999999999993
42
0.99999999999999989
10
-105.5
20
55
10
-72
20
55
42
0.99999999999999989
0
LWPOLYLINE
5
128
100
AcDbEntity
8
0
100
AcDbPolyline
90
4
70
1
43
0.0
10
-17
20
59
10
-50.500000000000007
20
58.999999999999993
42
0.99999999999999989
10
-50.5
20
55
10
-17
20
55
42
0.99999999999999989
0
LWPOLYLINE
5
129
100
AcDbEntity
8
0
100
AcDbPolyline
90
4
70
1
43
0.0
10
-17
20
9
10
-50.500000000000007
20
8.9999999999999964
42
0.99999999999999989
10
-50.5
20
5
10
-17
20
4.9999999999999991
42
0.99999999999999989
0
LWPOLYLINE
5
130
100
AcDbEntity
8
0
100
AcDbPolyline
90
4
70
1
43
0.0
10
-72
20
9
10
-105.5
20
8.9999999999999964
42
0.99999999999999989
10
-105.5
20
5
10
-72
20
4.9999999999999991
42
0.99999999999999989
0
LWPOLYLINE
5
131
100
AcDbEntity
8
0
100
AcDbPolyline
90
4
70
1
43
0.0
10
-17
20
19
10
-50.500000000000007
20
18.999999999999993
42
0.99999999999999989
10
-50.5
20
15
10
-17
20
15
42
0.99999999999999989
0
LWPOLYLINE
5
132
100
AcDbEntity
8
0
100
AcDbPolyline
90
4
70
1
43
0.0
10
-72
20
19
10
-105.5
20
18.999999999999993
42
0.99999999999999989
10
-105.5
20
15
10
-72
20
15
42
0.99999999999999989
0
LWPOLYLINE
5
133
100
AcDbEntity
8
0
100
AcDbPolyline
90
4
70
1
43
0.0
10
-17
20
29.000000000000004
10
-50.500000000000007
20
28.999999999999993
42
0.99999999999999989
10
-50.5
20
25
10
-17
20
25
42
0.99999999999999989
0
LWPOLYLINE
5
134
100
AcDbEntity
8
0
100
AcDbPolyline
90
4
70
1
43
0.0
10
-72
20
29.000000000000004
10
-105.5
20
28.999999999999993
42
0.99999999999999989
10
-105.5
20
25
10
-72
20
25
42
0.99999999999999989
0
LWPOLYLINE
5
135
100
AcDbEntity
8
0
100
AcDbPolyline
90
4
70
1
43
0.0
10
-17
20
39
10
-50.500000000000007
20
38.999999999999993
42
0.99999999999999989
10
-50.5
20
35
10
-17
20
35
42
0.99999999999999989
0
LWPOLYLINE
5
136
100
AcDbEntity
8
0
100
AcDbPolyline
90
4
70
1
43
0.0
10
-72
20
39
10
-105.5
20
38.999999999999993
42
0.99999999999999989
10
-105.5
20
35
10
-72
20
35
42
0.99999999999999989
0
LWPOLYLINE
5
137
100
AcDbEntity
8
0
100
AcDbPolyline
90
4
70
1
43
0.0
10
-17
20
49
10
-50.500000000000007
20
48.999999999999993
42
0.99999999999999989
10
-50.5
20
45
10
-17
20
45
42
0.99999999999999989
0
LWPOLYLINE
5
138
100
AcDbEntity
8
0
100
AcDbPolyline
90
4
70
1
43
0.0
10
-72
20
49
10
-105.5
20
48.999999999999993
42
0.99999999999999989
10
-105.5
20
45
10
-72
20
45
42
0.99999999999999989
0
ENDSEC
0
SECTION
2
OBJECTS
0
DICTIONARY
5
C
100
AcDbDictionary
3
ACAD_GROUP
350
D
3
ACAD_MLINESTYLE
350
17
0
DICTIONARY
5
D
100
AcDbDictionary
0
DICTIONARY
5
1A
330
C
100
AcDbDictionary
0
DICTIONARY
5
17
100
AcDbDictionary
0
ENDSEC
0
EOF
