  0
SECTION
  2
HEADER
  9
$ACADVER
  1
AC1009
  9
$DWGCODEPAGE
  3
ansi_1252
  9
$INSBASE
 10
0.0
 20
0.0
 30
0.0
  9
$EXTMIN
 10
-72.29750306397213
 20
148.8247844878013
 30
0.0
  9
$EXTMAX
 10
8.344165192191468
 20
216.5182193083149
 30
0.0
  9
$LIMMIN
 10
0.0
 20
0.0
  9
$LIMMAX
 10
12.0
 20
9.0
  9
$ORTHOMODE
 70
     0
  9
$REGENMODE
 70
     1
  9
$FILLMODE
 70
     1
  9
$QTEXTMODE
 70
     0
  9
$MIRRTEXT
 70
     1
  9
$DRAGMODE
 70
     2
  9
$LTSCALE
 40
1.0
  9
$OSMODE
 70
    37
  9
$ATTMODE
 70
     1
  9
$TEXTSIZE
 40
0.2
  9
$TRACEWID
 40
0.05
  9
$TEXTSTYLE
  7
STANDARD
  9
$CLAYER
  8
DEFAULT
  9
$CELTYPE
  6
BYLAYER
  9
$CECOLOR
 62
   256
  9
$DIMSCALE
 40
1.0
  9
$DIMASZ
 40
0.18
  9
$DIMEXO
 40
0.0625
  9
$DIMDLI
 40
0.38
  9
$DIMRND
 40
0.0
  9
$DIMDLE
 40
0.0
  9
$DIMEXE
 40
0.18
  9
$DIMTP
 40
0.0
  9
$DIMTM
 40
0.0
  9
$DIMTXT
 40
0.18
  9
$DIMCEN
 40
0.09
  9
$DIMTSZ
 40
0.0
  9
$DIMTOL
 70
     0
  9
$DIMLIM
 70
     0
  9
$DIMTIH
 70
     1
  9
$DIMTOH
 70
     1
  9
$DIMSE1
 70
     0
  9
$DIMSE2
 70
     0
  9
$DIMTAD
 70
     0
  9
$DIMZIN
 70
     0
  9
$DIMBLK
  1

  9
$DIMASO
 70
     1
  9
$DIMSHO
 70
     1
  9
$DIMPOST
  1

  9
$DIMAPOST
  1

  9
$DIMALT
 70
     0
  9
$DIMALTD
 70
     2
  9
$DIMALTF
 40
25.4
  9
$DIMLFAC
 40
1.0
  9
$DIMTOFL
 70
     0
  9
$DIMTVP
 40
0.0
  9
$DIMTIX
 70
     0
  9
$DIMSOXD
 70
     0
  9
$DIMSAH
 70
     0
  9
$DIMBLK1
  1

  9
$DIMBLK2
  1

  9
$DIMSTYLE
  2
STANDARD
  9
$DIMCLRD
 70
     0
  9
$DIMCLRE
 70
     0
  9
$DIMCLRT
 70
     0
  9
$DIMTFAC
 40
1.0
  9
$DIMGAP
 40
0.09
  9
$LUNITS
 70
     2
  9
$LUPREC
 70
     4
  9
$SKETCHINC
 40
0.1
  9
$FILLETRAD
 40
0.5
  9
$AUNITS
 70
     0
  9
$AUPREC
 70
     0
  9
$MENU
  1
.
  9
$ELEVATION
 40
0.0
  9
$PELEVATION
 40
0.0
  9
$THICKNESS
 40
0.0
  9
$LIMCHECK
 70
     0
  9
$CHAMFERA
 40
0.0
  9
$CHAMFERB
 40
0.0
  9
$SKPOLY
 70
     0
  9
$TDCREATE
 40
2458386.457850614
  9
$TDUPDATE
 40
2458386.457861759
  9
$TDINDWG
 40
0.0000000116
  9
$TDUSRTIMER
 40
0.0000000116
  9
$USRTIMER
 70
     1
  9
$ANGBASE
 50
0.0
  9
$ANGDIR
 70
     0
  9
$PDMODE
 70
     0
  9
$PDSIZE
 40
0.0
  9
$PLINEWID
 40
0.0
  9
$COORDS
 70
     1
  9
$SPLFRAME
 70
     0
  9
$SPLINETYPE
 70
     6
  9
$SPLINESEGS
 70
     8
  9
$ATTDIA
 70
     0
  9
$ATTREQ
 70
     1
  9
$HANDLING
 70
     1
  9
$HANDSEED
  5
10C
  9
$SURFTAB1
 70
     6
  9
$SURFTAB2
 70
     6
  9
$SURFTYPE
 70
     6
  9
$SURFU
 70
     6
  9
$SURFV
 70
     6
  9
$UCSNAME
  2

  9
$UCSORG
 10
0.0
 20
0.0
 30
0.0
  9
$UCSXDIR
 10
1.0
 20
0.0
 30
0.0
  9
$UCSYDIR
 10
0.0
 20
1.0
 30
0.0
  9
$PUCSNAME
  2

  9
$PUCSORG
 10
0.0
 20
0.0
 30
0.0
  9
$PUCSXDIR
 10
1.0
 20
0.0
 30
0.0
  9
$PUCSYDIR
 10
0.0
 20
1.0
 30
0.0
  9
$USERI1
 70
     0
  9
$USERI2
 70
     0
  9
$USERI3
 70
     0
  9
$USERI4
 70
     0
  9
$USERI5
 70
     0
  9
$USERR1
 40
0.0
  9
$USERR2
 40
0.0
  9
$USERR3
 40
0.0
  9
$USERR4
 40
0.0
  9
$USERR5
 40
0.0
  9
$WORLDVIEW
 70
     1
  9
$SHADEDGE
 70
     3
  9
$SHADEDIF
 70
    70
  9
$TILEMODE
 70
     1
  9
$MAXACTVP
 70
    64
  9
$PLIMCHECK
 70
     0
  9
$PEXTMIN
 10
1.000000000000000E+20
 20
1.000000000000000E+20
 30
1.000000000000000E+20
  9
$PEXTMAX
 10
-1.000000000000000E+20
 20
-1.000000000000000E+20
 30
-1.000000000000000E+20
  9
$PLIMMIN
 10
0.0
 20
0.0
  9
$PLIMMAX
 10
12.0
 20
9.0
  9
$UNITMODE
 70
     0
  9
$VISRETAIN
 70
     1
  9
$PLINEGEN
 70
     0
  9
$PSLTSCALE
 70
     1
  0
ENDSEC
  0
SECTION
  2
TABLES
  0
TABLE
  2
VPORT
 70
     1
  0
VPORT
  2
*ACTIVE
 70
     0
 10
0.0
 20
0.0
 11
1.0
 21
1.0
 12
-32.63392260139747
 22
185.8471499440253
 13
0.0
 23
0.0
 14
0.5
 24
0.5
 15
0.5
 25
0.5
 16
0.0
 26
0.0
 36
1.0
 17
0.0
 27
0.0
 37
0.0
 40
62.56898150315083
 41
1.293191965088607
 42
50.0
 43
0.0
 44
0.0
 50
0.0
 51
0.0
 71
     0
 72
   100
 73
     1
 74
     3
 75
     0
 76
     0
 77
     0
 78
     0
  0
ENDTAB
  0
TABLE
  2
LTYPE
 70
     1
  0
LTYPE
  2
CONTINUOUS
 70
     0
  3
Solid line
 72
    65
 73
     0
 40
0.0
  0
ENDTAB
  0
TABLE
  2
LAYER
 70
     2
  0
LAYER
  2
0
 70
     0
 62
     7
  6
CONTINUOUS
  0
LAYER
  2
DEFAULT
 70
     0
 62
     7
  6
CONTINUOUS
  0
ENDTAB
  0
TABLE
  2
STYLE
 70
     1
  0
STYLE
  2
STANDARD
 70
     0
 40
0.0
 41
1.0
 50
0.0
 71
     0
 42
0.2
  3
txt
  4

  0
ENDTAB
  0
TABLE
  2
VIEW
 70
     0
  0
ENDTAB
  0
TABLE
  2
UCS
 70
     0
  0
ENDTAB
  0
TABLE
  2
APPID
 70
     1
  0
APPID
  2
ACAD
 70
     0
  0
ENDTAB
  0
TABLE
  2
DIMSTYLE
 70
     1
  0
DIMSTYLE
  2
STANDARD
 70
     0
  3

  4

  5

  6

  7

 40
1.0
 41
0.18
 42
0.0625
 43
0.38
 44
0.18
 45
0.0
 46
0.0
 47
0.0
 48
0.0
140
0.18
141
0.09
142
0.0
143
25.4
144
1.0
145
0.0
146
1.0
147
0.09
 71
     0
 72
     0
 73
     1
 74
     1
 75
     0
 76
     0
 77
     0
 78
     0
170
     0
171
     2
172
     0
173
     0
174
     0
175
     0
176
     0
177
     0
178
     0
  0
ENDTAB
  0
ENDSEC
  0
SECTION
  2
BLOCKS
  0
BLOCK
  8
0
  2
$MODEL_SPACE
 70
     0
 10
0.0
 20
0.0
 30
0.0
  3
$MODEL_SPACE
  1

  0
ENDBLK
  5
21
  8
0
  0
BLOCK
 67
     1
  8
0
  2
$PAPER_SPACE
 70
     0
 10
0.0
 20
0.0
 30
0.0
  3
$PAPER_SPACE
  1

  0
ENDBLK
  5
1D
 67
     1
  8
0
  0
BLOCK
  8
0
  2
MOTORPLATE
 70
     0
 10
0.0
 20
0.0
 30
0.0
  3
MOTORPLATE
  1

  0
CIRCLE
  5
6C
  8
0
  6
BYBLOCK
 62
     0
 10
86.50000046193598
 20
29.35000046193601
 30
0.0
 40
1.500000000000004
  0
CIRCLE
  5
6D
  8
0
  6
BYBLOCK
 62
     0
 10
74.500000461936
 20
17.350000461936
 30
0.0
 40
3.999999999999999
  0
CIRCLE
  5
6E
  8
0
  6
BYBLOCK
 62
     0
 10
62.50000046193601
 20
5.350000461935998
 30
0.0
 40
1.500000000000001
  0
CIRCLE
  5
6F
  8
0
  6
BYBLOCK
 62
     0
 10
86.50000046193598
 20
5.350000461935998
 30
0.0
 40
1.499999999999999
  0
CIRCLE
  5
70
  8
0
  6
BYBLOCK
 62
     0
 10
62.500000461936
 20
29.35000046193601
 30
0.0
 40
1.499999999999998
  0
LINE
  5
71
  8
0
  6
BYBLOCK
 62
     0
 10
62.500000461936
 20
23.85000046193599
 30
0.0
 11
67.500000461936
 21
23.85000046193599
 31
0.0
  0
LINE
  5
72
  8
0
  6
BYBLOCK
 62
     0
 10
67.500000461936
 20
23.85000046193599
 30
0.0
 11
67.500000461936
 21
26.80000046193599
 31
0.0
  0
LINE
  5
73
  8
0
  6
BYBLOCK
 62
     0
 10
67.500000461936
 20
26.80000046193599
 30
0.0
 11
62.500000461936
 21
26.80000046193599
 31
0.0
  0
LINE
  5
74
  8
0
  6
BYBLOCK
 62
     0
 10
62.500000461936
 20
26.80000046193599
 30
0.0
 11
62.500000461936
 21
23.85000046193599
 31
0.0
  0
LINE
  5
75
  8
0
  6
BYBLOCK
 62
     0
 10
72.500000461936
 20
23.85000046193599
 30
0.0
 11
77.500000461936
 21
23.85000046193599
 31
0.0
  0
LINE
  5
76
  8
0
  6
BYBLOCK
 62
     0
 10
77.500000461936
 20
23.85000046193599
 30
0.0
 11
77.500000461936
 21
26.80000046193599
 31
0.0
  0
LINE
  5
77
  8
0
  6
BYBLOCK
 62
     0
 10
77.500000461936
 20
26.80000046193599
 30
0.0
 11
72.500000461936
 21
26.80000046193599
 31
0.0
  0
LINE
  5
78
  8
0
  6
BYBLOCK
 62
     0
 10
72.500000461936
 20
26.80000046193599
 30
0.0
 11
72.500000461936
 21
23.85000046193599
 31
0.0
  0
LINE
  5
79
  8
0
  6
BYBLOCK
 62
     0
 10
82.500000461936
 20
23.85000046193599
 30
0.0
 11
87.500000461936
 21
23.85000046193599
 31
0.0
  0
LINE
  5
7A
  8
0
  6
BYBLOCK
 62
     0
 10
87.500000461936
 20
23.85000046193599
 30
0.0
 11
87.500000461936
 21
26.80000046193599
 31
0.0
  0
LINE
  5
7B
  8
0
  6
BYBLOCK
 62
     0
 10
87.500000461936
 20
26.80000046193599
 30
0.0
 11
82.500000461936
 21
26.80000046193599
 31
0.0
  0
LINE
  5
7C
  8
0
  6
BYBLOCK
 62
     0
 10
82.500000461936
 20
26.80000046193599
 30
0.0
 11
82.500000461936
 21
23.85000046193599
 31
0.0
  0
LINE
  5
7D
  8
0
  6
BYBLOCK
 62
     0
 10
87.500000461936
 20
10.85000046193599
 30
0.0
 11
82.500000461936
 21
10.85000046193599
 31
0.0
  0
LINE
  5
7E
  8
0
  6
BYBLOCK
 62
     0
 10
82.500000461936
 20
10.85000046193599
 30
0.0
 11
82.500000461936
 21
7.900000461935996
 31
0.0
  0
LINE
  5
7F
  8
0
  6
BYBLOCK
 62
     0
 10
82.500000461936
 20
7.900000461935996
 30
0.0
 11
87.500000461936
 21
7.900000461935996
 31
0.0
  0
LINE
  5
80
  8
0
  6
BYBLOCK
 62
     0
 10
87.500000461936
 20
7.900000461935996
 30
0.0
 11
87.500000461936
 21
10.85000046193599
 31
0.0
  0
LINE
  5
81
  8
0
  6
BYBLOCK
 62
     0
 10
77.500000461936
 20
10.85000046193599
 30
0.0
 11
72.500000461936
 21
10.85000046193599
 31
0.0
  0
LINE
  5
82
  8
0
  6
BYBLOCK
 62
     0
 10
72.500000461936
 20
10.85000046193599
 30
0.0
 11
72.500000461936
 21
7.900000461935996
 31
0.0
  0
LINE
  5
83
  8
0
  6
BYBLOCK
 62
     0
 10
72.500000461936
 20
7.900000461935996
 30
0.0
 11
77.500000461936
 21
7.900000461935996
 31
0.0
  0
LINE
  5
84
  8
0
  6
BYBLOCK
 62
     0
 10
77.500000461936
 20
7.900000461935996
 30
0.0
 11
77.500000461936
 21
10.85000046193599
 31
0.0
  0
LINE
  5
85
  8
0
  6
BYBLOCK
 62
     0
 10
67.500000461936
 20
10.85000046193599
 30
0.0
 11
62.500000461936
 21
10.85000046193599
 31
0.0
  0
LINE
  5
86
  8
0
  6
BYBLOCK
 62
     0
 10
62.500000461936
 20
10.85000046193599
 30
0.0
 11
62.500000461936
 21
7.900000461935996
 31
0.0
  0
LINE
  5
87
  8
0
  6
BYBLOCK
 62
     0
 10
62.500000461936
 20
7.900000461935996
 30
0.0
 11
67.500000461936
 21
7.900000461935996
 31
0.0
  0
LINE
  5
88
  8
0
  6
BYBLOCK
 62
     0
 10
67.500000461936
 20
7.900000461935996
 30
0.0
 11
67.500000461936
 21
10.85000046193599
 31
0.0
  0
LINE
  5
89
  8
0
  6
BYBLOCK
 62
     0
 10
68.96148185875171
 20
2.350000461935995
 30
0.0
 11
68.96148185875171
 21
2.231812378481837
 31
0.0
  0
ARC
  5
8A
  8
0
  6
BYBLOCK
 62
     0
 10
71.4614818587517
 20
-24.14999953806399
 30
0.0
 40
26.49999999999999
 50
95.41331227397113
 51
116.0638351266102
  0
ARC
  5
8B
  8
0
  6
BYBLOCK
 62
     0
 10
58.500000461936
 20
2.350000461935998
 30
0.0
 40
2.999999999999992
 50
153.9361648733898
 51
296.0638351266102
  0
ARC
  5
8C
  8
0
  6
BYBLOCK
 62
     0
 10
32.00000046193598
 20
15.3114818587517
 30
0.0
 40
26.50000000000002
 50
333.9361648733898
 51
0.0000000000000154
  0
LINE
  5
8D
  8
0
  6
BYBLOCK
 62
     0
 10
58.500000461936
 20
15.3114818587517
 30
0.0
 11
58.500000461936
 21
19.38851906512028
 31
0.0
  0
ARC
  5
8E
  8
0
  6
BYBLOCK
 62
     0
 10
32.00000046193599
 20
19.38851906512029
 30
0.0
 40
26.50000000000001
 50
0.0
 51
26.06383512661022
  0
ARC
  5
8F
  8
0
  6
BYBLOCK
 62
     0
 10
58.500000461936
 20
32.350000461936
 30
0.0
 40
2.999999999999996
 50
63.93616487338993
 51
206.0638351266103
  0
ARC
  5
90
  8
0
  6
BYBLOCK
 62
     0
 10
71.46148185875171
 20
58.85000046193596
 30
0.0
 40
26.49999999999997
 50
243.9361648733897
 51
264.5866877260289
  0
LINE
  5
91
  8
0
  6
BYBLOCK
 62
     0
 10
68.96148185875171
 20
32.46818854539016
 30
0.0
 11
68.96148185875171
 21
32.35000046193599
 31
0.0
  0
LINE
  5
92
  8
0
  6
BYBLOCK
 62
     0
 10
68.96148185875171
 20
32.35000046193599
 30
0.0
 11
71.46148185875171
 21
32.35000046193599
 31
0.0
  0
LINE
  5
93
  8
0
  6
BYBLOCK
 62
     0
 10
71.46148185875171
 20
32.35000046193599
 30
0.0
 11
71.46148185875171
 21
35.30000046193599
 31
0.0
  0
LINE
  5
94
  8
0
  6
BYBLOCK
 62
     0
 10
71.46148185875171
 20
35.30000046193599
 30
0.0
 11
77.53216569971912
 21
35.30000046193599
 31
0.0
  0
LINE
  5
95
  8
0
  6
BYBLOCK
 62
     0
 10
77.53216569971912
 20
35.30000046193599
 30
0.0
 11
77.53216569971912
 21
32.35000046193599
 31
0.0
  0
LINE
  5
96
  8
0
  6
BYBLOCK
 62
     0
 10
77.53216569971912
 20
32.35000046193599
 30
0.0
 11
80.03851906512027
 21
32.35000046193599
 31
0.0
  0
LINE
  5
97
  8
0
  6
BYBLOCK
 62
     0
 10
80.03851906512027
 20
32.35000046193599
 30
0.0
 11
80.03851906512025
 21
32.46818854539016
 31
0.0
  0
ARC
  5
98
  8
0
  6
BYBLOCK
 62
     0
 10
77.53851906512027
 20
58.85000046193601
 30
0.0
 40
26.50000000000002
 50
275.4133122739711
 51
296.0638351266103
  0
ARC
  5
99
  8
0
  6
BYBLOCK
 62
     0
 10
90.500000461936
 20
32.350000461936
 30
0.0
 40
2.999999999999993
 50
333.9361648733897
 51
116.0638351266102
  0
ARC
  5
9A
  8
0
  6
BYBLOCK
 62
     0
 10
117.000000461936
 20
19.38851906512031
 30
0.0
 40
26.50000000000002
 50
153.9361648733898
 51
180.0
  0
LINE
  5
9B
  8
0
  6
BYBLOCK
 62
     0
 10
90.500000461936
 20
19.3885190651203
 30
0.0
 11
90.50000046193601
 21
15.3114818587517
 31
0.0
  0
ARC
  5
9C
  8
0
  6
BYBLOCK
 62
     0
 10
117.000000461936
 20
15.31148185875166
 30
0.0
 40
26.5
 50
179.9999999999999
 51
206.0638351266101
  0
ARC
  5
9D
  8
0
  6
BYBLOCK
 62
     0
 10
90.500000461936
 20
2.350000461935996
 30
0.0
 40
2.999999999999991
 50
243.9361648733898
 51
26.06383512661044
  0
ARC
  5
9E
  8
0
  6
BYBLOCK
 62
     0
 10
77.53851906512028
 20
-24.14999953806407
 30
0.0
 40
26.50000000000007
 50
63.93616487338979
 51
84.58668772602888
  0
LINE
  5
9F
  8
0
  6
BYBLOCK
 62
     0
 10
80.03851906512027
 20
2.231812378481837
 30
0.0
 11
80.03851906512027
 21
2.350000461935995
 31
0.0
  0
LINE
  5
A0
  8
0
  6
BYBLOCK
 62
     0
 10
80.03851906512027
 20
2.350000461935995
 30
0.0
 11
77.53216569971912
 21
2.350000461935995
 31
0.0
  0
LINE
  5
A1
  8
0
  6
BYBLOCK
 62
     0
 10
77.53216569971912
 20
2.350000461935995
 30
0.0
 11
77.53216569971912
 21
-0.5999995380640044
 31
0.0
  0
LINE
  5
A2
  8
0
  6
BYBLOCK
 62
     0
 10
77.53216569971912
 20
-0.5999995380640044
 30
0.0
 11
71.46148185875171
 21
-0.5999995380640044
 31
0.0
  0
LINE
  5
A3
  8
0
  6
BYBLOCK
 62
     0
 10
71.46148185875171
 20
-0.5999995380640044
 30
0.0
 11
71.46148185875171
 21
2.350000461935995
 31
0.0
  0
LINE
  5
A4
  8
0
  6
BYBLOCK
 62
     0
 10
71.46148185875171
 20
2.350000461935995
 30
0.0
 11
68.96148185875171
 21
2.350000461935995
 31
0.0
  0
ENDBLK
  5
A6
  8
0
  0
BLOCK
  8
0
  2
LOCK
 70
     0
 10
0.0
 20
0.0
 30
0.0
  3
LOCK
  1

  0
LINE
  5
DD
  8
0
  6
BYBLOCK
 62
     0
 10
-71.46148185875171
 20
235.0
 30
0.0
 11
-71.46148185875171
 21
237.95
 31
0.0
  0
LINE
  5
DE
  8
0
  6
BYBLOCK
 62
     0
 10
-71.46148185875171
 20
237.95
 30
0.0
 11
-77.53216569971912
 21
237.95
 31
0.0
  0
LINE
  5
DF
  8
0
  6
BYBLOCK
 62
     0
 10
-77.53216569971912
 20
237.95
 30
0.0
 11
-77.53216569971912
 21
235.0
 31
0.0
  0
LINE
  5
E0
  8
0
  6
BYBLOCK
 62
     0
 10
-77.53216569971912
 20
235.0
 30
0.0
 11
-71.46148185875171
 21
235.0
 31
0.0
  0
LINE
  5
E1
  8
0
  6
BYBLOCK
 62
     0
 10
-75.97500046193599
 20
234.0
 30
0.0
 11
-75.97500046193599
 21
229.2534948487122
 31
0.0
  0
LINE
  5
E2
  8
0
  6
BYBLOCK
 62
     0
 10
-75.97500046193599
 20
229.2534948487122
 30
0.0
 11
-73.02500046193599
 21
229.2534948487122
 31
0.0
  0
LINE
  5
E3
  8
0
  6
BYBLOCK
 62
     0
 10
-73.02500046193599
 20
229.2534948487122
 30
0.0
 11
-73.02500046193599
 21
234.0
 31
0.0
  0
LINE
  5
E4
  8
0
  6
BYBLOCK
 62
     0
 10
-73.02500046193599
 20
234.0
 30
0.0
 11
-75.97500046193599
 21
234.0
 31
0.0
  0
ARC
  5
E5
  8
0
  6
BYBLOCK
 62
     0
 10
-70.46148185875167
 20
229.95
 30
0.0
 40
1.499999999999951
 50
269.9999999999978
 51
0.0000000000021713
  0
LINE
  5
E6
  8
0
  6
BYBLOCK
 62
     0
 10
-70.46148185875171
 20
228.45
 30
0.0
 11
-78.53851906512027
 21
228.45
 31
0.0
  0
ARC
  5
E7
  8
0
  6
BYBLOCK
 62
     0
 10
-78.53851906512031
 20
229.95
 30
0.0
 40
1.499999999999951
 50
179.9999999999989
 51
270.0000000000016
  0
LINE
  5
E8
  8
0
  6
BYBLOCK
 62
     0
 10
-80.03851906512027
 20
229.95
 30
0.0
 11
-80.03851906512028
 21
238.95
 31
0.0
  0
ARC
  5
E9
  8
0
  6
BYBLOCK
 62
     0
 10
-78.5385190651203
 20
238.95
 30
0.0
 40
1.49999999999998
 50
89.99999999999837
 51
180.0
  0
LINE
  5
EA
  8
0
  6
BYBLOCK
 62
     0
 10
-78.53851906512027
 20
240.45
 30
0.0
 11
-70.46148185875171
 21
240.45
 31
0.0
  0
ARC
  5
EB
  8
0
  6
BYBLOCK
 62
     0
 10
-70.46148185875168
 20
238.95
 30
0.0
 40
1.499999999999972
 50
0.0
 51
90.0000000000011
  0
LINE
  5
EC
  8
0
  6
BYBLOCK
 62
     0
 10
-68.96148185875171
 20
238.95
 30
0.0
 11
-68.96148185875171
 21
229.95
 31
0.0
  0
ENDBLK
  5
EE
  8
0
  0
BLOCK
  8
0
  2
RIB
 70
     0
 10
0.0
 20
0.0
 30
0.0
  3
RIB
  1

  0
LINE
  5
F3
  8
0
  6
BYBLOCK
 62
     0
 10
230.0
 20
26.80000046193599
 30
0.0
 11
230.0
 21
23.85000046193599
 31
0.0
  0
LINE
  5
F4
  8
0
  6
BYBLOCK
 62
     0
 10
230.0
 20
23.85000046193599
 30
0.0
 11
220.0
 21
23.85000046193599
 31
0.0
  0
LINE
  5
F5
  8
0
  6
BYBLOCK
 62
     0
 10
220.0
 20
23.85000046193599
 30
0.0
 11
220.0
 21
26.80000046193599
 31
0.0
  0
LINE
  5
F6
  8
0
  6
BYBLOCK
 62
     0
 10
220.0
 20
26.80000046193599
 30
0.0
 11
215.0
 21
26.80000046193599
 31
0.0
  0
LINE
  5
F7
  8
0
  6
BYBLOCK
 62
     0
 10
215.0
 20
26.80000046193599
 30
0.0
 11
228.2534948487122
 21
32.35000046193599
 31
0.0
  0
LINE
  5
F8
  8
0
  6
BYBLOCK
 62
     0
 10
228.2534948487122
 20
32.35000046193599
 30
0.0
 11
229.2534948487122
 21
32.35000046193599
 31
0.0
  0
LINE
  5
F9
  8
0
  6
BYBLOCK
 62
     0
 10
229.2534948487122
 20
32.35000046193599
 30
0.0
 11
229.2534948487122
 21
35.30000046193599
 31
0.0
  0
LINE
  5
FA
  8
0
  6
BYBLOCK
 62
     0
 10
229.2534948487122
 20
35.30000046193599
 30
0.0
 11
234.0
 21
35.30000046193599
 31
0.0
  0
LINE
  5
FB
  8
0
  6
BYBLOCK
 62
     0
 10
234.0
 20
35.30000046193599
 30
0.0
 11
234.0
 21
32.35000046193599
 31
0.0
  0
LINE
  5
FC
  8
0
  6
BYBLOCK
 62
     0
 10
234.0
 20
32.35000046193599
 30
0.0
 11
235.0
 21
32.35000046193599
 31
0.0
  0
LINE
  5
FD
  8
0
  6
BYBLOCK
 62
     0
 10
235.0
 20
32.35000046193599
 30
0.0
 11
235.0
 21
26.80000046193599
 31
0.0
  0
LINE
  5
FE
  8
0
  6
BYBLOCK
 62
     0
 10
235.0
 20
26.80000046193599
 30
0.0
 11
230.0
 21
26.80000046193599
 31
0.0
  0
ENDBLK
  5
100
  8
0
  0
ENDSEC
  0
SECTION
  2
ENTITIES
  0
INSERT
  5
A7
  8
DEFAULT
  2
MOTORPLATE
 10
-88.31604828368162
 20
181.1682188463789
 30
0.0
  0
ARC
  5
A8
  8
0
 10
-38.56741848586454
 20
191.2647400532925
 30
0.0
 40
5.0
 50
270.0
 51
0.0
  0
LINE
  5
A9
  8
0
 10
-38.56741848586454
 20
186.2647400532925
 30
0.0
 11
-66.56741848586454
 21
186.2647400532925
 31
0.0
  0
ARC
  5
AA
  8
0
 10
-66.56741848586452
 20
191.2647400532925
 30
0.0
 40
5.000000000000009
 50
180.0000000000003
 51
269.9999999999998
  0
LINE
  5
AB
  8
0
 10
-71.56741848586454
 20
191.2647400532925
 30
0.0
 11
-71.56741848586452
 21
206.2647400532925
 31
0.0
  0
ARC
  5
AC
  8
0
 10
-66.56741848586452
 20
206.2647400532925
 30
0.0
 40
5.000000000000002
 50
90.00000000000016
 51
180.0
  0
LINE
  5
AD
  8
0
 10
-66.56741848586454
 20
211.2647400532925
 30
0.0
 11
-65.56741848586454
 21
211.2647400532925
 31
0.0
  0
LINE
  5
AE
  8
0
 10
-65.56741848586454
 20
211.2647400532925
 30
0.0
 11
-65.56741848586454
 21
214.2147400532926
 31
0.0
  0
LINE
  5
AF
  8
0
 10
-65.56741848586454
 20
214.2147400532926
 30
0.0
 11
-60.56741848586454
 21
214.2147400532926
 31
0.0
  0
LINE
  5
B0
  8
0
 10
-60.56741848586454
 20
214.2147400532926
 30
0.0
 11
-60.56741848586454
 21
211.2647400532925
 31
0.0
  0
LINE
  5
B1
  8
0
 10
-60.56741848586454
 20
211.2647400532925
 30
0.0
 11
-55.56741848586454
 21
211.2647400532925
 31
0.0
  0
LINE
  5
B2
  8
0
 10
-55.56741848586454
 20
211.2647400532925
 30
0.0
 11
-55.56741848586454
 21
214.2147400532926
 31
0.0
  0
LINE
  5
B3
  8
0
 10
-55.56741848586454
 20
214.2147400532926
 30
0.0
 11
-50.56741848586454
 21
214.2147400532926
 31
0.0
  0
LINE
  5
B4
  8
0
 10
-50.56741848586454
 20
214.2147400532926
 30
0.0
 11
-50.56741848586454
 21
211.2647400532925
 31
0.0
  0
LINE
  5
B5
  8
0
 10
-50.56741848586454
 20
211.2647400532925
 30
0.0
 11
-45.56741848586454
 21
211.2647400532925
 31
0.0
  0
LINE
  5
B6
  8
0
 10
-45.56741848586454
 20
211.2647400532925
 30
0.0
 11
-45.56741848586454
 21
214.2147400532926
 31
0.0
  0
LINE
  5
B7
  8
0
 10
-45.56741848586454
 20
214.2147400532926
 30
0.0
 11
-40.56741848586454
 21
214.2147400532926
 31
0.0
  0
LINE
  5
B8
  8
0
 10
-40.56741848586454
 20
214.2147400532926
 30
0.0
 11
-40.56741848586454
 21
211.2647400532925
 31
0.0
  0
LINE
  5
B9
  8
0
 10
-40.56741848586454
 20
211.2647400532925
 30
0.0
 11
-38.56741848586454
 21
211.2647400532925
 31
0.0
  0
ARC
  5
BA
  8
0
 10
-38.56741848586454
 20
206.2647400532925
 30
0.0
 40
5.0
 50
0.0
 51
90.0
  0
LINE
  5
BB
  8
0
 10
-33.56741848586454
 20
206.2647400532925
 30
0.0
 11
-33.56741848586454
 21
191.2647400532925
 31
0.0
  0
LINE
  5
BC
  8
0
 10
-51.09241848586453
 20
196.2647400532925
 30
0.0
 11
-51.09241848586453
 21
206.2647400532925
 31
0.0
  0
LINE
  5
BD
  8
0
 10
-51.09241848586453
 20
206.2647400532925
 30
0.0
 11
-54.04241848586453
 21
206.2647400532925
 31
0.0
  0
LINE
  5
BE
  8
0
 10
-54.04241848586453
 20
206.2647400532925
 30
0.0
 11
-54.04241848586453
 21
196.2647400532925
 31
0.0
  0
LINE
  5
BF
  8
0
 10
-54.04241848586453
 20
196.2647400532925
 30
0.0
 11
-51.09241848586453
 21
196.2647400532925
 31
0.0
  0
CIRCLE
  5
C0
  8
0
 10
-67.56741848586451
 20
190.2647400532925
 30
0.0
 40
1.750000000000007
  0
CIRCLE
  5
C1
  8
0
 10
-37.56741848586454
 20
190.2647400532925
 30
0.0
 40
1.749999999999998
  0
CIRCLE
  5
C2
  8
0
 10
-38.29750306397213
 20
160.8179954029534
 30
0.0
 40
1.749999999999998
  0
CIRCLE
  5
C3
  8
0
 10
-68.2975030639721
 20
160.8179954029534
 30
0.0
 40
1.750000000000007
  0
LINE
  5
C4
  8
0
 10
-51.82250306397211
 20
166.8179954029534
 30
0.0
 11
-51.82250306397211
 21
176.8179954029534
 31
0.0
  0
LINE
  5
C5
  8
0
 10
-51.82250306397211
 20
176.8179954029534
 30
0.0
 11
-54.77250306397212
 21
176.8179954029534
 31
0.0
  0
LINE
  5
C6
  8
0
 10
-54.77250306397212
 20
176.8179954029534
 30
0.0
 11
-54.77250306397212
 21
166.8179954029534
 31
0.0
  0
LINE
  5
C7
  8
0
 10
-54.77250306397212
 20
166.8179954029534
 30
0.0
 11
-51.82250306397211
 21
166.8179954029534
 31
0.0
  0
ARC
  5
C8
  8
0
 10
-39.29750306397212
 20
161.8179954029534
 30
0.0
 40
5.0
 50
270.0
 51
0.0
  0
LINE
  5
C9
  8
0
 10
-39.29750306397212
 20
156.8179954029534
 30
0.0
 11
-67.29750306397213
 21
156.8179954029534
 31
0.0
  0
ARC
  5
CA
  8
0
 10
-67.2975030639721
 20
161.8179954029534
 30
0.0
 40
5.000000000000009
 50
180.0000000000003
 51
269.9999999999998
  0
LINE
  5
CB
  8
0
 10
-72.29750306397213
 20
161.8179954029534
 30
0.0
 11
-72.2975030639721
 21
176.8179954029534
 31
0.0
  0
ARC
  5
CC
  8
0
 10
-67.2975030639721
 20
176.8179954029534
 30
0.0
 40
5.000000000000002
 50
90.00000000000016
 51
180.0
  0
LINE
  5
CD
  8
0
 10
-67.29750306397213
 20
181.8179954029534
 30
0.0
 11
-66.29750306397213
 21
181.8179954029534
 31
0.0
  0
LINE
  5
CE
  8
0
 10
-66.29750306397213
 20
181.8179954029534
 30
0.0
 11
-66.29750306397213
 21
184.7679954029534
 31
0.0
  0
LINE
  5
CF
  8
0
 10
-66.29750306397213
 20
184.7679954029534
 30
0.0
 11
-61.29750306397212
 21
184.7679954029534
 31
0.0
  0
LINE
  5
D0
  8
0
 10
-61.29750306397212
 20
184.7679954029534
 30
0.0
 11
-61.29750306397212
 21
181.8179954029534
 31
0.0
  0
LINE
  5
D1
  8
0
 10
-61.29750306397212
 20
181.8179954029534
 30
0.0
 11
-56.29750306397212
 21
181.8179954029534
 31
0.0
  0
LINE
  5
D2
  8
0
 10
-56.29750306397212
 20
181.8179954029534
 30
0.0
 11
-56.29750306397212
 21
184.7679954029534
 31
0.0
  0
LINE
  5
D3
  8
0
 10
-56.29750306397212
 20
184.7679954029534
 30
0.0
 11
-51.29750306397212
 21
184.7679954029534
 31
0.0
  0
LINE
  5
D4
  8
0
 10
-51.29750306397212
 20
184.7679954029534
 30
0.0
 11
-51.29750306397212
 21
181.8179954029534
 31
0.0
  0
LINE
  5
D5
  8
0
 10
-51.29750306397212
 20
181.8179954029534
 30
0.0
 11
-46.29750306397212
 21
181.8179954029534
 31
0.0
  0
LINE
  5
D6
  8
0
 10
-46.29750306397212
 20
181.8179954029534
 30
0.0
 11
-46.29750306397212
 21
184.7679954029534
 31
0.0
  0
LINE
  5
D7
  8
0
 10
-46.29750306397212
 20
184.7679954029534
 30
0.0
 11
-41.29750306397212
 21
184.7679954029534
 31
0.0
  0
LINE
  5
D8
  8
0
 10
-41.29750306397212
 20
184.7679954029534
 30
0.0
 11
-41.29750306397212
 21
181.8179954029534
 31
0.0
  0
LINE
  5
D9
  8
0
 10
-41.29750306397212
 20
181.8179954029534
 30
0.0
 11
-39.29750306397212
 21
181.8179954029534
 31
0.0
  0
ARC
  5
DA
  8
0
 10
-39.29750306397212
 20
176.8179954029534
 30
0.0
 40
5.0
 50
0.0
 51
90.0
  0
LINE
  5
DB
  8
0
 10
-34.29750306397212
 20
176.8179954029534
 30
0.0
 11
-34.29750306397212
 21
161.8179954029534
 31
0.0
  0
INSERT
  5
EF
  8
DEFAULT
  2
LOCK
 10
49.2349862997739
 20
-61.96108699011742
 30
0.0
  0
INSERT
  5
F0
  8
DEFAULT
  2
LOCK
 10
60.87489264799609
 20
-61.96108699011742
 30
0.0
  0
INSERT
  5
F1
  8
DEFAULT
  2
LOCK
 10
73.67878963104052
 20
-61.96108699011742
 30
0.0
  0
INSERT
  5
101
  8
DEFAULT
  2
RIB
 10
191.8076511630401
 20
84.6234793279597
 30
0.0
 50
153.5385418739818
  0
INSERT
  5
102
  8
DEFAULT
  2
RIB
 10
211.4469993225919
 20
84.78314882519183
 30
0.0
 50
153.5385418739818
  0
ENDSEC
  0
EOF
