  0
SECTION
  2
HEADER
  9
$ACADVER
  1
AC1009
  9
$DWGCODEPAGE
  3
ansi_1252
  9
$INSBASE
 10
0.0
 20
0.0
 30
0.0
  9
$EXTMIN
 10
-2742.294334881517
 20
-165.0091147063378
 30
0.0
  9
$EXTMAX
 10
-1176.393750659926
 20
356.8090783454301
 30
0.0
  9
$LIMMIN
 10
0.0
 20
0.0
  9
$LIMMAX
 10
12.0
 20
9.0
  9
$ORTHOMODE
 70
     0
  9
$REGENMODE
 70
     1
  9
$FILLMODE
 70
     1
  9
$QTEXTMODE
 70
     0
  9
$MIRRTEXT
 70
     1
  9
$DRAGMODE
 70
     2
  9
$LTSCALE
 40
1.0
  9
$OSMODE
 70
    37
  9
$ATTMODE
 70
     1
  9
$TEXTSIZE
 40
0.2
  9
$TRACEWID
 40
0.05
  9
$TEXTSTYLE
  7
STANDARD
  9
$CLAYER
  8
0
  9
$CELTYPE
  6
BYLAYER
  9
$CECOLOR
 62
   256
  9
$DIMSCALE
 40
1.0
  9
$DIMASZ
 40
0.18
  9
$DIMEXO
 40
0.0625
  9
$DIMDLI
 40
0.38
  9
$DIMRND
 40
0.0
  9
$DIMDLE
 40
0.0
  9
$DIMEXE
 40
0.18
  9
$DIMTP
 40
0.0
  9
$DIMTM
 40
0.0
  9
$DIMTXT
 40
0.18
  9
$DIMCEN
 40
0.09
  9
$DIMTSZ
 40
0.0
  9
$DIMTOL
 70
     0
  9
$DIMLIM
 70
     0
  9
$DIMTIH
 70
     1
  9
$DIMTOH
 70
     1
  9
$DIMSE1
 70
     0
  9
$DIMSE2
 70
     0
  9
$DIMTAD
 70
     0
  9
$DIMZIN
 70
     0
  9
$DIMBLK
  1

  9
$DIMASO
 70
     1
  9
$DIMSHO
 70
     1
  9
$DIMPOST
  1

  9
$DIMAPOST
  1

  9
$DIMALT
 70
     0
  9
$DIMALTD
 70
     2
  9
$DIMALTF
 40
25.4
  9
$DIMLFAC
 40
1.0
  9
$DIMTOFL
 70
     0
  9
$DIMTVP
 40
0.0
  9
$DIMTIX
 70
     0
  9
$DIMSOXD
 70
     0
  9
$DIMSAH
 70
     0
  9
$DIMBLK1
  1

  9
$DIMBLK2
  1

  9
$DIMSTYLE
  2
STANDARD
  9
$DIMCLRD
 70
     0
  9
$DIMCLRE
 70
     0
  9
$DIMCLRT
 70
     0
  9
$DIMTFAC
 40
1.0
  9
$DIMGAP
 40
0.09
  9
$LUNITS
 70
     2
  9
$LUPREC
 70
     4
  9
$SKETCHINC
 40
0.1
  9
$FILLETRAD
 40
0.5
  9
$AUNITS
 70
     0
  9
$AUPREC
 70
     0
  9
$MENU
  1
.
  9
$ELEVATION
 40
0.0
  9
$PELEVATION
 40
0.0
  9
$THICKNESS
 40
0.0
  9
$LIMCHECK
 70
     0
  9
$CHAMFERA
 40
0.0
  9
$CHAMFERB
 40
0.0
  9
$SKPOLY
 70
     0
  9
$TDCREATE
 40
2458303.358050706
  9
$TDUPDATE
 40
2458303.358062153
  9
$TDINDWG
 40
0.0000000116
  9
$TDUSRTIMER
 40
0.0000000116
  9
$USRTIMER
 70
     1
  9
$ANGBASE
 50
0.0
  9
$ANGDIR
 70
     0
  9
$PDMODE
 70
     0
  9
$PDSIZE
 40
0.0
  9
$PLINEWID
 40
0.0
  9
$COORDS
 70
     1
  9
$SPLFRAME
 70
     0
  9
$SPLINETYPE
 70
     6
  9
$SPLINESEGS
 70
     8
  9
$ATTDIA
 70
     0
  9
$ATTREQ
 70
     1
  9
$HANDLING
 70
     1
  9
$HANDSEED
  5
10A
  9
$SURFTAB1
 70
     6
  9
$SURFTAB2
 70
     6
  9
$SURFTYPE
 70
     6
  9
$SURFU
 70
     6
  9
$SURFV
 70
     6
  9
$UCSNAME
  2

  9
$UCSORG
 10
0.0
 20
0.0
 30
0.0
  9
$UCSXDIR
 10
1.0
 20
0.0
 30
0.0
  9
$UCSYDIR
 10
0.0
 20
1.0
 30
0.0
  9
$PUCSNAME
  2

  9
$PUCSORG
 10
0.0
 20
0.0
 30
0.0
  9
$PUCSXDIR
 10
1.0
 20
0.0
 30
0.0
  9
$PUCSYDIR
 10
0.0
 20
1.0
 30
0.0
  9
$USERI1
 70
     0
  9
$USERI2
 70
     0
  9
$USERI3
 70
     0
  9
$USERI4
 70
     0
  9
$USERI5
 70
     0
  9
$USERR1
 40
0.0
  9
$USERR2
 40
0.0
  9
$USERR3
 40
0.0
  9
$USERR4
 40
0.0
  9
$USERR5
 40
0.0
  9
$WORLDVIEW
 70
     1
  9
$SHADEDGE
 70
     3
  9
$SHADEDIF
 70
    70
  9
$TILEMODE
 70
     1
  9
$MAXACTVP
 70
    64
  9
$PLIMCHECK
 70
     0
  9
$PEXTMIN
 10
1.000000000000000E+20
 20
1.000000000000000E+20
 30
1.000000000000000E+20
  9
$PEXTMAX
 10
-1.000000000000000E+20
 20
-1.000000000000000E+20
 30
-1.000000000000000E+20
  9
$PLIMMIN
 10
0.0
 20
0.0
  9
$PLIMMAX
 10
12.0
 20
9.0
  9
$UNITMODE
 70
     0
  9
$VISRETAIN
 70
     1
  9
$PLINEGEN
 70
     0
  9
$PSLTSCALE
 70
     1
  0
ENDSEC
  0
SECTION
  2
TABLES
  0
TABLE
  2
VPORT
 70
     1
  0
VPORT
  2
*ACTIVE
 70
     0
 10
0.0
 20
0.0
 11
1.0
 21
1.0
 12
-1959.344042770721
 22
95.89998181954616
 13
0.0
 23
0.0
 14
0.5
 24
0.5
 15
0.5
 25
0.5
 16
0.0
 26
0.0
 36
1.0
 17
0.0
 27
0.0
 37
0.0
 40
532.2545569128032
 41
3.000854713523265
 42
50.0
 43
0.0
 44
0.0
 50
0.0
 51
0.0
 71
     0
 72
   100
 73
     1
 74
     3
 75
     0
 76
     0
 77
     0
 78
     0
  0
ENDTAB
  0
TABLE
  2
LTYPE
 70
     1
  0
LTYPE
  2
CONTINUOUS
 70
     0
  3
Solid line
 72
    65
 73
     0
 40
0.0
  0
ENDTAB
  0
TABLE
  2
LAYER
 70
     2
  0
LAYER
  2
0
 70
     0
 62
     7
  6
CONTINUOUS
  0
LAYER
  2
MAKE2D$VISIBLE$LINES
 70
     0
 62
     7
  6
CONTINUOUS
  0
ENDTAB
  0
TABLE
  2
STYLE
 70
     1
  0
STYLE
  2
STANDARD
 70
     0
 40
0.0
 41
1.0
 50
0.0
 71
     0
 42
0.2
  3
txt
  4

  0
ENDTAB
  0
TABLE
  2
VIEW
 70
     0
  0
ENDTAB
  0
TABLE
  2
UCS
 70
     0
  0
ENDTAB
  0
TABLE
  2
APPID
 70
     1
  0
APPID
  2
ACAD
 70
     0
  0
ENDTAB
  0
TABLE
  2
DIMSTYLE
 70
     1
  0
DIMSTYLE
  2
STANDARD
 70
     0
  3

  4

  5

  6

  7

 40
1.0
 41
0.18
 42
0.0625
 43
0.38
 44
0.18
 45
0.0
 46
0.0
 47
0.0
 48
0.0
140
0.18
141
0.09
142
0.0
143
25.4
144
1.0
145
0.0
146
1.0
147
0.09
 71
     0
 72
     0
 73
     1
 74
     1
 75
     0
 76
     0
 77
     0
 78
     0
170
     0
171
     2
172
     0
173
     0
174
     0
175
     0
176
     0
177
     0
178
     0
  0
ENDTAB
  0
ENDSEC
  0
SECTION
  2
BLOCKS
  0
BLOCK
  8
0
  2
$MODEL_SPACE
 70
     0
 10
0.0
 20
0.0
 30
0.0
  3
$MODEL_SPACE
  1

  0
ENDBLK
  5
21
  8
0
  0
BLOCK
 67
     1
  8
0
  2
$PAPER_SPACE
 70
     0
 10
0.0
 20
0.0
 30
0.0
  3
$PAPER_SPACE
  1

  0
ENDBLK
  5
1D
 67
     1
  8
0
  0
ENDSEC
  0
SECTION
  2
ENTITIES
  0
CIRCLE
  5
6B
  8
MAKE2D$VISIBLE$LINES
 10
-2349.811144673885
 20
110.8168954159228
 30
0.0
 40
3.226756945529222
  0
LINE
  5
6C
  8
MAKE2D$VISIBLE$LINES
 10
-2596.248478008411
 20
117.0612834249755
 30
0.0
 11
-2596.248478008411
 21
186.1312035007332
 31
0.0
  0
LINE
  5
6D
  8
MAKE2D$VISIBLE$LINES
 10
-2532.357494675077
 20
113.314882541137
 30
0.0
 11
-2532.357494675077
 21
189.8776043845714
 31
0.0
  0
LINE
  5
6E
  8
MAKE2D$VISIBLE$LINES
 10
-2473.763654397299
 20
187.1798043845714
 30
0.0
 11
-2473.763654397299
 21
116.2847527431574
 31
0.0
  0
LINE
  5
6F
  8
MAKE2D$VISIBLE$LINES
 10
-2022.192491265986
 20
-142.5265203629032
 30
0.0
 11
-2022.066747579117
 21
-98.21074889825684
 31
0.0
  0
LINE
  5
70
  8
MAKE2D$VISIBLE$LINES
 10
-2168.734618791239
 20
347.3143439527532
 30
0.0
 11
-2168.734618791239
 21
294.4293851926524
 31
0.0
  0
LINE
  5
71
  8
MAKE2D$VISIBLE$LINES
 10
-2169.292674346795
 20
157.5929671370968
 30
0.0
 11
-2169.292674346795
 21
183.4547473138643
 31
0.0
  0
LINE
  5
72
  8
MAKE2D$VISIBLE$LINES
 10
-2347.217454649825
 20
308.8209856977027
 30
0.0
 11
-2344.851154144774
 21
181.8880606977026
 31
0.0
  0
CIRCLE
  5
73
  8
MAKE2D$VISIBLE$LINES
 10
-2097.041330276051
 20
110.816895419925
 30
0.0
 40
3.226756949531792
  0
CIRCLE
  5
74
  8
MAKE2D$VISIBLE$LINES
 10
-2349.811054080184
 20
192.7626972502485
 30
0.0
 40
3.226847539635019
  0
LINE
  5
75
  8
MAKE2D$VISIBLE$LINES
 10
-1867.477792326593
 20
356.809068561339
 30
0.0
 11
-1867.802841569017
 21
-165.0091147063378
 31
0.0
  0
LINE
  5
76
  8
MAKE2D$VISIBLE$LINES
 10
-1802.25051959932
 20
356.809068561339
 30
0.0
 11
-1802.575568841744
 21
-165.0091147063378
 31
0.0
  0
LINE
  5
77
  8
MAKE2D$VISIBLE$LINES
 10
-1606.8937868973
 20
356.8090533416421
 30
0.0
 11
-1606.8937868973
 21
106.3363036017432
 31
0.0
  0
LINE
  5
78
  8
MAKE2D$VISIBLE$LINES
 10
-1541.666477932653
 20
356.8090584148744
 30
0.0
 11
-1541.666477932653
 21
108.945430748208
 31
0.0
  0
LINE
  5
79
  8
MAKE2D$VISIBLE$LINES
 10
-1606.8937868973
 20
-165.0091147063378
 30
0.0
 11
-1606.8937868973
 21
85.46350385426842
 31
0.0
  0
LINE
  5
7A
  8
MAKE2D$VISIBLE$LINES
 10
-1541.666477932653
 20
-165.0091147063378
 30
0.0
 11
-1541.666477932653
 21
82.8544129451775
 31
0.0
  0
LINE
  5
7B
  8
MAKE2D$VISIBLE$LINES
 10
-1176.393750659926
 20
-119.4902624336104
 30
0.0
 11
-1404.192753185179
 21
-119.4272094033073
 31
0.0
  0
LINE
  5
7C
  8
MAKE2D$VISIBLE$LINES
 10
-1378.598296114472
 20
356.8090783454301
 30
0.0
 11
-1378.448998134674
 21
17.62724893002598
 31
0.0
  0
LINE
  5
7D
  8
MAKE2D$VISIBLE$LINES
 10
-1411.211932478108
 20
187.2181580209351
 30
0.0
 11
-1228.575568841744
 21
187.0501977936623
 31
0.0
  0
LINE
  5
7E
  8
MAKE2D$VISIBLE$LINES
 10
-1665.598296114471
 20
200.2636125663896
 30
0.0
 11
-1424.257387023562
 21
200.095652339117
 31
0.0
  0
LINE
  5
7F
  8
MAKE2D$VISIBLE$LINES
 10
-1665.598296114471
 20
-8.463660160883023
 30
0.0
 11
-1424.257387023562
 21
-8.631801575024497
 31
0.0
  0
LINE
  5
80
  8
MAKE2D$VISIBLE$LINES
 10
-1926.507387023562
 20
226.3545216572986
 30
0.0
 11
-1685.166477932653
 21
226.1865614300261
 31
0.0
  0
CIRCLE
  5
81
  8
MAKE2D$VISIBLE$LINES
 10
-2097.041239685688
 20
192.7626972605224
 30
0.0
 40
3.226847539534957
  0
LINE
  5
82
  8
MAKE2D$VISIBLE$LINES
 10
-1926.507387023562
 20
-34.55456925179203
 30
0.0
 11
-1685.166477932653
 21
-34.7227106659335
 31
0.0
  0
LINE
  5
83
  8
MAKE2D$VISIBLE$LINES
 10
-2313.626163191316
 20
239.4001733204597
 30
0.0
 11
-2089.156077755885
 21
242.0384773643693
 31
0.0
  0
LINE
  5
84
  8
MAKE2D$VISIBLE$LINES
 10
-2089.156077755885
 20
242.0384773643693
 30
0.0
 11
-2199.879916771037
 21
269.8808474401269
 31
0.0
  0
LINE
  5
85
  8
MAKE2D$VISIBLE$LINES
 10
-2199.879916771037
 20
269.8808474401269
 30
0.0
 11
-2258.322466013461
 21
263.6648332987128
 31
0.0
  0
LINE
  5
86
  8
MAKE2D$VISIBLE$LINES
 10
-2258.322466013461
 20
263.6648332987128
 30
0.0
 11
-2313.626163191316
 21
239.4001733204597
 31
0.0
  0
LINE
  5
87
  8
MAKE2D$VISIBLE$LINES
 10
-1411.211932478108
 20
-21.50911470633775
 30
0.0
 11
-1463.626032225583
 21
-138.1992561204789
 31
0.0
  0
LINE
  5
88
  8
MAKE2D$VISIBLE$LINES
 10
-1463.626032225583
 20
-138.1992561204789
 30
0.0
 11
-1541.666477932653
 21
-165.0091147063378
 31
0.0
  0
LINE
  5
89
  8
MAKE2D$VISIBLE$LINES
 10
-1541.666477932653
 20
-165.0091147063378
 30
0.0
 11
-1606.8937868973
 21
-165.0091147063378
 31
0.0
  0
LINE
  5
8A
  8
MAKE2D$VISIBLE$LINES
 10
-1606.8937868973
 20
-165.0091147063378
 30
0.0
 11
-1633.459079447805
 21
-165.0091147063378
 31
0.0
  0
LINE
  5
8B
  8
MAKE2D$VISIBLE$LINES
 10
-1633.459079447805
 20
-165.0091147063378
 30
0.0
 11
-1672.121059624572
 21
-80.21366016088302
 31
0.0
  0
LINE
  5
8C
  8
MAKE2D$VISIBLE$LINES
 10
-1672.121059624572
 20
-80.21366016088302
 30
0.0
 11
-1672.121059624572
 21
95.899867490632
 31
0.0
  0
LINE
  5
8D
  8
MAKE2D$VISIBLE$LINES
 10
-1672.121059624572
 20
95.899867490632
 30
0.0
 11
-1606.8937868973
 21
85.46350385426842
 31
0.0
  0
LINE
  5
8E
  8
MAKE2D$VISIBLE$LINES
 10
-1606.8937868973
 20
85.46350385426842
 30
0.0
 11
-1541.666477932653
 21
82.8544129451775
 31
0.0
  0
LINE
  5
8F
  8
MAKE2D$VISIBLE$LINES
 10
-1541.666477932653
 20
82.8544129451775
 30
0.0
 11
-1411.211932478108
 21
95.899867490632
 31
0.0
  0
LINE
  5
90
  8
MAKE2D$VISIBLE$LINES
 10
-1411.211932478108
 20
95.899867490632
 30
0.0
 11
-1411.211932478108
 21
17.62724893002598
 31
0.0
  0
LINE
  5
91
  8
MAKE2D$VISIBLE$LINES
 10
-1411.211932478108
 20
17.62724893002598
 30
0.0
 11
-1280.757387023563
 21
17.62724893002598
 31
0.0
  0
LINE
  5
92
  8
MAKE2D$VISIBLE$LINES
 10
-1280.757387023563
 20
17.62724893002598
 30
0.0
 11
-1228.564335255886
 21
167.6499762027531
 31
0.0
  0
LINE
  5
93
  8
MAKE2D$VISIBLE$LINES
 10
-1228.564335255886
 20
167.6499762027531
 30
0.0
 11
-1228.575568841744
 21
206.786339839117
 31
0.0
  0
LINE
  5
94
  8
MAKE2D$VISIBLE$LINES
 10
-1228.575568841744
 20
206.786339839117
 30
0.0
 11
-1280.757387023563
 21
356.809072728637
 31
0.0
  0
LINE
  5
95
  8
MAKE2D$VISIBLE$LINES
 10
-1280.757387023563
 20
356.809072728637
 30
0.0
 11
-1411.211932476752
 21
356.8090703732083
 31
0.0
  0
LINE
  5
96
  8
MAKE2D$VISIBLE$LINES
 10
-1411.211932476752
 20
356.8090703732083
 30
0.0
 11
-1411.06263449831
 21
17.62724893002598
 31
0.0
  0
LINE
  5
97
  8
MAKE2D$VISIBLE$LINES
 10
-2336.675640255885
 20
177.8232057734604
 30
0.0
 11
-2521.246173715481
 21
190.8289441572987
 31
0.0
  0
LINE
  5
98
  8
MAKE2D$VISIBLE$LINES
 10
-2521.246173715481
 20
190.8289441572987
 30
0.0
 11
-2738.475654750835
 21
177.8232057734604
 31
0.0
  0
LINE
  5
99
  8
MAKE2D$VISIBLE$LINES
 10
-2738.475654750835
 20
177.8232057734604
 30
0.0
 11
-2738.475654750835
 21
125.6413875916422
 31
0.0
  0
LINE
  5
9A
  8
MAKE2D$VISIBLE$LINES
 10
-2738.475654750835
 20
125.6413875916422
 30
0.0
 11
-2521.138367528612
 21
112.5958968088139
 31
0.0
  0
LINE
  5
9B
  8
MAKE2D$VISIBLE$LINES
 10
-2521.138367528612
 20
112.5958968088139
 30
0.0
 11
-2336.675640255885
 21
125.6413875916422
 31
0.0
  0
LINE
  5
9C
  8
MAKE2D$VISIBLE$LINES
 10
-2336.675640255885
 20
125.6413875916422
 30
0.0
 11
-2336.675640255885
 21
177.8232057734604
 31
0.0
  0
LINE
  5
9D
  8
MAKE2D$VISIBLE$LINES
 10
-2322.312232427603
 20
-105.77856202957
 30
0.0
 11
-1966.623928134673
 21
-96.8163347568426
 31
0.0
  0
LINE
  5
9E
  8
MAKE2D$VISIBLE$LINES
 10
-1966.623928134673
 20
-96.8163347568426
 30
0.0
 11
-1966.623928134673
 21
-144.0930620295698
 31
0.0
  0
LINE
  5
9F
  8
MAKE2D$VISIBLE$LINES
 10
-1966.623928134673
 20
-144.0930620295698
 30
0.0
 11
-2322.321291771037
 21
-135.1308347568425
 31
0.0
  0
LINE
  5
A0
  8
MAKE2D$VISIBLE$LINES
 10
-2322.321291771037
 20
-135.1308347568425
 30
0.0
 11
-2322.312232427603
 21
-105.77856202957
 31
0.0
  0
LINE
  5
A1
  8
MAKE2D$VISIBLE$LINES
 10
-2377.021607427602
 20
-97.05513904977204
 30
0.0
 11
-1985.657971063966
 21
-85.65812263563043
 31
0.0
  0
LINE
  5
A2
  8
MAKE2D$VISIBLE$LINES
 10
-1985.657971063966
 20
-85.65812263563043
 30
0.0
 11
-1985.666668033663
 21
-56.3058499083578
 31
0.0
  0
LINE
  5
A3
  8
MAKE2D$VISIBLE$LINES
 10
-1985.666668033663
 20
-56.3058499083578
 30
0.0
 11
-2377.021607427602
 21
-44.90847112047891
 31
0.0
  0
LINE
  5
A4
  8
MAKE2D$VISIBLE$LINES
 10
-1672.121023387199
 20
-80.21366016088302
 30
0.0
 11
-1672.121023387199
 21
-165.0091147063378
 31
0.0
  0
LINE
  5
A5
  8
MAKE2D$VISIBLE$LINES
 10
-1672.121023387199
 20
-165.0091147063378
 30
0.0
 11
-1933.030112846795
 21
-165.0091147063378
 31
0.0
  0
LINE
  5
A6
  8
MAKE2D$VISIBLE$LINES
 10
-1933.030112846795
 20
-165.0091147063378
 30
0.0
 11
-1933.030112846795
 21
356.8090747216925
 31
0.0
  0
LINE
  5
A7
  8
MAKE2D$VISIBLE$LINES
 10
-1933.030112846795
 20
356.8090747216925
 30
0.0
 11
-1672.121023387199
 21
356.8090747216925
 31
0.0
  0
LINE
  5
A8
  8
MAKE2D$VISIBLE$LINES
 10
-1672.121023387199
 20
356.8090747216925
 30
0.0
 11
-1672.121023387199
 21
272.0136125663896
 31
0.0
  0
LINE
  5
A9
  8
MAKE2D$VISIBLE$LINES
 10
-1411.211932478108
 20
213.3090671118441
 30
0.0
 11
-1463.626032225583
 21
329.9989621118441
 31
0.0
  0
LINE
  5
AA
  8
MAKE2D$VISIBLE$LINES
 10
-1463.626032225583
 20
329.9989621118441
 30
0.0
 11
-1541.666477932653
 21
356.8090584148744
 31
0.0
  0
LINE
  5
AB
  8
MAKE2D$VISIBLE$LINES
 10
-1541.666477932653
 20
356.8090584148744
 30
0.0
 11
-1606.8937868973
 21
356.8090533416421
 31
0.0
  0
LINE
  5
AC
  8
MAKE2D$VISIBLE$LINES
 10
-1606.8937868973
 20
356.8090533416421
 30
0.0
 11
-1633.459079447805
 21
356.8090533416421
 31
0.0
  0
LINE
  5
AD
  8
MAKE2D$VISIBLE$LINES
 10
-1633.459079447805
 20
356.8090533416421
 30
0.0
 11
-1672.12105338788
 21
272.0136262450231
 31
0.0
  0
LINE
  5
AE
  8
MAKE2D$VISIBLE$LINES
 10
-1672.121059624572
 20
272.0136125663896
 30
0.0
 11
-1672.121059624572
 21
95.89997620275312
 31
0.0
  0
LINE
  5
AF
  8
MAKE2D$VISIBLE$LINES
 10
-1672.121059624572
 20
95.89997620275312
 30
0.0
 11
-1606.8937868973
 21
106.3363036017432
 31
0.0
  0
LINE
  5
B0
  8
MAKE2D$VISIBLE$LINES
 10
-1606.8937868973
 20
106.3363036017432
 30
0.0
 11
-1541.666477932653
 21
108.945430748208
 31
0.0
  0
LINE
  5
B1
  8
MAKE2D$VISIBLE$LINES
 10
-1541.666477932653
 20
108.945430748208
 30
0.0
 11
-1411.211932478108
 21
95.89997620275312
 31
0.0
  0
LINE
  5
B2
  8
MAKE2D$VISIBLE$LINES
 10
-1411.211932478108
 20
95.89997620275312
 30
0.0
 11
-1411.211932478108
 21
213.3090671118441
 31
0.0
  0
LINE
  5
B3
  8
MAKE2D$VISIBLE$LINES
 10
-2569.442061973057
 20
-110.1357438477518
 30
0.0
 11
-2377.021607427602
 21
-97.05513904977204
 31
0.0
  0
LINE
  5
B4
  8
MAKE2D$VISIBLE$LINES
 10
-2377.021607427602
 20
-97.05513904977204
 30
0.0
 11
-2377.021607427602
 21
-44.90847112047891
 31
0.0
  0
LINE
  5
B5
  8
MAKE2D$VISIBLE$LINES
 10
-2377.021607427602
 20
-44.90847112047891
 30
0.0
 11
-2569.442061973057
 21
-31.86301657502463
 31
0.0
  0
LINE
  5
B6
  8
MAKE2D$VISIBLE$LINES
 10
-2569.442061973057
 20
-31.86301657502463
 30
0.0
 11
-2569.442061973057
 21
-110.1357438477518
 31
0.0
  0
LINE
  5
B7
  8
MAKE2D$VISIBLE$LINES
 10
-2569.442061973057
 20
-110.1357438477518
 30
0.0
 11
-2742.294334881517
 21
-97.05513904977204
 31
0.0
  0
LINE
  5
B8
  8
MAKE2D$VISIBLE$LINES
 10
-2742.294334881517
 20
-97.05513904977204
 30
0.0
 11
-2742.294334881517
 21
-44.90847112047891
 31
0.0
  0
LINE
  5
B9
  8
MAKE2D$VISIBLE$LINES
 10
-2742.294334881517
 20
-44.90847112047891
 30
0.0
 11
-2569.442061973057
 21
-31.86301657502463
 31
0.0
  0
LINE
  5
BA
  8
MAKE2D$VISIBLE$LINES
 10
-2347.217454649825
 20
-5.237316322499396
 30
0.0
 11
-2732.702667869522
 21
13.55940804618751
 31
0.0
  0
LINE
  5
BB
  8
MAKE2D$VISIBLE$LINES
 10
-2732.702667869522
 20
13.55940804618751
 30
0.0
 11
-2732.702660622047
 21
39.65031713709686
 31
0.0
  0
LINE
  5
BC
  8
MAKE2D$VISIBLE$LINES
 10
-2163.195736215481
 20
119.7855910638643
 30
0.0
 11
-2060.271085962956
 21
70.34449605123814
 31
0.0
  0
LINE
  5
BD
  8
MAKE2D$VISIBLE$LINES
 10
-2060.271085962956
 20
70.34449605123814
 30
0.0
 11
-2080.351301872047
 21
8.801477111844065
 31
0.0
  0
LINE
  5
BE
  8
MAKE2D$VISIBLE$LINES
 10
-2080.351301872047
 20
8.801477111844065
 30
0.0
 11
-2165.918612478108
 21
8.801477111844065
 31
0.0
  0
LINE
  5
BF
  8
MAKE2D$VISIBLE$LINES
 10
-2165.918612478108
 20
8.801477111844065
 30
0.0
 11
-2345.462841013461
 21
47.26955110174322
 31
0.0
  0
LINE
  5
C0
  8
MAKE2D$VISIBLE$LINES
 10
-2345.462841013461
 20
47.26955110174322
 30
0.0
 11
-2321.266784195279
 21
101.0494374653795
 31
0.0
  0
LINE
  5
C1
  8
MAKE2D$VISIBLE$LINES
 10
-2321.266784195279
 20
101.0494374653795
 30
0.0
 11
-2217.276755154875
 21
125.6340314047735
 31
0.0
  0
LINE
  5
C2
  8
MAKE2D$VISIBLE$LINES
 10
-2217.276755154875
 20
125.6340314047735
 30
0.0
 11
-2163.195736215481
 21
119.7855910638643
 31
0.0
  0
LINE
  5
C3
  8
MAKE2D$VISIBLE$LINES
 10
-2344.851154144774
 20
121.6911877179047
 30
0.0
 11
-2347.217454649825
 21
-5.237316322499396
 31
0.0
  0
LINE
  5
C4
  8
MAKE2D$VISIBLE$LINES
 10
-2347.217454649825
 20
-5.237316322499396
 30
0.0
 11
-2168.734618791239
 21
-43.72930697906486
 31
0.0
  0
LINE
  5
C5
  8
MAKE2D$VISIBLE$LINES
 10
-2693.608988235683
 20
34.58331764214722
 30
0.0
 11
-2432.788008500835
 21
34.58331764214722
 31
0.0
  0
LINE
  5
C6
  8
MAKE2D$VISIBLE$LINES
 10
-2432.788008500835
 20
34.58331764214722
 30
0.0
 11
-2383.406813866997
 21
59.10308291992487
 31
0.0
  0
LINE
  5
C7
  8
MAKE2D$VISIBLE$LINES
 10
-2383.406813866997
 20
59.10308291992487
 30
0.0
 11
-2355.492621316491
 21
118.9966853189148
 31
0.0
  0
LINE
  5
C8
  8
MAKE2D$VISIBLE$LINES
 10
-2355.492621316491
 20
118.9966853189148
 30
0.0
 11
-2217.276755154875
 21
151.7890806471977
 31
0.0
  0
LINE
  5
C9
  8
MAKE2D$VISIBLE$LINES
 10
-2217.276755154875
 20
151.7890806471977
 30
0.0
 11
-2158.923349851845
 21
144.78649807144
 31
0.0
  0
LINE
  5
CA
  8
MAKE2D$VISIBLE$LINES
 10
-2158.923349851845
 20
144.78649807144
 30
0.0
 11
-2103.952341013462
 21
119.7856091825511
 31
0.0
  0
LINE
  5
CB
  8
MAKE2D$VISIBLE$LINES
 10
-2103.952341013462
 20
119.7856091825511
 30
0.0
 11
-1959.567061973057
 21
119.7855910638643
 31
0.0
  0
LINE
  5
CC
  8
MAKE2D$VISIBLE$LINES
 10
-1959.567061973057
 20
119.7855910638643
 30
0.0
 11
-1959.567061973057
 21
36.81311196032891
 31
0.0
  0
LINE
  5
CD
  8
MAKE2D$VISIBLE$LINES
 10
-1959.567061973057
 20
36.81311196032891
 30
0.0
 11
-1986.223274094269
 21
-43.72930697906486
 31
0.0
  0
LINE
  5
CE
  8
MAKE2D$VISIBLE$LINES
 10
-1986.223274094269
 20
-43.72930697906486
 30
0.0
 11
-2168.734618791239
 21
-43.72930697906486
 31
0.0
  0
LINE
  5
CF
  8
MAKE2D$VISIBLE$LINES
 10
-2168.734618791239
 20
-43.72930697906486
 30
0.0
 11
-2168.734618791239
 21
9.15377685931901
 31
0.0
  0
LINE
  5
D0
  8
MAKE2D$VISIBLE$LINES
 10
-2732.702646127098
 20
263.9317940310361
 30
0.0
 11
-2732.702656998309
 21
290.0236090562887
 31
0.0
  0
LINE
  5
D1
  8
MAKE2D$VISIBLE$LINES
 10
-2732.702656998309
 20
290.0236090562887
 30
0.0
 11
-2347.217454649825
 21
308.8209856977027
 31
0.0
  0
LINE
  5
D2
  8
MAKE2D$VISIBLE$LINES
 10
-2347.217454649825
 20
308.8209856977027
 30
0.0
 11
-2168.734620135469
 21
347.3143501855704
 31
0.0
  0
LINE
  5
D3
  8
MAKE2D$VISIBLE$LINES
 10
-2168.734618791239
 20
347.3143504754805
 30
0.0
 11
-1986.223274094269
 21
347.314345764622
 31
0.0
  0
LINE
  5
D4
  8
MAKE2D$VISIBLE$LINES
 10
-1986.223274094269
 20
347.314345764622
 30
0.0
 11
-1959.56706737746
 21
266.7691061313545
 31
0.0
  0
LINE
  5
D5
  8
MAKE2D$VISIBLE$LINES
 10
-1959.56706737746
 20
266.7691061313545
 30
0.0
 11
-1959.567061973057
 21
183.7937117078038
 31
0.0
  0
LINE
  5
D6
  8
MAKE2D$VISIBLE$LINES
 10
-1959.567061973057
 20
183.7937117078038
 30
0.0
 11
-2103.952341013462
 21
183.7937117078038
 31
0.0
  0
LINE
  5
D7
  8
MAKE2D$VISIBLE$LINES
 10
-2103.952341013462
 20
183.7937117078038
 30
0.0
 11
-2158.923349851845
 21
158.7919168845714
 31
0.0
  0
LINE
  5
D8
  8
MAKE2D$VISIBLE$LINES
 10
-2158.923349851845
 20
158.7919168845714
 30
0.0
 11
-2217.276755154875
 21
151.7890806471977
 31
0.0
  0
LINE
  5
D9
  8
MAKE2D$VISIBLE$LINES
 10
-2217.276755154875
 20
151.7890806471977
 30
0.0
 11
-2355.492621316491
 21
184.5826355714403
 31
0.0
  0
LINE
  5
DA
  8
MAKE2D$VISIBLE$LINES
 10
-2355.492621316491
 20
184.5826355714403
 30
0.0
 11
-2383.406777629623
 21
244.4783397381068
 31
0.0
  0
LINE
  5
DB
  8
MAKE2D$VISIBLE$LINES
 10
-2383.406777629623
 20
244.4783397381068
 30
0.0
 11
-2432.788008500835
 21
268.9989565941675
 31
0.0
  0
LINE
  5
DC
  8
MAKE2D$VISIBLE$LINES
 10
-2432.788008500835
 20
268.9989565941675
 30
0.0
 11
-2693.608988235683
 21
268.9989384754806
 31
0.0
  0
LINE
  5
DD
  8
MAKE2D$VISIBLE$LINES
 10
-1307.436791063967
 20
166.682220899723
 30
0.0
 11
-1346.561558740734
 21
167.6383802431573
 31
0.0
  0
LINE
  5
DE
  8
MAKE2D$VISIBLE$LINES
 10
-1346.561558740734
 20
167.6383802431573
 30
0.0
 11
-1346.441613033664
 21
172.5420216572986
 31
0.0
  0
LINE
  5
DF
  8
MAKE2D$VISIBLE$LINES
 10
-1346.441613033664
 20
172.5420216572986
 30
0.0
 11
-1307.316845356896
 21
171.5858260764907
 31
0.0
  0
LINE
  5
E0
  8
MAKE2D$VISIBLE$LINES
 10
-1307.316845356896
 20
171.5858260764907
 30
0.0
 11
-1307.436791063967
 21
166.682220899723
 31
0.0
  0
LINE
  5
E1
  8
MAKE2D$VISIBLE$LINES
 10
-1307.316845356896
 20
202.8504899653796
 30
0.0
 11
-1346.441613033664
 21
201.8942943845715
 31
0.0
  0
LINE
  5
E2
  8
MAKE2D$VISIBLE$LINES
 10
-1346.441613033664
 20
201.8942943845715
 30
0.0
 11
-1346.561558740734
 21
206.797935798713
 31
0.0
  0
LINE
  5
E3
  8
MAKE2D$VISIBLE$LINES
 10
-1346.561558740734
 20
206.797935798713
 30
0.0
 11
-1307.436791063967
 21
207.7540951421471
 31
0.0
  0
LINE
  5
E4
  8
MAKE2D$VISIBLE$LINES
 10
-1307.436791063967
 20
207.7540951421471
 30
0.0
 11
-1307.316845356896
 21
202.8504899653796
 31
0.0
  0
LINE
  5
E5
  8
MAKE2D$VISIBLE$LINES
 10
-1411.211932478108
 20
17.62721269265228
 30
0.0
 11
-1411.211932478108
 21
-112.8272965245195
 31
0.0
  0
LINE
  5
E6
  8
MAKE2D$VISIBLE$LINES
 10
-1411.211932478108
 20
-112.8272965245195
 30
0.0
 11
-1359.03011429629
 21
-165.0091147063378
 31
0.0
  0
LINE
  5
E7
  8
MAKE2D$VISIBLE$LINES
 10
-1359.03011429629
 20
-165.0091147063378
 30
0.0
 11
-1176.393750659926
 21
-165.0091147063378
 31
0.0
  0
LINE
  5
E8
  8
MAKE2D$VISIBLE$LINES
 10
-1176.393750659926
 20
-165.0091147063378
 30
0.0
 11
-1176.393750659926
 21
-28.03184197906489
 31
0.0
  0
LINE
  5
E9
  8
MAKE2D$VISIBLE$LINES
 10
-1176.393750659926
 20
-28.03184197906489
 30
0.0
 11
-1306.848296114472
 21
17.62721269265228
 31
0.0
  0
LINE
  5
EA
  8
MAKE2D$VISIBLE$LINES
 10
-2732.702646127098
 20
264.2897468088139
 30
0.0
 11
-2693.608988235683
 21
264.2712295108341
 31
0.0
  0
LINE
  5
EB
  8
MAKE2D$VISIBLE$LINES
 10
-2693.608988235683
 20
264.2712295108341
 30
0.0
 11
-2693.608988235683
 21
268.8370661269956
 31
0.0
  0
LINE
  5
EC
  8
MAKE2D$VISIBLE$LINES
 10
-2089.164231164977
 20
239.4001428946725
 30
0.0
 11
-2199.04609480134
 21
208.4061359502278
 31
0.0
  0
LINE
  5
ED
  8
MAKE2D$VISIBLE$LINES
 10
-2199.04609480134
 20
208.4061359502278
 30
0.0
 11
-2257.642652882148
 21
212.9442147381069
 31
0.0
  0
LINE
  5
EE
  8
MAKE2D$VISIBLE$LINES
 10
-2257.642652882148
 20
212.9442147381069
 30
0.0
 11
-2313.618161720532
 21
235.6084452936623
 31
0.0
  0
LINE
  5
EF
  8
MAKE2D$VISIBLE$LINES
 10
-2313.618161720532
 20
235.6084452936623
 30
0.0
 11
-2089.164231164977
 21
239.4001428946725
 31
0.0
  0
LINE
  5
F0
  8
MAKE2D$VISIBLE$LINES
 10
-2060.270723589219
 20
233.2365279956826
 30
0.0
 11
-2080.351301872047
 21
294.7817211775009
 31
0.0
  0
LINE
  5
F1
  8
MAKE2D$VISIBLE$LINES
 10
-2080.351301872047
 20
294.7817211775009
 30
0.0
 11
-2165.918612478108
 21
294.7817211775009
 31
0.0
  0
LINE
  5
F2
  8
MAKE2D$VISIBLE$LINES
 10
-2165.918612478108
 20
294.7817211775009
 30
0.0
 11
-2345.462841013461
 21
256.3122701673998
 31
0.0
  0
LINE
  5
F3
  8
MAKE2D$VISIBLE$LINES
 10
-2345.462841013461
 20
256.3122701673998
 30
0.0
 11
-2321.266784195279
 21
202.5304994603291
 31
0.0
  0
LINE
  5
F4
  8
MAKE2D$VISIBLE$LINES
 10
-2321.266784195279
 20
202.5304994603291
 30
0.0
 11
-2217.276755154875
 21
177.9450720613391
 31
0.0
  0
LINE
  5
F5
  8
MAKE2D$VISIBLE$LINES
 10
-2217.276755154875
 20
177.9450720613391
 30
0.0
 11
-2163.195736215481
 21
183.7937117078038
 31
0.0
  0
LINE
  5
F6
  8
MAKE2D$VISIBLE$LINES
 10
-2163.195736215481
 20
183.7937117078038
 30
0.0
 11
-2060.271085962956
 21
233.2365279956826
 31
0.0
  0
LINE
  5
F7
  8
MAKE2D$VISIBLE$LINES
 10
-2732.702656998309
 20
39.29232812194516
 30
0.0
 11
-2693.608988235683
 21
39.31088165729864
 31
0.0
  0
LINE
  5
F8
  8
MAKE2D$VISIBLE$LINES
 10
-2693.608988235683
 20
39.31088165729864
 30
0.0
 11
-2693.608988235683
 21
34.74522622800578
 31
0.0
  0
LINE
  5
F9
  8
MAKE2D$VISIBLE$LINES
 10
-2089.155896569016
 20
61.54287281891482
 30
0.0
 11
-2199.879916771037
 21
33.70148115224833
 31
0.0
  0
LINE
  5
FA
  8
MAKE2D$VISIBLE$LINES
 10
-2199.879916771037
 20
33.70148115224833
 30
0.0
 11
-2258.322466013461
 21
39.91724163204617
 31
0.0
  0
LINE
  5
FB
  8
MAKE2D$VISIBLE$LINES
 10
-2258.322466013461
 20
39.91724163204617
 30
0.0
 11
-2313.626496316491
 21
64.18113481386433
 31
0.0
  0
LINE
  5
FC
  8
MAKE2D$VISIBLE$LINES
 10
-2313.626496316491
 20
64.18113481386433
 30
0.0
 11
-2089.155896569016
 21
61.54287281891482
 31
0.0
  0
LINE
  5
FD
  8
MAKE2D$VISIBLE$LINES
 10
-2089.164231164977
 20
64.18109857649051
 30
0.0
 11
-2199.04609480134
 21
95.17398216234915
 31
0.0
  0
LINE
  5
FE
  8
MAKE2D$VISIBLE$LINES
 10
-2199.04609480134
 20
95.17398216234915
 30
0.0
 11
-2257.642652882148
 21
90.63608456133909
 31
0.0
  0
LINE
  5
FF
  8
MAKE2D$VISIBLE$LINES
 10
-2257.642652882148
 20
90.63608456133909
 30
0.0
 11
-2313.618161720532
 21
67.97265122800593
 31
0.0
  0
LINE
  5
100
  8
MAKE2D$VISIBLE$LINES
 10
-2313.618161720532
 20
67.97265122800593
 30
0.0
 11
-2089.164231164977
 21
64.18109857649051
 31
0.0
  0
ENDSEC
  0
EOF
