0
SECTION
2
HEADER
9
$INSUNITS
70
4
9
$ACADVER
1
AC1014
9
$HANDSEED
5
FFFF
0
ENDSEC
0
SECTION
2
TABLES
0
TABLE
2
VPORT
5
8
100
AcDbSymbolTable
0
ENDTAB
0
TABLE
2
LTYPE
5
5
100
AcDbSymbolTable
0
LTYPE
5
14
100
AcDbSymbolTableRecord
100
AcDbLinetypeTableRecord
2
BYBLOCK
70
0
0
LTYPE
5
15
100
AcDbSymbolTableRecord
100
AcDbLinetypeTableRecord
2
BYLAYER
70
0
0
ENDTAB
0
TABLE
2
LAYER
5
2
100
AcDbSymbolTable
70
2
0
LAYER
5
50
100
AcDbSymbolTableRecord
100
AcDbLayerTableRecord
2
0
70
0
6
CONTINUOUS
0
ENDTAB
0
TABLE
2
STYLE
5
3
100
AcDbSymbolTable
70
1
0
STYLE
5
11
100
AcDbSymbolTableRecord
100
AcDbTextStyleTableRecord
2
STANDARD
70
0
0
ENDTAB
0
TABLE
2
VIEW
5
6
100
AcDbSymbolTable
70
0
0
ENDTAB
0
TABLE
2
UCS
5
7
100
AcDbSymbolTable
70
0
0
ENDTAB
0
TABLE
2
APPID
5
9
100
AcDbSymbolTable
70
2
0
APPID
5
12
100
AcDbSymbolTableRecord
100
AcDbRegAppTableRecord
2
ACAD
70
0
0
ENDTAB
0
TABLE
2
DIMSTYLE
5
A
100
AcDbSymbolTable
70
1
0
ENDTAB
0
TABLE
2
BLOCK_RECORD
5
1
100
AcDbSymbolTable
70
1
0
BLOCK_RECORD
5
1F
100
AcDbSymbolTableRecord
100
AcDbBlockTableRecord
2
*MODEL_SPACE
0
BLOCK_RECORD
5
1B
100
AcDbSymbolTableRecord
100
AcDbBlockTableRecord
2
*PAPER_SPACE
0
ENDTAB
0
ENDSEC
0
SECTION
2
BLOCKS
0
BLOCK
5
20
100
AcDbEntity
100
AcDbBlockBegin
2
*MODEL_SPACE
0
ENDBLK
5
21
100
AcDbEntity
100
AcDbBlockEnd
0
BLOCK
5
1C
100
AcDbEntity
100
AcDbBlockBegin
2
*PAPER_SPACE
0
ENDBLK
5
1D
100
AcDbEntity
100
AcDbBlockEnd
0
ENDSEC
0
SECTION
2
ENTITIES
0
LWPOLYLINE
5
100
100
AcDbEntity
8
0
100
AcDbPolyline
90
8
70
1
43
0.0
10
-1.1102230246251565e-15
20
5
42
-0.41421356237309498
10
-5
20
0
10
-140
20
-5.5511151231257827e-15
42
-0.41421356237309326
10
-145
20
5
10
-144.99999999999997
20
190
42
-0.41421356237309398
10
-140
20
195
10
-5.0000000000000009
20
195
42
-0.41421356237309437
10
0
20
190
0
LWPOLYLINE
5
101
100
AcDbEntity
8
0
100
AcDbPolyline
90
4
70
1
43
0.0
10
-136
20
157
10
-136
20
182.99999999999997
42
0.99999999999999989
10
-140
20
183
10
-140
20
157
42
0.99999999999999989
0
LWPOLYLINE
5
102
100
AcDbEntity
8
0
100
AcDbPolyline
90
4
70
1
43
0.0
10
-124
20
157
10
-124
20
182.99999999999997
42
0.99999999999999989
10
-128
20
183
10
-128
20
157
42
0.99999999999999989
0
LWPOLYLINE
5
103
100
AcDbEntity
8
0
100
AcDbPolyline
90
8
70
1
43
0.0
10
-35
20
65
10
-69
20
65
42
0.41421356237309503
10
-74
20
60
10
-74
20
35
42
0.41421356237309503
10
-69
20
30
10
-35
20
30
42
0.41421356237309503
10
-30
20
35
10
-30
20
60
42
0.41421356237309503
0
CIRCLE
5
104
100
AcDbEntity
8
0
100
AcDbCircle
10
-142
20
192
30
0
40
1.5000000000000036
0
CIRCLE
5
105
100
AcDbEntity
8
0
100
AcDbCircle
10
-3.0000000000000004
20
3.0000000000000071
30
0
40
1.5000000000000013
0
CIRCLE
5
106
100
AcDbEntity
8
0
100
AcDbCircle
10
-142
20
3.0000000000000071
30
0
40
1.5000000000000036
0
LWPOLYLINE
5
107
100
AcDbEntity
8
0
100
AcDbPolyline
90
4
70
1
43
0.0
10
-12.000000000000002
20
8.9040037772234939
10
-30
20
8.9040037772234939
42
0.99999999999999989
10
-30
20
4.9040037772234957
10
-12.000000000000002
20
4.9040037772234948
42
0.99999999999999989
0
LWPOLYLINE
5
108
100
AcDbEntity
8
0
100
AcDbPolyline
90
4
70
1
43
0.0
10
-12
20
72.275695376909411
10
-29.999999999999996
20
72.275695376909411
42
0.99999999999999989
10
-29.999999999999996
20
68.275695376909411
10
-12.000000000000002
20
68.275695376909411
42
0.99999999999999989
0
LWPOLYLINE
5
109
100
AcDbEntity
8
0
100
AcDbPolyline
90
8
70
1
43
0.0
10
-44.5
20
160
10
-40.499999999999979
20
160
42
0.41421356237309503
10
-37.499999999999986
20
163
10
-37.499999999999986
20
167.00000000000003
42
0.41421356237309503
10
-40.499999999999979
20
170
10
-44.499999999999993
20
170
42
0.41421356237309503
10
-47.5
20
167
10
-47.5
20
162.99999999999997
42
0.41421356237309503
0
LWPOLYLINE
5
110
100
AcDbEntity
8
0
100
AcDbPolyline
90
4
70
1
43
0.0
10
-97
20
123.99999999999997
10
-123
20
123.99999999999994
42
0.99999999999999989
10
-123
20
119.99999999999997
10
-97
20
119.99999999999997
42
0.99999999999999989
0
LWPOLYLINE
5
111
100
AcDbEntity
8
0
100
AcDbPolyline
90
4
70
1
43
0.0
10
-97
20
133.99999999999994
10
-123
20
133.99999999999994
42
0.99999999999999989
10
-123
20
129.99999999999997
10
-97
20
129.99999999999997
42
0.99999999999999989
0
LWPOLYLINE
5
112
100
AcDbEntity
8
0
100
AcDbPolyline
90
4
70
1
43
0.0
10
-140
20
38
10
-140
20
17
42
0.99999999999999989
10
-136
20
17
10
-136
20
38
42
0.99999999999999989
0
LWPOLYLINE
5
113
100
AcDbEntity
8
0
100
AcDbPolyline
90
4
70
1
43
0.0
10
-127
20
17
10
-127
20
38
42
0.99999999999999989
10
-131
20
38
10
-131
20
17
42
0.99999999999999989
0
LWPOLYLINE
5
114
100
AcDbEntity
8
0
100
AcDbPolyline
90
4
70
1
43
0.0
10
-88
20
17
42
-0.99999999999999989
10
-92
20
17
10
-91.999999999999972
20
38
42
-0.99999999999999989
10
-87.999999999999986
20
38
0
LWPOLYLINE
5
115
100
AcDbEntity
8
0
100
AcDbPolyline
90
4
70
1
43
0.0
10
-79
20
17
42
-0.99999999999999989
10
-82.999999999999986
20
17
10
-82.999999999999972
20
38
42
-0.99999999999999989
10
-78.999999999999972
20
38
0
LWPOLYLINE
5
116
100
AcDbEntity
8
0
100
AcDbPolyline
90
4
70
1
43
0.0
10
-117.99999999999999
20
17
10
-117.99999999999999
20
38
42
0.99999999999999989
10
-122
20
38
10
-122
20
17
42
0.99999999999999989
0
LWPOLYLINE
5
117
100
AcDbEntity
8
0
100
AcDbPolyline
90
4
70
1
43
0.0
10
-100.99999999999997
20
38
42
-0.99999999999999989
10
-97
20
38
10
-97.000000000000014
20
17
42
-0.99999999999999989
10
-101
20
17
0
CIRCLE
5
118
100
AcDbEntity
8
0
100
AcDbCircle
10
-3.0000000000000004
20
192
30
0
40
1.5000000000000013
0
LWPOLYLINE
5
119
100
AcDbEntity
8
0
100
AcDbPolyline
90
4
70
1
43
0.0
10
-97
20
113.99999999999999
10
-123
20
113.99999999999997
42
0.99999999999999989
10
-123
20
109.99999999999997
10
-97
20
109.99999999999997
42
0.99999999999999989
0
LWPOLYLINE
5
120
100
AcDbEntity
8
0
100
AcDbPolyline
90
4
70
1
43
0.0
10
-97
20
103.99999999999999
10
-123
20
103.99999999999999
42
0.99999999999999989
10
-123
20
99.999999999999986
10
-97
20
99.999999999999986
42
0.99999999999999989
0
LWPOLYLINE
5
121
100
AcDbEntity
8
0
100
AcDbPolyline
90
4
70
1
43
0.0
10
-97
20
93.999999999999986
10
-123
20
93.999999999999986
42
0.99999999999999989
10
-123
20
90
10
-97
20
90
42
0.99999999999999989
0
LWPOLYLINE
5
122
100
AcDbEntity
8
0
100
AcDbPolyline
90
4
70
1
43
0.0
10
-97
20
84
10
-123
20
83.999999999999986
42
0.99999999999999989
10
-123
20
80
10
-97
20
79.999999999999986
42
0.99999999999999989
0
CIRCLE
5
123
100
AcDbEntity
8
0
100
AcDbCircle
10
-57.749999999999972
20
180.25000000000003
30
0
40
1.5000000000000036
0
LWPOLYLINE
5
124
100
AcDbEntity
8
0
100
AcDbPolyline
90
4
70
1
43
0.0
10
-22
20
84
10
-48.000000000000007
20
83.999999999999986
42
0.99999999999999989
10
-48
20
80
10
-22
20
79.999999999999986
42
0.99999999999999989
0
LWPOLYLINE
5
125
100
AcDbEntity
8
0
100
AcDbPolyline
90
4
70
1
43
0.0
10
-22
20
93.999999999999986
10
-48.000000000000007
20
93.999999999999986
42
0.99999999999999989
10
-48
20
90
10
-22
20
90
42
0.99999999999999989
0
LWPOLYLINE
5
126
100
AcDbEntity
8
0
100
AcDbPolyline
90
4
70
1
43
0.0
10
-22
20
103.99999999999999
10
-48.000000000000007
20
103.99999999999999
42
0.99999999999999989
10
-48
20
99.999999999999986
10
-22
20
99.999999999999986
42
0.99999999999999989
0
LWPOLYLINE
5
127
100
AcDbEntity
8
0
100
AcDbPolyline
90
4
70
1
43
0.0
10
-22
20
113.99999999999999
10
-48.000000000000007
20
113.99999999999997
42
0.99999999999999989
10
-48
20
109.99999999999997
10
-22
20
109.99999999999997
42
0.99999999999999989
0
LWPOLYLINE
5
128
100
AcDbEntity
8
0
100
AcDbPolyline
90
4
70
1
43
0.0
10
-22
20
123.99999999999997
10
-48.000000000000007
20
123.99999999999994
42
0.99999999999999989
10
-48
20
119.99999999999997
10
-22
20
119.99999999999997
42
0.99999999999999989
0
LWPOLYLINE
5
129
100
AcDbEntity
8
0
100
AcDbPolyline
90
4
70
1
43
0.0
10
-22
20
133.99999999999994
10
-48.000000000000007
20
133.99999999999994
42
0.99999999999999989
10
-48
20
129.99999999999997
10
-22
20
129.99999999999997
42
0.99999999999999989
0
LWPOLYLINE
5
130
100
AcDbEntity
8
0
100
AcDbPolyline
90
4
70
1
43
0.0
10
-88.000000000000028
20
157
10
-88.000000000000028
20
182.99999999999997
42
0.99999999999999989
10
-92.000000000000028
20
183
10
-92.000000000000028
20
157
42
0.99999999999999989
0
LWPOLYLINE
5
131
100
AcDbEntity
8
0
100
AcDbPolyline
90
4
70
1
43
0.0
10
-100.00000000000001
20
157
10
-100.00000000000001
20
182.99999999999997
42
0.99999999999999989
10
-104.00000000000003
20
183
10
-104.00000000000003
20
157
42
0.99999999999999989
0
CIRCLE
5
132
100
AcDbEntity
8
0
100
AcDbCircle
10
-57.749999999999972
20
149.75
30
0
40
1.5000000000000036
0
CIRCLE
5
133
100
AcDbEntity
8
0
100
AcDbCircle
10
-27.250000000000011
20
180.25000000000003
30
0
40
1.4999999999999858
0
CIRCLE
5
134
100
AcDbEntity
8
0
100
AcDbCircle
10
-27.249999999999964
20
149.75
30
0
40
1.4999999999999991
0
LWPOLYLINE
5
135
100
AcDbEntity
8
0
100
AcDbPolyline
90
4
70
1
43
0.0
10
-112.00000000000001
20
157
10
-112.00000000000001
20
182.99999999999997
42
0.99999999999999989
10
-116.00000000000001
20
183
10
-116.00000000000001
20
157
42
0.99999999999999989
0
ENDSEC
0
SECTION
2
OBJECTS
0
DICTIONARY
5
C
100
AcDbDictionary
3
ACAD_GROUP
350
D
3
ACAD_MLINESTYLE
350
17
0
DICTIONARY
5
D
100
AcDbDictionary
0
DICTIONARY
5
1A
330
C
100
AcDbDictionary
0
DICTIONARY
5
17
100
AcDbDictionary
0
ENDSEC
0
EOF
