  0
SECTION
  2
HEADER
  9
$ACADVER
  1
AC1009
  9
$DWGCODEPAGE
  3
ansi_1252
  9
$INSBASE
 10
0.0
 20
0.0
 30
0.0
  9
$EXTMIN
 10
6.950483393942264
 20
-8.519234689144367
 30
0.0
  9
$EXTMAX
 10
105.000000461936
 20
48.49692399855962
 30
0.0
  9
$LIMMIN
 10
0.0
 20
0.0
  9
$LIMMAX
 10
12.0
 20
9.0
  9
$ORTHOMODE
 70
     0
  9
$REGENMODE
 70
     1
  9
$FILLMODE
 70
     1
  9
$QTEXTMODE
 70
     0
  9
$MIRRTEXT
 70
     1
  9
$DRAGMODE
 70
     2
  9
$LTSCALE
 40
1.0
  9
$OSMODE
 70
    37
  9
$ATTMODE
 70
     1
  9
$TEXTSIZE
 40
0.2
  9
$TRACEWID
 40
0.05
  9
$TEXTSTYLE
  7
STANDARD
  9
$CLAYER
  8
DEFAULT
  9
$CELTYPE
  6
BYLAYER
  9
$CECOLOR
 62
   256
  9
$DIMSCALE
 40
1.0
  9
$DIMASZ
 40
0.18
  9
$DIMEXO
 40
0.0625
  9
$DIMDLI
 40
0.38
  9
$DIMRND
 40
0.0
  9
$DIMDLE
 40
0.0
  9
$DIMEXE
 40
0.18
  9
$DIMTP
 40
0.0
  9
$DIMTM
 40
0.0
  9
$DIMTXT
 40
0.18
  9
$DIMCEN
 40
0.09
  9
$DIMTSZ
 40
0.0
  9
$DIMTOL
 70
     0
  9
$DIMLIM
 70
     0
  9
$DIMTIH
 70
     1
  9
$DIMTOH
 70
     1
  9
$DIMSE1
 70
     0
  9
$DIMSE2
 70
     0
  9
$DIMTAD
 70
     0
  9
$DIMZIN
 70
     0
  9
$DIMBLK
  1

  9
$DIMASO
 70
     1
  9
$DIMSHO
 70
     1
  9
$DIMPOST
  1

  9
$DIMAPOST
  1

  9
$DIMALT
 70
     0
  9
$DIMALTD
 70
     2
  9
$DIMALTF
 40
25.4
  9
$DIMLFAC
 40
1.0
  9
$DIMTOFL
 70
     0
  9
$DIMTVP
 40
0.0
  9
$DIMTIX
 70
     0
  9
$DIMSOXD
 70
     0
  9
$DIMSAH
 70
     0
  9
$DIMBLK1
  1

  9
$DIMBLK2
  1

  9
$DIMSTYLE
  2
STANDARD
  9
$DIMCLRD
 70
     0
  9
$DIMCLRE
 70
     0
  9
$DIMCLRT
 70
     0
  9
$DIMTFAC
 40
1.0
  9
$DIMGAP
 40
0.09
  9
$LUNITS
 70
     2
  9
$LUPREC
 70
     4
  9
$SKETCHINC
 40
0.1
  9
$FILLETRAD
 40
0.5
  9
$AUNITS
 70
     0
  9
$AUPREC
 70
     0
  9
$MENU
  1
.
  9
$ELEVATION
 40
0.0
  9
$PELEVATION
 40
0.0
  9
$THICKNESS
 40
0.0
  9
$LIMCHECK
 70
     0
  9
$CHAMFERA
 40
0.0
  9
$CHAMFERB
 40
0.0
  9
$SKPOLY
 70
     0
  9
$TDCREATE
 40
2458386.462074884
  9
$TDUPDATE
 40
2458386.462084583
  9
$TDINDWG
 40
0.0000000116
  9
$TDUSRTIMER
 40
0.0000000116
  9
$USRTIMER
 70
     1
  9
$ANGBASE
 50
0.0
  9
$ANGDIR
 70
     0
  9
$PDMODE
 70
     0
  9
$PDSIZE
 40
0.0
  9
$PLINEWID
 40
0.0
  9
$COORDS
 70
     1
  9
$SPLFRAME
 70
     0
  9
$SPLINETYPE
 70
     6
  9
$SPLINESEGS
 70
     8
  9
$ATTDIA
 70
     0
  9
$ATTREQ
 70
     1
  9
$HANDLING
 70
     1
  9
$HANDSEED
  5
D9
  9
$SURFTAB1
 70
     6
  9
$SURFTAB2
 70
     6
  9
$SURFTYPE
 70
     6
  9
$SURFU
 70
     6
  9
$SURFV
 70
     6
  9
$UCSNAME
  2

  9
$UCSORG
 10
0.0
 20
0.0
 30
0.0
  9
$UCSXDIR
 10
1.0
 20
0.0
 30
0.0
  9
$UCSYDIR
 10
0.0
 20
1.0
 30
0.0
  9
$PUCSNAME
  2

  9
$PUCSORG
 10
0.0
 20
0.0
 30
0.0
  9
$PUCSXDIR
 10
1.0
 20
0.0
 30
0.0
  9
$PUCSYDIR
 10
0.0
 20
1.0
 30
0.0
  9
$USERI1
 70
     0
  9
$USERI2
 70
     0
  9
$USERI3
 70
     0
  9
$USERI4
 70
     0
  9
$USERI5
 70
     0
  9
$USERR1
 40
0.0
  9
$USERR2
 40
0.0
  9
$USERR3
 40
0.0
  9
$USERR4
 40
0.0
  9
$USERR5
 40
0.0
  9
$WORLDVIEW
 70
     1
  9
$SHADEDGE
 70
     3
  9
$SHADEDIF
 70
    70
  9
$TILEMODE
 70
     1
  9
$MAXACTVP
 70
    64
  9
$PLIMCHECK
 70
     0
  9
$PEXTMIN
 10
1.000000000000000E+20
 20
1.000000000000000E+20
 30
1.000000000000000E+20
  9
$PEXTMAX
 10
-1.000000000000000E+20
 20
-1.000000000000000E+20
 30
-1.000000000000000E+20
  9
$PLIMMIN
 10
0.0
 20
0.0
  9
$PLIMMAX
 10
12.0
 20
9.0
  9
$UNITMODE
 70
     0
  9
$VISRETAIN
 70
     1
  9
$PLINEGEN
 70
     0
  9
$PSLTSCALE
 70
     1
  0
ENDSEC
  0
SECTION
  2
TABLES
  0
TABLE
  2
VPORT
 70
     1
  0
VPORT
  2
*ACTIVE
 70
     0
 10
0.0
 20
0.0
 11
1.0
 21
1.0
 12
55.97524192793913
 22
19.98884465470764
 13
0.0
 23
0.0
 14
0.5
 24
0.5
 15
0.5
 25
0.5
 16
0.0
 26
0.0
 36
1.0
 17
0.0
 27
0.0
 37
0.0
 40
58.15648186145809
 41
1.719679461484642
 42
50.0
 43
0.0
 44
0.0
 50
0.0
 51
0.0
 71
     0
 72
   100
 73
     1
 74
     3
 75
     0
 76
     0
 77
     0
 78
     0
  0
ENDTAB
  0
TABLE
  2
LTYPE
 70
     1
  0
LTYPE
  2
CONTINUOUS
 70
     0
  3
Solid line
 72
    65
 73
     0
 40
0.0
  0
ENDTAB
  0
TABLE
  2
LAYER
 70
     2
  0
LAYER
  2
0
 70
     0
 62
     7
  6
CONTINUOUS
  0
LAYER
  2
DEFAULT
 70
     0
 62
     7
  6
CONTINUOUS
  0
ENDTAB
  0
TABLE
  2
STYLE
 70
     1
  0
STYLE
  2
STANDARD
 70
     0
 40
0.0
 41
1.0
 50
0.0
 71
     0
 42
0.2
  3
txt
  4

  0
ENDTAB
  0
TABLE
  2
VIEW
 70
     0
  0
ENDTAB
  0
TABLE
  2
UCS
 70
     0
  0
ENDTAB
  0
TABLE
  2
APPID
 70
     1
  0
APPID
  2
ACAD
 70
     0
  0
ENDTAB
  0
TABLE
  2
DIMSTYLE
 70
     1
  0
DIMSTYLE
  2
STANDARD
 70
     0
  3

  4

  5

  6

  7

 40
1.0
 41
0.18
 42
0.0625
 43
0.38
 44
0.18
 45
0.0
 46
0.0
 47
0.0
 48
0.0
140
0.18
141
0.09
142
0.0
143
25.4
144
1.0
145
0.0
146
1.0
147
0.09
 71
     0
 72
     0
 73
     1
 74
     1
 75
     0
 76
     0
 77
     0
 78
     0
170
     0
171
     2
172
     0
173
     0
174
     0
175
     0
176
     0
177
     0
178
     0
  0
ENDTAB
  0
ENDSEC
  0
SECTION
  2
BLOCKS
  0
BLOCK
  8
0
  2
$MODEL_SPACE
 70
     0
 10
0.0
 20
0.0
 30
0.0
  3
$MODEL_SPACE
  1

  0
ENDBLK
  5
21
  8
0
  0
BLOCK
 67
     1
  8
0
  2
$PAPER_SPACE
 70
     0
 10
0.0
 20
0.0
 30
0.0
  3
$PAPER_SPACE
  1

  0
ENDBLK
  5
1D
 67
     1
  8
0
  0
BLOCK
  8
0
  2
TABS
 70
     0
 10
0.0
 20
0.0
 30
0.0
  3
TABS
  1

  0
LINE
  5
6C
  8
0
  6
BYBLOCK
 62
     0
 10
294.9999999999999
 20
9.26207508693457
 30
0.0
 11
298.45
 21
9.26207508693457
 31
0.0
  0
LINE
  5
6D
  8
0
  6
BYBLOCK
 62
     0
 10
298.45
 20
9.26207508693457
 30
0.0
 11
298.45
 21
4.262075086934569
 31
0.0
  0
LINE
  5
6E
  8
0
  6
BYBLOCK
 62
     0
 10
298.45
 20
4.262075086934569
 30
0.0
 11
294.9999999999999
 21
4.262075086934569
 31
0.0
  0
LINE
  5
6F
  8
0
  6
BYBLOCK
 62
     0
 10
294.9999999999999
 20
4.262075086934569
 30
0.0
 11
295.0
 21
2.168117214154552
 31
0.0
  0
LINE
  5
70
  8
0
  6
BYBLOCK
 62
     0
 10
295.0
 20
2.168117214154552
 30
0.0
 11
276.45
 21
10.400000461936
 31
0.0
  0
LINE
  5
71
  8
0
  6
BYBLOCK
 62
     0
 10
276.45
 20
10.400000461936
 30
0.0
 11
280.3284136315665
 21
10.400000461936
 31
0.0
  0
LINE
  5
72
  8
0
  6
BYBLOCK
 62
     0
 10
280.3284136315665
 20
10.400000461936
 30
0.0
 11
280.3284136315665
 21
13.850000461936
 31
0.0
  0
LINE
  5
73
  8
0
  6
BYBLOCK
 62
     0
 10
280.3284136315665
 20
13.850000461936
 30
0.0
 11
286.3284136315665
 21
13.850000461936
 31
0.0
  0
LINE
  5
74
  8
0
  6
BYBLOCK
 62
     0
 10
286.3284136315665
 20
13.850000461936
 30
0.0
 11
286.3284136315665
 21
10.400000461936
 31
0.0
  0
LINE
  5
75
  8
0
  6
BYBLOCK
 62
     0
 10
286.3284136315665
 20
10.400000461936
 30
0.0
 11
295.0
 21
10.400000461936
 31
0.0
  0
LINE
  5
76
  8
0
  6
BYBLOCK
 62
     0
 10
295.0
 20
10.400000461936
 30
0.0
 11
294.9999999999999
 21
9.26207508693457
 31
0.0
  0
ENDBLK
  5
78
  8
0
  0
BLOCK
  8
0
  2
MOTPLATEBACK
 70
     0
 10
0.0
 20
0.0
 30
0.0
  3
MOTPLATEBACK
  1

  0
LINE
  5
7E
  8
0
  6
BYBLOCK
 62
     0
 10
-89.000000461936
 20
298.45
 30
0.0
 11
-89.000000461936
 21
295.0
 31
0.0
  0
LINE
  5
7F
  8
0
  6
BYBLOCK
 62
     0
 10
-89.000000461936
 20
295.0
 30
0.0
 11
-75.000000461936
 21
295.0
 31
0.0
  0
LINE
  5
80
  8
0
  6
BYBLOCK
 62
     0
 10
-75.000000461936
 20
295.0
 30
0.0
 11
-75.000000461936
 21
298.45
 31
0.0
  0
LINE
  5
81
  8
0
  6
BYBLOCK
 62
     0
 10
-75.000000461936
 20
298.45
 30
0.0
 11
-66.00000046193601
 21
298.45
 31
0.0
  0
LINE
  5
82
  8
0
  6
BYBLOCK
 62
     0
 10
-66.00000046193601
 20
298.45
 30
0.0
 11
-66.00000046193601
 21
295.0
 31
0.0
  0
LINE
  5
83
  8
0
  6
BYBLOCK
 62
     0
 10
-66.00000046193601
 20
295.0
 30
0.0
 11
-63.00000046193601
 21
295.0
 31
0.0
  0
ARC
  5
84
  8
0
  6
BYBLOCK
 62
     0
 10
-63.00000046193602
 20
290.0
 30
0.0
 40
5.000000000000004
 50
0.0
 51
89.99999999999991
  0
LINE
  5
85
  8
0
  6
BYBLOCK
 62
     0
 10
-58.00000046193601
 20
290.0
 30
0.0
 11
-58.00000046193602
 21
273.45
 31
0.0
  0
ARC
  5
86
  8
0
  6
BYBLOCK
 62
     0
 10
-63.00000046193602
 20
273.45
 30
0.0
 40
5.000000000000001
 50
270.0000000000001
 51
0.0
  0
LINE
  5
87
  8
0
  6
BYBLOCK
 62
     0
 10
-63.00000046193601
 20
268.45
 30
0.0
 11
-101.000000461936
 21
268.45
 31
0.0
  0
ARC
  5
88
  8
0
  6
BYBLOCK
 62
     0
 10
-101.000000461936
 20
273.45
 30
0.0
 40
5.000000000000009
 50
180.0
 51
269.9999999999998
  0
LINE
  5
89
  8
0
  6
BYBLOCK
 62
     0
 10
-106.000000461936
 20
273.45
 30
0.0
 11
-106.000000461936
 21
290.0
 31
0.0
  0
ARC
  5
8A
  8
0
  6
BYBLOCK
 62
     0
 10
-101.000000461936
 20
290.0
 30
0.0
 40
5.000000000000002
 50
90.00000000000016
 51
180.0
  0
LINE
  5
8B
  8
0
  6
BYBLOCK
 62
     0
 10
-101.000000461936
 20
295.0
 30
0.0
 11
-98.00000046193601
 21
295.0
 31
0.0
  0
LINE
  5
8C
  8
0
  6
BYBLOCK
 62
     0
 10
-98.00000046193601
 20
295.0
 30
0.0
 11
-98.00000046193601
 21
298.45
 31
0.0
  0
LINE
  5
8D
  8
0
  6
BYBLOCK
 62
     0
 10
-98.00000046193601
 20
298.45
 30
0.0
 11
-89.000000461936
 21
298.45
 31
0.0
  0
LINE
  5
8E
  8
0
  6
BYBLOCK
 62
     0
 10
-88.00000046193601
 20
286.3284136315665
 30
0.0
 11
-91.45000046193601
 21
286.3284136315665
 31
0.0
  0
LINE
  5
8F
  8
0
  6
BYBLOCK
 62
     0
 10
-91.45000046193601
 20
286.3284136315665
 30
0.0
 11
-91.45000046193601
 21
280.3284136315665
 31
0.0
  0
LINE
  5
90
  8
0
  6
BYBLOCK
 62
     0
 10
-91.45000046193601
 20
280.3284136315665
 30
0.0
 11
-88.00000046193601
 21
280.3284136315665
 31
0.0
  0
LINE
  5
91
  8
0
  6
BYBLOCK
 62
     0
 10
-88.00000046193601
 20
280.3284136315665
 30
0.0
 11
-88.00000046193601
 21
286.3284136315665
 31
0.0
  0
CIRCLE
  5
92
  8
0
  6
BYBLOCK
 62
     0
 10
-101.000000461936
 20
273.45
 30
0.0
 40
2.1
  0
CIRCLE
  5
93
  8
0
  6
BYBLOCK
 62
     0
 10
-63.00000046193602
 20
273.45
 30
0.0
 40
2.1
  0
LINE
  5
94
  8
0
  6
BYBLOCK
 62
     0
 10
-72.55000046193602
 20
286.3284136315665
 30
0.0
 11
-76.00000046193601
 21
286.3284136315665
 31
0.0
  0
LINE
  5
95
  8
0
  6
BYBLOCK
 62
     0
 10
-76.00000046193601
 20
286.3284136315665
 30
0.0
 11
-76.00000046193601
 21
280.3284136315665
 31
0.0
  0
LINE
  5
96
  8
0
  6
BYBLOCK
 62
     0
 10
-76.00000046193601
 20
280.3284136315665
 30
0.0
 11
-72.55000046193602
 21
280.3284136315665
 31
0.0
  0
LINE
  5
97
  8
0
  6
BYBLOCK
 62
     0
 10
-72.55000046193602
 20
280.3284136315665
 30
0.0
 11
-72.55000046193602
 21
286.3284136315665
 31
0.0
  0
ENDBLK
  5
99
  8
0
  0
ENDSEC
  0
SECTION
  2
ENTITIES
  0
INSERT
  5
79
  8
DEFAULT
  2
TABS
 10
-266.0734065693341
 20
34.64692353662363
 30
0.0
  0
INSERT
  5
7A
  8
DEFAULT
  2
TABS
 10
-244.0394291208801
 20
34.64692353662363
 30
0.0
  0
INSERT
  5
7B
  8
DEFAULT
  2
TABS
 10
-244.0394291208801
 20
-10.68735190329892
 30
0.0
  0
INSERT
  5
7C
  8
DEFAULT
  2
TABS
 10
-266.0734065693341
 20
-10.68735190329892
 30
0.0
  0
INSERT
  5
9A
  8
DEFAULT
  2
MOTPLATEBACK
 10
112.9504838558783
 20
-261.4163132646643
 30
0.0
  0
LINE
  5
9B
  8
0
 10
76.00000046193601
 20
9.26207508693457
 30
0.0
 11
72.55000046193602
 21
9.26207508693457
 31
0.0
  0
LINE
  5
9C
  8
0
 10
72.55000046193602
 20
9.26207508693457
 30
0.0
 11
72.55000046193602
 21
4.262075086934569
 31
0.0
  0
LINE
  5
9D
  8
0
 10
72.55000046193602
 20
4.262075086934569
 30
0.0
 11
76.00000046193601
 21
4.262075086934569
 31
0.0
  0
LINE
  5
9E
  8
0
 10
76.00000046193601
 20
4.262075086934569
 30
0.0
 11
76.00000046193601
 21
9.26207508693457
 31
0.0
  0
LINE
  5
9F
  8
0
 10
91.45000046193601
 20
9.26207508693457
 30
0.0
 11
88.00000046193601
 21
9.26207508693457
 31
0.0
  0
LINE
  5
A0
  8
0
 10
88.00000046193601
 20
9.26207508693457
 30
0.0
 11
88.00000046193601
 21
4.262075086934569
 31
0.0
  0
LINE
  5
A1
  8
0
 10
88.00000046193601
 20
4.262075086934569
 30
0.0
 11
91.45000046193601
 21
4.262075086934569
 31
0.0
  0
LINE
  5
A2
  8
0
 10
91.45000046193601
 20
4.262075086934569
 30
0.0
 11
91.45000046193601
 21
9.26207508693457
 31
0.0
  0
LINE
  5
A3
  8
0
 10
88.00000046193601
 20
32.43792583693743
 30
0.0
 11
91.45000046193601
 21
32.43792583693743
 31
0.0
  0
LINE
  5
A4
  8
0
 10
91.45000046193601
 20
32.43792583693743
 30
0.0
 11
91.45000046193601
 21
37.43792583693743
 31
0.0
  0
LINE
  5
A5
  8
0
 10
91.45000046193601
 20
37.43792583693743
 30
0.0
 11
88.00000046193601
 21
37.43792583693743
 31
0.0
  0
LINE
  5
A6
  8
0
 10
88.00000046193601
 20
37.43792583693743
 30
0.0
 11
88.00000046193601
 21
32.43792583693743
 31
0.0
  0
LINE
  5
A7
  8
0
 10
72.55000046193602
 20
32.43792583693743
 30
0.0
 11
76.00000046193601
 21
32.43792583693743
 31
0.0
  0
LINE
  5
A8
  8
0
 10
76.00000046193601
 20
32.43792583693743
 30
0.0
 11
76.00000046193601
 21
37.43792583693743
 31
0.0
  0
LINE
  5
A9
  8
0
 10
76.00000046193601
 20
37.43792583693743
 30
0.0
 11
72.55000046193602
 21
37.43792583693743
 31
0.0
  0
LINE
  5
AA
  8
0
 10
72.55000046193602
 20
37.43792583693743
 30
0.0
 11
72.55000046193602
 21
32.43792583693743
 31
0.0
  0
LINE
  5
AB
  8
0
 10
89.000000461936
 20
27.850000461936
 30
0.0
 11
98.00000046193601
 21
27.850000461936
 31
0.0
  0
LINE
  5
AC
  8
0
 10
98.00000046193601
 20
27.850000461936
 30
0.0
 11
98.00000046193601
 21
31.300000461936
 31
0.0
  0
LINE
  5
AD
  8
0
 10
98.00000046193601
 20
31.300000461936
 30
0.0
 11
89.000000461936
 21
31.300000461936
 31
0.0
  0
LINE
  5
AE
  8
0
 10
89.000000461936
 20
31.300000461936
 30
0.0
 11
89.000000461936
 21
27.850000461936
 31
0.0
  0
LINE
  5
AF
  8
0
 10
66.00000046193601
 20
27.850000461936
 30
0.0
 11
75.000000461936
 21
27.850000461936
 31
0.0
  0
LINE
  5
B0
  8
0
 10
75.000000461936
 20
27.850000461936
 30
0.0
 11
75.000000461936
 21
31.300000461936
 31
0.0
  0
LINE
  5
B1
  8
0
 10
75.000000461936
 20
31.300000461936
 30
0.0
 11
66.00000046193601
 21
31.300000461936
 31
0.0
  0
LINE
  5
B2
  8
0
 10
66.00000046193601
 20
31.300000461936
 30
0.0
 11
66.00000046193601
 21
27.850000461936
 31
0.0
  0
LINE
  5
B3
  8
0
 10
75.000000461936
 20
13.850000461936
 30
0.0
 11
66.00000046193601
 21
13.850000461936
 31
0.0
  0
LINE
  5
B4
  8
0
 10
66.00000046193601
 20
13.850000461936
 30
0.0
 11
66.00000046193601
 21
10.400000461936
 31
0.0
  0
LINE
  5
B5
  8
0
 10
66.00000046193601
 20
10.400000461936
 30
0.0
 11
75.000000461936
 21
10.400000461936
 31
0.0
  0
LINE
  5
B6
  8
0
 10
75.000000461936
 20
10.400000461936
 30
0.0
 11
75.000000461936
 21
13.850000461936
 31
0.0
  0
LINE
  5
B7
  8
0
 10
98.00000046193601
 20
13.850000461936
 30
0.0
 11
89.000000461936
 21
13.850000461936
 31
0.0
  0
LINE
  5
B8
  8
0
 10
89.000000461936
 20
13.850000461936
 30
0.0
 11
89.000000461936
 21
10.400000461936
 31
0.0
  0
LINE
  5
B9
  8
0
 10
89.000000461936
 20
10.400000461936
 30
0.0
 11
98.00000046193601
 21
10.400000461936
 31
0.0
  0
LINE
  5
BA
  8
0
 10
98.00000046193601
 20
10.400000461936
 30
0.0
 11
98.00000046193601
 21
13.850000461936
 31
0.0
  0
CIRCLE
  5
BB
  8
0
 10
66.500000461936
 20
36.350000461936
 30
0.0
 40
1.499999999999998
  0
CIRCLE
  5
BC
  8
0
 10
66.50000046193601
 20
5.350000461935998
 30
0.0
 40
1.500000000000001
  0
CIRCLE
  5
BD
  8
0
 10
82.00000046193601
 20
20.850000461936
 30
0.0
 40
3.999999999999999
  0
CIRCLE
  5
BE
  8
0
 10
97.500000461936
 20
5.350000461936
 30
0.0
 40
1.500000000000004
  0
CIRCLE
  5
BF
  8
0
 10
97.500000461936
 20
36.350000461936
 30
0.0
 40
1.500000000000004
  0
ARC
  5
C0
  8
0
 10
62.00000046193601
 20
40.850000461936
 30
0.0
 40
2.999999999999999
 50
63.93616487338987
 51
206.0638351266103
  0
ARC
  5
C1
  8
0
 10
74.96148185875174
 20
67.35000046193602
 30
0.0
 40
26.50000000000002
 50
243.9361648733897
 51
269.9999999999999
  0
LINE
  5
C2
  8
0
 10
74.96148185875171
 20
40.850000461936
 30
0.0
 11
89.03851906512031
 21
40.85000046193601
 31
0.0
  0
ARC
  5
C3
  8
0
 10
89.03851906512033
 20
67.35000046193599
 30
0.0
 40
26.49999999999999
 50
269.9999999999999
 51
296.0638351266102
  0
ARC
  5
C4
  8
0
 10
102.000000461936
 20
40.850000461936
 30
0.0
 40
2.999999999999991
 50
333.9361648733897
 51
116.0638351266102
  0
ARC
  5
C5
  8
0
 10
128.500000461936
 20
27.88851906512031
 30
0.0
 40
26.50000000000001
 50
153.9361648733898
 51
180.0
  0
LINE
  5
C6
  8
0
 10
102.000000461936
 20
27.8885190651203
 30
0.0
 11
102.000000461936
 21
13.8114818587517
 31
0.0
  0
ARC
  5
C7
  8
0
 10
128.500000461936
 20
13.81148185875166
 30
0.0
 40
26.5
 50
179.9999999999999
 51
206.0638351266101
  0
ARC
  5
C8
  8
0
 10
102.000000461936
 20
0.8500004619359971
 30
0.0
 40
2.999999999999991
 50
243.9361648733898
 51
26.06383512661047
  0
ARC
  5
C9
  8
0
 10
89.03851906512031
 20
-25.649999538064
 30
0.0
 40
26.5
 50
63.93616487338977
 51
90.0
  0
LINE
  5
CA
  8
0
 10
89.0385190651203
 20
0.850000461935998
 30
0.0
 11
74.96148185875172
 21
0.8500004619359913
 31
0.0
  0
ARC
  5
CB
  8
0
 10
74.96148185875171
 20
-25.64999953806403
 30
0.0
 40
26.50000000000002
 50
89.99999999999997
 51
116.0638351266102
  0
ARC
  5
CC
  8
0
 10
62.000000461936
 20
0.850000461935998
 30
0.0
 40
2.999999999999998
 50
153.9361648733898
 51
296.0638351266102
  0
ARC
  5
CD
  8
0
 10
35.50000046193599
 20
13.81148185875173
 30
0.0
 40
26.50000000000001
 50
333.9361648733897
 51
359.9999999999999
  0
LINE
  5
CE
  8
0
 10
62.000000461936
 20
13.81148185875171
 30
0.0
 11
62.000000461936
 21
27.88851906512029
 31
0.0
  0
ARC
  5
CF
  8
0
 10
35.50000046193601
 20
27.88851906512031
 30
0.0
 40
26.49999999999999
 50
359.9999999999999
 51
26.06383512661021
  0
ENDSEC
  0
EOF
